<?xml version="1.0" encoding="UTF-8"?>
<svg id="Layer_2" data-name="Layer 2" xmlns="http://www.w3.org/2000/svg" viewBox="0 0 99.52 107.3">
  <defs>
    <style>
      .cls-1 {
        fill: none;
      }

      .cls-1, .cls-2, .cls-3 {
        stroke-width: 0px;
      }

      .cls-4 {
        fill: #fed16d;
        stroke: #fed16d;
        stroke-miterlimit: 10;
        stroke-width: .75px;
      }

      .cls-2 {
        fill: #5f6e7d;
      }

      .cls-3 {
        fill: #4e738a;
      }
    </style>
  </defs>
  <g id="Layer_1-2" data-name="Layer 1">
    <g>
      <path class="cls-1" d="M55.72,58.85c.25.68.54,1.56.86,2.64.32,1.07.44,1.99.38,2.74.54-.03,1.08-.06,1.62-.1.54-.03,1.08-.06,1.62-.1v2.15h-10.88v-1.61c1.2-.03,2-.31,2.38-.83.38-.52.52-1.14.43-1.86-.1-.72-.25-1.37-.48-1.95l-1.66-4.59-3.39.08h-.39s.11,50.85.11,50.85c13.91-.11,26.97-5.59,36.81-15.45,9.92-9.93,15.38-23.14,15.38-37.17s-5.47-27.27-15.41-37.21C73.19,6.55,60.05,1.08,46.07,1.03l.07,32.69.39,1.02,9.19,24.11Z"/>
      <path class="cls-4" d="M83.54,15.98C73.48,5.92,60.1.38,45.87.38h-.45s.07,31.63.07,31.63l.41,1.07.25.65-.07-32.69c13.98.05,27.11,5.52,37,15.41,9.94,9.94,15.41,23.15,15.41,37.21s-5.46,27.24-15.38,37.17c-9.84,9.86-22.9,15.33-36.81,15.45l-.11-50.84h-.25s-.4.02-.4.02l.11,51.16v.33s.33,0,.33,0c14.21-.03,27.56-5.58,37.59-15.64,10.04-10.06,15.57-23.42,15.57-37.63s-5.54-27.61-15.6-37.67Z"/>
      <path class="cls-3" d="M0,54.62c0,23.15,18.74,41.92,41.88,41.97l.09-41.08-4.99.12-1.71,5.23c-.23.78-.43,1.4-.61,1.86-.18.46-.38.96-.61,1.51.65-.03,1.29-.06,1.93-.1.64-.03,1.26-.06,1.88-.1v2.15h-9.14v-1.61c.98,0,1.73-.26,2.25-.78.52-.52.95-1.24,1.29-2.15.34-.91.74-1.97,1.2-3.18l8.56-23.3.05-22.51s-.06,0-.09,0C18.79,12.65,0,31.44,0,54.62Z"/>
      <path class="cls-2" d="M37.71,53.53h4.27l.03-12c-.27.72-.54,1.44-.82,2.18l-3.47,9.82Z"/>
      <path class="cls-3" d="M46.19,55.42h.39s3.39-.09,3.39-.09l1.66,4.59c.22.59.38,1.24.48,1.95.09.72-.05,1.34-.43,1.86-.38.52-1.17.8-2.38.83v1.61h10.88v-2.15c-.54.03-1.08.07-1.62.1-.54.03-1.08.07-1.62.1.06-.75-.06-1.66-.38-2.74-.32-1.08-.6-1.95-.86-2.64l-9.19-24.11-.39-1.02-.25-.65-.41-1.07-.36-.95h-1.14l-1.47,4.11v6.4c.06-.2.14-.44.21-.64.33-.91.66-1.82.97-2.74h.1c.35,1.01.7,2.01,1.07,3.01.36.98.71,1.97,1.06,2.97,0,.01,0,.02.01.03l.62,1.73,2.75,7.6h-6.83v1.99s3.06-.07,3.06-.07h.4s.25-.02.25-.02Z"/>
    </g>
  </g>
</svg>