<?xml version="1.0" encoding="UTF-8"?>
<svg id="Layer_2" data-name="Layer 2" xmlns="http://www.w3.org/2000/svg" viewBox="0 0 24.7 24.7">
  <defs>
    <style>
      .cls-1 {
        fill: #4e738a;
      }

      .cls-1, .cls-2 {
        stroke-width: 0px;
      }

      .cls-2 {
        fill: #ddecf9;
      }
    </style>
  </defs>
  <g id="Layer_1-2" data-name="Layer 1">
    <g>
      <circle class="cls-1" cx="12.35" cy="12.35" r="12.35"/>
      <path class="cls-2" d="M5.51,17.2c2.11-2.92,4.22-5.84,6.33-8.76l.9-1.24c.24-.33.05-.83-.27-1.03-.38-.23-.79-.06-1.03.27-2.11,2.92-4.22,5.84-6.33,8.76l-.9,1.24c-.24.33-.05.83.27,1.03.38.23.79.06,1.03-.27h0Z"/>
      <path class="cls-2" d="M20,16.45c-2.11-2.92-4.22-5.84-6.33-8.76-.3-.41-.6-.83-.9-1.24-.24-.33-.65-.48-1.03-.27-.33.19-.51.7-.27,1.03,2.11,2.92,4.22,5.84,6.33,8.76.3.41.6.83.9,1.24.24.33.65.48,1.03.27.33-.19.51-.7.27-1.03h0Z"/>
    </g>
  </g>
</svg>