<?xml version="1.0" encoding="UTF-8"?>
<svg id="Layer_2" data-name="Layer 2" xmlns="http://www.w3.org/2000/svg" viewBox="0 0 332.76 161.47">
  <defs>
    <style>
      .cls-1 {
        fill: #e7cd9c;
      }

      .cls-1, .cls-2, .cls-3, .cls-4, .cls-5, .cls-6, .cls-7, .cls-8 {
        stroke-width: 0px;
      }

      .cls-2 {
        fill: none;
      }

      .cls-3, .cls-9 {
        fill: #ceaa6f;
      }

      .cls-4 {
        fill: #abb36c;
      }

      .cls-9 {
        stroke: #000;
        stroke-miterlimit: 10;
        stroke-width: 1.77px;
      }

      .cls-5 {
        fill: #a3804d;
      }

      .cls-6 {
        fill: #000;
      }

      .cls-7 {
        fill: #92c7d3;
      }

      .cls-8 {
        fill: #abd7e5;
      }
    </style>
  </defs>
  <g id="Brand_Standard_Guid" data-name="Brand Standard Guid">
    <g>
      <g>
        <path class="cls-4" d="M106.28,77.46c-1.9,2.94-8.05,8.95-10.95,11.04-3.63,2.61-3.63,2.48-6.62,5.33.05.24.09.49.15.73,2.51,10.1,11.6,16.68,20.69,20.58,13.1,5.62,27.92,6.97,42.03,6.22,2.04-.11,4.09-.26,6.12-.47.64-.06,1.28-.13,1.91-.2.27-.03,1.17.02,1.37-.16.31-.27.13-.27,0-.58-.53-1.2-1.81-2.4-2.64-3.31-2.99-3.27-6.29-6.26-9.58-9.23-8.63-7.79-17.51-15.31-25.87-23.4-3.98-3.85-7.86-7.83-11.39-12.1-.41-.5-.82-1-1.22-1.51-1.14,2.33-2.47,4.67-4,7.04Z"/>
        <path class="cls-6" d="M104.88,76.64c-1.22,1.84-2.81,3.45-4.36,5.02-1.66,1.69-3.38,3.33-5.22,4.83-1.62,1.32-3.41,2.4-5.03,3.73-.79.64-1.52,1.34-2.26,2.04-.66.63-.97,1.07-.87,2.01.08.73.33,1.49.56,2.19,3.52,10.96,14.07,17.59,24.3,21.43,12.34,4.63,25.82,5.78,38.91,5.15,3.23-.16,6.47-.43,9.68-.75,1.22-.12,2.41-1,2.11-2.37s-1.57-2.63-2.48-3.6c-4.69-5.04-9.82-9.61-14.96-14.17-11.7-10.39-24.09-20.53-33.84-32.86-.63-.8-2.12-.54-2.55.33-1.2,2.42-2.54,4.76-4,7.04-1.13,1.76,1.68,3.39,2.8,1.64,1.46-2.27,2.8-4.61,4-7.04l-2.55.33c5.71,7.22,12.44,13.62,19.22,19.82s14.18,12.56,21.19,18.93c1.93,1.76,3.85,3.54,5.68,5.41.83.85,1.64,1.72,2.45,2.59.63.67,1.66,1.55,1.91,2.45l.42-1.58c.29-.36.43-.09-.08-.13-.25-.02-.55.04-.78.07-.71.07-1.43.15-2.14.22-1.49.14-2.98.26-4.48.35-2.9.17-5.81.26-8.72.24-5.67-.04-11.36-.45-16.95-1.43-10.03-1.76-20.62-5.17-28.42-11.98-3.93-3.43-7.18-7.91-8.15-13.12l-.42,1.58c2.87-2.74,6.21-4.8,9.17-7.42,3.12-2.76,6.34-5.79,8.65-9.28,1.16-1.75-1.65-3.38-2.8-1.64Z"/>
      </g>
      <g>
        <path class="cls-4" d="M231.89,77.46c1.9,2.94,8.05,8.95,10.95,11.04,3.63,2.61,3.63,2.48,6.62,5.33-.05.24-.09.49-.15.73-2.51,10.1-11.6,16.68-20.69,20.58-13.1,5.62-27.92,6.97-42.03,6.22-2.04-.11-4.09-.26-6.12-.47-.64-.06-1.28-.13-1.91-.2-.27-.03-1.17.02-1.37-.16-.31-.27-.13-.27,0-.58.53-1.2,1.81-2.4,2.64-3.31,2.99-3.27,6.29-6.26,9.58-9.23,8.63-7.79,17.51-15.31,25.87-23.4,3.98-3.85,7.86-7.83,11.39-12.1.41-.5.82-1,1.22-1.51,1.14,2.33,2.47,4.67,4,7.04Z"/>
        <path class="cls-6" d="M230.49,78.28c2.31,3.49,5.54,6.52,8.65,9.28s6.3,4.68,9.17,7.42l-.42-1.58c-1.77,9.48-10.36,15.87-18.59,19.68-10.24,4.74-21.71,6.57-32.92,6.83-3.11.07-6.23.02-9.34-.13-1.72-.09-3.44-.2-5.15-.36-.79-.07-1.58-.15-2.37-.23-.35-.04-.7-.09-1.05-.11-.11,0-.23-.01-.34-.01-.39-.05-.37,0,.05.13l.42,1.58c.19-.67.9-1.36,1.37-1.88.76-.84,1.54-1.66,2.32-2.48,1.59-1.66,3.25-3.25,4.94-4.81,3.44-3.18,6.96-6.29,10.47-9.4,7.07-6.25,14.17-12.49,20.88-19.13,3.68-3.65,7.24-7.44,10.46-11.51l-2.55-.33c1.2,2.42,2.54,4.76,4,7.04,1.13,1.75,3.94.13,2.8-1.64-1.46-2.27-2.8-4.61-4-7.04-.43-.87-1.92-1.12-2.55-.33-8.67,10.96-19.48,20.16-29.91,29.38-5.23,4.62-10.57,9.18-15.51,14.11-1.16,1.15-2.27,2.35-3.38,3.55-.91.98-2.17,2.24-2.48,3.6s.9,2.25,2.11,2.37c1.59.16,3.19.29,4.78.42,13.13,1.11,26.71.52,39.38-3.33,10.51-3.19,21.93-8.91,27.15-19.12.74-1.44,1.35-2.97,1.8-4.52.2-.7.54-1.61.34-2.33s-1.01-1.28-1.53-1.77c-1.82-1.69-3.84-3.05-5.83-4.53s-3.78-3.21-5.52-4.95-3.5-3.48-4.85-5.51c-1.15-1.74-3.96-.11-2.8,1.64Z"/>
      </g>
      <g>
        <path class="cls-4" d="M104.88,54.04c-.02-3.22,1.31-6.19,3.63-8.48-1.02-2.72-2.61-5.45-4.75-8.16-7.55-9.55-18.15-12.97-29.09-9.39-12.04,3.94-21.09,15.33-21.52,27.07-.16,4.45-5.03,13.18-9.1,17.71-9.08,10.09-14.87,22.66-22.38,37.44-5.63,11.08-10.49,20.65-14.96,26.4-.98,1.26-1.45,2.72-1.33,4.12.04.48.12.76.17.9.03,0,.06,0,.08,0,1.91,0,7.5-3.82,10.55-5.91,6.69-4.57,10.96-7.33,14.47-6.3,27.28,8.88,49.29,8.75,63.74-.36,11.05-6.96,17.8-19.16,20.07-36.28.47-3.57-.43-13.32-1.31-16.91-1.43-5.82-1.52-5.73-2.1-11.49-3.87-2.45-6.16-6.22-6.18-10.36ZM33.78,128.87c-4.15.84-6.73-3.32,1.81-4.5,35.79-9.81,55.51-29.28,44.07-51.59,12.69,3.92,17.73,43.69-45.89,56.09ZM93.48,53.2c-3.37,0-6.11-2.74-6.11-6.11,0-3.37,2.74-6.11,6.11-6.11s6.11,2.74,6.11,6.11c0,3.37-2.74,6.11-6.11,6.11Z"/>
        <path class="cls-1" d="M123.73,54.17c-2.36.83-4.92,1.22-7.29,1.51-2.74.33-5.82.62-8.66.21.61,2.73,2.5,5.1,5.45,6.7,1.76-.77,5.33-2.86,10.49-8.42Z"/>
        <path class="cls-1" d="M116.18,54.13c3.22-.37,6.84-.98,9.7-2.7-3.38-2.55-7.9-4.58-13-5.85-3.36,1.87-5.34,4.99-5.33,8.44,0,.08.02.16.02.24,2.78.5,5.88.18,8.6-.14Z"/>
        <path class="cls-6" d="M128.75,50.29c-3.77-3.25-9.28-5.87-15.53-7.38-1.22-2.98-2.96-5.93-5.26-8.84-9.02-11.41-21.77-15.48-34.96-11.16-14.1,4.62-24.7,18.06-25.21,31.97-.14,3.93-5.52,11.86-7.73,14.32-9.55,10.61-15.51,23.52-23.17,38.6-5.28,10.39-10.26,20.19-14.42,25.53h0c-1.81,2.33-2.68,5.13-2.43,7.88.29,3.28,1.85,4.68,3.12,5.27.73.35,1.51.5,2.34.5,3.74,0,8.44-3.21,13.73-6.83,3.16-2.16,8.49-5.76,9.85-5.61,8.01,2.61,15.6,4.43,22.74,5.54.01.15.03.3.07.45,1.29,4.91,2.58,9.82,3.87,14.73-2.59,0-5.17,0-7.76,0h-3.31c-2.85,0-2.86,4.43,0,4.43,7.81,0,15.62,0,23.42,0,1.1,0,2.21,0,3.31,0,2.85,0,2.85-4.43,0-4.43-3.72,0-7.44,0-11.16,0-1.2-4.58-2.41-9.16-3.61-13.74-.07-.27-.14-.55-.22-.82,6.2.69,12.02.79,17.43.29.04.12.05.24.1.36,1.88,4.44,3.77,8.89,5.65,13.33.07.16.14.33.21.49h-.82c-2.96,0-2.97,4.61,0,4.61,5.84,0,11.67,0,17.51,0,.83,0,1.65,0,2.48,0,2.96,0,2.97-4.61,0-4.61-4.92,0-9.83,0-14.75,0-.04-.24-.1-.48-.2-.71-1.88-4.44-3.77-8.89-5.65-13.33-.1-.22-.19-.45-.28-.67,7.24-1.14,13.67-3.41,19.15-6.87,12.46-7.85,20.04-21.34,22.53-40.11.56-4.23-.38-14.66-1.42-18.89-1.34-5.47-1.41-5.13-1.97-10.68,3.71-2.23,8.14-6.32,12.59-11.7l.76-1.08-.99-.86ZM114.47,92.8c-2.27,17.11-9.02,29.32-20.07,36.28-14.45,9.1-36.46,9.24-63.74.36-3.5-1.02-7.77,1.73-14.47,6.3-3.06,2.09-8.64,5.91-10.55,5.91-.03,0-.06,0-.08,0-.05-.14-.13-.42-.17-.9-.12-1.4.35-2.86,1.33-4.12,4.47-5.75,9.33-15.32,14.96-26.4,7.51-14.78,13.3-27.35,22.38-37.44,4.07-4.53,8.94-13.26,9.1-17.71.43-11.74,9.48-23.13,21.52-27.07,10.94-3.58,21.54-.16,29.09,9.39,2.15,2.71,3.73,5.44,4.75,8.16-2.32,2.29-3.65,5.26-3.63,8.48.02,4.14,2.31,7.91,6.18,10.36.58,5.76.68,5.68,2.1,11.49.88,3.59,1.78,13.34,1.31,16.91ZM107.56,54.02c-.02-3.45,1.96-6.57,5.33-8.44,5.09,1.27,9.61,3.3,13,5.85-2.86,1.72-6.48,2.33-9.7,2.7-2.72.31-5.82.63-8.6.14,0-.08-.02-.16-.02-.24ZM113.24,62.59c-2.95-1.6-4.84-3.97-5.45-6.7,2.84.41,5.92.12,8.66-.21,2.36-.28,4.93-.68,7.29-1.51-5.16,5.56-8.73,7.65-10.49,8.42Z"/>
        <path class="cls-6" d="M79.67,72.78c11.44,22.31-8.28,41.78-44.07,51.59-8.54,1.18-5.96,5.34-1.81,4.5,63.62-12.4,58.58-52.17,45.89-56.09Z"/>
        <path class="cls-6" d="M93.48,40.98c-3.37,0-6.11,2.74-6.11,6.11,0,3.37,2.74,6.11,6.11,6.11s6.11-2.74,6.11-6.11c0-3.37-2.74-6.11-6.11-6.11Z"/>
      </g>
      <g>
        <g>
          <path class="cls-4" d="M222.48,66.74c-.58,5.72-.67,5.64-2.09,11.41-.87,3.56-1.77,13.25-1.3,16.79,2.25,16.99,8.96,29.11,19.93,36.02,14.35,9.04,36.21,9.17,63.29.35,3.48-1.02,7.72,1.72,14.36,6.26,3.04,2.08,8.58,5.87,10.48,5.87.03,0,.06,0,.08,0,.05-.14.13-.41.17-.89.12-1.39-.35-2.84-1.32-4.09-4.44-5.71-9.27-15.21-14.86-26.21-7.46-14.68-13.21-27.16-22.22-37.18-4.04-4.49-8.88-13.16-9.04-17.58-.42-11.66-9.41-22.97-21.37-26.88-10.86-3.56-21.39-.16-28.88,9.33-2.13,2.69-3.7,5.41-4.72,8.1,2.31,2.28,3.62,5.22,3.61,8.42-.02,4.11-2.29,7.85-6.14,10.29ZM253.65,75.06c-11.36,22.15,8.23,41.49,43.77,51.23,8.48,1.17,5.92,5.31,1.8,4.47-63.17-12.32-58.17-51.8-45.57-55.7ZM233.87,49.55c0-3.35,2.72-6.07,6.07-6.07s6.07,2.72,6.07,6.07c0,3.35-2.72,6.07-6.07,6.07-3.35,0-6.07-2.72-6.07-6.07Z"/>
          <path class="cls-1" d="M209.89,56.58c2.34.82,4.89,1.21,7.23,1.5,2.72.33,5.78.62,8.6.21-.61,2.71-2.49,5.06-5.42,6.66-1.75-.76-5.29-2.84-10.42-8.36Z"/>
          <path class="cls-1" d="M217.4,56.54c-3.19-.36-6.8-.97-9.63-2.68,3.36-2.53,7.85-4.55,12.9-5.81,3.34,1.86,5.31,4.96,5.29,8.38,0,.08-.02.16-.02.24-2.76.49-5.84.17-8.54-.13Z"/>
          <path class="cls-6" d="M203.93,53.58l.75,1.07c4.42,5.35,8.81,9.41,12.5,11.62-.56,5.51-.62,5.17-1.95,10.6-1.03,4.21-1.96,14.56-1.41,18.76,2.47,18.63,10,32.03,22.37,39.83,5.45,3.43,11.83,5.69,19.02,6.82-.09.22-.19.45-.28.67-1.87,4.41-3.74,8.83-5.61,13.24-.1.23-.16.47-.19.7h-14.65c-2.95,0-2.94,4.57,0,4.57h2.46c5.8,0,11.59,0,17.39,0,2.95,0,2.94-4.57,0-4.57h-.82c.07-.16.14-.33.21-.49,1.87-4.41,3.74-8.83,5.61-13.24.05-.12.06-.24.1-.36,5.37.5,11.15.4,17.3-.29-.07.27-.14.55-.21.82-1.19,4.55-2.39,9.1-3.59,13.65-3.69,0-7.39,0-11.08,0-2.83,0-2.83,4.4,0,4.4,1.1,0,2.19,0,3.29,0,7.75,0,15.51,0,23.26,0,2.84,0,2.83-4.4,0-4.4-1.1,0-2.19,0-3.29,0-2.57,0-5.14,0-7.7,0,1.28-4.88,2.56-9.75,3.84-14.63.04-.16.06-.3.07-.45,7.1-1.1,14.63-2.91,22.59-5.5,1.35-.15,6.65,3.42,9.78,5.57,5.25,3.59,9.92,6.78,13.63,6.78.82,0,1.6-.16,2.32-.5,1.26-.59,2.81-1.98,3.1-5.24.24-2.73-.62-5.51-2.42-7.82h0c-4.13-5.3-9.08-15.04-14.32-25.36-7.61-14.97-13.53-27.79-23.01-38.33-2.19-2.43-7.53-10.31-7.68-14.22-.5-13.81-11.03-27.16-25.03-31.75-13.1-4.29-25.75-.25-34.72,11.08-2.28,2.89-4.01,5.82-5.22,8.78-6.2,1.5-11.68,4.1-15.42,7.33l-.99.85ZM220.39,78.15c1.42-5.77,1.51-5.69,2.09-11.41,3.85-2.44,6.11-6.18,6.14-10.29.02-3.2-1.3-6.14-3.61-8.42,1.02-2.7,2.59-5.41,4.72-8.1,7.5-9.48,18.02-12.88,28.88-9.33,11.96,3.91,20.94,15.22,21.37,26.88.16,4.42,5,13.09,9.04,17.58,9.01,10.02,14.76,22.5,22.22,37.18,5.59,11,10.42,20.51,14.86,26.21.97,1.25,1.44,2.7,1.32,4.09-.04.48-.12.75-.17.89-.03,0-.06,0-.08,0-1.9,0-7.44-3.79-10.48-5.87-6.65-4.54-10.89-7.27-14.36-6.26-27.09,8.82-48.95,8.69-63.29-.35-10.97-6.91-17.68-19.03-19.93-36.02-.47-3.54.43-13.23,1.3-16.79ZM225.94,56.68c-2.76.49-5.84.17-8.54-.13-3.19-.36-6.8-.97-9.63-2.68,3.36-2.53,7.85-4.55,12.9-5.81,3.34,1.86,5.31,4.96,5.29,8.38,0,.08-.02.16-.02.24ZM209.89,56.58c2.34.82,4.89,1.21,7.23,1.5,2.72.33,5.78.62,8.6.21-.61,2.71-2.49,5.06-5.42,6.66-1.75-.76-5.29-2.84-10.42-8.36Z"/>
          <path class="cls-6" d="M253.65,75.06c-11.36,22.15,8.23,41.49,43.77,51.23,8.48,1.17,5.92,5.31,1.8,4.47-63.17-12.32-58.17-51.8-45.57-55.7Z"/>
          <path class="cls-6" d="M239.94,43.48c3.35,0,6.07,2.72,6.07,6.07,0,3.35-2.72,6.07-6.07,6.07-3.35,0-6.07-2.72-6.07-6.07,0-3.35,2.72-6.07,6.07-6.07Z"/>
        </g>
        <g>
          <g>
            <path class="cls-3" d="M220,29.36c27.4,2.69,66.91,19.17,72.79,24.04,4.54,1.18,1.51-2.52.84-6.89,7.73-36.82-43.54-65.23-62.2-22.53-7.57-.34-15.3,2.69-11.43,5.38Z"/>
            <path class="cls-6" d="M220,32.02c13.69,1.37,27.51,5.44,40.6,9.99,3.13,1.09,6.25,2.23,9.34,3.43,2.75,1.07,5.56,2.21,8.01,3.27,3.94,1.7,7.92,3.46,11.6,5.69.33.2.65.4.96.61s.95.71.25.16c1.44,1.14,3.85,1.58,5.51.56,3.44-2.11.41-7.07-.07-9.93v1.42c2.92-14.14-2.19-28.88-13.24-38.2-10.16-8.58-24.47-12.05-36.74-5.88-7.96,4-13.57,11.51-17.09,19.51l2.3-1.32c-4-.14-8.58.31-12.14,2.31-1.32.74-2.53,1.87-2.88,3.4-.44,1.98.74,3.51,2.25,4.63,1.16.86,2.97.19,3.64-.95.79-1.36.2-2.78-.95-3.64.32.24-.1-.28.05.04.12.27.25.49.24.8,0,.11-.21.88-.16.63.1-.16.06-.11-.13.15l.15-.15.17-.15c-.19.15-.2.17-.04.06.2-.12.39-.24.6-.34.44-.23.68-.3,1.16-.46,2.6-.85,5.32-1.08,8.04-.99.85.03,1.94-.51,2.3-1.32.93-2.11,1.98-4.17,3.19-6.13,1.09-1.77,2.06-3.13,3.32-4.58s2.51-2.68,3.93-3.85c.65-.53.82-.66,1.69-1.25.71-.48,1.44-.93,2.2-1.34.7-.38,1.41-.73,2.14-1.05.42-.19-.58.22.12-.05.15-.06.29-.12.44-.17.44-.17.87-.32,1.32-.46.73-.24,1.47-.44,2.22-.61.37-.08.74-.16,1.12-.23.19-.03.37-.07.56-.1.13-.02.96-.13.31-.05,1.5-.18,3.01-.24,4.52-.18.76.03,1.51.1,2.26.18s-.56-.09.19.03c.15.02.3.05.45.07.45.07.9.16,1.34.25,1.5.32,2.97.74,4.41,1.27.36.13.72.27,1.08.42.72.29-.49-.22.22.09.14.06.28.13.42.19.78.35,1.55.74,2.3,1.14,1.42.77,2.78,1.64,4.09,2.58.16.12.32.24.48.35.61.46-.24-.19.12.09.31.25.62.5.93.75.64.54,1.27,1.1,1.87,1.68,4.74,4.54,8.06,10.03,9.72,16.35,1,3.84,1.3,7.3.91,11.55-.11,1.18-.15,1.45-.38,2.7-.17.9-.28,1.66-.11,2.58.11.61.27,1.22.44,1.82.3,1.03.58,2.15.98,3.15.2.49.09-.15.02,0,0,.08.01.17,0,.26,0-.66.32-1.19.95-1.6.2-.11.5-.11.68-.21-.28-.02-.3-.01-.06.02-.22-.04-.44-.09-.66-.15l1.17.68c-2.21-1.81-4.81-3.09-7.35-4.34-4.29-2.1-8.69-3.97-13.12-5.75-11.11-4.46-22.53-8.27-34.15-11.13-6.6-1.63-13.29-2.92-20.05-3.6-1.43-.14-2.66,1.33-2.66,2.66,0,1.56,1.23,2.52,2.66,2.66Z"/>
          </g>
          <path class="cls-6" d="M231.38,24.09c4.34.32,8.66.82,12.95,1.52,0-.13,0-.25.03-.39,1.77-5.96,5.2-11.18,10.15-14.97,3.75-2.86,8.19-4.82,12.8-5.8,1.67-.36,2.38,2.21.71,2.57-4.23.9-8.26,2.63-11.74,5.21-4.58,3.39-7.73,8.26-9.35,13.69-.01.04-.04.06-.06.1,8.24,1.5,16.32,3.8,24.03,7.18,7.7,3.38,14.6,7.95,21.47,12.73,1.4.97.07,3.28-1.34,2.3-6.59-4.59-13.2-9-20.55-12.32-12.3-5.56-25.71-8.19-39.11-9.17-1.7-.12-1.71-2.79,0-2.66Z"/>
        </g>
        <path class="cls-9" d="M275.68,122.32c10.22,4.08-29.66,4.48-52.63-5.36-1.41-3.43-1.99-7.78-.83-8.36,9.28-1.48,29.65,2.47,35.52,4.23,5.87,4.38,9.02,5.93,17.94,9.49Z"/>
        <g>
          <path class="cls-2" d="M247.03,111.96c-.73.81-.57,3.49-.45,6.98-.05-3.12-.05-5.83.45-6.98Z"/>
          <path class="cls-2" d="M247.03,111.96c-3-.07-7.03-.39-10.77-.95,4.14.93,8.48,1.54,10.77.95Z"/>
          <path class="cls-2" d="M246.65,123.79c-.05,2.73-.3,5.63-1.04,8.36.86-1.67,1.05-4.91,1.04-8.36Z"/>
          <g>
            <path class="cls-3" d="M245.41,132.54c.07-.11.13-.26.2-.39.74-2.73,1-5.62,1.04-8.36,0-1.63-.04-3.29-.07-4.86-.13-3.48-.28-6.16.45-6.98-2.29.59-6.63-.02-10.77-.95-4.44-.67-8.47-1.68-9.84-3.02-2.4,5.43-1.02,20.79-.59,21.83,2.62,2.11,13.92,6.19,19.5,3.36,0,0,0-.02,0-.03-.18-.03-.18-.23.08-.61Z"/>
            <path class="cls-6" d="M246.56,133.21c.87-1.69,1.02-3.84,1.21-5.7.2-1.98.22-3.96.19-5.94s-.11-3.78-.15-5.67c-.02-.92-.24-2.46.36-3.26.76-.99-.49-2.19-1.5-1.96-3.34.77-7.03-.4-10.3-.98-1.83-.33-3.66-.62-5.46-1.11-1.19-.33-2.62-.68-3.56-1.53-.56-.51-1.73-.56-2.09.27-1.22,2.86-1.42,6.09-1.52,9.16-.11,3.27,0,6.56.28,9.82.09,1.07.19,2.15.37,3.21.17,1,.71,1.5,1.57,2.02,2.78,1.68,6.1,2.71,9.26,3.36,2.08.43,4.24.7,6.36.55,1.33-.09,4.59-.34,5.03-1.93.17-.63-.14-1.14-.61-1.5l-.11-.09.66,1.15.02.15c.82-1.5-1.47-2.85-2.3-1.34-.52.95-.49,1.76.39,2.43l-.61-1.5v.03c.2-.27.4-.53.6-.8-2.72,1.32-6.2.83-9.04.22s-5.59-1.47-8.05-2.88c-.18-.1-.37-.26-.56-.34-.66-.28.29-.01.08.35.05-.09-.12-.6-.13-.7-.1-.65-.2-1.76-.27-2.61-.23-2.84-.34-5.69-.29-8.53s.04-6.19,1.19-8.87l-2.09.27c2.61,2.37,6.89,2.74,10.19,3.33,3.78.67,7.87,1.87,11.72.98l-1.5-1.96c-.65.86-.69,2.13-.72,3.16-.06,1.78.08,3.57.11,5.35.04,1.95.09,3.89-.01,5.84-.05.98-.13,1.95-.27,2.92-.14,1.04-.24,2.37-.72,3.31-.78,1.52,1.51,2.87,2.3,1.34Z"/>
          </g>
          <g>
            <path class="cls-3" d="M247.03,111.96c-.49,1.15-.5,3.86-.45,6.98.03,1.57.07,3.23.07,4.86,0,3.45-.18,6.69-1.04,8.36-.07.13-.12.28-.2.39-.26.38-.26.58-.08.61,1.16.21,10.44-7.32,9.45-24.55-2.42,2.25-5.29,3.12-7.75,3.35Z"/>
            <path class="cls-6" d="M245.74,111.61c-.74,1.95-.53,4.37-.51,6.41.03,2.77.14,5.54.04,8.31-.04,1.15-.1,2.32-.32,3.45-.19,1.01-.73,1.78-1.01,2.74-.39,1.36.9,2.24,2.09,1.86,1.55-.5,2.88-2.04,3.87-3.26,1.89-2.33,3.29-4.99,4.3-7.81,1.68-4.69,2.16-9.75,1.9-14.69-.06-1.17-1.4-1.73-2.27-.94-1.9,1.71-4.27,2.7-6.81,2.96-1.69.18-1.7,2.84,0,2.66,3.28-.34,6.23-1.53,8.69-3.74l-2.27-.94c.32,6.15-.53,12.52-3.62,17.94-.86,1.51-1.88,2.94-3.13,4.15-.22.22-.46.43-.7.63-.22.18-.07.09-.42.3-.15.09-.34.17-.48.27.34-.27.19-.02.06-.04.06,0,.51-.11.72.06l.66,1.15c-.04.4.3-.42.33-.48.13-.28.24-.56.34-.85.25-.75.38-1.55.48-2.33.28-2.08.3-4.19.29-6.28s-.08-4.15-.09-6.22c0-1.48-.12-3.18.42-4.59.61-1.6-1.96-2.3-2.57-.71Z"/>
          </g>
          <g>
            <path class="cls-5" d="M236.25,111.01c3.74.56,7.77.88,10.77.95,2.46-.23,5.33-1.1,7.75-3.35-5.86-4.24-14.36-4.24-21.52-4.29-2.37.04-5.01,1.38-6.85,3.68,1.38,1.35,5.4,2.36,9.84,3.02Z"/>
            <path class="cls-6" d="M235.9,112.29c3.58.53,7.31,1.05,10.94.99,3.27-.05,6.48-1.59,8.87-3.74.69-.62.39-1.63-.27-2.09-4.45-3.14-10.01-4.02-15.33-4.32-2.56-.14-5.35-.42-7.89-.06-2.67.37-5.05,1.93-6.75,3.97-.44.53-.57,1.36,0,1.88,2.63,2.39,7.09,2.85,10.43,3.36,1.68.26,2.4-2.31.71-2.57-1.91-.29-3.83-.63-5.69-1.15-1.19-.33-2.62-.68-3.56-1.53v1.88c1.48-1.77,3.52-3.22,5.91-3.29s4.85.03,7.26.18c4.75.29,9.62,1.13,13.59,3.93l-.27-2.09c-2.1,1.89-4.9,3.04-7.74,2.94-3.17-.12-6.35-.41-9.49-.87-1.68-.25-2.4,2.32-.71,2.57Z"/>
          </g>
        </g>
      </g>
      <g>
        <g>
          <polygon class="cls-8" points="116.75 86.02 118.74 79.09 115.04 74.22 107.24 75.88 103.67 81.45 108.19 89.12 116.75 86.02"/>
          <path class="cls-6" d="M118.75,86.57c.55-1.91,1.1-3.83,1.65-5.74.28-.96.68-1.92.08-2.87-.54-.84-1.23-1.62-1.84-2.42s-1.2-1.58-1.8-2.37-1.35-1.16-2.34-.95c-2.12.45-4.24.9-6.35,1.36-1.1.23-2.01.29-2.72,1.32-.61.89-1.17,1.82-1.75,2.73s-1.19,1.86-1.79,2.78c-.39.61-.36,1.47,0,2.09,1.51,2.56,3.01,5.11,4.52,7.67.43.74,1.49,1.26,2.34.95,2.85-1.03,5.71-2.07,8.56-3.1,1.05-.38,1.76-1.41,1.45-2.55-.28-1.01-1.49-1.83-2.55-1.45-2.85,1.03-5.71,2.07-8.56,3.1l2.34.95c-1.51-2.56-3.01-5.11-4.52-7.67v2.09c1.19-1.86,2.38-3.71,3.57-5.57l-1.24.95c2.6-.55,5.2-1.11,7.8-1.66l-2.34-.95c1.23,1.62,2.47,3.25,3.7,4.87l-.21-1.6c-.66,2.31-1.33,4.62-1.99,6.93-.31,1.07.38,2.25,1.45,2.55s2.24-.37,2.55-1.45Z"/>
        </g>
        <g>
          <polygon class="cls-8" points="116.7 87.43 108.08 90.49 103.22 123.69 111.86 134.4 119.85 118.57 116.7 87.43"/>
          <path class="cls-6" d="M116.15,85.44c-2.87,1.02-5.75,2.04-8.62,3.05-.63.22-1.34.72-1.45,1.45-.95,6.51-1.91,13.03-2.86,19.54-.55,3.76-1.1,7.52-1.65,11.29-.11.77-.23,1.54-.34,2.31-.22,1.52.85,2.48,1.73,3.57,2.48,3.07,4.96,6.15,7.44,9.22.82,1.01,2.7.69,3.25-.42,1.5-2.97,3-5.94,4.49-8.91l2.76-5.47c.4-.79,1.02-1.72,1-2.62-.05-2.81-.57-5.68-.85-8.47-.47-4.61-.93-9.23-1.4-13.84-.29-2.9-.59-5.8-.88-8.71-.11-1.11-.87-2.07-2.07-2.07-1.03,0-2.18.95-2.07,2.07.92,9.09,1.83,18.17,2.75,27.26.13,1.29.26,2.59.39,3.88l.28-1.05c-2.66,5.28-5.32,10.55-7.98,15.83l3.25-.42c-2.88-3.57-5.76-7.14-8.65-10.72l.53,2.02c1.42-9.69,2.84-19.38,4.26-29.08.2-1.37.4-2.75.6-4.12l-1.45,1.45c2.87-1.02,5.75-2.04,8.62-3.05,2.5-.88,1.42-4.89-1.1-4Z"/>
        </g>
      </g>
      <g>
        <g>
          <path class="cls-8" d="M160.96,82.42c-15.58,14.99-8.08,31.35-27.41,47.92,6.7,7.1,26.68,17.16,37.79,18.14,20.69-12.48,12.88-38.06,25.51-53.64-12.82-9.27-35.89-12.42-35.89-12.42Z"/>
          <path class="cls-6" d="M159.5,80.95c-5.28,5.14-8.66,11.4-10.97,18.33-2.12,6.35-3.69,12.86-7.12,18.68-2.46,4.17-5.67,7.75-9.32,10.9-.86.74-.73,2.17,0,2.93,4.63,4.85,10.92,8.33,16.86,11.29,6.43,3.2,13.41,6.22,20.57,7.24.95.13,1.97.4,2.87-.06s1.81-1.16,2.65-1.78c1.51-1.13,2.94-2.35,4.23-3.73,2.36-2.52,4.29-5.44,5.75-8.57,2.89-6.2,4.14-12.93,5.52-19.58,1.47-7.07,3.15-14.52,7.77-20.29.89-1.11.75-2.42-.42-3.25-5.4-3.87-11.74-6.4-18.04-8.39-5-1.58-10.11-2.81-15.27-3.74-1.02-.18-2.05-.36-3.08-.51-1.11-.15-2.22.27-2.55,1.45-.27.97.33,2.39,1.45,2.55,8.76,1.2,17.67,3.5,25.8,6.95,3.36,1.43,6.62,3.13,9.59,5.26l-.42-3.25c-5.02,6.27-7.12,13.94-8.74,21.67-1.57,7.48-2.81,15.31-6.75,21.99-2.36,4-5.64,7.24-9.6,9.65l1.05-.28c-5.01-.47-10.26-2.41-14.96-4.41-5.38-2.3-10.62-5.04-15.46-8.32-2.1-1.42-4.14-2.96-5.9-4.8v2.93c6.16-5.33,10.7-11.84,13.6-19.44,2.32-6.07,3.59-12.55,6.46-18.41,1.86-3.79,4.32-7.13,7.34-10.07,1.92-1.86-1.02-4.79-2.93-2.93Z"/>
        </g>
        <g>
          <path class="cls-8" d="M197.64,94.96c-2.7,1.24-4.61,6.25-4.41,7.04.58.75.5,1,5.47,1.71,2.28-.36,1.71-5.05-1.07-8.75Z"/>
          <path class="cls-6" d="M196.6,93.18c-.99.47-1.84,1.27-2.51,2.12-.72.92-1.35,1.89-1.84,2.95-.39.83-.79,1.72-.97,2.63-.11.54-.19,1.09-.05,1.63.13.47.43.85.74,1.22.85,1.02,2.25,1.32,3.49,1.55.58.11,1.16.2,1.74.29.49.07,1.01.19,1.51.21.47.02,1.04-.2,1.45-.4,1.02-.52,1.71-1.63,1.9-2.74.54-3.05-.84-6.31-2.63-8.72-.33-.45-.68-.8-1.24-.95-.5-.14-1.16-.07-1.6.21-.86.55-1.43,1.9-.74,2.83.62.84,1.15,1.74,1.58,2.69.16.35-.12-.3-.03-.06.04.1.08.2.12.31.08.22.15.44.22.66.13.42.2.84.29,1.26.06.25-.05-.52-.02-.17,0,.1.02.21.03.31,0,.16.01.33,0,.49,0,.09-.01.19-.02.28-.02.33.09-.48.04-.24-.04.15-.07.29-.1.44-.02.09-.13.34.02-.03s.06-.13,0-.05c-.3.47.34-.33.03-.04-.18.17.5-.4.1-.09-.12.06-.08.04.12-.05.21-.08.25-.1.12-.06-.07,0-.14.04-.21.05h1.1c-1.3-.19-2.62-.35-3.89-.69-.15-.04-.3-.09-.45-.14-.21-.07-.39-.23.25.12-.05-.03-.11-.05-.16-.08-.27-.14-.3-.35.16.15-.06-.06-.12-.12-.18-.18-.03-.03-.05-.06-.07-.08-.16-.17.41.53.24.31-.02-.03-.05-.07-.07-.1-.01-.01-.02-.04-.04-.05.13.21.21.44.22.69.03.26.04.33.03.21.01-.04,0-.11,0-.16,0-.26-.12.67-.04.31.04-.19.09-.38.14-.56.06-.2.13-.4.2-.6.04-.11.08-.22.13-.33.19-.46-.2.44.01-.03.24-.53.51-1.05.81-1.56.18-.31.38-.61.59-.9.04-.06.09-.11.13-.17-.07.1-.31.38-.09.13.1-.12.2-.24.31-.36.23-.25.49-.45.74-.69,0,0-.44.31-.19.15.08-.05.16-.11.24-.16.13-.08.27-.15.41-.22.98-.47,1.31-1.95.74-2.83-.65-1.01-1.78-1.24-2.83-.74Z"/>
        </g>
      </g>
      <path class="cls-7" d="M142.83,133.35c2.83,1.27,5.67,2.55,8.5,3.82,4.54,2.04,9.08,4.08,13.62,6.12l3.12,1.4c.34.15.9-.32,1.21-1.02,2.15-4.79,4.3-9.58,6.46-14.36,3.41-7.59,6.82-15.18,10.24-22.78l2.36-5.26c.32-.7.3-1.43-.04-1.59l-8.5-3.82-13.61-6.12-3.12-1.4c-.18-.08-.39,0-.58.16-.01,0-.03.02-.04.03,0,0-.02.01-.02.02-.2.16-.4.43-.57.81-2.15,4.79-4.3,9.58-6.46,14.36-3.41,7.59-6.82,15.18-10.24,22.78l-2.36,5.26c-.32.71-.3,1.43.04,1.59ZM171.98,107.68l-1.2,2.67c-.79,1.76-1.58,3.51-2.37,5.27-1.27-.57-2.55-1.14-3.82-1.72,1.19-2.65,2.38-5.29,3.57-7.94l3.82,1.72ZM159.85,124.45l1.06-2.36,2.51-5.58c1.27.57,2.55,1.14,3.82,1.72-1.19,2.65-2.38,5.29-3.57,7.94-1.27-.57-2.55-1.14-3.82-1.72ZM153.22,111.92l3.87,1.74c-1.19,2.65-2.38,5.29-3.57,7.94l-1.39-.63-2.48-1.11.85-1.9c.91-2.01,1.81-4.03,2.72-6.04ZM155.84,119.81l2.51-5.58,2.75,1.24,1.07.48-3.57,7.94-3.82-1.72,1.06-2.36ZM165.99,124.37l2.51-5.58,3.97,1.78-3.57,7.94-3.29-1.48-.68-.3,1.06-2.36ZM171.21,126.72l2.51-5.58.99.44,2.49,1.12-3.57,7.94-3.48-1.56,1.06-2.36ZM178.37,120.09l-3.48-1.56,3.57-7.94.99.44,2.49,1.12-1.31,2.92-2.26,5.02ZM176.01,112.7l-2.37,5.27-3.14-1.41-.83-.37c1.19-2.65,2.38-5.29,3.57-7.94l3.97,1.78-1.2,2.67ZM165.71,108.07l-2.37,5.27-3.82-1.72c1.19-2.65,2.38-5.29,3.57-7.94l2.75,1.24,1.07.48-1.2,2.67ZM160.63,105.78l-2.37,5.27-1.38-.62-2.49-1.12,3.57-7.94,3.87,1.74-1.2,2.67ZM158.68,127.06l3.82,1.72-1.78,3.96-2.07,4.6-3.82-1.72,3.84-8.55ZM173.15,105.07l-3.82-1.72,1.64-3.65,1.74-3.88,3.82,1.72c-1.13,2.51-2.26,5.02-3.38,7.53ZM144.63,131.03l3.84-8.55,3.87,1.74-1.78,3.96-2.07,4.6-1.38-.62-2.49-1.12ZM149.76,133.33c1.28-2.85,2.56-5.7,3.84-8.55l2.7,1.21,1.12.5-1.78,3.96c-.69,1.53-1.38,3.07-2.07,4.6l-3.82-1.72ZM159.91,137.89l3.84-8.55,3.97,1.78c-.59,1.32-1.19,2.64-1.78,3.96l-2.07,4.6-3.14-1.41-.83-.37ZM165.13,140.24c1.28-2.85,2.56-5.7,3.84-8.55l.8.36,2.67,1.2-2.07,4.6-1.78,3.96c-1.16-.52-2.32-1.04-3.48-1.56ZM186.49,102.01c-1.13,2.51-2.26,5.02-3.38,7.53l-3.48-1.56,1.64-3.65,1.74-3.88.99.44,2.49,1.12ZM181.76,99.89l-3.38,7.53-3.14-1.41-.83-.37,1.64-3.65,1.74-3.88,3.97,1.78ZM171.46,95.26l-3.38,7.53-3.82-1.72,1.64-3.65,1.74-3.88,2.75,1.24,1.07.48ZM166.39,92.98l-3.38,7.53-1.38-.62-2.49-1.12,1.61-3.57,1.78-3.96,3.87,1.74Z"/>
    </g>
  </g>
</svg>