<?xml version="1.0" encoding="UTF-8"?>
<svg id="Layer_2" data-name="Layer 2" xmlns="http://www.w3.org/2000/svg" viewBox="0 0 88.06 97.8">
  <defs>
    <style>
      .cls-1 {
        fill: #e7cd9c;
      }

      .cls-1, .cls-2, .cls-3, .cls-4, .cls-5 {
        stroke-width: 0px;
      }

      .cls-2 {
        fill: #abb36c;
      }

      .cls-3 {
        fill: #dfa991;
      }

      .cls-4 {
        fill: #000;
      }

      .cls-5 {
        fill: #1c1513;
      }
    </style>
  </defs>
  <g id="Brand_Standard_Guid" data-name="Brand Standard Guid">
    <g>
      <g>
        <path class="cls-5" d="M25.39,7.88c-8.76,7.54-10.08,19.32-11.21,22.99-2.52,11.1-12.55,11.26-10.38,24.22.13.8.36,1.71-.05,2.41-8.33,14.61,5.68,6.58,12.86,13.26,3.64-9.59-4.19-17.85,1.08-22.89,1.65-1.58,2.61-3.77,2.71-6.05.24-5.86-1.15-10.62,4.3-15.79,1.23-1.16,2.65-2.11,4.17-2.84,8.67-4.17,15.02-7.83,15.37-14.65-1.6-5.18-9.89-6.78-18.85-.66Z"/>
        <path class="cls-4" d="M24.55,7.04c-5.37,4.69-8.4,11.24-10.17,18.03-.56,2.15-.99,4.33-1.6,6.47-.8,2.85-2.39,5.27-4.31,7.5-1.66,1.94-3.48,3.81-4.65,6.1-1.43,2.8-1.74,5.91-1.36,9,.13,1.07.49,2.11.06,3.12-.37.86-.9,1.67-1.29,2.52-.55,1.22-1.05,2.48-1.2,3.82-.19,1.74.52,3.28,2.12,4.06,1.97.96,4.35.9,6.48,1.19,2.56.34,5.17.98,7.13,2.76.7.63,1.68.33,2-.53,1.23-3.38,1.22-6.88.62-10.39-.48-2.8-1.51-5.66-1.37-8.53.06-1.23.48-2.34,1.32-3.24,1.28-1.37,2.32-2.78,2.86-4.61.93-3.16.2-6.61.51-9.85.36-3.73,2.5-6.88,5.58-8.97,3.13-2.12,6.8-3.4,10-5.43,2.53-1.6,5-3.54,6.55-6.15.7-1.18,1.21-2.5,1.43-3.86s.07-2.44-.72-3.63c-1.71-2.56-4.79-3.62-7.76-3.68-4.31-.08-8.48,1.75-11.99,4.11-1.27.85-.08,2.92,1.21,2.06,3.05-2.05,6.57-3.72,10.3-3.79,2.32-.04,5,.59,6.31,2.7s-.77,5.1-2.12,6.6c-2.07,2.28-4.78,3.89-7.47,5.34-3.28,1.77-6.81,3.07-9.49,5.74-2.3,2.29-3.75,5.09-4.15,8.32-.38,3.05.31,6.27-.34,9.27-.41,1.89-1.47,3.04-2.67,4.45-.77.91-1.33,1.99-1.56,3.16-.58,2.88.31,5.85.9,8.65.79,3.74,1.1,7.43-.24,11.09l2-.53c-3.52-3.18-7.95-3.15-12.35-3.88-.7-.12-1.49-.27-2.04-.59-.46-.27-.62-.49-.67-1.01-.1-.98.32-2.04.68-2.93.62-1.52,2-3.11,2.1-4.77.06-.93-.22-1.87-.34-2.8s-.16-1.82-.13-2.73c.04-1.38.29-2.75.8-4.03.91-2.27,2.59-4.08,4.18-5.89,1.77-2.03,3.42-4.14,4.51-6.62.95-2.18,1.43-4.51,1.97-6.82,1.69-7.19,4.39-14.15,10.09-19.12,1.16-1.01-.54-2.7-1.69-1.69Z"/>
      </g>
      <g>
        <path class="cls-5" d="M62.65,7.88c8.76,7.54,10.08,19.32,11.21,22.99,2.52,11.1,12.55,11.26,10.38,24.22-.13.8-.36,1.71.05,2.41,8.33,14.61-5.68,6.58-12.86,13.26-3.64-9.59,4.19-17.85-1.08-22.89-1.65-1.58-2.61-3.77-2.71-6.05-.24-5.86,1.15-10.62-4.3-15.79-1.23-1.16-2.65-2.11-4.17-2.84-8.67-4.17-15.02-7.83-15.37-14.65,1.6-5.18,9.89-6.78,18.85-.66Z"/>
        <path class="cls-4" d="M61.8,8.73c5.19,4.53,7.98,10.79,9.65,17.35.54,2.13.96,4.3,1.59,6.41.83,2.75,2.29,5.16,4.1,7.37,1.52,1.87,3.29,3.56,4.54,5.64,1.52,2.53,1.87,5.37,1.55,8.27-.1.92-.38,1.85-.36,2.77.02,1.06.57,1.87,1.05,2.77.66,1.25,1.3,2.55,1.62,3.94.16.72.18,1.41-.12,1.85-.17.24-.74.53-1.28.68-2.06.59-4.28.57-6.39.93-2.65.45-5.16,1.39-7.17,3.22l2,.53c-1.17-3.2-1.12-6.47-.5-9.78.5-2.67,1.36-5.37,1.35-8.11,0-1.19-.22-2.37-.73-3.45-.63-1.33-1.8-2.17-2.59-3.37-1.88-2.86-1.2-6.44-1.29-9.68-.08-3.02-.72-5.94-2.51-8.43-2.29-3.18-5.39-4.86-8.81-6.57-4.85-2.42-11.51-5.62-12.43-11.64-.41-2.68,3.31-4.06,5.39-4.25,4.16-.37,8.2,1.48,11.58,3.75,1.28.86,2.48-1.21,1.21-2.06-5-3.36-13.26-6.47-18.52-1.85-.89.78-1.65,1.85-2,2.99-.38,1.23.16,2.95.62,4.12,1.04,2.69,3.04,4.77,5.31,6.49,2.92,2.21,6.25,3.84,9.53,5.44s6.6,4.29,7.71,8.07c.91,3.09.42,6.37.55,9.53.08,1.87.58,3.71,1.6,5.3.79,1.21,2.07,2.08,2.62,3.44,1.13,2.81-.24,6.36-.79,9.16-.77,3.87-.97,7.78.4,11.55.31.86,1.3,1.16,2,.53,3.47-3.14,8.17-2.37,12.36-3.49,1.59-.42,3.01-1.36,3.34-3.07.51-2.6-1.17-5.45-2.35-7.62-.56-1.03-.21-2-.06-3.11.13-.98.2-1.96.18-2.95-.03-1.47-.24-2.96-.72-4.35-.85-2.49-2.45-4.54-4.16-6.5-1.81-2.07-3.61-4.13-4.76-6.66-.99-2.16-1.42-4.57-1.96-6.88-1.77-7.48-4.73-14.78-10.65-19.95-1.15-1.01-2.85.68-1.69,1.69Z"/>
      </g>
      <g>
        <path class="cls-2" d="M60.85,79.84c2.46-1.4,4.6-3.3,6.32-5.56-.19-.09-.36-.23-.51-.43-4.3-6.18-6.66-14.05-6.2-21.55.1-1.6,2.6-1.61,2.5,0-.42,6.95,1.71,14.13,5.61,19.91,1.32-2.19,2.28-4.64,2.82-7.26,1.74-8.38-.75-13.46-3.45-17.94-1.59-2.64-3.32-7.55-3.4-11.45-.2-9.48-8.1-19.68-20.98-20.32-.4-.02-.78-.03-1.17-.03-12.57,0-18.37,10.54-19.6,20.63-.1.85-.23,1.7-.36,2.55-.08.5-.15,1-.22,1.5-.27,1.93-1.35,3.85-2.6,6.07-1.94,3.45-4.14,7.36-4.14,12.57,0,9.86,5.4,19.07,13.44,22.92,9.6,4.59,22.13,3.96,31.93-1.62ZM35.92,31.36c0,2.02-1.44,3.66-3.2,3.66-1.76,0-3.2-1.64-3.2-3.66s1.43-3.66,3.2-3.66c1.76,0,3.2,1.64,3.2,3.66ZM51.53,31.36c0-2.02,1.43-3.66,3.2-3.66s3.2,1.64,3.2,3.66-1.44,3.66-3.2,3.66-3.2-1.64-3.2-3.66ZM43.68,48.83c-.62,0-1.3-.18-2.04-.64-.73-.46-4.43-3.04-5.88-8.91-.28-1.14-.09-2.36.53-3.35,2.41-3.88,4.86-5.77,7.5-5.78h.02c3.42,0,5.85,3.21,7.39,5.63h0c.68,1.09.86,2.41.47,3.64-1.43,4.56-2.72,5.79-4.5,7.49l-.4.38c-.5.48-1.59,1.54-3.09,1.54Z"/>
        <path class="cls-4" d="M32.22,85.96v8.08c-2.56,0-5.13,0-7.69,0-2.43,0-2.42,3.76,0,3.76,5.21,0,10.42,0,15.63,0,2.42,0,2.42-3.76,0-3.76-1.44,0-2.87,0-4.31,0,0-2.38,0-4.77,0-7.15,2.36.47,4.71.69,7.01.69,3.03,0,5.96-.38,8.73-1.01,0,2.49,0,4.98,0,7.47-1.44,0-2.87,0-4.31,0-2.42,0-2.42,3.76,0,3.76,5.21,0,10.42,0,15.63,0,2.43,0,2.42-3.76,0-3.76-2.56,0-5.13,0-7.69,0,0-2.76,0-5.52,0-8.27,0-.07-.01-.13-.02-.19,2.63-.86,5.06-1.93,7.15-3.12,6.13-3.49,10.5-9.64,12-16.89,1.96-9.44-.95-15.32-3.82-20.1-1.19-1.98-2.9-6.38-2.97-9.96-.23-10.86-9.2-22.52-23.83-23.26-10.12-.51-21.71,5.33-23.89,23.24-.1.82-.22,1.64-.35,2.46-.08.51-.15,1.02-.23,1.54-.19,1.37-1.14,3.06-2.25,5.02-2.02,3.58-4.53,8.04-4.53,14.04,0,10.99,6.09,21.29,15.15,25.63,1.52.73,3.05,1.31,4.59,1.79ZM28.92,81.46c-8.04-3.85-13.44-13.06-13.44-22.92,0-5.21,2.2-9.12,4.14-12.57,1.25-2.22,2.33-4.14,2.6-6.07.07-.5.15-1,.22-1.5.13-.85.26-1.7.36-2.55,1.23-10.09,7.03-20.63,19.6-20.63.38,0,.77,0,1.17.03,12.88.65,20.78,10.84,20.98,20.32.08,3.9,1.82,8.81,3.4,11.45,2.7,4.48,5.19,9.56,3.45,17.94-.54,2.61-1.51,5.06-2.82,7.26-3.9-5.78-6.04-12.97-5.61-19.91.1-1.61-2.4-1.6-2.5,0-.46,7.5,1.91,15.37,6.2,21.55.14.21.32.34.51.43-1.73,2.26-3.86,4.16-6.32,5.56-9.8,5.58-22.33,6.21-31.93,1.62Z"/>
        <path class="cls-1" d="M39.56,41.08c1.13.65,2.33,1.01,3.57,1.07.12,0,.23,0,.35,0,1.67,0,3.18-.54,4.47-1.27-.82,1.91-1.6,2.66-2.85,3.86l-.41.39c-.89.86-1.04.77-1.45.51-.27-.17-2.28-1.52-3.68-4.56Z"/>
        <path class="cls-1" d="M48.36,36.92c-1.1.98-2.98,2.34-5.09,2.23-1.41-.06-2.78-.8-4.07-2.18,1.64-2.49,3.23-3.82,4.61-3.83h0c1.35,0,2.88,1.28,4.55,3.78Z"/>
        <path class="cls-4" d="M41.64,48.19c.74.47,1.42.64,2.04.64,1.5,0,2.59-1.05,3.09-1.54l.4-.38c1.78-1.7,3.06-2.93,4.5-7.49.39-1.23.21-2.56-.47-3.64h0c-1.53-2.42-3.96-5.63-7.39-5.63h-.02c-2.64.01-5.09,1.9-7.5,5.78-.62.99-.81,2.21-.53,3.35,1.45,5.87,5.15,8.45,5.88,8.91ZM43.24,45.65c-.27-.17-2.28-1.52-3.68-4.56,1.13.65,2.33,1.01,3.57,1.07.12,0,.23,0,.35,0,1.67,0,3.18-.54,4.47-1.27-.82,1.91-1.6,2.66-2.85,3.86l-.41.39c-.89.86-1.04.77-1.45.51ZM43.81,33.14c1.35,0,2.88,1.28,4.55,3.78-1.1.98-2.98,2.34-5.09,2.23-1.41-.06-2.78-.8-4.07-2.18,1.64-2.49,3.23-3.82,4.61-3.83h0Z"/>
        <path class="cls-4" d="M54.73,27.69c1.76,0,3.2,1.64,3.2,3.66s-1.44,3.66-3.2,3.66-3.2-1.64-3.2-3.66,1.43-3.66,3.2-3.66Z"/>
        <path class="cls-4" d="M32.72,35.02c-1.76,0-3.2-1.64-3.2-3.66s1.43-3.66,3.2-3.66c1.76,0,3.2,1.64,3.2,3.66s-1.44,3.66-3.2,3.66Z"/>
      </g>
      <circle class="cls-3" cx="27.99" cy="40.44" r="4.74"/>
      <circle class="cls-3" cx="59.14" cy="40.44" r="4.74"/>
      <g>
        <path class="cls-3" d="M61.53,17.04s.02-.05,0,0h0Z"/>
        <path class="cls-3" d="M61.8,15.99c-.02.11,0,.1,0,0h0Z"/>
        <path class="cls-3" d="M61.79,14.47c-.01-.08-.03-.19-.04-.22-.42-1.84-.8-3.55-.56-5.46.16-1.28.21-2.23-.27-3.47-.22-.55-.59-1.16-.9-1.49-.32-.33-.23-.25-.61-.49-.04-.03-.18-.1-.21-.12-.11-.04-.22-.08-.34-.12-.39-.11-.97-.15-1.46-.08-1.36.2-2.85,1.04-4.07,1.96-1.37,1.03-2.58,2.31-3.65,3.66.26.62.39,1.31.47,1.95.11,0,.21.01.31.03.07.01.13.03.2.04.17.03.13.02-.09,0,.06.05.33.03.41.04.27.02.55.02.82.01.08,0,.8-.01.81-.07-.23.03-.27.04-.1.01.07-.01.13-.02.2-.03.13-.02.26-.05.39-.07.48-.1.96-.23,1.42-.4.21-.07.4-.16.61-.23-.03.01-.06.02-.08.03-.12.05-.28.1,0,0,.02,0,.04-.02.06-.02.08-.04.16-.08.24-.11.75-.37,1.59-.18,2.05.54.42.65.17,1.7-.54,2.05-2.03,1.01-4.38,1.51-6.64,1.2-.05.6-.15,1.2-.28,1.8,1.65,1.07,3.38,2.07,5.23,2.73.79.28,1.6.51,2.43.63.01,0,.03,0,.05,0,.07,0,.14.02.22.02.16.01.33.02.49.02.18,0,.35,0,.53-.01.06,0,.18-.02.24-.02.22-.04.43-.08.65-.14.1-.03.21-.07.31-.1,0,0,0,0,0,0,.01,0,.01,0,.03-.02.2-.11.4-.23.59-.35,0,0,0,0,.01-.01.07-.07.14-.13.21-.2.08-.08.15-.16.22-.24,0,0,0,0,0,0,.11-.18.22-.35.32-.53.02-.04.04-.08.05-.11.03-.07.05-.13.07-.2.06-.19.11-.38.16-.57.02-.11.04-.23.06-.34,0-.02,0-.03,0-.05.01-.2.03-.41.03-.61,0-.22-.01-.45-.03-.67,0-.02-.01-.1-.02-.16Z"/>
        <path class="cls-4" d="M64.79,14.47c-.08-.79-.31-1.5-.48-2.27-.22-.99-.27-2-.17-3.01.06-.66.23-1.3.23-1.97-.01-.73-.15-1.48-.37-2.17-.3-.96-.71-1.89-1.32-2.69C61.59.94,60.05.1,58.25,0c-2.07-.11-4.16.83-5.84,1.96-2.13,1.43-3.88,3.29-5.44,5.31-.26-.19-.54-.35-.84-.49-1.78-.79-3.63-.45-5.05.65-2.63-3.15-6.25-6.35-10.49-6.67-4.18-.32-7.18,3.87-6.76,7.82.13,1.22.42,2.34.35,3.58-.04.78-.27,1.52-.41,2.34-.2,1.15-.17,2.37.12,3.51.6,2.32,2.43,4.1,4.82,4.46,4.4.66,8.82-2.17,12.2-4.66,1.18.98,2.72,1.45,4.3,1.1.98-.22,1.79-.73,2.45-1.41,3.21,2.16,7.22,4.54,11.22,4.3,2.6-.15,4.73-1.6,5.59-4.09.35-1.02.44-2.17.33-3.24ZM61.53,17.04c.02-.05.02-.04,0,0h0ZM61.8,15.99c0,.1-.02.11,0,0h0ZM61.81,15.91s0,.04,0,.05c-.02.11-.04.23-.06.34-.04.19-.1.38-.16.57-.02.07-.05.13-.07.2-.01.03-.03.07-.05.11-.1.18-.21.35-.32.53,0,0,0,0,0,0-.07.08-.14.16-.22.24-.07.07-.14.13-.21.2,0,0,0,0-.01.01-.2.13-.39.24-.59.35-.02,0-.02,0-.03.02,0,0,0,0,0,0-.1.03-.21.07-.31.1-.21.06-.43.11-.65.14-.06,0-.18.02-.24.02-.18.01-.35.01-.53.01-.16,0-.33-.01-.49-.02-.07,0-.15-.01-.22-.02-.03,0-.04,0-.05,0-.83-.12-1.64-.35-2.43-.63-1.85-.66-3.58-1.66-5.23-2.73.12-.59.22-1.19.28-1.8,2.26.31,4.61-.2,6.64-1.2.71-.35.96-1.4.54-2.05-.47-.72-1.3-.91-2.05-.54-.08.04-.16.08-.24.11-.02,0-.04.02-.06.02.03,0,.05-.02.08-.03-.2.07-.4.16-.61.23-.46.16-.94.29-1.42.4-.13.03-.26.05-.39.07-.07.01-.13.02-.2.03-.17.02-.13.02.1-.01-.01.06-.73.06-.81.07-.27.01-.55,0-.82-.01-.08,0-.35.01-.41-.04.23.03.26.03.09,0-.07-.01-.13-.02-.2-.04-.1-.02-.21-.03-.31-.03-.09-.64-.21-1.33-.47-1.95,1.07-1.35,2.28-2.62,3.65-3.66,1.22-.92,2.7-1.76,4.07-1.96.5-.07,1.08-.03,1.46.08.11.03.23.07.34.12.03.02.17.09.21.12.38.23.3.16.61.49.31.32.69.93.9,1.49.48,1.23.43,2.18.27,3.47-.23,1.91.14,3.62.56,5.46,0,.03.03.14.04.22,0,.06.02.13.02.16.02.22.03.45.03.67,0,.2-.02.41-.03.61ZM46.23,14.33c.03-.06.06-.13,0,0h0ZM46.22,14.36s0,0-.01.02c-.06.12-.12.23-.18.35-.04.07-.09.15-.13.22,0,0-.07.09-.11.16-.05.06-.12.14-.12.14-.06.06-.11.12-.17.18-.04.04-.2.17-.24.21-.16.1-.33.18-.48.28,0,0-.01,0-.02,0-.08.02-.15.05-.23.07-.03,0-.05.01-.08.02.04,0-.03.01-.1.02h-.05s.03,0,.05,0c-.02,0-.05,0-.07,0-.14,0-.28,0-.42-.01.03-.01-.32-.08-.41-.1-.01,0-.01,0-.02,0-.07-.06-.18-.09-.26-.14-.07-.04-.22-.16-.26-.17-.13-.11-.26-.23-.38-.36-.06-.06-.11-.13-.16-.19.21.25-.04-.07-.06-.11-.11-.16-.2-.34-.29-.51-.02-.04-.06-.14-.07-.17-.02-.05-.04-.11-.06-.16-.06-.2-.12-.4-.16-.6-.02-.09-.03-.18-.05-.26,0-.04-.02-.22-.02-.26,0-.2,0-.39,0-.59,0-.06,0-.13.01-.19,0-.02.02-.15.02-.2.04-.21.09-.41.15-.61.03-.09.06-.17.09-.26.01-.04.02-.06.02-.08,0-.01.02-.03.03-.06.1-.19.2-.39.32-.57.04-.06.08-.11.12-.17,0-.01.02-.03.03-.03.14-.15.28-.29.43-.44,0,0,.02-.01.03-.02.08-.06.17-.11.25-.17.07-.04.14-.07.21-.11,0,0,0,0,.02-.01,0,0,0,0,0,0,.14-.02.34-.08.49-.13.09,0,.18,0,.28,0,.06,0,.12,0,.18.01.03,0,.11.02.18.04.08.02.15.05.23.07.02,0,.03,0,.04.01.01,0,.02.01.03.02.16.09.32.19.47.29,0,0,.01,0,.02.01.09.09.18.17.27.25.07.07.13.14.2.22.03.04.05.08.08.12.12.21.24.41.35.62,0,0,.01.03.02.04.04.12.09.24.12.36.07.22.12.45.16.68,0,.02,0,.02,0,.04,0,.01,0,.03,0,.06.01.17.02.34.02.51,0,.12,0,.25-.01.37,0,.04-.01.14-.01.19-.02.16-.05.32-.09.47-.05.22-.12.43-.2.64ZM27.86,18.98s.02.01,0,0h0ZM29.34,19.55s0,0,0,0c-.13-.02-.26-.05-.39-.08-.1-.03-.21-.05-.31-.09-.04-.01-.15-.05-.22-.08-.05-.02-.11-.05-.13-.06-.1-.06-.2-.11-.3-.17-.06-.03-.11-.07-.16-.11-.03-.02-.07-.05-.11-.09-.11-.11-.22-.23-.32-.34,0-.02-.2-.28-.26-.38-.06-.1-.18-.39-.19-.42-.1-.31-.18-.63-.25-.95.01.04-.05-.36-.05-.49,0-.22,0-.44,0-.66,0-.12.02-.24.03-.36,0-.03.02-.11.02-.17.02-.09.06-.24.07-.28.04-.19.09-.38.13-.57.18-.89.3-1.81.3-2.72,0-1.14-.36-2.23-.4-3.35-.03-.92.29-1.97.68-2.71.09-.17.19-.34.3-.5.03-.05.07-.1.11-.15,0,0,.02-.02.04-.04.1-.11.21-.22.31-.33.2-.21.03-.06.2-.18.14-.09.28-.17.43-.25.04-.02.08-.04.12-.06.01,0,.02,0,.04-.01.14-.04.27-.09.41-.12.06-.01.3-.05.32-.06.81-.07,1.24.02,2.06.27.83.26,1.59.66,2.34,1.14,1.67,1.04,3.1,2.42,4.38,3.91-.24.63-.34,1.33-.41,2,0,.02,0,.04,0,.07-.13-.03-.26-.05-.39-.04-.53.05-1.07.06-1.6.04-.27,0-.53-.03-.8-.05-.13-.01-.26-.03-.4-.04-.02,0-.09-.01-.13-.02,0,0,0,0,0,0-.48-.07-.96-.17-1.44-.29-.22-.06-.44-.12-.65-.19-.09-.03-.18-.06-.27-.1,0,0,0,0-.02,0-.36-.16-.72-.25-1.12-.14-.35.1-.72.36-.9.69-.35.66-.22,1.7.54,2.05.98.45,2,.71,3.06.87,1.24.19,2.48.29,3.73.17.16-.02.31-.05.45-.09.08.61.21,1.21.36,1.8-1.46,1.03-2.99,1.98-4.61,2.72-.67.3-1.36.55-2.07.74-.33.09-.66.16-.99.22-.05,0-.1.02-.14.02-.01,0-.01,0-.03,0-.16.02-.32.03-.48.04-.28.01-.55,0-.82-.01-.03,0-.05,0-.07,0ZM43.88,9.34c-.22.07-.12,0-.02,0,0,0,.01,0,.02,0ZM42.92,9.75c.06-.04.12-.08,0,0h0ZM42.42,10.26c-.06.09-.04.05,0,0h0ZM46.23,11.05c.02.06.04.11,0,0h0ZM45.28,9.76c-.12-.08-.06-.04,0,0h0Z"/>
        <path class="cls-3" d="M27.86,18.98s.02.02,0,0h0Z"/>
        <path class="cls-3" d="M30.7,19.53s.02,0,.03,0c.05,0,.1-.01.14-.02.33-.06.67-.13.99-.22.71-.19,1.4-.44,2.07-.74,1.63-.74,3.15-1.69,4.61-2.72-.15-.59-.28-1.19-.36-1.8-.14.04-.29.07-.45.09-1.25.12-2.5.01-3.73-.17-1.06-.16-2.08-.43-3.06-.87-.76-.35-.89-1.39-.54-2.05.17-.32.55-.59.9-.69.4-.11.75-.02,1.12.14,0,0,0,0,.02,0,.09.03.18.07.27.1.22.07.43.14.65.19.47.12.95.22,1.44.29,0,0,0,0,0,0,.03,0,.1.01.13.02.13.02.26.03.4.04.27.02.53.04.8.05.54.02,1.07,0,1.6-.04.14-.01.27,0,.39.04,0-.02,0-.04,0-.07.07-.67.17-1.37.41-2-1.29-1.48-2.72-2.86-4.38-3.91-.76-.48-1.52-.88-2.34-1.14-.82-.26-1.25-.34-2.06-.27-.02,0-.26.04-.32.06-.14.03-.27.07-.41.12-.02,0-.03,0-.04.01-.04.02-.08.04-.12.06-.15.08-.29.16-.43.25-.17.12,0-.04-.2.18-.1.11-.21.21-.31.33-.02.02-.03.03-.04.04-.04.05-.07.1-.11.15-.1.16-.21.33-.3.5-.39.74-.71,1.79-.68,2.71.04,1.12.4,2.21.4,3.35,0,.91-.12,1.83-.3,2.72-.04.19-.08.38-.13.57,0,.04-.05.19-.07.28,0,.06-.02.14-.02.17,0,.12-.02.24-.03.36-.01.22-.01.44,0,.66,0,.13.07.52.05.49.07.32.15.64.25.95.02.03.14.32.19.42.06.1.25.36.26.38.1.12.21.23.32.34.04.04.08.07.11.09.05.04.1.08.16.11.1.06.2.12.3.17.02.01.08.04.13.06.07.02.18.07.22.08.1.03.21.06.31.09.13.03.26.05.39.08,0,0,0,0,0,0,.02,0,.04,0,.07,0,.27.01.55.03.82.01.16,0,.32-.02.48-.04Z"/>
        <path class="cls-3" d="M46.23,11.05c.04.11.02.06,0,0h0Z"/>
        <path class="cls-3" d="M45.28,9.76c-.06-.04-.12-.08,0,0h0Z"/>
        <path class="cls-3" d="M42.42,10.26s-.06.09,0,0h0Z"/>
        <path class="cls-3" d="M44.3,16.04h.05s0-.01,0-.01c-.02,0-.02,0-.05.01Z"/>
        <path class="cls-3" d="M46.52,13.24c0-.05.01-.15.01-.19,0-.12.01-.25.01-.37,0-.17-.01-.34-.02-.51,0-.03,0-.05,0-.06,0-.01,0-.02,0-.04-.04-.23-.09-.46-.16-.68-.04-.12-.08-.24-.12-.36,0-.02-.01-.03-.02-.04-.11-.21-.23-.42-.35-.62-.03-.04-.05-.08-.08-.12-.06-.07-.13-.15-.2-.22-.09-.09-.18-.17-.27-.25,0,0-.01,0-.02-.01-.16-.1-.31-.2-.47-.29-.02,0-.02-.01-.03-.02-.01,0-.02,0-.04-.01-.08-.02-.15-.05-.23-.07-.07-.02-.15-.03-.18-.04-.06,0-.12-.01-.18-.01-.09,0-.18,0-.28,0-.15.05-.34.12-.49.13,0,0,0,0,0,0,0,0,0,0-.02.01-.07.04-.14.07-.21.11-.09.05-.17.11-.25.17,0,0-.02.01-.03.02-.15.14-.29.29-.43.44,0,0-.02.02-.03.03-.04.06-.08.11-.12.17-.12.18-.22.38-.32.57-.01.03-.02.05-.03.06,0,.02-.01.04-.02.08-.03.09-.06.17-.09.26-.06.2-.11.4-.15.61,0,.05-.02.17-.02.2,0,.06-.01.13-.01.19,0,.2,0,.4,0,.59,0,.05.02.22.02.26.01.09.03.18.05.26.04.2.1.41.16.6.02.05.04.11.06.16.01.03.05.13.07.17.09.18.18.35.29.51.02.04.28.36.06.11.05.06.11.13.16.19.12.13.24.24.38.36.03.02.19.13.26.17.08.05.19.08.26.14,0,0,.01,0,.02,0,.1.02.44.09.41.1.14,0,.28.01.42.01.02,0,.04,0,.07,0,.05-.01.09-.02.1-.02.03,0,.05-.01.08-.02.08-.02.15-.05.23-.07.01,0,.01,0,.02,0,.14-.11.32-.19.48-.28.04-.04.2-.16.24-.21.06-.06.12-.12.17-.18,0,0,.07-.08.12-.14.04-.06.11-.16.11-.16.05-.07.09-.15.13-.22.07-.11.12-.23.18-.35,0-.01,0-.01.01-.02.08-.21.15-.43.2-.64.04-.16.07-.31.09-.47Z"/>
        <path class="cls-3" d="M44.45,16.01s-.06.01-.1.02c.07-.01.13-.03.1-.02Z"/>
        <path class="cls-3" d="M42.92,9.75c.12-.08.06-.04,0,0h0Z"/>
        <path class="cls-3" d="M46.23,14.33c.06-.13.03-.06,0,0h0Z"/>
        <path class="cls-3" d="M43.88,9.34s-.01,0-.02,0c-.11,0-.2.07.02,0Z"/>
        <path class="cls-4" d="M44.35,16.03h0s.07-.01.1-.02c-.01,0-.05.01-.1.02Z"/>
        <path class="cls-4" d="M55.03,9.95c-.28.1-.12.05,0,0h0Z"/>
      </g>
    </g>
  </g>
</svg>