<?xml version="1.0" encoding="UTF-8"?>
<svg xmlns="http://www.w3.org/2000/svg" viewBox="0 0 327.3 263.12">
  <defs>
    <style>
      .cls-1 {
        fill: #e7cd9c;
      }

      .cls-1, .cls-2, .cls-3, .cls-4, .cls-5, .cls-6, .cls-7, .cls-8, .cls-9, .cls-10 {
        stroke-width: 0px;
      }

      .cls-2 {
        fill: none;
      }

      .cls-3 {
        fill: #abb36c;
      }

      .cls-4 {
        fill: #9e3e3f;
      }

      .cls-5 {
        fill: #000;
      }

      .cls-6 {
        mix-blend-mode: multiply;
        opacity: .49;
      }

      .cls-6, .cls-9 {
        fill: #5d863a;
      }

      .cls-7 {
        fill: #394a27;
      }

      .cls-11 {
        fill: #6b5b41;
        stroke: #000;
        stroke-miterlimit: 10;
      }

      .cls-8 {
        fill: #3a5c24;
      }

      .cls-12 {
        isolation: isolate;
      }

      .cls-10 {
        fill: #988869;
      }
    </style>
  </defs>
  <g class="cls-12">
    <g id="Layer_2" data-name="Layer 2">
      <g id="Brand_Standard_Guid" data-name="Brand Standard Guid">
        <g>
          <g>
            <path class="cls-10" d="M246.49,222.93c-.09-.05-.17-.11-.26-.16,7.31-3.65,13.63-9.07,20.2-13.91,9.09-6.7,18.37-13.46,27.96-19.43.11-.07.23-.13.34-.2-3.47-6.06-7.35-11.82-14.8-14.95-9.69,5.71-19.43,11.35-29.5,16.38-9.87,4.92-19.35,9.16-30.58,9.42-10.66.25-21.26-1.46-31.87-2.24-24.75-1.84-49.59-1.8-74.39-2.62-9.93-.33-19.76-1.32-28.89-5.48-9.87-4.5-18.54-11.55-27.73-17.23-2.1-1.3-4.25-2.52-6.37-3.78.51-.51,1.04-.99,1.57-1.48-12.08,1.7-20.44,12.8-27.99,23.53,10.68,6.3,21.18,12.88,31.97,18.98,10.97,6.2,22.4,11.31,33.73,16.81,5.55,2.69,11.26,5.5,17.28,7.04,5.44,1.39,11.14.93,16.69.51,13.35-1.01,26.76-1.29,40.13-2.04,10.79-.61,21.55-1.54,32.32-2.31.19.05.38.09.56.14,15.78-5.92,33.77-.31,49.64-6.96Z"/>
            <g>
              <path class="cls-8" d="M235.68,241.26c-1.12-5.94-4.84-11.16-9.01-15.44-3.43-3.52-7.3-6.62-11.39-9.39,3.12.23,6.33-.09,9.43-.2,2.57-.08,5.2-.14,7.8-.42,2.67-.87,5.2-2.17,7.48-3.78-7.36-4.23-16.12-6.2-24.6-5.39,3.04-2.04,5.85-4.44,8.52-6.83,2.28-2.04,4.5-4.17,6.43-6.53,1.78-2.19,3.57-4.84,3.67-7.74.02-.62-.47-1.02-1.07-1.13-7.03-1.39-14.82,2.03-20.7,5.56-3.86,2.31-7.63,5.26-10.82,8.59-1.62,3.02-2.87,6.19-3.87,9.42,5.2,16.74,20.69,29.19,38.15,33.28Z"/>
              <path class="cls-6" d="M231.92,240.23c-2.84-2.07-5.56-4.31-8.17-6.61-5.88-5.17-11.91-10.12-17.39-15.72-.61-.62-.23-1.52.53-1.77,2.7-.9,5.69-.5,8.41.33,0,0-.01-.01-.02-.02,3.12.23,6.33-.09,9.43-.2,2.57-.08,5.2-.14,7.8-.42,2.56-.83,4.99-2.07,7.2-3.6-.59-.12-1.18-.23-1.75-.33-2.95-.49-5.97-.63-8.96-.73-6.83-.22-13.46-.3-20.2,1.06-1.22.25-1.81-1.34-.76-1.97,2.4-1.46,4.94-2.7,7.59-3.61-.08,0-.15,0-.23.01,3.04-2.04,5.85-4.44,8.52-6.83,2.28-2.04,4.5-4.17,6.43-6.53,1.78-2.19,3.57-4.84,3.67-7.74,0-.1-.03-.19-.05-.28-4.53,1.49-8.82,4-12.71,6.44-7.62,4.8-14.02,10.92-20.38,17.2-.9.89-2.21-.28-1.68-1.31,4.13-8,10.5-14.56,17.63-20.12-1.61.78-3.16,1.62-4.58,2.48-3.86,2.31-7.63,5.26-10.82,8.59-1.62,3.02-2.87,6.19-3.87,9.42,4.82,15.52,18.49,27.35,34.39,32.25Z"/>
            </g>
            <g>
              <path class="cls-8" d="M310.24,148.84c-5.89,1.64-10.82,5.77-14.77,10.26-3.24,3.69-6.02,7.78-8.44,12.04-.05-3.09-.67-6.21-1.06-9.24-.32-2.51-.61-5.1-1.14-7.62-1.12-2.54-2.66-4.91-4.5-7-3.6,7.61-4.79,16.39-3.2,24.65-2.33-2.8-5.02-5.35-7.67-7.75-2.27-2.05-4.62-4.04-7.18-5.72-2.37-1.55-5.22-3.07-8.15-2.9-.63.03-.98.56-1.05,1.15-.77,7.03,3.4,14.37,7.49,19.83,2.69,3.58,6.01,7.01,9.66,9.85,3.2,1.32,6.51,2.26,9.87,2.94,16.43-6.63,27.6-22.98,30.13-40.5Z"/>
              <path class="cls-6" d="M309.54,152.63c-1.83,2.97-3.85,5.85-5.93,8.63-4.68,6.25-9.13,12.62-14.29,18.51-.57.65-1.52.36-1.84-.36-1.15-2.57-1.02-5.54-.43-8.29,0,0,0,.01-.01.02-.05-3.09-.67-6.21-1.06-9.24-.32-2.51-.61-5.1-1.14-7.62-1.07-2.44-2.54-4.72-4.29-6.74-.07.59-.13,1.17-.18,1.75-.23,2.95-.09,5.92.08,8.86.4,6.73.92,13.24,2.9,19.75.36,1.18-1.19,1.9-1.92.93-1.69-2.23-3.18-4.61-4.33-7.13.01.08.02.15.03.23-2.33-2.8-5.02-5.35-7.67-7.75-2.27-2.05-4.62-4.04-7.18-5.72-2.37-1.55-5.22-3.07-8.15-2.9-.1,0-.19.04-.28.07,1.92,4.31,4.84,8.3,7.66,11.89,5.54,7.05,12.3,12.78,19.23,18.45.98.81-.08,2.19-1.17,1.77-8.45-3.33-15.66-8.99-21.92-15.48.93,1.51,1.92,2.95,2.92,4.28,2.69,3.58,6.01,7.01,9.66,9.85,3.2,1.32,6.51,2.26,9.87,2.94,15.24-6.15,25.93-20.65,29.43-36.71Z"/>
            </g>
            <g>
              <path class="cls-8" d="M226.55,187.32c-4.82-1.05-9.91.03-14.44,1.73-3.73,1.4-7.27,3.26-10.65,5.37,1.15-2.21,1.92-4.66,2.82-6.96.75-1.9,1.54-3.85,2.14-5.84.19-2.22,0-4.48-.49-6.66-5.5,4.05-9.73,9.83-11.8,16.29-.65-3.23-1.74-6.39-2.82-9.4-.68-1.88-1.45-3.71-2.38-5.48-1.1-2.06-2.56-4.36-4.8-5.39-.38-.18-.87-.03-1.11.31-3.34,4.71-3.22,11.55-2.42,17,.52,3.55,1.55,7.24,3.05,10.62,1.76,2.14,3.75,4.05,5.87,5.8,14.22,1.47,28.46-5.93,37.03-17.42Z"/>
              <path class="cls-6" d="M224.58,189.74c-2.45,1.43-4.99,2.71-7.54,3.89-5.74,2.67-11.36,5.52-17.29,7.77-.66.25-1.22-.31-1.17-.95.18-2.26,1.42-4.32,2.9-6.05,0,0-.01,0-.02.01,1.15-2.21,1.92-4.66,2.82-6.96.75-1.9,1.54-3.85,2.14-5.84.18-2.13.01-4.3-.44-6.4-.28.39-.55.78-.8,1.17-1.3,2-2.35,4.17-3.37,6.32-2.32,4.93-4.47,9.74-5.57,15.11-.2.97-1.58.9-1.72-.06-.34-2.22-.48-4.47-.32-6.68-.02.06-.04.12-.06.17-.65-3.25-1.75-6.44-2.84-9.46-.65-1.81-1.4-3.59-2.29-5.29-1.13-2.15-2.66-4.58-5.05-5.59-.02.01-.03.01-.05.03-.31,3.78.23,7.71.84,11.32,1.21,7.09,3.79,13.7,6.52,20.33.39.94-.91,1.53-1.51.81-4.71-5.54-7.64-12.26-9.57-19.23.07,1.42.23,2.82.42,4.13.52,3.55,1.55,7.24,3.05,10.62,1.76,2.14,3.75,4.05,5.87,5.8,13.19,1.36,26.38-4.91,35.07-14.99Z"/>
            </g>
            <g>
              <path class="cls-8" d="M263.19,184.66c-4.82-1.05-9.91.03-14.44,1.73-3.73,1.4-7.27,3.26-10.65,5.37,1.15-2.21,1.92-4.66,2.82-6.96.75-1.9,1.54-3.85,2.14-5.84.19-2.22,0-4.48-.49-6.66-5.5,4.05-9.73,9.83-11.8,16.29-.65-3.23-1.74-6.39-2.82-9.4-.68-1.88-1.45-3.71-2.38-5.48-1.1-2.06-2.56-4.36-4.8-5.39-.38-.18-.87-.03-1.11.31-3.34,4.71-3.22,11.55-2.42,17,.52,3.55,1.55,7.24,3.05,10.62,1.76,2.14,3.75,4.05,5.87,5.8,14.22,1.47,28.46-5.93,37.03-17.42Z"/>
              <path class="cls-6" d="M261.23,187.09c-2.45,1.43-4.99,2.71-7.54,3.89-5.74,2.67-11.36,5.52-17.29,7.77-.66.25-1.22-.31-1.17-.95.18-2.26,1.42-4.32,2.9-6.05,0,0-.01,0-.02.01,1.15-2.21,1.92-4.66,2.82-6.96.75-1.9,1.54-3.85,2.14-5.84.18-2.13.01-4.3-.44-6.4-.28.39-.55.78-.8,1.17-1.3,2-2.35,4.17-3.37,6.32-2.32,4.93-4.47,9.74-5.57,15.11-.2.97-1.58.9-1.72-.06-.34-2.22-.48-4.47-.32-6.68-.02.06-.04.12-.06.17-.65-3.25-1.75-6.44-2.84-9.46-.65-1.81-1.4-3.59-2.29-5.29-1.13-2.15-2.66-4.58-5.05-5.59-.02.01-.03.01-.05.03-.31,3.78.23,7.71.84,11.32,1.21,7.09,3.79,13.7,6.52,20.33.39.94-.91,1.53-1.51.81-4.71-5.54-7.64-12.26-9.57-19.23.07,1.42.23,2.82.42,4.13.52,3.55,1.55,7.24,3.05,10.62,1.76,2.14,3.75,4.05,5.87,5.8,13.19,1.36,26.38-4.91,35.07-14.99Z"/>
            </g>
            <g>
              <path class="cls-8" d="M51.82,213.78c3.65,3.32,8.6,4.93,13.38,5.72,3.93.65,7.94.81,11.92.66-2.11,1.34-4.01,3.08-5.94,4.62-1.6,1.28-3.26,2.57-4.78,3.99-1.28,1.83-2.26,3.88-2.92,6.02,6.8-.76,13.37-3.66,18.41-8.23-1.06,3.12-1.71,6.41-2.28,9.55-.36,1.96-.61,3.94-.69,5.94-.09,2.34.03,5.06,1.45,7.07.24.34.74.46,1.12.29,5.26-2.41,8.59-8.4,10.64-13.53,1.33-3.34,2.29-7.05,2.7-10.73-.45-2.74-1.21-5.39-2.17-7.96-11.58-8.38-27.64-9.09-40.84-3.42Z"/>
              <path class="cls-6" d="M54.74,212.65c2.84-.01,5.68.15,8.49.4,6.32.55,12.61.89,18.88,1.91.69.11.9.88.54,1.4-1.29,1.87-3.4,3.03-5.55,3.79,0,0,.01,0,.02,0-2.11,1.34-4.01,3.08-5.94,4.62-1.6,1.28-3.26,2.57-4.78,3.99-1.23,1.76-2.17,3.72-2.83,5.76.44-.2.87-.41,1.28-.62,2.13-1.09,4.13-2.44,6.09-3.8,4.49-3.11,8.77-6.22,12.42-10.31.66-.74,1.82,0,1.46.91-.82,2.09-1.83,4.11-3.08,5.96.05-.04.1-.08.14-.12-1.07,3.14-1.72,6.46-2.29,9.62-.35,1.9-.59,3.81-.67,5.73-.1,2.43,0,5.3,1.57,7.37.02,0,.03,0,.05,0,2.16-3.12,3.68-6.8,4.96-10.24,2.51-6.75,3.59-13.77,4.57-20.88.14-1.01,1.55-.87,1.72.05,1.3,7.16.46,14.45-1.36,21.46.65-1.27,1.22-2.56,1.71-3.79,1.33-3.34,2.29-7.05,2.7-10.73-.45-2.74-1.21-5.39-2.17-7.96-10.74-7.78-25.33-8.93-37.92-4.54Z"/>
            </g>
            <g>
              <path class="cls-9" d="M80.04,247.95c4.07-2.77,7.8-6.04,11.23-9.57-.73,3-.92,6.17-1.32,9.2-.33,2.51-.7,5.08-.84,7.65.44,2.74,1.33,5.41,2.58,7.88,5.41-6.48,8.8-14.68,9.35-23.06,1.55,3.28,3.5,6.41,5.46,9.39,1.67,2.54,3.44,5.04,5.5,7.3,1.9,2.09,4.27,4.25,7.15,4.81.62.12,1.09-.29,1.3-.85,2.52-6.62.36-14.74-2.22-21.04-2.09-5.09-5.12-10.24-8.86-14.4,3.18.9,6.47,1.38,9.79,1.4,6.73.04,13.28-1.97,19.38-4.62.24-.1.47-.31.66-.56-2.73-2.67-6-4.85-9.31-6.62-.9-.48-1.82-.93-2.76-1.37-1.37-.28-2.73-.5-4.02-.66-5.99-.74-12.59-.38-18.28,1.87.5-1.72.68-3.54.7-5.3,0-1.04-.06-2.08-.15-3.12-.75-1.88-1.66-3.71-2.76-5.41-.05.09-.1.17-.12.27-.82,2.84-2.27,5.45-3.09,8.28-.35,1.2-.45,2.42-.52,3.65-1.99-3.79-5.22-6.98-8.47-9.72-1.01,2.27-1.76,4.64-2.06,7.12-.23,1.81-.18,3.63.06,5.43.03.11.06.22.1.33.74,2.21,1.69,4.39,2.87,6.42-6.21,1.74-11.62,5.82-16.22,10.22-1.83,1.75-3.64,3.58-5.39,5.47-.42.67-.84,1.32-1.25,1.97-1.85,2.88-3.55,5.7-4.73,8.92-.61,1.66-1.14,3.35-1.66,5.04,6.5.19,12.7-2.75,17.93-6.31Z"/>
              <path class="cls-6" d="M72.72,243.86c6.12-4.89,12.04-9.96,18.52-14.38.71-.49,1.56.03,1.69.8.46,2.77-.42,5.61-1.69,8.13,0,0,.01-.01.02-.02-.73,3-.92,6.17-1.32,9.2-.33,2.51-.7,5.08-.84,7.65.42,2.63,1.27,5.19,2.44,7.58.22-.55.42-1.1.61-1.65.97-2.79,1.59-5.7,2.17-8.59,1.33-6.62,2.47-13.04,2.2-19.83-.05-1.23,1.63-1.54,2.09-.43,1.07,2.57,1.91,5.24,2.39,7.96,0-.08.02-.15.02-.22,1.55,3.28,3.5,6.41,5.46,9.39,1.67,2.54,3.44,5.04,5.5,7.3,1.9,2.09,4.27,4.25,7.15,4.81.1.02.19,0,.28,0-.76-4.64-2.58-9.23-4.4-13.4-3.57-8.19-8.66-15.4-13.92-22.6-.75-1.02.64-2.1,1.58-1.42,7.34,5.31,12.87,12.56,17.28,20.39-.51-1.69-1.11-3.33-1.74-4.85-2.09-5.09-5.12-10.24-8.86-14.4,3.18.9,6.47,1.38,9.79,1.4,3.89.02,7.72-.66,11.44-1.73-1.67-.1-3.35-.23-5.03-.38-7.12-.6-14.15-2.22-20.86-4.68-.91-.33-.73-1.68.1-1.97,11.14-3.87,23.42-.22,34.15,3.83.08-.08.16-.16.24-.26-2.73-2.67-6-4.85-9.31-6.62-.9-.48-1.82-.93-2.76-1.37-1.37-.28-2.73-.5-4.02-.66-5.99-.74-12.59-.38-18.28,1.87.29-.99.45-2.01.56-3.03-.51.54-1.58.36-1.81-.39-.92-2.9-1.35-5.97-1.45-9.04-.84,2.42-2,4.72-2.71,7.18-.35,1.2-.45,2.42-.52,3.65-.89-1.7-2.04-3.27-3.32-4.74.72,2.77,1.23,5.59,1.41,8.42.05.86-1.09,1.57-1.77.89-2.31-2.26-3.56-5.33-4.42-8.38-.41-1.44-.73-2.91-1-4.38-.68,1.79-1.19,3.65-1.43,5.57-.23,1.81-.18,3.63.06,5.43.03.11.06.22.1.33.74,2.21,1.69,4.39,2.87,6.42-6.21,1.74-11.62,5.82-16.22,10.22-1.83,1.75-3.64,3.58-5.39,5.47-.42.67-.84,1.32-1.25,1.97-1.85,2.88-3.55,5.7-4.73,8.92-.44,1.2-.81,2.42-1.2,3.64,3.07-3.31,6.63-6.2,10.15-9.01Z"/>
            </g>
            <g>
              <path class="cls-9" d="M90.17,160.42c-2.53,3.44-4.63,7.19-6.41,11.07-.28-2.67-1.06-5.33-1.62-7.94-.46-2.16-.92-4.38-1.56-6.53-1.16-2.12-2.68-4.06-4.43-5.74-2.54,6.87-2.91,14.57-.9,21.62-2.23-2.26-4.76-4.27-7.25-6.15-2.12-1.61-4.31-3.16-6.66-4.43-2.17-1.17-4.76-2.27-7.29-1.91-.54.08-.81.55-.82,1.07-.13,6.16,4.04,12.21,8.01,16.65,3.21,3.58,7.22,6.95,11.51,9.29-2.87.17-5.72.72-8.46,1.65-5.54,1.9-10.33,5.42-14.56,9.34-.16.15-.3.39-.38.65,3.02,1.42,6.36,2.27,9.59,2.78.88.14,1.77.25,2.67.33,1.21-.16,2.38-.37,3.5-.61,5.14-1.1,10.45-3.29,14.47-6.76.09,1.55.48,3.11.99,4.55.3.85.65,1.69,1.04,2.52,1.17,1.33,2.46,2.56,3.86,3.66.02-.08.03-.17.02-.25-.16-2.57.26-5.12.1-7.69-.06-1.08-.34-2.12-.64-3.14,2.75,2.54,6.34,4.24,9.82,5.56.16-2.15.08-4.31-.4-6.44-.34-1.55-.92-3.03-1.64-4.45-.06-.08-.12-.16-.18-.24-1.25-1.61-2.68-3.12-4.24-4.45,4.59-3.2,7.84-8.1,10.32-13.03.99-1.96,1.94-3.98,2.82-6.03.15-.67.3-1.33.45-1.98.67-2.89,1.24-5.69,1.27-8.68.01-1.54-.05-3.08-.12-4.61-5.4,1.71-9.62,5.89-12.88,10.31Z"/>
              <path class="cls-6" d="M97.39,161.7c-3.59,5.77-6.96,11.62-10.99,17.11-.44.61-1.29.43-1.63-.17-1.19-2.14-1.3-4.73-1.01-7.16,0,0,0,.01,0,.02-.28-2.67-1.06-5.33-1.62-7.94-.46-2.16-.92-4.38-1.56-6.53-1.11-2.04-2.57-3.9-4.23-5.53-.02.52-.02,1.03-.02,1.53.02,2.57.37,5.14.74,7.68.85,5.81,1.8,11.42,4.02,16.91.4,1-.89,1.73-1.59.95-1.64-1.81-3.11-3.76-4.3-5.86.02.06.03.13.05.19-2.23-2.26-4.76-4.27-7.25-6.15-2.12-1.61-4.31-3.16-6.66-4.43-2.17-1.17-4.76-2.27-7.29-1.91-.09.01-.16.05-.23.08,1.99,3.59,4.83,6.84,7.55,9.75,5.34,5.7,11.64,10.18,18.08,14.59.92.63.09,1.91-.88,1.62-7.58-2.26-14.26-6.63-20.19-11.81.92,1.24,1.89,2.42,2.85,3.49,3.21,3.58,7.22,6.95,11.51,9.29-2.87.17-5.72.72-8.46,1.65-3.2,1.1-6.15,2.74-8.89,4.69,1.4-.4,2.82-.76,4.24-1.13,6.03-1.54,12.28-2.23,18.51-2.12.85.01,1.09,1.17.5,1.65-8.01,6.36-19.17,6.87-29.18,6.62-.05.09-.09.18-.12.28,3.02,1.42,6.36,2.27,9.59,2.78.88.14,1.77.25,2.67.33,1.21-.16,2.38-.37,3.5-.61,5.14-1.1,10.45-3.29,14.47-6.76.06.89.22,1.78.44,2.65.26-.59,1.19-.75,1.6-.2,1.61,2.11,2.86,4.52,3.85,7.01-.02-2.23.26-4.45.12-6.68-.06-1.08-.34-2.12-.64-3.14,1.23,1.14,2.63,2.1,4.12,2.94-1.41-2.07-2.65-4.24-3.63-6.52-.3-.69.43-1.6,1.19-1.24,2.56,1.2,4.49,3.36,6.1,5.62.76,1.07,1.45,2.18,2.11,3.31.03-1.67-.09-3.34-.46-4.99-.34-1.55-.92-3.03-1.64-4.45-.06-.08-.12-.16-.18-.24-1.25-1.61-2.68-3.12-4.24-4.45,4.59-3.2,7.84-8.1,10.32-13.03.99-1.96,1.94-3.98,2.82-6.03.15-.67.3-1.33.45-1.98.67-2.89,1.24-5.69,1.27-8.68,0-1.11-.04-2.22-.08-3.33-1.55,3.59-3.63,6.99-5.69,10.3Z"/>
            </g>
            <g>
              <path class="cls-9" d="M64.28,172.7c-4.69,1.55-9.19,3.66-13.48,6.11,1.55-2.68,2.63-5.68,3.87-8.48,1.03-2.32,2.11-4.69,2.96-7.12.35-2.75.25-5.56-.25-8.28-7.03,4.74-12.59,11.69-15.49,19.59-.56-3.58-1.56-7.12-2.6-10.51-.89-2.9-1.88-5.79-3.22-8.52-1.24-2.52-2.9-5.26-5.51-6.59-.56-.29-1.13-.01-1.49.46-4.29,5.66-4.5,14.06-3.8,20.82.57,5.46,2.03,11.24,4.45,16.26-2.8-1.74-5.83-3.1-9.01-4.03-6.46-1.88-13.32-1.75-19.92-.87-.26.03-.54.16-.79.35,1.86,3.32,4.4,6.3,7.08,8.91.73.71,1.49,1.4,2.27,2.07,1.23.64,2.48,1.22,3.68,1.73,5.55,2.36,11.99,3.81,18.09,3.22-.96,1.51-1.66,3.22-2.16,4.9-.3.99-.53,2.01-.74,3.03.19,2.01.56,4.02,1.13,5.95.07-.07.14-.14.19-.22,1.59-2.5,3.71-4.61,5.3-7.11.67-1.06,1.11-2.2,1.53-3.36.84,4.19,3.05,8.14,5.4,11.66,1.61-1.9,2.99-3.97,3.99-6.27.73-1.68,1.19-3.44,1.48-5.24,0-.11,0-.23,0-.34-.08-2.33-.38-4.68-.94-6.95,6.46.03,12.8-2.4,18.46-5.37,2.25-1.18,4.51-2.44,6.72-3.77.59-.52,1.18-1.04,1.76-1.55,2.59-2.25,5.02-4.5,7.06-7.27,1.05-1.43,2.04-2.9,3.01-4.39-6.19-1.97-12.97-.84-19.01,1.14Z"/>
              <path class="cls-6" d="M70.16,178.64c-7.26,3.02-14.37,6.26-21.85,8.73-.83.27-1.49-.45-1.4-1.23.34-2.79,1.99-5.28,3.91-7.35,0,0-.02,0-.02.01,1.55-2.68,2.63-5.68,3.87-8.48,1.03-2.32,2.11-4.69,2.96-7.12.34-2.64.25-5.33-.2-7.95-.37.47-.72.95-1.05,1.42-1.72,2.42-3.14,5.04-4.51,7.66-3.14,5.99-6.05,11.85-7.7,18.44-.3,1.2-2,1.03-2.13-.17-.3-2.76-.36-5.56-.05-8.3-.03.07-.06.14-.09.21-.56-3.58-1.56-7.12-2.6-10.51-.89-2.9-1.88-5.79-3.22-8.52-1.24-2.52-2.9-5.26-5.51-6.59-.09-.05-.18-.06-.28-.08-.58,4.67-.13,9.57.45,14.08,1.12,8.84,3.98,17.17,7,25.53.43,1.19-1.21,1.84-1.92.93-5.55-7.11-8.82-15.59-10.85-24.32.02,1.77.13,3.51.3,5.14.57,5.46,2.03,11.24,4.45,16.26-2.8-1.74-5.83-3.1-9.01-4.03-3.73-1.09-7.6-1.49-11.47-1.47,1.58.55,3.15,1.14,4.72,1.74,6.67,2.54,12.97,6.01,18.72,10.21.78.57.23,1.81-.65,1.87-11.79.66-22.56-6.21-31.72-13.04-.1.05-.21.11-.3.18,1.86,3.32,4.4,6.3,7.08,8.91.73.71,1.49,1.4,2.27,2.07,1.23.64,2.48,1.22,3.68,1.73,5.55,2.36,11.99,3.81,18.09,3.22-.55.87-1,1.81-1.39,2.76.64-.38,1.61.08,1.63.87.07,3.04-.39,6.1-1.15,9.08,1.49-2.09,3.25-3.99,4.63-6.16.67-1.06,1.11-2.2,1.53-3.36.38,1.87,1.04,3.7,1.85,5.46.08-2.85.39-5.7,1.02-8.48.19-.84,1.48-1.21,1.95-.38,1.58,2.81,1.92,6.1,1.88,9.26-.01,1.5-.12,2.99-.27,4.48,1.16-1.54,2.18-3.18,2.95-4.96.73-1.68,1.19-3.44,1.48-5.24,0-.11,0-.23,0-.34-.08-2.33-.38-4.68-.94-6.95,6.46.03,12.8-2.4,18.46-5.37,2.25-1.18,4.51-2.44,6.72-3.77.59-.52,1.18-1.04,1.76-1.55,2.59-2.25,5.02-4.5,7.06-7.27.76-1.03,1.46-2.1,2.17-3.16-3.88,2.34-8.12,4.13-12.29,5.87Z"/>
            </g>
            <g>
              <path class="cls-9" d="M263.01,183.15c4.69,1.55,9.19,3.66,13.48,6.11-1.55-2.68-2.63-5.68-3.87-8.48-1.03-2.32-2.11-4.69-2.96-7.12-.35-2.75-.25-5.56.25-8.28,7.03,4.74,12.59,11.69,15.49,19.59.56-3.58,1.56-7.12,2.6-10.51.89-2.9,1.88-5.79,3.22-8.52,1.24-2.52,2.9-5.26,5.51-6.59.56-.29,1.13-.01,1.49.46,4.29,5.66,4.5,14.06,3.8,20.82-.57,5.46-2.03,11.24-4.45,16.26,2.8-1.74,5.83-3.1,9.01-4.03,6.46-1.88,13.32-1.75,19.92-.87.26.03.54.16.79.35-1.86,3.32-4.4,6.3-7.08,8.91-.73.71-1.49,1.4-2.27,2.07-1.23.64-2.48,1.22-3.68,1.73-5.55,2.36-11.99,3.81-18.09,3.22.96,1.51,1.66,3.22,2.16,4.9.3.99.53,2.01.74,3.03-.19,2.01-.56,4.02-1.13,5.95-.07-.07-.14-.14-.19-.22-1.59-2.5-3.71-4.61-5.3-7.11-.67-1.06-1.11-2.2-1.53-3.36-.84,4.19-3.05,8.14-5.4,11.66-1.61-1.9-2.99-3.97-3.99-6.27-.73-1.68-1.19-3.44-1.48-5.24,0-.11,0-.23,0-.34.08-2.33.38-4.68.94-6.95-6.46.03-12.8-2.4-18.46-5.37-2.25-1.18-4.51-2.44-6.72-3.77-.59-.52-1.18-1.04-1.76-1.55-2.59-2.25-5.02-4.5-7.06-7.27-1.05-1.43-2.04-2.9-3.01-4.39,6.19-1.97,12.97-.84,19.01,1.14Z"/>
              <path class="cls-6" d="M257.13,189.1c7.26,3.02,14.37,6.26,21.85,8.73.83.27,1.49-.45,1.4-1.23-.34-2.79-1.99-5.28-3.91-7.35,0,0,.02,0,.02.01-1.55-2.68-2.63-5.68-3.87-8.48-1.03-2.32-2.11-4.69-2.96-7.12-.34-2.64-.25-5.33.2-7.95.37.47.72.95,1.05,1.42,1.72,2.42,3.14,5.04,4.51,7.66,3.14,5.99,6.05,11.85,7.7,18.44.3,1.2,2,1.03,2.13-.17.3-2.76.36-5.56.05-8.3.03.07.06.14.09.21.56-3.58,1.56-7.12,2.6-10.51.89-2.9,1.88-5.79,3.22-8.52,1.24-2.52,2.9-5.26,5.51-6.59.09-.05.18-.06.28-.08.58,4.67.13,9.57-.45,14.08-1.12,8.84-3.98,17.17-7,25.53-.43,1.19,1.21,1.84,1.92.93,5.55-7.11,8.82-15.59,10.85-24.32-.02,1.77-.13,3.51-.3,5.14-.57,5.46-2.03,11.24-4.45,16.26,2.8-1.74,5.83-3.1,9.01-4.03,3.73-1.09,7.6-1.49,11.47-1.47-1.58.55-3.15,1.14-4.72,1.74-6.67,2.54-12.97,6.01-18.72,10.21-.78.57-.23,1.81.65,1.87,11.79.66,22.56-6.21,31.72-13.04.1.05.21.11.3.18-1.86,3.32-4.4,6.3-7.08,8.91-.73.71-1.49,1.4-2.27,2.07-1.23.64-2.48,1.22-3.68,1.73-5.55,2.36-11.99,3.81-18.09,3.22.55.87,1,1.81,1.39,2.76-.64-.38-1.61.08-1.63.87-.07,3.04.39,6.1,1.15,9.08-1.49-2.09-3.25-3.99-4.63-6.16-.67-1.06-1.11-2.2-1.53-3.36-.38,1.87-1.04,3.7-1.85,5.46-.08-2.85-.39-5.7-1.02-8.48-.19-.84-1.48-1.21-1.95-.38-1.58,2.81-1.92,6.1-1.88,9.26.01,1.5.12,2.99.27,4.48-1.16-1.54-2.18-3.18-2.95-4.96-.73-1.68-1.19-3.44-1.48-5.24,0-.11,0-.23,0-.34.08-2.33.38-4.68.94-6.95-6.46.03-12.8-2.4-18.46-5.37-2.25-1.18-4.51-2.44-6.72-3.77-.59-.52-1.18-1.04-1.76-1.55-2.59-2.25-5.02-4.5-7.06-7.27-.76-1.03-1.46-2.1-2.17-3.16,3.88,2.34,8.12,4.13,12.29,5.87Z"/>
            </g>
            <g>
              <path class="cls-9" d="M175.38,244.47c4.07-2.77,7.79-6.04,11.22-9.57-.73,3-.92,6.17-1.32,9.2-.33,2.51-.7,5.08-.83,7.65.43,2.74,1.33,5.41,2.58,7.88,5.41-6.48,8.8-14.68,9.35-23.06,1.55,3.28,3.5,6.41,5.46,9.39,1.67,2.54,3.44,5.05,5.5,7.3,1.9,2.09,4.27,4.25,7.15,4.82.62.12,1.09-.3,1.31-.85,2.52-6.61.36-14.74-2.22-21.04-2.08-5.09-5.12-10.24-8.86-14.4,3.18.9,6.47,1.38,9.79,1.4,6.73.04,13.28-1.97,19.38-4.63.24-.1.47-.31.66-.55-2.72-2.67-6-4.85-9.31-6.62-.9-.48-1.82-.93-2.76-1.37-1.37-.28-2.73-.49-4.03-.66-5.99-.75-12.59-.38-18.28,1.87.5-1.72.68-3.55.7-5.3,0-1.04-.05-2.08-.15-3.12-.75-1.88-1.67-3.71-2.76-5.41-.05.08-.1.17-.12.27-.83,2.84-2.27,5.45-3.09,8.28-.35,1.2-.45,2.42-.52,3.65-1.99-3.79-5.22-6.98-8.47-9.72-1.01,2.27-1.76,4.64-2.06,7.12-.23,1.81-.18,3.63.06,5.43.04.11.07.22.1.33.74,2.21,1.68,4.39,2.86,6.42-6.21,1.74-11.62,5.82-16.22,10.22-1.83,1.75-3.64,3.58-5.39,5.47-.42.67-.84,1.32-1.26,1.97-1.85,2.87-3.55,5.7-4.73,8.92-.61,1.66-1.14,3.35-1.66,5.04,6.5.19,12.7-2.75,17.93-6.31Z"/>
              <path class="cls-6" d="M168.06,240.37c6.12-4.89,12.04-9.95,18.52-14.38.72-.49,1.56.02,1.69.8.46,2.77-.42,5.61-1.69,8.13,0,0,.01-.01.02-.02-.73,3-.92,6.17-1.32,9.2-.33,2.51-.7,5.08-.83,7.65.42,2.63,1.27,5.19,2.44,7.58.22-.55.42-1.11.61-1.65.97-2.79,1.59-5.7,2.17-8.6,1.32-6.61,2.47-13.04,2.2-19.82-.05-1.23,1.63-1.54,2.1-.43,1.07,2.57,1.91,5.24,2.39,7.96,0-.08.02-.15.03-.23,1.55,3.28,3.5,6.41,5.46,9.39,1.67,2.54,3.44,5.05,5.5,7.3,1.9,2.09,4.27,4.25,7.15,4.82.1.02.19,0,.29,0-.76-4.64-2.58-9.23-4.4-13.4-3.57-8.18-8.66-15.4-13.92-22.6-.75-1.02.64-2.1,1.58-1.42,7.33,5.31,12.87,12.56,17.28,20.39-.51-1.69-1.11-3.33-1.74-4.86-2.08-5.09-5.12-10.24-8.86-14.4,3.18.9,6.47,1.38,9.79,1.4,3.89.02,7.72-.65,11.44-1.73-1.67-.09-3.34-.23-5.03-.37-7.12-.61-14.15-2.22-20.86-4.68-.92-.34-.73-1.68.1-1.97,11.14-3.87,23.42-.22,34.15,3.83.08-.08.17-.16.24-.25-2.72-2.67-6-4.85-9.31-6.62-.9-.48-1.82-.93-2.76-1.37-1.37-.28-2.73-.49-4.03-.66-5.99-.75-12.59-.38-18.28,1.87.29-.99.45-2.01.56-3.03-.5.54-1.58.36-1.81-.39-.92-2.9-1.35-5.97-1.45-9.04-.84,2.42-2,4.72-2.71,7.19-.35,1.2-.45,2.42-.52,3.65-.89-1.7-2.04-3.27-3.32-4.73.72,2.77,1.23,5.59,1.41,8.42.05.86-1.09,1.57-1.77.89-2.31-2.26-3.56-5.34-4.42-8.38-.41-1.44-.73-2.91-1.01-4.38-.68,1.8-1.19,3.65-1.43,5.58-.23,1.81-.18,3.63.06,5.43.04.11.07.22.1.33.74,2.21,1.68,4.39,2.86,6.42-6.21,1.74-11.62,5.82-16.22,10.22-1.83,1.75-3.64,3.58-5.39,5.47-.42.67-.84,1.32-1.26,1.97-1.85,2.87-3.55,5.7-4.73,8.92-.44,1.2-.81,2.42-1.2,3.64,3.07-3.31,6.63-6.2,10.15-9.01Z"/>
            </g>
          </g>
          <g>
            <path class="cls-1" d="M227.94,200.79c.92-2.83,1.02-6.02,1.05-8.97.04-3.2,0-6.4,0-9.59v-93.06c-.88-.68-1.68-1.63-2.48-2.37-1.97-1.85-3.94-3.69-5.9-5.54-5.94-5.57-11.88-11.14-17.82-16.72-6.86-6.44-13.73-12.88-20.59-19.32-5.67-5.32-11.34-10.64-17.01-15.96l-5.97-5.6c-.51.48-1.06.94-1.57,1.4l-17.5,16.57c-8.34,7.9-16.69,15.8-25.03,23.7-7.16,6.78-14.32,13.56-21.48,20.34-1.37,1.29-2.73,2.59-4.1,3.88,0,.31,0,.61,0,.92-.02,4.82-.04,9.65-.06,14.47-.03,7.83-.05,15.66-.08,23.48-.02,8.72-.04,17.44-.05,26.17,0,7.62,0,15.25.02,22.88.02,4.51,0,9.04.14,13.55.11,3.31-.07,7.03,1.12,10.18,1.47,3.88,6.23,4.78,9.92,4.91,2.19.08,4.39,0,6.58,0h105.04c2.48,0,4.99.1,7.47,0,3.63-.15,7.12-1.7,8.29-5.33Z"/>
            <path class="cls-7" d="M249.83,85.43s0,.01.01.02c0-.01-.01,0-.02-.01,0,0,0,0,0,0,0,0,0,0,0,0-.05.12-.04,0,0,0,0,0,0,0,0-.02-.1-.17-.19-.36-.3-.52-1.11-1.61-2.83-2.83-4.26-4.14-3.74-3.41-7.41-6.9-11.12-10.34-7.44-6.92-14.88-13.84-22.32-20.76-8.27-7.69-16.53-15.38-24.8-23.07-6-5.58-11.99-11.15-17.99-16.73-1.24-1.15-2.52-2.27-3.73-3.47-1.43-1.42-2.61-2.88-4.7-3.29-2.58-.5-5.37.91-7.2,2.37-3.01,2.41-5.73,5.28-8.55,7.9-6.95,6.45-13.9,12.91-20.84,19.36-8.32,7.73-16.64,15.46-24.96,23.19-6.58,6.11-13.15,12.22-19.72,18.32-1.66,1.54-3.32,3.09-4.98,4.63-.26.24-.52.48-.78.72-1.35,1.29-3.06,2.78-3.83,4.52-.59,1.35.24,2.3,1.15,3.21,1.57,1.58,3.08,3.37,4.8,4.8,2.43,2.02,5.6,1.12,7.71-.83.88-.81,1.72-1.68,2.59-2.51,5.39-5.1,10.78-10.21,16.17-15.31,8.06-7.63,16.12-15.27,24.19-22.9,7.37-6.98,14.74-13.96,22.11-20.93,3.22-3.05,6.44-6.1,9.66-9.14.38-.36.81-.46,1.21-.4.31.02.62.14.91.4.83.76,1.65,1.51,2.48,2.27l17.02,15.55c8.26,7.55,16.52,15.09,24.78,22.64,7.42,6.78,14.84,13.56,22.27,20.34,3.25,2.97,6.41,6.14,9.82,8.93,1.33,1.09,2.52,2.43,3.94,3.39,1.19.81,2,.4,3.01-.56,1.82-1.7,3.36-3.81,4.98-5.69.08-.09.16-.18.23-.27,0-.02.12-.18.21-.3.23-.33.47-.66.7-.99.07-.11.12-.2.14-.25.08-.21.05-.15.02-.12Z"/>
            <path class="cls-7" d="M249.83,85.44s0,0,0,0c0,0,0,0,0-.01,0,0,0,.01,0,.02,0,0,0,0,0,0Z"/>
            <path class="cls-7" d="M249.83,85.41s0,0,0,0c0,0,0,0,0,0,0,0,0,0,0-.01Z"/>
            <path class="cls-5" d="M252.43,83.94c-1.04-2.12-3.26-3.69-4.97-5.23-1.13-1.03-2.24-2.09-3.36-3.13-6-5.58-11.99-11.15-17.99-16.73-8.4-7.81-16.8-15.63-25.2-23.44-7.6-7.07-15.2-14.14-22.8-21.21l-7.44-6.92c-1.11-1.04-2.31-2.03-3.36-3.13-2.05-2.14-4.07-3.86-7.15-4.12-3-.25-5.96,1.1-8.31,2.88-1.05.8-2,1.73-2.96,2.62-5.24,4.87-10.48,9.74-15.72,14.6-8.23,7.65-16.46,15.29-24.69,22.94l-23.67,21.99c-4.31,4-8.62,8-12.92,12.01-.99.92-1.94,1.87-2.83,2.88-1.35,1.53-2.7,3.39-2.51,5.54.15,1.61,1.13,2.84,2.23,3.94,1.59,1.6,3.12,3.29,4.8,4.8,2.84,2.55,6.95,2.57,10.08.61,1.06-.66,1.98-1.54,2.88-2.42-.01,3-.03,6.01-.04,9.01-.04,9.94-.07,19.89-.1,29.83-.03,11.13-.05,22.27-.04,33.4,0,7.91-.01,15.82.11,23.73.05,3.3.09,6.64.49,9.91.3,2.46.92,4.9,2.59,6.81,1.82,2.08,4.59,3.06,7.24,3.54,4.17.75,8.5.45,12.72.45h106.83c1.11,0,2.24.04,3.35,0,2.62-.1,5.48-.82,7.61-2.39,2.24-1.65,3.45-4.13,3.98-6.81,1.01-5.02.73-10.32.73-15.42v-93.23c0-.32.03-.7.05-1.1.17.15.34.31.51.46,1.85,1.69,3.71,3.42,5.67,4.98,1.16.93,2.48,1.66,4.02,1.46,1.89-.25,3.38-1.72,4.56-3.1,1.38-1.61,2.83-3.19,4.16-4.85,1.22-1.51,2.44-3.21,1.47-5.18ZM249.81,85.55s-.07.14-.14.25c-.23.33-.47.66-.7.99-.09.13-.2.29-.21.3-.08.09-.16.18-.23.27-1.62,1.89-3.17,3.99-4.98,5.69-1.02.95-1.82,1.37-3.01.56-1.42-.96-2.61-2.3-3.94-3.39-3.41-2.8-6.57-5.96-9.82-8.93-7.42-6.78-14.84-13.56-22.27-20.34-8.26-7.54-16.52-15.09-24.78-22.64l-17.02-15.55c-.83-.76-1.65-1.51-2.48-2.27-.29-.26-.6-.38-.91-.4-.4-.06-.83.04-1.21.4-3.22,3.05-6.44,6.1-9.66,9.14-7.37,6.98-14.74,13.96-22.11,20.93-8.06,7.63-16.12,15.27-24.19,22.9-5.39,5.1-10.78,10.21-16.17,15.31-.87.82-1.71,1.69-2.59,2.51-2.11,1.95-5.28,2.85-7.71.83-1.71-1.43-3.22-3.22-4.8-4.8-.91-.92-1.74-1.87-1.15-3.21.76-1.74,2.48-3.23,3.83-4.52.26-.24.52-.48.78-.72,1.66-1.54,3.32-3.08,4.98-4.63,6.58-6.11,13.15-12.22,19.72-18.32,8.32-7.73,16.64-15.46,24.96-23.19,6.95-6.45,13.9-12.91,20.84-19.36,2.82-2.62,5.54-5.49,8.55-7.9,1.83-1.46,4.62-2.87,7.2-2.37,2.09.4,3.28,1.87,4.7,3.29,1.2,1.19,2.49,2.31,3.73,3.47,6,5.58,11.99,11.15,17.99,16.73,8.27,7.69,16.53,15.38,24.8,23.07,7.44,6.92,14.88,13.84,22.32,20.76,3.71,3.45,7.38,6.93,11.12,10.34,1.43,1.3,3.15,2.53,4.26,4.14.12.17.2.35.3.52,0,0,0,0,0,0,0,0,0,0,0,.01,0,0,0,0,0,.01.02-.03.06-.09-.02.12ZM212.18,206.12h-105.04c-2.19,0-4.39.08-6.58,0-3.69-.13-8.45-1.03-9.92-4.91-1.19-3.15-1.01-6.87-1.12-10.18-.15-4.51-.12-9.03-.14-13.55-.03-7.62-.03-15.25-.02-22.88,0-8.72.02-17.44.05-26.17.02-7.83.05-15.66.08-23.48.02-4.82.04-9.65.06-14.47,0-.31,0-.61,0-.92,1.37-1.29,2.73-2.59,4.1-3.88,7.16-6.78,14.32-13.56,21.48-20.34,8.34-7.9,16.69-15.8,25.03-23.7l17.5-16.57c.51-.46,1.06-.92,1.57-1.4l5.97,5.6c5.67,5.32,11.34,10.64,17.01,15.96,6.86,6.44,13.73,12.88,20.59,19.32,5.94,5.57,11.88,11.14,17.82,16.72,1.97,1.85,3.94,3.69,5.9,5.54.79.74,1.59,1.69,2.48,2.37v93.06c0,3.2.04,6.4,0,9.59-.04,2.95-.14,6.14-1.05,8.97-1.18,3.62-4.66,5.18-8.29,5.33-2.48.1-4.99,0-7.47,0Z"/>
            <path class="cls-5" d="M249.82,85.44s-.05.12,0,0h0Z"/>
            <path class="cls-5" d="M249.84,85.45s0-.01-.01-.02c0,0,0,0,0,0,0,0,.01,0,.02.01Z"/>
            <path class="cls-5" d="M249.82,85.44s0-.01,0-.02c0,0,0,0,0,0,0,.01,0,.01,0,.02,0,0,0,0,0,0Z"/>
            <path class="cls-5" d="M249.83,85.44s0,0,0,0c0,0,0,0,0,0Z"/>
          </g>
          <circle class="cls-11" cx="160.12" cy="119.81" r="34.69"/>
          <g>
            <path class="cls-2" d="M162.95,110.17c-.33-1.14-.1-2.39-.21-3.57-.14-1.52-.67-3.41-1.46-4.45-.52-.68-.73-.84-1.35-1.14-.13-.06-.3-.18-.76-.12.02.02-.64.22-.41.11-.12.06-.74.48-.55.32-.57.47-.81.84-1.17,1.49-1.07,1.95-1.22,4.19-1.36,6.36-.03.41-.11.77-.21,1.11,1.36.51,2.69,1.08,3.97,1.68,1.14-.6,2.34-1.16,3.57-1.65-.02-.05-.04-.09-.05-.14Z"/>
            <path class="cls-3" d="M172.55,112.96c-.85.03-1.7.04-2.55.05-1.3.13-2.59.4-3.8.78-1.62.51-3.17,1.2-4.66,2-1.82.98-2.52.77-4.34-.07-2.56-1.18-5.26-2.16-8.05-2.65-.37-.06-.74-.12-1.12-.16-.95,0-1.9,0-2.85,0-1.79.19-3.51.79-4.85,2.08-1.89,1.82-2.78,4.53-3.08,7.05-.41,3.35.12,6.16,1.84,9.08,2.46,4.19,5.99,7.75,9.69,10.85,3.13,2.62,6.71,5.17,10.6,6.55,9.9-4.93,19.61-12.39,21.88-23.81.68-3.41-.33-7.13-2.97-9.47-1.64-1.45-3.64-2.13-5.72-2.29ZM163.12,130.65v9.04c-1.2,2.16-5.43,1.83-6.21,0v-9.02c-1.14-.91-1.89-2.3-1.89-3.88,0-2.75,2.23-4.98,4.98-4.98s4.98,2.23,4.98,4.98c0,1.57-.74,2.95-1.87,3.86Z"/>
            <path class="cls-5" d="M185.05,117.83c-1.3-3.71-4.01-6.6-7.58-8.14.67-8.83-2.6-18.22-11.29-21.87-7.65-3.21-16.27-.39-21.07,6.23-3.21,4.44-4.31,10.06-4.28,15.47-3.15,1.36-5.47,4-6.76,7.25-1.34,3.37-1.86,7.66-1.05,11.22,1.25,5.52,5.52,10.38,9.46,14.22,4.62,4.48,10.21,8.85,16.43,10.79.74.23,1.36.07,1.82-.29,9.9-4.79,19.29-11.81,23.4-22.37,1.54-3.97,2.34-8.4.9-12.52ZM181.25,124.72c-2.27,11.42-11.98,18.88-21.88,23.81-3.89-1.38-7.47-3.93-10.6-6.55-3.7-3.1-7.23-6.66-9.69-10.85-1.72-2.92-2.25-5.74-1.84-9.08.31-2.52,1.2-5.23,3.08-7.05,1.34-1.29,3.06-1.89,4.85-2.08.95,0,1.9,0,2.85,0,.38.04.75.09,1.12.16,2.78.48,5.49,1.47,8.05,2.65,1.82.84,2.52,1.05,4.34.07,1.5-.8,3.04-1.49,4.66-2,1.21-.38,2.5-.65,3.8-.78.85,0,1.7-.03,2.55-.05,2.08.16,4.08.84,5.72,2.29,2.64,2.34,3.65,6.05,2.97,9.47ZM155,91.79c5.79-2.06,12.17.03,15.51,5.4,2.08,3.35,2.68,7.28,2.53,11.2h-4.26c-.33,0-.94-.1-1.42-.08-.02-.39-.05-.82-.06-.93-.05-1.22-.2-2.47-.5-3.66-.45-1.83-1.28-3.64-2.57-5.03-2.26-2.44-5.84-3.06-8.58-1.05-1.61,1.18-2.62,2.88-3.32,4.72-.38.99-.62,2.01-.8,3.06-.12.7-.21,1.4-.27,2.11-.02.24-.08.57-.06.82-.34.02-.67.06-.78.06h-5.05c.1-3.68.8-7.35,2.67-10.56,1.62-2.77,4.21-5.07,6.96-6.04ZM151.89,108.33s.02,0,.04,0c-.01,0-.02,0-.04,0ZM159.44,111.96c-1.28-.6-2.61-1.17-3.97-1.68.1-.34.18-.7.21-1.11.14-2.17.29-4.41,1.36-6.36.36-.65.6-1.02,1.17-1.49-.19.16.42-.26.55-.32-.23.11.44-.09.41-.11.46-.07.63.05.76.12.63.3.83.46,1.35,1.14.79,1.05,1.32,2.93,1.46,4.45.11,1.17-.12,2.43.21,3.57.01.05.04.09.05.14-1.23.49-2.43,1.05-3.57,1.65Z"/>
            <path class="cls-4" d="M151.89,108.33s.03,0,.04,0c-.01,0-.02,0-.04,0Z"/>
            <path class="cls-3" d="M145.36,108.39h5.05c.12,0,.45-.04.78-.06-.01-.25.04-.58.06-.82.06-.7.15-1.41.27-2.11.17-1.04.42-2.07.8-3.06.7-1.84,1.71-3.54,3.32-4.72,2.75-2.01,6.33-1.39,8.58,1.05,1.29,1.4,2.12,3.2,2.57,5.03.29,1.19.45,2.44.5,3.66,0,.12.04.54.06.93.48-.01,1.08.08,1.42.08h4.26c.15-3.92-.45-7.86-2.53-11.2-3.34-5.37-9.72-7.46-15.51-5.4-2.75.98-5.34,3.28-6.96,6.04-1.88,3.21-2.57,6.88-2.67,10.56Z"/>
            <path class="cls-5" d="M160.01,121.81c-2.75,0-4.98,2.23-4.98,4.98,0,1.58.75,2.96,1.89,3.88v9.02c.78,1.83,5.01,2.16,6.21,0v-9.04c1.13-.91,1.87-2.29,1.87-3.86,0-2.75-2.23-4.98-4.98-4.98Z"/>
          </g>
          <g>
            <path class="cls-3" d="M184.4,153.83c-.32,3.22-.38,3.18-1.18,6.43-.49,2.01-1,7.47-.73,9.46,1.27,9.58,5.05,16.41,11.23,20.3,8.08,5.09,20.4,5.17,35.67.2,1.96-.57,4.35.97,8.09,3.53,1.71,1.17,4.84,3.31,5.91,3.31.02,0,.03,0,.05,0,.03-.08.07-.23.1-.5.07-.78-.2-1.6-.74-2.31-2.5-3.22-5.22-8.57-8.37-14.77-4.2-8.27-7.44-15.31-12.52-20.95-2.28-2.53-5-7.42-5.09-9.91-.24-6.57-5.3-12.94-12.04-15.15-6.12-2-12.05-.09-16.28,5.26-1.2,1.52-2.09,3.05-2.66,4.57,1.3,1.28,2.04,2.94,2.03,4.74-.01,2.32-1.29,4.42-3.46,5.8ZM201.97,158.52c-6.4,12.48,4.64,23.38,24.66,28.87,4.78.66,3.34,2.99,1.01,2.52-35.6-6.94-32.78-29.19-25.68-31.39ZM190.82,144.14c0-1.89,1.53-3.42,3.42-3.42s3.42,1.53,3.42,3.42-1.54,3.42-3.42,3.42-3.42-1.54-3.42-3.42Z"/>
            <path class="cls-1" d="M177.31,148.1c1.32.46,2.76.68,4.08.84,1.53.18,3.26.35,4.84.12-.34,1.53-1.4,2.85-3.05,3.75-.98-.43-2.98-1.6-5.87-4.71Z"/>
            <path class="cls-1" d="M181.54,148.08c-1.8-.21-3.83-.55-5.43-1.51,1.89-1.43,4.42-2.56,7.27-3.27,1.88,1.05,2.99,2.79,2.98,4.72,0,.05,0,.09-.01.13-1.56.28-3.29.1-4.81-.08Z"/>
            <path class="cls-5" d="M173.94,146.41l.42.6c2.49,3.02,4.97,5.3,7.04,6.55-.31,3.1-.35,2.91-1.1,5.98-.58,2.37-1.11,8.2-.79,10.57,1.39,10.5,5.63,18.05,12.61,22.44,3.07,1.93,6.67,3.2,10.72,3.84-.05.13-.11.25-.16.38l-3.16,7.46c-.06.13-.09.26-.11.4h-8.25c-1.66,0-1.66,2.58,0,2.58h1.39c3.27,0,6.53,0,9.8,0,1.66,0,1.66-2.58,0-2.58h-.46c.04-.09.08-.18.12-.28,1.05-2.49,2.11-4.97,3.16-7.46.03-.07.04-.13.06-.2,3.03.28,6.28.22,9.75-.16-.04.15-.08.31-.12.46-.67,2.56-1.35,5.13-2.02,7.69h-6.25c-1.6,0-1.59,2.48,0,2.48h1.85c4.37,0,8.74,0,13.11,0,1.6,0,1.59-2.48,0-2.48h-1.85c-1.45,0-2.89,0-4.34,0,.72-2.75,1.44-5.5,2.17-8.24.02-.09.03-.17.04-.25,4-.62,8.25-1.64,12.73-3.1.76-.08,3.75,1.93,5.51,3.14,2.96,2.02,5.59,3.82,7.68,3.82.46,0,.9-.09,1.31-.28.71-.33,1.58-1.12,1.75-2.95.13-1.54-.35-3.11-1.36-4.41h0c-2.33-2.99-5.11-8.48-8.07-14.29-4.29-8.44-7.62-15.66-12.97-21.6-1.23-1.37-4.25-5.81-4.33-8.01-.28-7.78-6.22-15.31-14.11-17.89-7.38-2.42-14.51-.14-19.56,6.25-1.29,1.63-2.26,3.28-2.94,4.95-3.5.85-6.58,2.31-8.69,4.13l-.56.48ZM183.23,160.26c.8-3.25.85-3.21,1.18-6.43,2.17-1.37,3.45-3.48,3.46-5.8,0-1.8-.73-3.46-2.03-4.74.57-1.52,1.46-3.05,2.66-4.57,4.22-5.34,10.16-7.26,16.28-5.26,6.74,2.21,11.8,8.58,12.04,15.15.09,2.49,2.82,7.38,5.09,9.91,5.08,5.65,8.32,12.68,12.52,20.95,3.15,6.2,5.87,11.56,8.37,14.77.55.7.81,1.52.74,2.31-.02.27-.07.42-.1.5-.02,0-.03,0-.05,0-1.07,0-4.19-2.14-5.91-3.31-3.75-2.56-6.14-4.1-8.09-3.53-15.27,4.97-27.58,4.89-35.67-.2-6.18-3.89-9.96-10.72-11.23-20.3-.26-2,.24-7.46.73-9.46ZM186.35,148.16c-1.56.28-3.29.1-4.81-.08-1.8-.21-3.83-.55-5.43-1.51,1.89-1.43,4.42-2.56,7.27-3.27,1.88,1.05,2.99,2.79,2.98,4.72,0,.05,0,.09-.01.13ZM177.31,148.1c1.32.46,2.76.68,4.08.84,1.53.18,3.26.35,4.84.12-.34,1.53-1.4,2.85-3.05,3.75-.98-.43-2.98-1.6-5.87-4.71Z"/>
            <path class="cls-5" d="M201.97,158.52c-6.4,12.48,4.64,23.38,24.66,28.87,4.78.66,3.34,2.99,1.01,2.52-35.6-6.94-32.78-29.19-25.68-31.39Z"/>
            <path class="cls-5" d="M194.24,140.72c1.89,0,3.42,1.53,3.42,3.42s-1.54,3.42-3.42,3.42-3.42-1.54-3.42-3.42,1.53-3.42,3.42-3.42Z"/>
          </g>
        </g>
      </g>
    </g>
  </g>
</svg>