<?xml version="1.0" encoding="UTF-8"?>
<svg id="Layer_2" data-name="Layer 2" xmlns="http://www.w3.org/2000/svg" viewBox="0 0 178.73 104.04">
  <defs>
    <style>
      .cls-1 {
        fill: #e7cd9c;
      }

      .cls-1, .cls-2, .cls-3, .cls-4 {
        stroke-width: 0px;
      }

      .cls-2 {
        fill: #abb36c;
      }

      .cls-3 {
        fill: #000;
      }

      .cls-4 {
        fill: #394a27;
      }
    </style>
  </defs>
  <g id="Brand_Standard_Guid" data-name="Brand Standard Guid">
    <g>
      <g>
        <g>
          <path class="cls-2" d="M109.69,17.19c0-1.69.69-3.24,1.9-4.44-.54-1.42-1.37-2.85-2.49-4.28-3.95-5-9.51-6.8-15.24-4.92-6.31,2.06-11.05,8.03-11.27,14.18-.09,2.33-2.64,6.9-4.77,9.27-4.75,5.28-7.79,11.87-11.72,19.61-2.95,5.8-5.5,10.82-7.84,13.83-.51.66-.76,1.43-.7,2.16.02.25.06.4.09.47.01,0,.03,0,.04,0,1,0,3.93-2,5.53-3.1,3.51-2.4,5.74-3.84,7.58-3.3,14.29,4.65,25.82,4.58,33.39-.19,5.79-3.65,9.32-10.04,10.51-19,.25-1.87-.22-6.98-.69-8.86-.75-3.05-.8-3-1.1-6.02-2.03-1.28-3.23-3.26-3.24-5.43ZM72.46,56.39c-2.17.44-3.52-1.74.95-2.36,18.75-5.14,29.08-15.34,23.09-27.02,6.65,2.06,9.29,22.88-24.03,29.38ZM103.72,16.75c-1.77,0-3.2-1.44-3.2-3.2s1.44-3.2,3.2-3.2,3.2,1.44,3.2,3.2-1.44,3.2-3.2,3.2Z"/>
          <path class="cls-1" d="M119.57,17.26c-1.23.43-2.58.64-3.82.79-1.44.17-3.05.33-4.53.11.32,1.43,1.31,2.67,2.86,3.51.92-.4,2.79-1.5,5.49-4.41Z"/>
          <path class="cls-1" d="M115.61,17.24c1.69-.19,3.59-.51,5.08-1.41-1.77-1.33-4.14-2.4-6.81-3.06-1.76.98-2.8,2.62-2.79,4.42,0,.04,0,.08.01.13,1.46.26,3.08.09,4.51-.07Z"/>
          <path class="cls-3" d="M122.2,15.23c-1.98-1.7-4.86-3.07-8.14-3.87-.64-1.56-1.55-3.11-2.75-4.63-4.73-5.98-11.4-8.11-18.31-5.85-7.39,2.42-12.94,9.46-13.2,16.75-.08,2.06-2.89,6.21-4.05,7.5-5,5.56-8.12,12.32-12.14,20.22-2.76,5.44-5.37,10.58-7.55,13.37h0c-.95,1.22-1.4,2.69-1.28,4.13.15,1.72.97,2.45,1.63,2.76.38.18.79.26,1.22.26,1.96,0,4.42-1.68,7.19-3.58,1.65-1.13,4.45-3.02,5.16-2.94,4.19,1.36,8.17,2.32,11.91,2.9,0,.08.02.15.04.24.68,2.57,1.35,5.14,2.03,7.72h-5.8c-1.49,0-1.5,2.32,0,2.32h14.01c1.49,0,1.49-2.32,0-2.32h-5.85c-.63-2.4-1.26-4.8-1.89-7.2-.04-.14-.08-.29-.11-.43,3.24.36,6.29.41,9.13.15.02.06.03.13.05.19.99,2.33,1.97,4.66,2.96,6.98.04.09.07.17.11.26h-.43c-1.55,0-1.55,2.41,0,2.41h10.47c1.55,0,1.55-2.41,0-2.41h-7.73c-.02-.12-.05-.25-.1-.37-.99-2.33-1.97-4.66-2.96-6.98-.05-.12-.1-.23-.15-.35,3.79-.6,7.16-1.79,10.03-3.6,6.53-4.11,10.5-11.18,11.8-21.01.29-2.22-.2-7.68-.74-9.9-.7-2.87-.74-2.69-1.03-5.59,1.94-1.17,4.26-3.31,6.59-6.13l.4-.56-.52-.45ZM114.72,37.49c-1.19,8.96-4.72,15.36-10.51,19-7.57,4.77-19.1,4.84-33.39.19-1.83-.54-4.07.9-7.58,3.3-1.6,1.1-4.53,3.1-5.53,3.1-.01,0-.03,0-.04,0-.03-.07-.07-.22-.09-.47-.06-.73.18-1.5.7-2.16,2.34-3.01,4.89-8.02,7.84-13.83,3.93-7.74,6.97-14.33,11.72-19.61,2.13-2.37,4.68-6.94,4.77-9.27.22-6.15,4.96-12.11,11.27-14.18,5.73-1.88,11.28-.08,15.24,4.92,1.12,1.42,1.95,2.85,2.49,4.28-1.22,1.2-1.91,2.75-1.9,4.44.01,2.17,1.21,4.14,3.24,5.43.3,3.02.35,2.97,1.1,6.02.46,1.88.93,6.99.69,8.86ZM111.1,17.18c0-1.81,1.03-3.44,2.79-4.42,2.67.67,5.03,1.73,6.81,3.06-1.5.9-3.4,1.22-5.08,1.41-1.42.16-3.05.33-4.51.07,0-.04-.01-.08-.01-.13ZM114.08,21.67c-1.54-.84-2.54-2.08-2.86-3.51,1.49.22,3.1.06,4.53-.11,1.24-.15,2.58-.36,3.82-.79-2.7,2.91-4.57,4.01-5.49,4.41Z"/>
          <path class="cls-3" d="M96.49,27.01c5.99,11.69-4.34,21.89-23.09,27.02-4.47.62-3.12,2.8-.95,2.36,33.32-6.5,30.68-27.33,24.03-29.38Z"/>
          <path class="cls-3" d="M103.72,10.35c-1.77,0-3.2,1.44-3.2,3.2s1.44,3.2,3.2,3.2,3.2-1.44,3.2-3.2-1.44-3.2-3.2-3.2Z"/>
        </g>
        <g>
          <path class="cls-4" d="M26.72,102.57c.35-1.13-.33-2.13-1.36-2.55-.53-.21-1.05-.43-1.57-.66-.54-.23-1.07-.47-1.61-.7-.16-.07-.33-.15-.49-.22-.05-.02-.22-.1-.31-.14-.29-.13-.58-.27-.86-.41-1.12-.53-2.23-1.1-3.33-1.69.13,0,.27,0,.4,0,2.27-.03,4.54-.1,6.81-.23,1.2-.07,2.48-.07,3.67-.31,2.58-.52,1.68-4.5-.9-3.98-.12.02-.23.03-.35.05-.04,0-.06,0-.09.01-.04,0-.1,0-.19.01-.7.05-1.39.1-2.09.14-2.23.13-4.47.2-6.71.23-.95.01-1.91.02-2.88.02,0,0,.01-.02.02-.02.71-.71,1.44-1.39,2.18-2.07,1.09-.99,2.26-1.9,3.2-3.04.68-.83.24-2.31-.63-2.81-1.06-.61-2.08-.25-2.81.63.62-.76.09-.13-.1.04-.23.21-.46.42-.69.63-.64.57-1.28,1.14-1.91,1.71-1.56,1.43-3.08,2.92-4.38,4.59-.05.06-.08.13-.12.2-2.37-.14-4.73-.4-7-.9-1.08-.24-2.21.25-2.55,1.36-.3.99.28,2.31,1.36,2.55,2.78.61,5.62.92,8.48,1.08.07.12.16.23.27.33,2.35,2.14,5.31,3.57,8.15,4.93,1.92.91,3.86,1.79,5.83,2.59,1.02.41,2.24-.37,2.55-1.36Z"/>
          <path class="cls-4" d="M101.16,86.52c-.28-.89-1.17-1.23-2.01-1.04-.43.1-.87.18-1.31.27-.45.09-.9.18-1.35.26-.14.03-.28.05-.42.08-.04,0-.19.03-.26.05-.25.04-.49.08-.74.12-.97.15-1.94.28-2.91.38.09-.06.17-.12.26-.18,1.46-1.03,2.9-2.09,4.31-3.18.75-.58,1.58-1.15,2.24-1.83,1.44-1.49-.92-3.67-2.35-2.18-.06.07-.14.13-.21.19-.03.02-.04.03-.05.05-.03.02-.06.05-.12.1-.43.34-.86.69-1.29,1.02-1.39,1.08-2.81,2.12-4.25,3.14-.61.43-1.23.86-1.86,1.29,0,0,0-.02,0-.03.14-.77.31-1.54.49-2.31.26-1.12.62-2.24.72-3.4.07-.84-.87-1.61-1.66-1.54-.96.08-1.46.76-1.54,1.66.07-.77,0-.13-.04.07-.05.24-.11.48-.17.71-.16.65-.32,1.31-.47,1.96-.38,1.62-.69,3.26-.79,4.93,0,.06,0,.12.01.18-1.6.97-3.24,1.85-4.93,2.53-.8.32-1.32,1.14-1.04,2.01.25.78,1.21,1.37,2.01,1.04,2.07-.84,4.06-1.91,5.97-3.08.1.04.21.08.32.09,2.47.34,5.03-.05,7.47-.44,1.65-.26,3.3-.56,4.93-.92.85-.19,1.29-1.24,1.04-2.01Z"/>
          <path class="cls-3" d="M153.29,35.35c-.35-.6-1.05-.71-1.64-.44-.3.14-.61.28-.91.41-.31.14-.63.28-.95.41-.1.04-.2.08-.29.12-.03.01-.13.05-.18.08-.17.07-.35.14-.52.21-.68.27-1.37.52-2.06.75.05-.06.11-.12.16-.18.9-.99,1.78-2,2.63-3.03.45-.55.97-1.1,1.34-1.7.81-1.32-1.27-2.53-2.07-1.21-.04.06-.08.12-.12.17-.02.02-.02.03-.03.04-.02.02-.04.05-.07.09-.26.32-.51.64-.78.96-.84,1.01-1.71,2.01-2.59,2.98-.38.41-.76.83-1.15,1.25,0,0,0-.01,0-.02-.02-.59-.02-1.18-.02-1.77.01-.86.09-1.74-.03-2.6-.08-.63-.9-1.03-1.47-.86-.69.21-.95.8-.86,1.47-.08-.57-.02-.09-.02.06,0,.18,0,.37,0,.55,0,.5-.02,1.01-.03,1.51-.01,1.25.02,2.5.22,3.73,0,.05.03.09.04.13-1.01.97-2.07,1.88-3.19,2.65-.53.37-.78,1.05-.44,1.64.31.53,1.11.81,1.64.44,1.38-.95,2.65-2.05,3.87-3.22.08.02.17.02.25.02,1.86-.15,3.67-.85,5.39-1.54,1.16-.46,2.32-.94,3.45-1.47.59-.27.74-1.12.44-1.64Z"/>
          <path class="cls-4" d="M65.02,83.73c.58,1.06.17,2.11-.7,2.63-.45.27-.89.54-1.32.82-.45.29-.9.58-1.35.87-.14.09-.28.18-.41.27-.04.03-.19.12-.26.17-.24.16-.48.33-.72.49-.94.65-1.85,1.33-2.74,2.03.13-.01.25-.03.38-.04,2.14-.24,4.29-.43,6.46-.56,1.15-.07,2.35-.22,3.52-.12,2.54.21,2.6,4.18.06,3.97-.11,0-.23,0-.34,0-.04,0-.06,0-.09,0-.04,0-.1,0-.19,0-.67.03-1.33.06-2,.1-2.13.13-4.25.32-6.37.55-.9.1-1.8.2-2.71.32,0,0,.02.01.03.02.82.61,1.67,1.19,2.52,1.75,1.25.83,2.56,1.59,3.7,2.58.83.72.75,2.22.04,2.81-.86.71-1.9.49-2.79-.29.76.66.11.12-.1-.03-.26-.18-.53-.36-.79-.53-.73-.48-1.46-.96-2.19-1.44-1.8-1.21-3.55-2.48-5.16-3.95-.06-.05-.1-.12-.16-.18-2.2.41-4.36.93-6.38,1.68-.96.36-2.13.02-2.7-1.02-.51-.93-.26-2.27.7-2.63,2.48-.92,5.08-1.55,7.73-2.02.04-.13.1-.24.18-.35,1.73-2.35,4.18-4.08,6.55-5.72,1.6-1.11,3.23-2.19,4.9-3.19.87-.52,2.2.1,2.7,1.02Z"/>
          <path class="cls-3" d="M122.57,43.27c.9.29,1.23,1.11,1.01,1.87-.11.39-.21.78-.32,1.18-.1.41-.21.81-.3,1.22-.03.13-.06.25-.09.38,0,.04-.04.17-.05.24-.05.22-.1.45-.15.67-.18.87-.34,1.75-.48,2.63.06-.08.13-.15.19-.23,1.09-1.28,2.22-2.55,3.38-3.78.62-.66,1.22-1.39,1.94-1.96,1.56-1.24,3.72.99,2.16,2.23-.07.06-.13.12-.2.18-.02.02-.04.03-.05.05-.02.02-.05.06-.1.1-.36.37-.73.75-1.08,1.13-1.14,1.22-2.25,2.46-3.33,3.73-.46.54-.92,1.08-1.38,1.64,0,0,.02,0,.03,0,.8-.1,1.59-.22,2.38-.35,1.16-.19,2.31-.47,3.49-.51.86-.03,1.62.86,1.53,1.58-.11.87-.82,1.3-1.75,1.33.79-.03.13,0-.07.04-.25.04-.49.08-.74.12-.67.12-1.35.24-2.02.35-1.67.28-3.35.5-5.06.52-.06,0-.12-.01-.19-.02-1.04,1.41-1.98,2.87-2.73,4.38-.36.72-1.21,1.15-2.09.87-.79-.26-1.37-1.15-1.01-1.87.92-1.85,2.07-3.61,3.32-5.3-.04-.09-.07-.19-.09-.3-.28-2.26.19-4.57.66-6.78.32-1.49.67-2.98,1.08-4.44.22-.76,1.31-1.12,2.09-.87Z"/>
          <path class="cls-3" d="M173.64,16.92c.6.34.71.97.44,1.48-.14.26-.27.53-.4.79-.13.27-.27.55-.39.82-.04.08-.08.17-.12.26-.01.03-.05.12-.07.16-.07.15-.14.3-.2.45-.26.59-.5,1.19-.72,1.8.06-.04.11-.09.17-.13.97-.75,1.95-1.48,2.96-2.19.53-.38,1.07-.81,1.67-1.11,1.29-.65,2.5,1.25,1.21,1.9-.06.03-.11.06-.17.1-.02.01-.03.02-.04.03-.02.01-.05.03-.09.06-.31.21-.63.43-.94.64-.99.7-1.96,1.42-2.92,2.16-.41.32-.81.64-1.22.96,0,0,.01,0,.02,0,.58.05,1.16.08,1.74.1.85.03,1.71,0,2.56.15.62.1,1.02.85.86,1.35-.2.6-.78.8-1.44.69.56.1.09.02-.06.02-.18,0-.36-.02-.54-.02-.5-.02-.99-.03-1.49-.05-1.23-.05-2.46-.14-3.67-.38-.05,0-.09-.03-.13-.04-.94.85-1.83,1.75-2.59,2.71-.36.46-1.03.64-1.61.31-.52-.3-.8-1.02-.44-1.48.92-1.18,2-2.26,3.14-3.28-.02-.07-.02-.15-.02-.22.14-1.65.81-3.22,1.47-4.72.44-1.01.91-2.02,1.42-3,.27-.51,1.09-.6,1.61-.31Z"/>
        </g>
      </g>
      <g>
        <path class="cls-2" d="M85.36,15.13c-1.12-.92-1.69-2.2-1.53-3.5.12-1.01.66-1.89,1.48-2.52-.21-.89-.6-1.81-1.17-2.75-1.99-3.3-5.18-4.79-8.76-4.1-3.93.76-7.23,3.97-7.83,7.64-.23,1.39-2.1,3.94-3.56,5.2-3.25,2.81-5.57,6.52-8.51,10.86-2.21,3.25-4.11,6.06-5.74,7.69-.36.36-.56.8-.58,1.24,0,.15,0,.24.02.29,0,0,.02,0,.03,0,.6.08,2.5-.9,3.55-1.44,2.28-1.17,3.73-1.86,4.79-1.4,8.21,3.87,15.12,4.7,20.02,2.42,3.74-1.75,6.35-5.31,7.74-10.59.29-1.1.39-4.2.26-5.36-.22-1.88-.25-1.86-.2-3.69ZM58.55,32.3c-1.34.1-1.98-1.31.75-1.34,11.62-1.66,18.58-6.99,15.88-14.44,3.83,1.74,3.83,14.41-16.63,15.78ZM80.29,10.92c-1.06-.13-1.81-1.1-1.68-2.16s1.1-1.81,2.16-1.68,1.81,1.1,1.68,2.16c-.13,1.06-1.1,1.81-2.16,1.68Z"/>
        <path class="cls-1" d="M84.67,12.33c.08.88.58,1.7,1.45,2.32.58-.17,1.79-.68,3.63-2.23-.77.17-1.59.19-2.35.18-.87,0-1.85-.04-2.73-.28Z"/>
        <path class="cls-1" d="M84.67,11.73s0,.05,0,.08c.85.27,1.84.29,2.7.3,1.02.01,2.19-.04,3.15-.46-.96-.93-2.3-1.75-3.85-2.35-1.13.45-1.88,1.35-2.01,2.44Z"/>
        <path class="cls-3" d="M91.47,11.4c-1.05-1.17-2.68-2.21-4.58-2.93-.26-.98-.69-1.98-1.3-2.98-2.38-3.94-6.22-5.72-10.53-4.89-4.61.89-8.47,4.69-9.18,9.03-.2,1.23-2.2,3.5-2.99,4.19-3.42,2.95-5.8,6.77-8.8,11.19-2.07,3.05-4.02,5.93-5.54,7.44h0c-.66.66-1.04,1.5-1.08,2.38-.04,1.04.4,1.54.77,1.78.22.14.45.22.71.25,1.17.15,2.78-.67,4.58-1.6,1.08-.55,2.89-1.47,3.31-1.37,2.41,1.14,4.72,2.01,6.92,2.64,1.92.46,6.52,1.11,8.23,1.16,2.32-.07,4.42-.53,6.28-1.39,4.22-1.97,7.14-5.9,8.66-11.69.34-1.31.46-4.61.3-5.98-.2-1.77-.24-1.67-.19-3.43,1.25-.55,2.8-1.66,4.41-3.17l.28-.31-.28-.31ZM85.3,24.18c-1.39,5.28-3.99,8.84-7.74,10.59-4.89,2.28-11.81,1.45-20.02-2.42-1.06-.46-2.51.23-4.79,1.4-1.04.54-2.95,1.51-3.55,1.44,0,0-.02,0-.03,0-.01-.05-.03-.14-.02-.29.02-.44.22-.88.58-1.24,1.63-1.63,3.54-4.44,5.74-7.69,2.94-4.34,5.26-8.06,8.51-10.86,1.46-1.26,3.33-3.81,3.56-5.2.6-3.67,3.89-6.88,7.83-7.64,3.57-.69,6.77.81,8.76,4.1.57.94.95,1.86,1.17,2.75-.82.63-1.35,1.51-1.48,2.52-.16,1.3.41,2.57,1.53,3.5-.05,1.83-.01,1.81.2,3.69.13,1.16.03,4.26-.26,5.36ZM86.12,14.65c-.86-.62-1.36-1.44-1.45-2.32.87.24,1.85.27,2.73.28.75,0,1.57-.02,2.35-.18-1.84,1.54-3.04,2.06-3.63,2.23ZM87.37,12.11c-.87-.01-1.85-.03-2.7-.3,0-.03,0-.05,0-.08.13-1.08.88-1.98,2.01-2.44,1.55.6,2.89,1.42,3.85,2.35-.96.43-2.13.47-3.15.46Z"/>
        <path class="cls-3" d="M75.18,16.51c2.7,7.46-4.26,12.78-15.88,14.44-2.73.03-2.08,1.44-.75,1.34,20.46-1.37,20.45-14.05,16.63-15.78Z"/>
        <path class="cls-3" d="M80.77,7.08c-1.06-.13-2.03.62-2.16,1.68s.62,2.03,1.68,2.16,2.03-.62,2.16-1.68c.13-1.06-.62-2.03-1.68-2.16Z"/>
      </g>
    </g>
  </g>
</svg>