<?xml version="1.0" encoding="UTF-8"?>
<svg id="Layer_2" data-name="Layer 2" xmlns="http://www.w3.org/2000/svg" viewBox="0 0 83.19 84.61">
  <defs>
    <style>
      .cls-1 {
        fill: #abb36c;
      }

      .cls-1, .cls-2 {
        stroke-width: 0px;
      }

      .cls-2 {
        fill: #000;
      }
    </style>
  </defs>
  <g id="Brand_Standard_Guid" data-name="Brand Standard Guid">
    <g>
      <path class="cls-2" d="M39.17,19.23c.63-.21,1.14-.53,1.55-.92.84-.81,1.22-1.95,1.12-3.21,0-.03,0-.07,0-.13,0-.18-.02-.35-.02-.53,0-.1,0-.2.01-.3.06-.25.13-.49.2-.73.05-.1.1-.21.16-.31.13-.22.27-.43.41-.65.12-.14.25-.28.38-.42.26-.27.52-.52.8-.76.14-.12.29-.22.42-.34-.05.05-.08.08-.13.12.02-.02.04-.03.06-.05.71-.49,1.46-.93,2.24-1.31.2-.1.41-.19.61-.29,0,0,.01,0,.02,0,.39-.15.78-.31,1.17-.44.95-.33,1.93-.6,2.91-.82.47-.11.94-.2,1.42-.28.24-.04.47-.08.71-.11.04,0,.07,0,.12-.01,2.08-.24,4.19-.26,6.28-.07.21.02.42.05.64.07.03,0,.05,0,.08.01.52.08,1.03.18,1.54.29,1.03.23,2.05.52,3.04.88.18.06.35.13.52.2.02,0,.04.02.06.03.48.22.95.46,1.41.72.41.23.82.48,1.21.74.17.12.34.24.51.36.05.04.11.09.16.13.36.3.71.62,1.04.96.19.2.55.51.73.77.09.12.18.25.27.37,0,0,.29.43.42.64.27.44.52.9.75,1.36.04.08.07.16.11.24.09.24.18.49.27.73.2.62.37,1.25.5,1.89.05.26.09.52.14.77.01.12.03.25.04.37.06.71.09,1.42.08,2.13,0,.84-.06,1.67-.15,2.5-.01.1-.02.2-.04.3,0,0,0,.01,0,.02-.08.46-.15.91-.24,1.37-.38,1.94-.94,3.84-1.59,5.71-.65,1.86.74,4.2,2.63,4.63,2.1.48,3.93-.64,4.63-2.63,2.13-6.1,3.38-13.27,1.09-19.53-1.81-4.95-5.47-8.96-10.31-11.11C64.56.51,59.47-.3,54.44.1c-4.66.36-9.46,1.49-13.46,4-.09.05-.17.11-.25.17-4.29,2.79-7.07,7.08-6.18,12.34.33,1.95,2.83,3.21,4.63,2.63Z"/>
      <path class="cls-1" d="M61.09,17.02c-2.47,0-4.47,2.08-4.47,4.65s2,4.65,4.47,4.65,4.47-2.08,4.47-4.65-2-4.65-4.47-4.65Z"/>
      <path class="cls-2" d="M83.12,53.04c-.45-4.58-2.63-8.69-6.1-11.72-1.48-1.3-3.88-1.56-5.32,0-1.3,1.42-1.58,3.93,0,5.32.64.56,1.24,1.15,1.79,1.8.02.02.04.05.05.07-.04-.07,0-.04.16.19l.02.02c-.06-.07-.12-.15-.17-.22.03.05.11.17.21.27-.01-.02-.02-.04-.04-.06.04.05.08.11.13.15-.03-.03-.06-.06-.09-.09.22.32.44.64.63.97.18.3.34.61.5.93.05.09.09.22.14.33,0,.01,0,.02.01.03.23.63.53,1.92.55,2.01.02.09.03.21.03.23.03.35.04.71.04,1.06,0,.34-.03.69-.05,1.03-.01.09-.02.17-.04.26-.13.71-.33,1.41-.57,2.09-.03.07-.05.15-.08.22-.18.35-.35.71-.54,1.06-.17.31-.36.6-.55.9-.09.13-.34.46-.37.49-.71.88-.79,1.01-1.46,1.61-.31.28-.61.56-.94.83-.09.07-.34.26-.42.32-.73.52-1.5.98-2.3,1.4-.38.2-.77.39-1.16.57-.06.03-.12.05-.18.08-.19.07-.38.15-.57.22-.96.36-1.94.65-2.93.9-.48.12-.96.22-1.45.32-.25.05-.5.09-.75.14-.07.01-.28.04-.45.07-.19.02-.53.06-.62.07-.27.03-.54.05-.8.07-.6.05-1.19.08-1.79.09-1.41.04-2.83,0-4.24-.11-.36-.03-.72-.06-1.07-.1-.21-.02-.42-.04-.62-.07-.04,0-.23-.03-.35-.04-.03,0-.06,0-.07-.01-.21-.03-.43-.07-.64-.1-.38-.06-.76-.13-1.14-.2-2.65-.5-7.75-1.48-8.01-1.53-1.19-.21-1.78-.05-2.39.3-.59.34-3.22,1.39-3.64,2.11-.65,1.11-.52,2.33.5,2.96,1.07.66,3.57,1.3,4.77,1.68,9.88,3.13,20.87,4.05,30.44-.44,6.94-3.26,12.75-10.46,11.96-18.48Z"/>
      <path class="cls-1" d="M40.88,64.09c3.95-2.09,7.88-4.23,11.71-6.53,4.34-2.61,8.8-5.43,12.37-9.06,2.79-2.85,5.27-6.79,4.04-10.94-.44-1.49-1.23-2.8-2.48-3.73-.84-.62-1.73-1.19-2.63-1.72-1.92-1.12-4-2.04-6.12-2.69-5.77-1.77-11.63-1.18-17.03.9-3.25,1.25-6.32,3.04-9.12,5.18-5.41,4.14-9.91,9.18-14.01,14.6-5.22,6.9-9.64,14.39-13.65,22.05-1.14,2.17-2.23,4.36-3.31,6.56-.77,1.02-.82,2.56-.3,3.75.06.15.14.29.22.43.03.05.05.1.08.14.29.45.68.83,1.2,1.11.12.06.26.11.39.16.08.03.16.07.24.1.04.01.09.02.13.04.41.13.82.19,1.24.16,1.04-.01,2.08-.39,2.75-1.2,0,0,.01-.01.02-.02.17-.13.34-.26.51-.38.48-.35.97-.7,1.46-1.04,1.06-.74,2.15-1.44,3.24-2.13,2.39-1.5,4.83-2.9,7.29-4.27,5.06-2.81,10.21-5.45,15.34-8.12,0,.06,5.86-3.01,6.43-3.36,0,0,0,0-.01,0ZM16.68,68.33c-1,.55-2.01,1.11-3.01,1.67,1.99-3.53,4.09-7,6.35-10.37,1.04-1.56,2.11-3.09,3.22-4.6.25-.34.5-.68.75-1.01.1-.13.48-.62.52-.68.47-.59.94-1.19,1.42-1.77,1.93-2.34,3.97-4.59,6.17-6.68.96-.91,1.96-1.79,2.98-2.63.22-.18.45-.36.67-.54.06-.05.12-.09.18-.14.5-.37,1-.73,1.51-1.08.97-.66,1.96-1.27,2.99-1.84.1-.05.19-.1.29-.15.36-.19.73-.39,1.1-.57.23-.11.46-.22.69-.33.08-.03.15-.07.23-.1,1.77-.69,3.55-1.21,5.42-1.53.18-.02.36-.04.53-.05.49-.04.98-.07,1.47-.07.88-.01,1.74.05,2.62.12.24.04.47.08.71.12.5.1,1,.21,1.49.34.84.23,1.64.56,2.45.84-.27-.09-.4-.11.26.09-.05-.02-.09-.03-.14-.05.09.03.18.06.28.09-.06-.02-.09-.03-.14-.04.06.02.11.04.15.06.23.1.45.21.68.32.48.24.95.49,1.42.76.63.36,1.23.75,1.83,1.15,0,.02,0,.04.02.06,0,.05,0,.11.01.15,0,.02,0,.04,0,.06,0,.02,0,.03,0,.05-.05.21-.13.42-.21.62-.09.16-.18.33-.27.49-.18.3-.38.58-.58.86-.13.15-.26.31-.4.46-.64.72-1.34,1.39-2.06,2.03-.39.34-.78.68-1.18,1.01-.22.18-.45.36-.67.54-.02.02-.03.03-.05.04-.05.03-.1.07-.13.09-2.06,1.54-4.23,2.95-6.43,4.3-2.98,1.83-6.03,3.55-9.1,5.23-7.95,4.34-16.1,8.31-24.04,12.66Z"/>
    </g>
  </g>
</svg>