<?xml version="1.0" encoding="UTF-8"?>
<svg xmlns="http://www.w3.org/2000/svg" viewBox="0 0 147.58 88.59">
  <defs>
    <style>
      .cls-1 {
        fill: #e7cd9c;
      }

      .cls-1, .cls-2, .cls-3, .cls-4, .cls-5, .cls-6, .cls-7, .cls-8, .cls-9 {
        stroke-width: 0px;
      }

      .cls-2 {
        fill: #ceaa6f;
      }

      .cls-3 {
        fill: #abb36c;
      }

      .cls-4 {
        fill: #000;
      }

      .cls-5 {
        mix-blend-mode: multiply;
        opacity: .49;
      }

      .cls-5, .cls-7 {
        fill: #5d863a;
      }

      .cls-6 {
        fill: #394a27;
      }

      .cls-10 {
        isolation: isolate;
      }

      .cls-8 {
        fill: #abd7e5;
      }

      .cls-9 {
        fill: #a08252;
      }
    </style>
  </defs>
  <g class="cls-10">
    <g id="Layer_2" data-name="Layer 2">
      <g id="Brand_Standard_Guid" data-name="Brand Standard Guid">
        <g>
          <g>
            <g>
              <path class="cls-6" d="M117,51.51c1.76-12.49,4.48-32.02-2.24-36.5-9.13-3.36-23.53-2.88-27.06-1.6-3.52,3.68-6.24,35.38-2.24,42.27h31.06l.48-4.16Z"/>
              <path class="cls-4" d="M118.44,51.91c1.28-9.07,2.9-18.55,1.83-27.73-.39-3.34-1.13-7.2-3.69-9.62-1.57-1.48-4.02-1.87-6.07-2.31-2.39-.51-4.83-.84-7.27-1.05-4.28-.37-8.65-.42-12.92.14-1.18.16-2.97.23-3.83,1.16-.67.73-1.04,1.74-1.37,2.65-.97,2.69-1.43,5.59-1.84,8.41-.56,3.82-.93,7.66-1.14,11.52-.23,4.19-.29,8.41.04,12.59.23,2.9.5,6.17,1.97,8.76.26.46.77.74,1.3.74,9.08,0,18.16,0,27.24,0h3.82c.88,0,1.41-.69,1.5-1.5.16-1.39.32-2.78.48-4.16.22-1.91-2.78-1.9-3,0-.16,1.39-.32,2.78-.48,4.16l1.5-1.5h-31.06l1.3.74c-.4-.7-.65-1.53-.89-2.54-.29-1.24-.46-2.5-.59-3.76-.33-3.39-.36-6.82-.26-10.22.18-6.64.69-13.44,2.27-19.91.25-1.04.53-2.09.95-3.08-.11.26.07-.15.11-.24.09-.17.18-.33.27-.49.15-.28.17-.14.06-.12-.88.23-.29.19.11.09,3.25-.83,6.84-.77,10.16-.68,4.54.11,9.13.59,13.49,1.86.71.21,1.47.35,2.02.86.48.44.84.96,1.15,1.52.75,1.34,1.14,2.87,1.42,4.37.85,4.56.59,9.37.24,13.97-.38,4.88-1.04,9.73-1.72,14.57-.11.81.2,1.6,1.05,1.85.7.2,1.73-.25,1.85-1.05Z"/>
            </g>
            <g>
              <g>
                <path class="cls-3" d="M71.22,39.61c-.63,2.52-.79,8.89-.46,11.53.42,3.29.49,3.22.45,6.28-.16.1-.31.2-.47.29-6.75,3.74-14.92,2.13-21.63-.84-9.67-4.27-17.89-11.64-24.61-19.68-.97-1.16-1.92-2.35-2.84-3.56-.29-.38-.57-.76-.86-1.14-.12-.16-.6-.62-.6-.82,0-.3.08-.21.32-.29.92-.31,2.21-.23,3.13-.24,3.29-.03,6.58.25,9.85.54,8.59.75,17.16,1.78,25.77,2.23,4.1.22,8.22.32,12.32.07.48-.03.96-.06,1.43-.1-.69,1.79-1.29,3.7-1.8,5.73Z"/>
                <path class="cls-4" d="M70.05,39.29c-.7,2.96-.73,6.18-.66,9.21s.64,5.91.61,8.92l.6-1.04c-6.71,4.25-15.56,2.02-22.21-1.15-6.98-3.33-13.1-8.22-18.45-13.76-1.5-1.55-2.94-3.15-4.32-4.8-.77-.92-1.53-1.85-2.27-2.8-.36-.47-.72-.93-1.08-1.41-.17-.23-.78-1.39-.88-.66l-.55.72c.6-.31,1.75-.17,2.46-.17,1.11,0,2.21,0,3.32.05,2.14.08,4.27.26,6.4.45,4.46.39,8.91.85,13.37,1.27,8.83.84,17.79,1.68,26.65.97l-1.16-1.52c-.71,1.88-1.3,3.78-1.8,5.73-.39,1.5,1.94,2.14,2.32.64.5-1.94,1.09-3.85,1.8-5.73.27-.7-.43-1.58-1.16-1.52-10.72.85-21.57-.47-32.24-1.52-5.36-.52-10.76-1.18-16.15-1.22-1.33-.01-4.63-.5-5.45.93-.43.75-.05,1.48.42,2.07.73.93,1.45,1.87,2.18,2.8,5.65,7.19,12.3,13.79,20.09,18.64s16.92,8.46,25.7,5.92c1.17-.34,2.32-.8,3.39-1.36,1.15-.6,1.45-1.06,1.45-2.36,0-1.92-.28-3.76-.48-5.66-.37-3.52-.38-7.54.44-11,.36-1.51-1.96-2.15-2.32-.64Z"/>
              </g>
              <g>
                <path class="cls-3" d="M84.7,39.61c.63,2.52.79,8.89.46,11.53-.42,3.29-.49,3.22-.45,6.28.16.1.31.2.47.29,6.75,3.74,14.92,2.13,21.63-.84,9.67-4.27,17.89-11.64,24.61-19.68.97-1.16,1.92-2.35,2.84-3.56.29-.38.57-.76.86-1.14.12-.16.6-.62.6-.82,0-.3-.08-.21-.32-.29-.92-.31-2.21-.23-3.13-.24-3.29-.03-6.58.25-9.85.54-8.59.75-17.16,1.78-25.77,2.23-4.1.22-8.22.32-12.32.07-.48-.03-.96-.06-1.43-.1.69,1.79,1.29,3.7,1.8,5.73Z"/>
                <path class="cls-4" d="M83.54,39.93c.76,3.19.72,6.77.52,10.02-.1,1.6-.42,3.17-.52,4.76-.05.75-.05,1.51-.03,2.27.03,1.28.76,1.64,1.83,2.16,8.28,4.06,17.99,1.15,25.65-2.97s14.89-10.58,20.76-17.49c1.55-1.83,2.98-3.75,4.47-5.62.48-.6.93-1.25.58-2.05s-1.38-.92-2.14-1.01c-2.47-.3-5.09-.06-7.56.1-2.7.17-5.39.43-8.08.68-11.95,1.12-24.1,2.85-36.12,1.89-.74-.06-1.43.82-1.16,1.52.71,1.88,1.3,3.78,1.8,5.73.38,1.5,2.71.86,2.32-.64-.5-1.94-1.09-3.85-1.8-5.73l-1.16,1.52c8.86.7,17.82-.14,26.65-.97,4.37-.41,8.74-.87,13.12-1.25,2.21-.19,4.43-.38,6.65-.47,1.11-.04,2.21-.05,3.32-.05.73,0,1.83-.15,2.46.17l-.55-.72c-.09-.63-.41.02-.6.28-.28.38-.57.76-.85,1.13-.72.94-1.46,1.87-2.22,2.79-1.2,1.45-2.45,2.87-3.73,4.25-2.67,2.87-5.52,5.57-8.58,8.01-5.94,4.75-13,8.82-20.59,10.1-4.24.72-8.94.37-12.64-1.98l.6,1.04c-.03-3.01.55-5.92.61-8.92s.04-6.25-.66-9.21c-.36-1.51-2.68-.87-2.32.64Z"/>
              </g>
              <g>
                <path class="cls-3" d="M92.05,69.25c8.04-3.85,13.44-13.06,13.44-22.92,0-5.21-2.2-9.12-4.14-12.57-1.25-2.22-2.33-4.14-2.6-6.07-.07-.5-.15-1-.22-1.5-.13-.85-.26-1.7-.36-2.55-1.23-10.09-7.03-20.63-19.6-20.63-.38,0-.77,0-1.17.03-12.88.65-20.78,10.84-20.98,20.32-.08,3.9-1.82,8.81-3.4,11.45-2.7,4.48-5.19,9.56-3.45,17.94,1.01,5.72,4.41,9.24,4.23,9.33,1.73,2.26,3.86,4.16,6.32,5.56,9.8,5.58,22.33,6.21,31.93,1.62ZM88.25,15.48c1.76,0,3.2,1.64,3.2,3.66s-1.43,3.66-3.2,3.66-3.2-1.64-3.2-3.66,1.44-3.66,3.2-3.66ZM66.24,22.81c-1.76,0-3.2-1.64-3.2-3.66s1.44-3.66,3.2-3.66,3.2,1.64,3.2,3.66-1.43,3.66-3.2,3.66ZM74.2,35.08l-.4-.38c-1.78-1.7-3.06-2.93-4.5-7.49-.39-1.23-.21-2.56.47-3.64h0c1.53-2.42,3.96-5.63,7.39-5.63h.02c2.64.01,5.09,1.9,7.5,5.78.62.99.81,2.21.53,3.35-1.45,5.87-5.15,8.45-5.88,8.91-.74.47-1.42.64-2.04.64-1.5,0-2.59-1.05-3.09-1.54Z"/>
                <path class="cls-4" d="M93.34,71.95c9.06-4.34,15.15-14.64,15.15-25.63,0-6-2.51-10.46-4.53-14.04-1.1-1.96-2.05-3.65-2.25-5.02-.07-.51-.15-1.02-.23-1.54-.12-.82-.25-1.64-.35-2.46C98.97,5.36,87.37-.48,77.25.03c-14.63.73-23.6,12.4-23.83,23.26-.08,3.59-1.78,7.99-2.97,9.96-2.87,4.77-5.77,10.66-3.82,20.1,1.5,7.24,5.88,13.4,12,16.89,2.1,1.19,4.52,2.26,7.15,3.12,0,.06-.02.12-.02.19v8.27h-7.69c-2.42,0-2.43,3.76,0,3.76h15.63c2.42,0,2.42-3.76,0-3.76h-4.31v-7.47c2.76.63,5.7,1.01,8.73,1.01,2.3,0,4.65-.22,7.01-.69v7.15h-4.31c-2.42,0-2.42,3.76,0,3.76h15.63c2.42,0,2.43-3.76,0-3.76h-7.69v-8.08c1.54-.48,3.07-1.06,4.59-1.79ZM60.12,67.63c-2.46-1.4-9.17-6.85-10.55-14.89-1.45-8.43.75-13.46,3.45-17.94,1.59-2.64,3.32-7.55,3.4-11.45.2-9.48,8.1-19.68,20.98-20.32.4-.02.78-.03,1.17-.03,12.57,0,18.37,10.54,19.6,20.63.1.85.23,1.7.36,2.55.08.5.15,1,.22,1.5.27,1.93,1.35,3.85,2.6,6.07,1.94,3.45,4.14,7.36,4.14,12.57,0,9.86-5.4,19.07-13.44,22.92-9.6,4.59-22.13,3.96-31.93-1.62Z"/>
                <path class="cls-1" d="M81.41,28.87c-1.13.65-2.33,1.01-3.57,1.07-.12,0-.23,0-.35,0-1.67,0-3.18-.54-4.47-1.27.82,1.91,1.6,2.66,2.85,3.86l.41.39c.89.86,1.04.77,1.45.51.27-.17,2.28-1.52,3.68-4.56Z"/>
                <path class="cls-1" d="M72.61,24.71c1.1.98,2.98,2.34,5.09,2.23,1.41-.06,2.78-.8,4.07-2.18-1.64-2.49-3.23-3.82-4.61-3.83h0c-1.35,0-2.88,1.28-4.55,3.78Z"/>
                <path class="cls-4" d="M85.21,27.06c.28-1.14.09-2.36-.53-3.35-2.41-3.88-4.86-5.77-7.5-5.78h-.02c-3.42,0-5.85,3.21-7.39,5.63h0c-.68,1.09-.86,2.41-.47,3.64,1.43,4.56,2.72,5.79,4.5,7.49l.4.38c.5.48,1.59,1.54,3.09,1.54.62,0,1.3-.18,2.04-.64.73-.46,4.43-3.04,5.88-8.91ZM76.28,32.92l-.41-.39c-1.25-1.2-2.04-1.94-2.85-3.86,1.3.73,2.81,1.27,4.47,1.27.12,0,.23,0,.35,0,1.25-.06,2.44-.42,3.57-1.07-1.4,3.05-3.41,4.39-3.68,4.56-.41.25-.56.35-1.45-.51ZM77.17,20.93c1.38,0,2.97,1.34,4.61,3.83-1.29,1.38-2.66,2.12-4.07,2.18-2.11.1-3.99-1.25-5.09-2.23,1.66-2.5,3.19-3.78,4.55-3.78h0Z"/>
                <path class="cls-3" d="M66.24,15.48c-1.76,0-3.2,1.64-3.2,3.66s1.44,3.66,3.2,3.66,3.2-1.64,3.2-3.66-1.43-3.66-3.2-3.66Z"/>
                <path class="cls-3" d="M88.25,22.81c1.76,0,3.2-1.64,3.2-3.66s-1.43-3.66-3.2-3.66-3.2,1.64-3.2,3.66,1.44,3.66,3.2,3.66Z"/>
              </g>
              <g>
                <g>
                  <polygon class="cls-8" points="79.47 48.36 82.06 43.26 79.99 40.22 74.18 40.22 71.98 43.65 74.76 48.36 79.47 48.36"/>
                  <path class="cls-4" d="M80.57,49c.86-1.7,1.72-3.4,2.58-5.1.2-.39.26-.9,0-1.29-.58-.85-1.16-1.7-1.73-2.55-.37-.55-.69-1.08-1.45-1.12-.34-.02-.68,0-1.02,0h-3.8c-.32,0-.64-.02-.96,0-.76.04-1.07.57-1.42,1.12-.63.98-1.25,1.96-1.88,2.93-.24.38-.22.91,0,1.29.77,1.32,1.55,2.63,2.32,3.95.41.69.71,1.37,1.65,1.4.77.03,1.54,0,2.31,0h2.31c1.64,0,1.64-2.55,0-2.55h-4.71l1.1.63c-.93-1.57-1.85-3.14-2.78-4.71v1.29c.73-1.14,1.46-2.28,2.2-3.42l-1.1.63h5.81l-1.1-.63c.69,1.01,1.38,2.02,2.07,3.04v-1.29c-.86,1.7-1.72,3.4-2.58,5.1-.31.61-.16,1.38.46,1.74.57.33,1.43.16,1.74-.46Z"/>
                </g>
                <g>
                  <polygon class="cls-8" points="79.41 49.2 74.69 49.2 71.7 69.61 77.02 76.2 82.9 69.54 79.41 49.2"/>
                  <path class="cls-4" d="M79.41,47.93h-4.71c-.5,0-1.15.39-1.23.93-.59,4.06-1.19,8.11-1.78,12.17-.34,2.32-.68,4.63-1.02,6.95-.06.42-.15.85-.19,1.27-.09.92.48,1.44,1.01,2.11,1.54,1.91,3.08,3.82,4.63,5.73.41.51,1.38.48,1.8,0,1.43-1.62,2.86-3.23,4.28-4.85.52-.59,1.12-1.17,1.59-1.8s.35-1.18.23-1.87l-2.53-14.73c-.29-1.66-.57-3.32-.86-4.98s-2.73-.93-2.46.68c1.16,6.78,2.33,13.56,3.49,20.34l.33-1.24c-1.96,2.22-3.92,4.44-5.88,6.66h1.8c-1.77-2.2-3.54-4.39-5.32-6.59l.33,1.24c1-6.8,1.99-13.61,2.99-20.41l-1.23.93h4.71c1.64,0,1.64-2.55,0-2.55Z"/>
                </g>
              </g>
              <path class="cls-4" d="M62.14,17.44c.75,1.16,2.21,1.62,3.5,1.77,1.64.2,3.25-.28,4.52-1.33.46-.38.42-1.21,0-1.6-.48-.45-1.11-.41-1.6,0-.23.19.19-.12-.06.05-.06.04-.12.08-.19.12-.14.09-.28.16-.42.23-.03.02-.26.11-.1.05s-.07.02-.1.03c-.15.05-.3.09-.45.13-.07.02-.14.03-.2.04-.06.01-.32.09-.03.01-.13.03-.28.03-.41.03-.15,0-.3,0-.45,0-.07,0-.39.02-.44-.03.03.04.26.04.03,0-.06-.01-.13-.02-.19-.03-.13-.03-.27-.06-.4-.09s-.25-.07-.37-.12c-.04-.02-.22-.1-.06-.02s0,0-.05-.02c-.1-.05-.21-.1-.3-.16-.04-.02-.23-.18-.26-.17.03,0,.23.2.08.06-.03-.03-.06-.06-.09-.09-.02-.02-.07-.09-.1-.1.04.02.18.26.07.09-.32-.5-1.02-.75-1.55-.41-.5.32-.75,1.02-.41,1.55h0Z"/>
              <path class="cls-4" d="M84.15,17.44c.75,1.16,2.21,1.62,3.5,1.77,1.64.2,3.25-.28,4.52-1.33.46-.38.42-1.21,0-1.6-.48-.45-1.11-.41-1.6,0-.23.19.19-.12-.06.05-.06.04-.12.08-.19.12-.14.09-.28.16-.42.23-.03.02-.26.11-.1.05s-.07.02-.1.03c-.15.05-.3.09-.45.13-.07.02-.14.03-.2.04-.06.01-.32.09-.03.01-.13.03-.28.03-.41.03-.15,0-.3,0-.45,0-.07,0-.39.02-.44-.03.03.04.26.04.03,0-.06-.01-.13-.02-.19-.03-.13-.03-.27-.06-.4-.09s-.25-.07-.37-.12c-.04-.02-.22-.1-.06-.02s0,0-.05-.02c-.1-.05-.21-.1-.3-.16-.04-.02-.23-.18-.26-.17.03,0,.23.2.08.06-.03-.03-.06-.06-.09-.09-.02-.02-.07-.09-.1-.1.04.02.18.26.07.09-.32-.5-1.02-.75-1.55-.41-.5.32-.75,1.02-.41,1.55h0Z"/>
            </g>
            <g>
              <path class="cls-1" d="M4.83,55.67h139.98c18.73,41.89-170.54,41.89-139.98,0Z"/>
              <path class="cls-9" d="M4.83,57.17h13.92c11.15,0,22.29,0,33.44,0,13.48,0,26.97,0,40.45,0h46.48c1.77,0,3.69.21,5.46,0,.08,0,.16,0,.23,0l-1.3-.74c.11.25.06.12.06.13.03.13.1.25.15.37.09.25.18.49.26.74.16.48.29.96.4,1.45.05.24.09.48.13.71.03.19.03.25,0,0,.02.13.03.27.04.4.04.46.06.92.05,1.38-.04,1.54-.5,3.17-1.27,4.57-.23.41-.47.81-.74,1.19-.14.2-.28.39-.42.58.24-.31-.19.23-.29.35-.66.79-1.4,1.52-2.17,2.2-.2.18-.41.35-.62.53-.09.07-.18.15-.28.22-.31.25.01,0-.17.13-.46.35-.93.68-1.41,1.01-1.02.69-2.07,1.32-3.15,1.9-5.1,2.76-10.6,4.56-16.36,6.04-6.88,1.77-13.9,2.96-20.95,3.77-7.81.9-15.67,1.36-23.53,1.46s-15.61-.18-23.38-.88c-7-.63-13.94-1.61-20.81-3.2-3-.69-5.98-1.5-8.9-2.49-2.68-.91-4.76-1.72-7.21-2.98-1.05-.54-2.08-1.12-3.08-1.76-.46-.3-.92-.61-1.37-.93-.11-.08-.66-.5-.38-.28-.22-.17-.43-.35-.65-.53-.75-.63-1.45-1.31-2.08-2.05-.14-.16-.27-.33-.41-.5.26.33-.17-.23-.25-.36-.25-.36-.48-.73-.69-1.12-.1-.18-.18-.35-.27-.53-.05-.09-.09-.19-.13-.29.03.07.08.21-.02-.06-.14-.39-.28-.79-.38-1.2-.05-.2-.09-.41-.13-.61-.02-.09-.03-.18-.05-.26-.06-.35.03.3,0-.05-.04-.42-.07-.85-.06-1.27,0-.22.01-.43.03-.65.02-.25.08-.67.03-.35.07-.45.16-.9.28-1.35.13-.47.29-.93.46-1.38.04-.12.09-.23.14-.35-.12.28-.02.04.05-.1.11-.24.22-.48.35-.72.52-1.02,1.13-1.98,1.8-2.9,1.14-1.56-1.47-3.06-2.59-1.51-2.52,3.48-4.24,7.75-3.25,12.09s4.18,7.25,7.57,9.53c4.57,3.07,9.91,5,15.17,6.51,6.79,1.95,13.79,3.15,20.8,4.01,7.83.96,15.72,1.43,23.6,1.53,8.09.1,16.19-.2,24.25-.93,7.63-.69,15.25-1.75,22.73-3.42,6.28-1.39,12.51-3.21,18.37-5.91,4.33-2,8.7-4.61,11.68-8.41,2.67-3.39,3.77-7.54,2.79-11.79-.26-1.11-.66-2.17-1.12-3.21-.21-.47-.81-.74-1.3-.74h-13.92c-11.15,0-22.29,0-33.44,0-13.48,0-26.97,0-40.45,0H22.04c-5.64,0-11.33-.2-16.97,0-.08,0-.16,0-.23,0-1.93,0-1.93,3,0,3Z"/>
            </g>
            <g>
              <g>
                <path class="cls-6" d="M56.61,46.75l-29.46-1.2c-1.44-.12-3.13.36-3.13,2.89l4.93,20.81c.25,1.06-.12,1.31,2.52,2.04l28.74,1.56c1.2.24,3.49.24,3.49-2.16l-3.73-20.32c0-.84-.84-3.61-3.37-3.61Z"/>
                <path class="cls-4" d="M56.61,45.25c-8.6-.35-17.2-.7-25.8-1.05-1.2-.05-2.4-.1-3.6-.15-2.77-.11-5.13,1.86-4.62,4.84.72,4.16,1.96,8.29,2.94,12.39l1.62,6.82c.3,1.25.4,2.9,1.52,3.68,1.32.92,2.85,1,4.38,1.09,2.06.11,4.12.22,6.18.34,5.39.29,10.78.59,16.17.88,1.5.08,3.01.18,4.52.25.1,0,.2,0,.29.02-.62-.05.47.07.4.06.38.04.75.04,1.13,0,1.72-.16,3.12-1.24,3.4-2.99.22-1.4-.33-3.04-.58-4.41-.48-2.62-.96-5.25-1.44-7.87l-1.33-7.26c-.11-.59-.23-1.18-.33-1.78-.07-.44.14.72-.04-.4-.11-.66-.35-1.32-.68-1.9-.88-1.56-2.33-2.46-4.12-2.55-1.93-.09-1.93,2.91,0,3,.63.03,1.06.33,1.4.85.14.22.25.45.33.69.03.09.17.69.13.45.07.41.11.83.19,1.24l1.05,5.71c.81,4.42,1.62,8.84,2.43,13.27.03.16.1.35.09.51,0,.03.02.07.02.1.04-.31-.11.15-.19.19-.62.32-1.28.14-1.95.08-1.15-.1-2.3-.13-3.45-.19-4.88-.27-9.76-.53-14.64-.8l-6.91-.38c-1.13-.06-2.4.03-3.52-.19-.22-.04-.41-.14-.65-.23-.2-.07-.45-.24-.64-.28.27.05.19.5.19.03,0-.33-.15-.73-.23-1.06l-1.24-5.24c-1.08-4.54-2.15-9.09-3.23-13.63-.09-.38-.31-.89-.3-1.29.02-.93.84-1.07,1.67-1.05.87.02,1.74.07,2.61.11,8.72.36,17.44.71,26.16,1.07.23,0,.45.02.68.03,1.93.08,1.93-2.92,0-3Z"/>
              </g>
              <g>
                <path class="cls-6" d="M75.85,62.26l-13.11-.72,2.04,9.86,12.5-6.85c1.32-1.68.6-2.4-1.44-2.28ZM67.55,65.75l-2.89,1.56-.96-2.52h2.4c2.04,0,2.52,0,1.44.96Z"/>
                <g>
                  <path class="cls-4" d="M75.85,60.76c-3.82-.21-7.65-.42-11.47-.63-.54-.03-1.09-.06-1.63-.09-1.03-.06-1.63,1-1.45,1.9.68,3.29,1.36,6.57,2.04,9.86.2.98,1.4,1.33,2.2.9,2.02-1.11,4.04-2.22,6.06-3.32,1.43-.78,2.86-1.57,4.29-2.35.71-.39,1.45-.74,2.13-1.17.97-.62,1.68-2.22,1.34-3.35-.46-1.52-2.15-1.8-3.52-1.74-1.92.09-1.93,3.09,0,3,.17,0,.34-.01.51-.01.05,0,.41.03.21,0,.09.01.34,0,.23.04-.08-.04-.08-.04,0,0,.1.06.07.03-.09-.07-.13-.2-.16-.38-.25-.61.07.19.03-.05-.02.02-.01.02-.3.46-.45.66l.54-.54c-3.64,1.99-7.28,3.99-10.92,5.98l-1.59.87,2.2.9c-.68-3.29-1.36-6.57-2.04-9.86l-1.45,1.9c3.82.21,7.65.42,11.47.63.54.03,1.09.06,1.63.09,1.93.11,1.92-2.89,0-3Z"/>
                  <path class="cls-4" d="M66.79,64.45l-2.89,1.56,2.2.9c-.32-.84-.64-1.68-.96-2.52l-1.45,1.9h1.79c.73,0,1.48-.05,2.21.04l-.4-.05c.09.01.18.03.27.06l-.36-.15s.05.03.08.04l-.3-.23s.02.02.03.03l-.23-.3s.01.02.02.03l-.15-.36s0,.02,0,.04l-.05-.4s0,.03,0,.04l.05-.4s-.01.04-.02.06l.15-.36c-.02.05-.06.1-.09.15l.23-.3c-.13.17-.29.31-.45.45-.59.52-.57,1.59,0,2.12.63.58,1.5.56,2.12,0s1.19-1.29.94-2.19c-.16-.59-.64-1.01-1.22-1.19-.31-.09-.64-.11-.96-.13-.88-.05-1.78-.02-2.67-.02h-1.01c-.48,0-.89.22-1.18.59-.27.35-.43.87-.27,1.31.32.84.64,1.68.96,2.52.17.45.41.78.87.97s.91.16,1.33-.08l2.89-1.56c.69-.37.97-1.39.54-2.05-.45-.7-1.31-.94-2.05-.54Z"/>
                </g>
              </g>
              <g>
                <path class="cls-6" d="M66.11,64.79h-2.4l.96,2.52,2.89-1.56c1.08-.96.6-.96-1.44-.96Z"/>
                <path class="cls-4" d="M66.11,64.04h-2.4c-.45,0-.9.49-.72.95.32.84.64,1.68.96,2.52.17.46.64.7,1.1.45l2.25-1.22c.33-.18.65-.33.93-.59.2-.18.4-.39.52-.63.22-.44.12-.96-.31-1.23-.29-.18-.64-.21-.97-.23-.45-.03-.9-.02-1.35-.02-.39,0-.77.34-.75.75s.33.75.75.75c.39,0,.78,0,1.16.01.12,0,.25.02.37.03.1,0-.22-.04-.02,0,.04,0,.08.03.13.03.08.02-.2-.1-.12-.05.03.02.08.06-.03-.03-.11-.08-.16-.17-.21-.31-.02-.06-.02-.24,0-.3-.02.09.1-.18.05-.12-.01.02-.03.04-.04.06-.07.13.13-.14.03-.04-.03.04-.06.07-.1.11-.04.05-.09.09-.14.14-.03.03-.07.06-.1.09-.07.07-.03-.02.08-.05-.08.02-.15.08-.22.12l-.5.27-1.31.71-.85.46,1.1.45c-.32-.84-.64-1.68-.96-2.52l-.72.95h2.4c.39,0,.77-.34.75-.75s-.33-.75-.75-.75Z"/>
              </g>
            </g>
          </g>
          <g>
            <path class="cls-2" d="M118.6,59.23l1.69,9.75c4.59,2.34,11.43,2.25,14.71,0l1.78-9.75c-4.31,1.22-14.9,1.69-18.18,0Z"/>
            <path class="cls-4" d="M117.78,59.46c.33,1.92.66,3.84,1,5.76l.58,3.33c.04.21.04.44.11.64.24.71,1.28.95,1.91,1.19,3.61,1.38,8.03,1.66,11.72.44.97-.32,2.52-.77,2.77-1.87.21-.92.34-1.86.51-2.78.41-2.23.82-4.47,1.22-6.7.11-.62-.38-1.23-1.05-1.05-2.94.81-6.09,1-9.13,1.06-1.61.03-3.24,0-4.84-.17-1.18-.12-2.48-.27-3.55-.81-.98-.48-1.84.98-.86,1.47,2.67,1.32,6.11,1.25,9.01,1.21,3.26-.05,6.67-.25,9.83-1.12l-1.05-1.05c-.59,3.25-1.19,6.5-1.78,9.75l.39-.51c-1.87,1.24-4.23,1.6-6.44,1.61-2.54.01-5.13-.47-7.42-1.61l.39.51c-.56-3.25-1.12-6.5-1.69-9.75-.19-1.08-1.83-.62-1.64.45Z"/>
          </g>
          <g>
            <path class="cls-2" d="M117.68,53.52c3.46-1.81,13.83-3.91,19.78,0,.51,1.59.57,3.8-.28,4.65-3.8,1.72-15.58,2.49-19.49,0-.68-1.25-.34-3.4,0-4.65Z"/>
            <path class="cls-4" d="M118.11,54.25c2.56-1.32,5.68-1.83,8.52-2.03,3.54-.25,7.34.07,10.39,2.03l-.39-.51c.26.86.8,3.12-.09,3.76-.58.43-1.73.53-2.43.68-2.23.46-4.51.66-6.78.71s-4.56-.03-6.76-.54c-.6-.14-1.94-.33-2.34-.85-.16-.21-.11-1.28-.09-1.67.03-.71.17-1.41.35-2.1.28-1.06-1.36-1.51-1.64-.45-.38,1.46-1.04,4.5.39,5.61,1.1.85,2.81,1.14,4.14,1.35,3.66.58,7.45.45,11.11-.06,1.47-.21,2.96-.46,4.35-.98.74-.27,1.18-.59,1.49-1.34.4-.98.39-2.11.24-3.15-.16-1.14-.32-1.75-1.35-2.32-.88-.49-1.84-.88-2.81-1.17-1.91-.57-3.93-.78-5.92-.77-3.74,0-7.9.6-11.26,2.33-.98.5-.11,1.97.86,1.47Z"/>
          </g>
          <g>
            <path class="cls-2" d="M119.9,55.37c2.95,1.59,13.09,1.59,15.3,0-4.42-2.66-12.64-2.38-15.3,0Z"/>
            <path class="cls-4" d="M119.47,56.11c1.08.56,2.29.8,3.48.97,1.61.23,3.24.33,4.87.33s3.11-.09,4.65-.32c1.06-.16,2.25-.37,3.15-.98.52-.36.58-1.13,0-1.47-2.62-1.55-5.83-2.06-8.84-2.01-2.53.04-5.5.42-7.49,2.14-.83.72.38,1.92,1.2,1.2,1.66-1.43,4.41-1.63,6.49-1.64,2.65-.02,5.46.41,7.77,1.78v-1.47c-.74.51-1.76.66-2.67.8-1.41.22-2.85.27-4.28.27s-2.92-.07-4.36-.27c-1.04-.14-2.19-.32-3.13-.81s-1.83.96-.86,1.47Z"/>
          </g>
          <g>
            <path class="cls-6" d="M132.99,55.28c-1.63-1.07-3.12-1.63-5.04-1.75v-3.36c0-3.8,0-7.59,0-11.39,0-1.48.07-2.82.55-4.26.98-2.94,3.13-5.8,5.93-7.22.65-.33.08-1.31-.57-.98-3.22,1.64-5.67,5.04-6.63,8.48-.01.05-.02.1-.04.14-.67-1.27-1.55-2.45-2.47-3.52-1.14-1.34-2.54-2.82-4.23-3.44-.69-.25-.98.84-.3,1.1.62.23,1.23.69,1.74,1.13.72.61,1.37,1.3,1.99,2.01,1.18,1.38,2.33,2.97,2.92,4.71,0,.02.02.04.03.06-.05.65-.05,1.31-.05,1.99v5.61c0,2.97,0,5.94,0,8.92-.46.02-.91.07-1.37.15-3.13.55-3.9,1.36-3.66,1.53.47.33,8.2,1.03,11.21.08Z"/>
            <g>
              <path class="cls-7" d="M128.51,21.44c1.31.45,2.56,1.06,3.75,1.76-.42-.76-.71-1.6-1.05-2.38-.28-.65-.57-1.32-.8-2-.09-.77-.05-1.56.1-2.31,1.95,1.35,3.48,3.31,4.26,5.53.17-1,.46-1.98.77-2.93.26-.81.55-1.61.93-2.37.35-.7.83-1.46,1.56-1.82.16-.08.32,0,.42.13,1.18,1.6,1.21,3.95.98,5.83-.18,1.52-.61,3.13-1.31,4.53.79-.48,1.64-.85,2.53-1.09,1.81-.5,3.73-.44,5.57-.17.07.01.15.05.22.1-.53.92-1.25,1.75-2.01,2.46-.21.2-.42.39-.64.57-.35.17-.7.33-1.04.47-1.56.64-3.37,1.02-5.07.83.26.43.45.91.59,1.38.08.28.14.56.19.85-.06.56-.17,1.12-.34,1.66-.02-.02-.04-.04-.05-.06-.44-.7-1.02-1.3-1.46-2.01-.18-.3-.3-.62-.41-.95-.25,1.17-.88,2.26-1.55,3.24-.44-.54-.82-1.12-1.09-1.77-.2-.47-.32-.97-.39-1.47,0-.03,0-.06,0-.09.03-.65.12-1.31.29-1.94-1.81-.01-3.57-.72-5.14-1.57-.62-.34-1.25-.7-1.86-1.08-.16-.15-.33-.3-.49-.44-.71-.64-1.38-1.28-1.95-2.06-.29-.4-.56-.82-.83-1.24,1.74-.53,3.63-.19,5.31.39Z"/>
              <path class="cls-5" d="M126.84,23.08c2.02.87,3.99,1.8,6.07,2.52.23.08.42-.12.4-.34-.08-.78-.54-1.48-1.07-2.07,0,0,0,0,0,0-.42-.76-.71-1.6-1.05-2.38-.28-.65-.57-1.32-.8-2-.09-.74-.05-1.49.09-2.22.1.13.2.27.29.4.47.68.86,1.42,1.23,2.16.85,1.69,1.65,3.34,2.08,5.18.08.34.56.3.6-.04.09-.77.12-1.55.04-2.32,0,.02.02.04.02.06.17-1,.46-1.98.77-2.93.26-.81.55-1.61.93-2.37.35-.7.83-1.46,1.56-1.82.03-.01.05-.02.08-.02.14,1.31,0,2.68-.18,3.93-.35,2.47-1.18,4.79-2.05,7.11-.12.33.33.52.53.27,1.58-1.97,2.52-4.33,3.12-6.76-.01.49-.05.98-.1,1.44-.18,1.52-.61,3.13-1.31,4.53.79-.48,1.64-.85,2.53-1.09,1.05-.29,2.13-.39,3.21-.37-.44.15-.88.31-1.33.47-1.88.68-3.65,1.63-5.27,2.79-.22.16-.07.51.17.52,3.29.23,6.33-1.65,8.92-3.53.03.02.06.03.08.05-.53.92-1.25,1.75-2.01,2.46-.21.2-.42.39-.64.57-.35.17-.7.33-1.04.47-1.56.64-3.37,1.02-5.07.83.15.25.27.51.38.78-.18-.11-.45.02-.46.24-.03.85.09,1.71.29,2.54-.41-.59-.89-1.13-1.27-1.74-.18-.3-.3-.62-.41-.95-.11.52-.3,1.03-.54,1.52-.01-.8-.09-1.6-.25-2.37-.05-.24-.41-.34-.54-.11-.45.78-.56,1.7-.56,2.58,0,.42.02.84.06,1.25-.32-.43-.6-.9-.81-1.4-.2-.47-.32-.97-.39-1.47,0-.03,0-.06,0-.09.03-.65.12-1.31.29-1.94-1.81-.01-3.57-.72-5.14-1.57-.62-.34-1.25-.7-1.86-1.08-.16-.15-.33-.3-.49-.44-.71-.64-1.38-1.28-1.95-2.06-.21-.29-.4-.59-.6-.89,1.08.67,2.25,1.19,3.41,1.69Z"/>
            </g>
            <g>
              <path class="cls-7" d="M123.63,24.67c-.89.31-1.74.72-2.55,1.2.29-.51.48-1.09.71-1.62.19-.44.39-.9.54-1.36.06-.52.03-1.06-.07-1.57-1.32.92-2.36,2.25-2.89,3.76-.12-.68-.31-1.35-.52-1.99-.18-.55-.37-1.1-.63-1.61-.24-.48-.56-.99-1.06-1.24-.11-.05-.22,0-.28.09-.8,1.09-.82,2.68-.67,3.97.12,1.04.41,2.13.89,3.08-.54-.32-1.12-.58-1.72-.74-1.23-.34-2.54-.3-3.79-.12-.05,0-.1.03-.15.07.36.63.85,1.19,1.37,1.68.14.13.29.26.44.39.24.12.47.23.7.32,1.06.44,2.29.7,3.45.57-.18.29-.31.62-.4.94-.05.19-.1.38-.13.58.04.38.12.76.23,1.13.01-.01.03-.03.04-.04.3-.48.69-.89.99-1.36.13-.2.21-.42.28-.64.17.79.6,1.54,1.06,2.2.3-.37.56-.76.74-1.2.13-.32.22-.66.27-1,0-.02,0-.04,0-.06-.02-.44-.08-.89-.2-1.32,1.23,0,2.43-.49,3.5-1.07.42-.23.85-.47,1.27-.73.11-.1.22-.2.33-.3.49-.43.94-.87,1.32-1.4.2-.27.38-.56.56-.84-1.18-.36-2.47-.13-3.61.27Z"/>
              <path class="cls-5" d="M124.76,25.78c-1.37.59-2.72,1.23-4.13,1.71-.16.05-.28-.08-.27-.23.06-.53.36-1.01.72-1.41,0,0,0,0,0,0,.29-.51.48-1.09.71-1.62.19-.44.39-.9.54-1.36.06-.5.03-1.01-.06-1.51-.07.09-.13.18-.2.27-.32.46-.58.97-.84,1.47-.58,1.15-1.12,2.27-1.42,3.52-.05.23-.38.2-.41-.03-.06-.52-.08-1.06-.03-1.58,0,.01-.01.03-.02.04-.12-.68-.31-1.35-.52-1.99-.18-.55-.37-1.1-.63-1.61-.24-.48-.56-.99-1.06-1.24-.02,0-.03-.01-.05-.01-.1.89,0,1.82.12,2.67.24,1.68.8,3.25,1.4,4.84.08.22-.22.35-.36.18-1.07-1.34-1.72-2.94-2.12-4.6,0,.34.03.67.07.98.12,1.04.41,2.13.89,3.08-.54-.32-1.12-.58-1.72-.74-.71-.2-1.45-.26-2.18-.25.3.1.6.21.9.32,1.28.47,2.48,1.11,3.58,1.89.15.11.05.35-.12.36-2.24.16-4.3-1.12-6.06-2.4-.02.01-.04.02-.06.04.36.63.85,1.19,1.37,1.68.14.13.29.26.44.39.24.12.47.23.7.32,1.06.44,2.29.7,3.45.57-.1.17-.19.35-.26.53.12-.07.31.01.31.16.02.58-.06,1.16-.2,1.73.28-.4.61-.77.86-1.18.13-.2.21-.42.28-.64.08.36.21.7.37,1.03,0-.54.06-1.09.17-1.61.03-.16.28-.23.37-.08.31.53.38,1.16.38,1.76,0,.28-.02.57-.04.85.22-.3.41-.61.55-.95.13-.32.22-.66.27-1,0-.02,0-.04,0-.06-.02-.44-.08-.89-.2-1.32,1.23,0,2.43-.49,3.5-1.07.42-.23.85-.47,1.27-.73.11-.1.22-.2.33-.3.49-.43.94-.87,1.32-1.4.14-.2.27-.4.41-.61-.73.45-1.53.81-2.32,1.15Z"/>
            </g>
          </g>
        </g>
      </g>
    </g>
  </g>
</svg>