<?xml version="1.0" encoding="UTF-8"?>
<svg xmlns="http://www.w3.org/2000/svg" viewBox="0 0 188.87 191.67">
  <defs>
    <style>
      .cls-1 {
        fill: #e7cd9c;
      }

      .cls-1, .cls-2, .cls-3, .cls-4, .cls-5, .cls-6, .cls-7, .cls-8, .cls-9, .cls-10 {
        stroke-width: 0px;
      }

      .cls-2 {
        fill: none;
      }

      .cls-3 {
        fill: #abb36c;
      }

      .cls-4 {
        fill: #000;
      }

      .cls-5 {
        fill: #db8730;
      }

      .cls-6 {
        mix-blend-mode: multiply;
        opacity: .49;
      }

      .cls-6, .cls-9 {
        fill: #5d863a;
      }

      .cls-7 {
        fill: #c67022;
      }

      .cls-8 {
        fill: #394a27;
      }

      .cls-11 {
        isolation: isolate;
      }

      .cls-10 {
        fill: #abd7e5;
      }
    </style>
  </defs>
  <g class="cls-11">
    <g id="Layer_2" data-name="Layer 2">
      <g id="Brand_Standard_Guid" data-name="Brand Standard Guid">
        <g>
          <g>
            <g>
              <path class="cls-3" d="M50.41,140.84c0-1.55.63-2.97,1.75-4.07-.49-1.31-1.25-2.62-2.28-3.92-3.63-4.59-8.72-6.24-13.98-4.51-5.79,1.89-10.14,7.37-10.34,13.01-.08,2.14-2.42,6.33-4.37,8.51-4.36,4.85-7.15,10.89-10.76,18-2.71,5.33-5.04,9.93-7.19,12.69-.47.6-.7,1.31-.64,1.98.02.23.06.36.08.43.01,0,.03,0,.04,0,.92,0,3.6-1.83,5.07-2.84,3.22-2.2,5.27-3.52,6.95-3.03,13.11,4.27,23.69,4.2,30.64-.17,5.31-3.35,8.56-9.21,9.65-17.44.23-1.71-.21-6.4-.63-8.13-.69-2.8-.73-2.76-1.01-5.52-1.86-1.18-2.96-2.99-2.97-4.98ZM16.24,176.81c-2,.4-3.23-1.6.87-2.16,17.2-4.72,26.68-14.07,21.18-24.8,6.1,1.89,8.52,21-22.05,26.96ZM44.93,140.44c-1.62,0-2.94-1.32-2.94-2.94s1.32-2.94,2.94-2.94c1.62,0,2.94,1.32,2.94,2.94s-1.32,2.94-2.94,2.94Z"/>
              <path class="cls-1" d="M59.47,140.9c-1.13.4-2.37.59-3.5.72-1.32.16-2.8.3-4.16.1.29,1.31,1.2,2.45,2.62,3.22.85-.37,2.56-1.37,5.04-4.05Z"/>
              <path class="cls-1" d="M55.84,140.88c1.55-.18,3.29-.47,4.66-1.3-1.63-1.22-3.8-2.2-6.25-2.81-1.62.9-2.57,2.4-2.56,4.06,0,.04,0,.08,0,.12,1.34.24,2.83.08,4.13-.07Z"/>
              <path class="cls-4" d="M61.88,139.04c-1.81-1.56-4.46-2.82-7.47-3.55-.58-1.43-1.42-2.85-2.53-4.25-4.34-5.48-10.46-7.44-16.8-5.36-6.78,2.22-11.87,8.68-12.12,15.37-.07,1.89-2.66,5.7-3.72,6.88-4.59,5.1-7.46,11.31-11.14,18.55-2.54,4.99-4.93,9.71-6.93,12.27h0c-.87,1.12-1.29,2.47-1.17,3.79.14,1.57.89,2.25,1.5,2.53.35.17.73.24,1.12.24,1.8,0,4.06-1.54,6.6-3.28,1.52-1.04,4.08-2.77,4.73-2.69,3.85,1.25,7.5,2.13,10.93,2.66,0,.07.02.14.03.22.62,2.36,1.24,4.72,1.86,7.08h-5.32c-1.37,0-1.37,2.13,0,2.13h12.85c1.37,0,1.37-2.13,0-2.13h-5.36c-.58-2.2-1.16-4.4-1.74-6.61-.03-.13-.07-.26-.1-.4,2.98.33,5.77.38,8.38.14.02.06.02.12.05.17.91,2.14,1.81,4.27,2.72,6.41.03.08.07.16.1.24h-.39c-1.42,0-1.43,2.21,0,2.21h9.61c1.42,0,1.43-2.21,0-2.21h-7.09c-.02-.11-.05-.23-.09-.34-.91-2.14-1.81-4.27-2.72-6.41-.05-.11-.09-.22-.14-.32,3.48-.55,6.57-1.64,9.21-3.3,5.99-3.77,9.63-10.26,10.83-19.28.27-2.03-.18-7.04-.68-9.08-.65-2.63-.68-2.47-.95-5.13,1.78-1.07,3.91-3.04,6.05-5.63l.36-.52-.48-.41ZM55.02,159.47c-1.09,8.22-4.34,14.09-9.65,17.44-6.94,4.38-17.52,4.44-30.64.17-1.68-.49-3.74.83-6.95,3.03-1.47,1.01-4.15,2.84-5.07,2.84-.01,0-.03,0-.04,0-.03-.07-.06-.2-.08-.43-.06-.67.17-1.38.64-1.98,2.15-2.76,4.49-7.36,7.19-12.69,3.61-7.1,6.39-13.15,10.76-18,1.96-2.17,4.3-6.37,4.37-8.51.21-5.64,4.56-11.12,10.34-13.01,5.26-1.72,10.35-.08,13.98,4.51,1.03,1.3,1.79,2.62,2.28,3.92-1.12,1.1-1.75,2.53-1.75,4.07.01,1.99,1.11,3.8,2.97,4.98.28,2.77.32,2.73,1.01,5.52.42,1.72.86,6.41.63,8.13ZM51.7,140.83c0-1.66.94-3.16,2.56-4.06,2.45.61,4.62,1.59,6.25,2.81-1.37.82-3.12,1.12-4.66,1.3-1.31.15-2.8.3-4.13.07,0-.04,0-.08,0-.12ZM54.43,144.95c-1.42-.77-2.33-1.91-2.62-3.22,1.36.2,2.84.06,4.16-.1,1.13-.14,2.37-.33,3.5-.72-2.48,2.67-4.2,3.68-5.04,4.05Z"/>
              <path class="cls-4" d="M38.29,149.85c5.5,10.72-3.98,20.08-21.18,24.8-4.1.57-2.87,2.57-.87,2.16,30.58-5.96,28.15-25.07,22.05-26.96Z"/>
              <path class="cls-4" d="M44.93,134.56c-1.62,0-2.94,1.32-2.94,2.94s1.32,2.94,2.94,2.94,2.94-1.32,2.94-2.94-1.32-2.94-2.94-2.94Z"/>
            </g>
            <path class="cls-8" d="M56.63,191.67h7.44c10.84,0,21.67,0,32.51,0,6.77,0,13.54,0,20.3,0,1.93,0,1.93-3,0-3-1.5,0-3.01,0-4.51,0-.03-.19-.11-.38-.24-.58-2.42-3.6-5.48-6.7-9.11-9.08-4.31-2.83-9.3-4.48-14.39-4.78,0-2.96,0-5.91,0-8.87,0-10.03,0-20.05,0-30.08,0-3.9.17-7.45,1.44-11.25,2.59-7.76,8.28-15.31,15.66-19.07,1.72-.88.2-3.46-1.51-2.59-8.5,4.33-14.98,13.32-17.51,22.4-.04.13-.06.25-.09.38-1.78-3.35-4.1-6.46-6.53-9.3-3.02-3.54-6.7-7.45-11.17-9.09-1.82-.67-2.59,2.23-.8,2.89,1.65.6,3.24,1.83,4.6,3,1.89,1.62,3.63,3.43,5.25,5.32,3.12,3.65,6.15,7.85,7.71,12.43.02.06.05.11.08.17-.12,1.73-.13,3.47-.13,5.26,0,4.94,0,9.88,0,14.82,0,7.85,0,15.7,0,23.55-1.21.06-2.41.18-3.61.39-8.27,1.46-15.1,6.78-19.89,13.49-.14.2-.22.39-.26.58-1.75,0-3.5,0-5.25,0-1.93,0-1.93,3,0,3Z"/>
            <g>
              <path class="cls-9" d="M90.12,89.44c3.45,1.19,6.75,2.79,9.89,4.64-1.12-1.99-1.88-4.22-2.77-6.3-.73-1.72-1.51-3.48-2.11-5.29-.23-2.03-.13-4.11.27-6.11,5.14,3.57,9.18,8.75,11.24,14.62.45-2.64,1.22-5.24,2.02-7.74.69-2.13,1.45-4.26,2.46-6.26.94-1.85,2.19-3.85,4.13-4.81.42-.21.84,0,1.1.36,3.11,4.22,3.19,10.43,2.6,15.41-.47,4.02-1.61,8.28-3.45,11.97,2.08-1.26,4.33-2.24,6.7-2.89,4.79-1.33,9.85-1.16,14.72-.45.19.03.4.13.58.27-1.41,2.43-3.31,4.61-5.31,6.51-.54.52-1.11,1.02-1.7,1.51-.92.46-1.84.88-2.74,1.24-4.12,1.69-8.89,2.7-13.39,2.2.7,1.13,1.19,2.39,1.55,3.64.21.74.37,1.49.51,2.25-.16,1.49-.45,2.96-.89,4.39-.05-.05-.1-.1-.14-.17-1.15-1.86-2.7-3.44-3.84-5.3-.49-.79-.8-1.64-1.09-2.5-.66,3.08-2.33,5.98-4.1,8.56-1.17-1.42-2.17-2.96-2.88-4.67-.52-1.24-.85-2.55-1.04-3.88,0-.08,0-.17,0-.25.08-1.72.33-3.45.76-5.12-4.77-.04-9.43-1.89-13.58-4.14-1.65-.89-3.3-1.84-4.92-2.85-.43-.39-.86-.78-1.29-1.16-1.89-1.69-3.66-3.37-5.14-5.43-.76-1.07-1.47-2.17-2.18-3.27,4.59-1.39,9.59-.5,14.02,1.03Z"/>
              <path class="cls-6" d="M85.72,93.78c5.33,2.3,10.55,4.76,16.05,6.66.61.21,1.11-.32,1.04-.9-.22-2.06-1.41-3.92-2.81-5.46,0,0,.01,0,.02.01-1.12-1.99-1.88-4.22-2.77-6.3-.73-1.72-1.51-3.48-2.11-5.29-.22-1.95-.13-3.94.23-5.87.27.35.52.71.76,1.06,1.25,1.8,2.27,3.75,3.26,5.7,2.26,4.45,4.35,8.81,5.5,13.69.21.89,1.47.78,1.58-.1.25-2.04.32-4.1.12-6.13.02.05.04.1.06.16.45-2.64,1.22-5.24,2.02-7.74.69-2.13,1.45-4.26,2.46-6.26.94-1.85,2.19-3.85,4.13-4.81.07-.03.14-.04.2-.05.38,3.45,0,7.07-.47,10.39-.92,6.52-3.11,12.64-5.42,18.79-.33.87.87,1.37,1.41.7,4.17-5.2,6.67-11.43,8.25-17.86-.03,1.31-.13,2.59-.27,3.79-.47,4.02-1.61,8.28-3.45,11.97,2.08-1.26,4.33-2.24,6.7-2.89,2.77-.77,5.63-1.02,8.49-.98-1.17.39-2.33.81-3.5,1.24-4.95,1.81-9.64,4.31-13.92,7.36-.58.42-.19,1.34.46,1.39,8.7.6,16.72-4.37,23.56-9.33.08.04.15.08.22.14-1.41,2.43-3.31,4.61-5.31,6.51-.54.52-1.11,1.02-1.7,1.51-.92.46-1.84.88-2.74,1.24-4.12,1.69-8.89,2.7-13.39,2.2.4.65.72,1.34,1,2.05-.47-.28-1.19.05-1.22.63-.08,2.24.23,4.51.76,6.72-1.08-1.56-2.36-2.98-3.36-4.59-.49-.79-.8-1.64-1.09-2.5-.3,1.38-.8,2.72-1.42,4.01-.03-2.11-.24-4.22-.67-6.27-.13-.62-1.08-.91-1.44-.3-1.19,2.06-1.48,4.49-1.48,6.82,0,1.11.06,2.21.16,3.31-.85-1.15-1.58-2.37-2.13-3.69-.52-1.24-.85-2.55-1.04-3.88,0-.08,0-.17,0-.25.08-1.72.33-3.45.76-5.12-4.77-.04-9.43-1.89-13.58-4.14-1.65-.89-3.3-1.84-4.92-2.85-.43-.39-.86-.78-1.29-1.16-1.89-1.69-3.66-3.37-5.14-5.43-.55-.77-1.06-1.57-1.57-2.36,2.84,1.76,5.95,3.13,9.02,4.45Z"/>
            </g>
            <g>
              <path class="cls-9" d="M77.22,97.97c-2.35.81-4.59,1.9-6.73,3.16.76-1.36,1.28-2.87,1.88-4.28.5-1.17,1.03-2.37,1.44-3.6.16-1.38.09-2.79-.18-4.16-3.5,2.43-6.24,5.95-7.64,9.94-.31-1.79-.83-3.56-1.38-5.26-.47-1.45-.98-2.89-1.68-4.26-.64-1.26-1.49-2.62-2.81-3.27-.28-.14-.57,0-.75.24-2.12,2.87-2.17,7.09-1.77,10.48.32,2.74,1.1,5.63,2.35,8.14-1.42-.85-2.95-1.52-4.55-1.96-3.26-.9-6.7-.79-10.01-.31-.13.02-.27.09-.39.18.96,1.65,2.25,3.14,3.61,4.43.37.35.76.69,1.15,1.03.62.31,1.25.6,1.86.85,2.8,1.15,6.05,1.84,9.1,1.5-.47.77-.81,1.63-1.05,2.47-.14.5-.25,1.01-.35,1.53.11,1.01.31,2.01.61,2.98.04-.03.07-.07.1-.11.78-1.26,1.83-2.34,2.61-3.6.33-.54.54-1.11.74-1.7.45,2.1,1.59,4.07,2.79,5.82.8-.97,1.48-2.02,1.96-3.17.35-.85.58-1.74.7-2.64,0-.06,0-.12,0-.17-.06-1.17-.22-2.35-.52-3.48,3.24-.02,6.41-1.29,9.23-2.81,1.12-.61,2.25-1.25,3.35-1.94.29-.27.59-.53.87-.79,1.28-1.15,2.49-2.29,3.5-3.69.52-.72,1-1.47,1.48-2.22-3.12-.95-6.52-.34-9.54.7Z"/>
              <path class="cls-6" d="M80.21,100.91c-3.62,1.56-7.17,3.24-10.91,4.53-.41.14-.75-.22-.71-.61.15-1.4.96-2.66,1.91-3.72,0,0,0,0-.01,0,.76-1.36,1.28-2.87,1.88-4.28.5-1.17,1.03-2.37,1.44-3.6.15-1.33.09-2.68-.16-3.99-.18.24-.35.48-.52.72-.85,1.23-1.54,2.55-2.21,3.88-1.53,3.03-2.96,5.99-3.74,9.31-.14.6-1,.53-1.07-.07-.17-1.39-.22-2.79-.08-4.17-.01.04-.03.07-.04.11-.31-1.79-.83-3.56-1.38-5.26-.47-1.45-.98-2.89-1.68-4.26-.64-1.26-1.49-2.62-2.81-3.27-.05-.02-.09-.03-.14-.04-.26,2.35,0,4.81.32,7.07.62,4.43,2.11,8.6,3.69,12.77.22.59-.59.93-.96.48-2.83-3.53-4.53-7.77-5.61-12.14.02.89.09,1.76.19,2.58.32,2.74,1.1,5.63,2.35,8.14-1.42-.85-2.95-1.52-4.55-1.96-1.88-.52-3.83-.7-5.77-.67.8.27,1.59.55,2.38.84,3.37,1.23,6.55,2.93,9.47,5,.4.28.13.91-.31.94-5.92.41-11.37-2.97-16.02-6.34-.05.03-.1.06-.15.09.96,1.65,2.25,3.14,3.61,4.43.37.35.76.69,1.15,1.03.62.31,1.25.6,1.86.85,2.8,1.15,6.05,1.84,9.1,1.5-.27.44-.49.91-.68,1.4.32-.19.81.03.83.43.06,1.52-.15,3.07-.52,4.57.73-1.06,1.61-2.02,2.28-3.12.33-.54.54-1.11.74-1.7.2.94.55,1.85.97,2.73.02-1.43.16-2.87.46-4.26.09-.42.74-.62.98-.2.81,1.4,1,3.05,1.01,4.64,0,.75-.04,1.5-.11,2.25.58-.78,1.07-1.61,1.45-2.51.35-.85.58-1.74.7-2.64,0-.06,0-.12,0-.17-.06-1.17-.22-2.35-.52-3.48,3.24-.02,6.41-1.29,9.23-2.81,1.12-.61,2.25-1.25,3.35-1.94.29-.27.59-.53.87-.79,1.28-1.15,2.49-2.29,3.5-3.69.38-.52.72-1.06,1.07-1.6-1.93,1.2-4.05,2.13-6.13,3.03Z"/>
            </g>
          </g>
          <g>
            <g>
              <path class="cls-3" d="M138.64,49.16c-1.99-2.24-7.97-6.54-10.7-7.93-3.41-1.74-3.39-1.63-6.29-3.66.01-.21,0-.43.03-.64.82-8.87,7.66-15.62,14.85-20.1,10.36-6.45,22.73-9.51,34.78-10.7,1.74-.17,3.49-.3,5.24-.4.55-.03,1.1-.05,1.65-.08.23,0,.99-.17,1.18-.04.29.19.15.21.07.49-.3,1.08-1.22,2.26-1.81,3.14-2.1,3.16-4.52,6.12-6.91,9.05-6.3,7.71-12.85,15.22-18.87,23.15-2.87,3.77-5.64,7.64-8.07,11.71-.28.47-.56.95-.83,1.44-1.26-1.82-2.69-3.64-4.29-5.44Z"/>
              <path class="cls-4" d="M139.62,48.18c-2.39-2.63-5.54-4.76-8.5-6.68s-5.97-3.17-8.77-5.13l.69,1.2c.28-8.37,7.12-15.03,13.72-19.24,8.07-5.15,17.34-8.1,26.72-9.75,2.59-.45,5.2-.8,7.82-1.06,1.51-.15,3.02-.27,4.53-.36.65-.04,1.3-.06,1.95-.1.2-.01.4-.02.61-.04.49-.04.65.16.17-.28l-.41-.98c-.06.47-.74,1.35-1.05,1.82-.53.78-1.06,1.56-1.6,2.33-1.16,1.65-2.4,3.25-3.66,4.82-2.5,3.12-5.06,6.19-7.62,9.26-5.16,6.18-10.33,12.36-15.13,18.84-2.64,3.56-5.15,7.21-7.34,11.06h2.4c-1.39-1.99-2.9-3.9-4.51-5.72-1.19-1.35-3.15.63-1.97,1.97,1.45,1.65,2.82,3.36,4.08,5.16.58.83,1.85.97,2.4,0,6.05-10.63,14.23-19.98,22.04-29.34,3.85-4.61,7.8-9.19,11.31-14.07.77-1.07,1.54-2.15,2.25-3.26.53-.82,1.43-2.19,1.15-3.24s-1.43-1.23-2.36-1.17c-1.37.1-2.75.15-4.12.25-11.13.8-22.31,3.04-32.45,7.83-8.7,4.11-17.76,10.6-20.79,20.18-.4,1.26-.66,2.56-.81,3.88-.07.6-.22,1.36.1,1.92.31.52.97.83,1.46,1.17,1.73,1.18,3.57,2.06,5.42,3.04s3.67,2.24,5.39,3.5,3.49,2.58,4.93,4.17c1.21,1.33,3.17-.64,1.97-1.97Z"/>
            </g>
            <g>
              <path class="cls-3" d="M120.68,34.63c.54,1.84,2.67,6.45,3.81,7.93,5.47,7.09,11.68,10.81,18.45,11.06,8.85.32,18.77-5.35,28.7-16.43,1.3-1.37,3.94-1.25,8.13-.94,1.92.14,5.42.4,6.28-.09.01,0,.03-.01.04-.02-.01-.08-.05-.22-.16-.45-.31-.66-.9-1.19-1.67-1.5-3.5-1.42-8.18-4.44-13.59-7.95-7.22-4.68-13.09-8.81-19.79-10.98-3.01-.97-7.46-3.62-8.69-5.58-3.25-5.16-10.27-7.91-16.7-6.55-5.84,1.24-9.71,5.54-10.61,11.79-.26,1.78-.26,3.41,0,4.9,1.64.42,3.01,1.41,3.84,2.86,1.07,1.86,1.02,4.15-.08,6.26,1.24,2.73,1.17,2.72,2.05,5.7ZM134.9,24.52c.67,12.99,14.59,16.6,33.21,11.68,4.14-1.69,4.07.85,1.98,1.55-31.78,10.99-39.87-8.17-35.2-13.23ZM119.27,18.17c-.88-1.51-.36-3.46,1.15-4.33,1.51-.88,3.46-.36,4.34,1.15.88,1.51.36,3.46-1.15,4.34s-3.46.36-4.34-1.15Z"/>
              <path class="cls-1" d="M117.88,24.26c.44,1.38.2,2.94-.7,4.43-.99.11-3.13.11-6.9-1.05,1.27-.24,2.53-.73,3.66-1.22,1.32-.57,2.77-1.24,3.94-2.16Z"/>
              <path class="cls-1" d="M117.5,23.36s.03.08.05.11c-1.12.95-2.59,1.61-3.9,2.18-1.54.67-3.33,1.34-5.06,1.32.86-2.02,2.35-4.11,4.31-6.01,2-.04,3.7.85,4.59,2.4Z"/>
              <path class="cls-4" d="M106.8,27.85l.62.29c3.4,1.26,6.45,1.94,8.7,1.98,1.19,2.64,1.07,2.5,1.9,5.3.64,2.17,2.93,7.09,4.28,8.85,6,7.77,12.92,11.86,20.55,12.14,3.36.12,6.84-.53,10.38-1.9,2.56-1.18,9.1-5.09,11.7-7.02,2.92-2.36,5.85-5.15,8.77-8.41.57-.42,3.9-.2,5.88-.05,3.31.25,6.26.47,7.94-.51.37-.22.68-.49.92-.83.41-.6.75-1.63.03-3.18-.61-1.3-1.72-2.33-3.14-2.9h0c-3.25-1.31-8.05-4.42-13.12-7.71-7.36-4.77-13.4-9.01-20.45-11.29-1.63-.53-6.11-2.68-7.2-4.41-3.85-6.11-12.11-9.38-19.64-7.79-7.05,1.49-11.71,6.64-12.78,14.11-.27,1.9-.29,3.68-.06,5.34-2.41,2.31-4.2,4.91-5.05,7.36l-.22.64ZM120.68,34.63c-.87-2.98-.81-2.97-2.05-5.7,1.1-2.11,1.14-4.39.08-6.26-.83-1.45-2.2-2.44-3.84-2.86-.25-1.49-.25-3.12,0-4.9.9-6.25,4.77-10.55,10.61-11.79,6.43-1.36,13.45,1.39,16.7,6.55,1.23,1.95,5.69,4.61,8.69,5.58,6.7,2.17,12.57,6.3,19.79,10.98,5.41,3.51,10.09,6.54,13.59,7.95.77.31,1.36.84,1.67,1.5.11.23.14.37.16.45-.01,0-.02.02-.04.02-.86.5-4.36.24-6.28.09-4.2-.31-6.83-.43-8.13.94-9.93,11.09-19.85,16.76-28.7,16.43-6.77-.25-12.98-3.97-18.45-11.06-1.14-1.48-3.28-6.09-3.81-7.93ZM110.28,27.64c1.27-.24,2.53-.73,3.66-1.22,1.32-.57,2.77-1.24,3.94-2.16.44,1.38.2,2.94-.7,4.43-.99.11-3.13.11-6.9-1.05ZM108.6,26.97c.86-2.02,2.35-4.11,4.31-6.01,2-.04,3.7.85,4.59,2.4.02.04.03.08.05.11-1.12.95-2.59,1.61-3.9,2.18-1.54.67-3.33,1.34-5.06,1.32Z"/>
              <path class="cls-4" d="M134.9,24.52c.67,12.99,14.59,16.6,33.21,11.68,4.14-1.69,4.07.85,1.98,1.55-31.78,10.99-39.87-8.17-35.2-13.23Z"/>
              <path class="cls-4" d="M120.43,13.84c1.51-.88,3.46-.36,4.34,1.15.88,1.51.36,3.46-1.15,4.34s-3.46.36-4.34-1.15c-.88-1.51-.36-3.46,1.15-4.33Z"/>
            </g>
          </g>
          <g>
            <g>
              <path class="cls-5" d="M85.18,48.8c2.04,1.14,3.96,6.48,1.51,10.12-.33.49-1.02.59-1.48.23-4.87-3.84-2.37-11.46-.03-10.35Z"/>
              <path class="cls-4" d="M85.39,48.3c1.43.83,2.23,2.53,2.64,4.06.53,1.99.5,4.2-.44,6.07-.25.49-.52,1.03-1.03,1.29s-1.11.22-1.59-.09c-.97-.64-1.75-1.71-2.26-2.74-.91-1.83-1.08-4.04-.51-6,.38-1.31,1.52-3.35,3.19-2.6.63.28.21,1.27-.43.99-.11-.05-.09-.06-.23-.07,0,0-.19.02-.13,0-.2.05-.33.14-.51.32-.36.36-.62.93-.8,1.43-.51,1.48-.46,3.19.05,4.66.32.92.83,1.76,1.5,2.47.25.26.65.76,1.04.73s.61-.6.76-.92c.73-1.52.79-3.26.44-4.88-.28-1.29-.95-3.05-2.13-3.74-.59-.34-.17-1.33.43-.99Z"/>
            </g>
            <g>
              <path class="cls-2" d="M114.29,36.08c-.03-.07-.08-.13-.14-.18-.08-.1-.18-.15-.28-.16,0,0,0-.02-.01-.03-.11-.2-.24-.35-.45-.45-.77-.35-1.85.04-2.6.28-1.38.44-2.71,1.05-4,1.71-.13.06-.25.13-.38.2-.65-.22-1.32-.34-2.01-.24-1.94.27-3.23,1.98-4.17,3.56-.26-1.2-.32-2.43-.14-3.64.34-2.3,1.56-4.41,3.39-5.79,1.75-1.31,3.94-1.86,6.12-1.37,2.72.62,4.85,2.83,6.25,5.23,1.07,1.82,1.79,3.83,2.34,5.86.05.19.09.38.14.56-.58-.79-1.15-1.57-1.73-2.36-.78-1.06-1.55-2.12-2.33-3.18Z"/>
              <path class="cls-2" d="M104.88,38.26c-.97.54-1.93,1.12-2.85,1.75.75-.95,1.68-1.71,2.85-1.75Z"/>
              <path class="cls-5" d="M121.31,44.93s.03.01,0,0h0Z"/>
              <path class="cls-5" d="M120.58,44.27c-.34-.43-.63-.9-.82-1.41-.22-.56-.29-1.2-.44-1.79-.28-1.1-.61-2.18-1.02-3.24-.67-1.74-1.53-3.44-2.67-4.93-1.64-2.13-3.97-3.84-6.7-4.15-2.3-.25-4.63.5-6.4,1.98-1.87,1.55-3.1,3.79-3.47,6.19-.2,1.33-.15,2.71.14,4.03.08.35.17.7.28,1.05-.31.28-.61.57-.9.87-.02.02-.04.04-.05.06-.02-.06-.04-.11-.06-.17-.94-2.96-1.09-6.24.09-9.12.96-2.34,2.76-4.31,4.98-5.41,2.27-1.12,4.82-1.39,7.29-.68,2.78.8,5.1,2.85,6.68,5.32,2.22,3.48,3.1,7.68,3.41,11.76-.11-.11-.22-.23-.32-.35Z"/>
              <path class="cls-5" d="M126.25,54.22s-.01-.02-.02-.03c0-.05.02-.06.02.03Z"/>
              <path class="cls-5" d="M126.25,54.22s.04.07.07.08c0,0,0,.02.01.02-.04,0-.06-.02-.08-.05,0,0,0,0,0-.01,0-.02,0-.03,0-.05Z"/>
              <path class="cls-5" d="M102.24,46.58c4.6-1.93,8.9-5.08,11.56-9.35.43.58.86,1.17,1.28,1.75-.06.04-.12.09-.16.17-.53.87-1.18,1.68-1.86,2.44-1.62,1.81-3.5,3.39-5.51,4.75-2.25,1.52-4.74,2.76-7.4,3.38-.09.02-.16.06-.22.1-.43-.68-.86-1.35-1.28-2.03,1.22-.33,2.42-.72,3.59-1.21Z"/>
              <path class="cls-5" d="M109.37,64.39c.35.14.66-.07.74-.41.79-2.99-.75-5.73-3.12-7.51-.56-.42-1.1-.83-1.79-.97-.5-.1-1.01-.2-1.51-.3-.13-.03-.27-.05-.4-.08-.93-1.46-1.86-2.93-2.78-4.39,1.5-.37,2.94-.9,4.32-1.57,2.46-1.21,4.74-2.79,6.78-4.62,1.53-1.38,3.03-2.9,4.12-4.67,2.05,2.8,4.1,5.59,6.15,8.39,1.3,1.78,2.61,3.56,3.91,5.34.14.19.28.38.42.58,0,0,0,.01.01.02,0,.03,0,.06.02.09,0,.07.01.13.02.2.07,1.18-.4,2.35-1.02,3.33-1.62,2.59-4.24,4.53-6.86,6.02-1.29.74-2.65,1.37-4.06,1.85-1.06.36-2.22.68-3.35.65-.08,0-.41-.03-.58-.07,0,0-.01,0-.02,0-.06-.09-.15-.2-.18-.25-.36-.57-.73-1.15-1.09-1.72.09.04.18.07.27.11Z"/>
              <path class="cls-4" d="M126.23,54.19s.01.02.02.03c0,.01,0,.03,0,.05,0,0,0,0,0,.01-.02-.03-.02-.06-.02-.09Z"/>
              <path class="cls-5" d="M99.1,43.88c1.04-1.16,2.31-2.11,3.59-2.98,1.23-.84,2.51-1.6,3.82-2.29,1.05.42,2.02,1.07,3.08,1.48-1.8,1.53-3.86,2.82-5.9,3.94-1.23.67-2.49,1.3-3.8,1.78-.48.18-.95.32-1.38.4-.19.03-.39.06-.58.06.02,0,.01,0,0,0,0-.04-.01-.08-.02-.12-.01-.09,0-.12,0-.09.02-.31.05-.41.15-.65.23-.57.6-1.04,1.04-1.54Z"/>
              <path class="cls-7" d="M107.71,37.99c1.15-.57,2.33-1.09,3.55-1.47.5-.16.79-.25,1.33-.3.04,0,.12,0,.17,0-.07.29-.2.56-.36.84-.34.57-.78,1.08-1.23,1.55-.22.23-.45.46-.69.68-.04-.02-.08-.04-.13-.06-.71-.2-1.37-.57-2.02-.92-.2-.11-.41-.21-.62-.32Z"/>
              <path class="cls-5" d="M96.91,58.33c-2.03-.8-4.05-1.6-6.08-2.4.19-.48.34-.98.35-1.49,0-.23-.02-.45-.07-.66.68.14,1.35.27,2.03.41,3.49.7,6.98,1.4,10.48,2.1.48.1.96.19,1.44.29.08.02.17.03.26.05-.02.02.22.15.27.18.36.23.71.48,1.05.75,1.06.85,1.97,1.92,2.39,3.24.25.77.28,1.58.16,2.37-.6-.24-1.19-.47-1.79-.71-3.49-1.38-6.99-2.76-10.48-4.13Z"/>
              <path class="cls-5" d="M88.33,54.18c-.1-1.1-.37-2.24-.83-3.28,1.33.95,2.5,2.24,2.44,3.87-.05,1.33-.94,2.35-2.02,3.08.43-1.15.52-2.45.41-3.66Z"/>
              <path class="cls-4" d="M86.12,59.52c.13.17.34.26.6.16,1.04-.42,2.03-.99,2.83-1.78.31-.31.58-.65.8-1.01.65.26,1.3.51,1.96.77,3.49,1.38,6.99,2.76,10.48,4.13,1.54.61,3.08,1.21,4.62,1.82l1.58,2.5c.2.31.37.71.63.97.33.33,1.1.32,1.53.32.54,0,1.09-.07,1.62-.18,2.97-.61,5.8-2.08,8.27-3.8,2.4-1.66,4.94-3.88,5.93-6.72.21-.6.35-1.22.36-1.86.01-.4.04-.88-.19-1.23-.3-.45-.64-.87-.96-1.3-1.49-2.04-2.99-4.08-4.48-6.11-.06-.08-.11-.15-.17-.23.05-.01.1-.02.15-.04.23-.08.35-.32.34-.56-.04-.7-.09-1.4-.17-2.09-.46-4.29-1.64-8.74-4.31-12.21-1.87-2.43-4.51-4.27-7.56-4.82-2.69-.49-5.49.08-7.81,1.5-2.38,1.45-4.16,3.81-4.97,6.47-.96,3.18-.6,6.55.5,9.64-.43.58-.78,1.23-.86,1.93-.05.48,0,1.2.48,1.44-.09.16-.09.36.04.56.05.08.1.16.15.24,1,1.58,2,3.15,3,4.73.44.69.88,1.38,1.31,2.07-1.14-.23-2.28-.46-3.41-.69-2.63-.53-5.27-1.06-7.9-1.58-.02-.02-.05-.03-.07-.04-.9-1.68-2.7-2.86-4.32-3.7-.47-.25-.98.41-.64.82,1.06,1.26,1.6,2.93,1.77,4.55.17,1.62-.04,3.41-1.16,4.66,0,0,0,.01-.01.02,0,.01-.02.02-.02.03-.16.22-.1.46.06.62ZM109.09,64.28c.09.04.18.07.27.11.35.14.66-.07.74-.41.79-2.99-.75-5.73-3.12-7.51-.56-.42-1.1-.83-1.79-.97-.5-.1-1.01-.2-1.51-.3-.13-.03-.27-.05-.4-.08-.93-1.46-1.86-2.93-2.78-4.39,1.5-.37,2.94-.9,4.32-1.57,2.46-1.21,4.74-2.79,6.78-4.62,1.53-1.38,3.03-2.9,4.12-4.67,2.05,2.8,4.1,5.59,6.15,8.39,1.3,1.78,2.61,3.56,3.91,5.34.14.19.28.38.42.58,0,0,0,.01.01.02,0-.05.02-.06.02.03.02.03.04.07.07.08,0,0,0,.02.01.02-.04,0-.06-.02-.08-.05,0,.07.01.13.02.2.07,1.18-.4,2.35-1.02,3.33-1.62,2.59-4.24,4.53-6.86,6.02-1.29.74-2.65,1.37-4.06,1.85-1.06.36-2.22.68-3.35.65-.08,0-.41-.03-.58-.07,0,0-.01,0-.02,0-.06-.09-.15-.2-.18-.25-.36-.57-.73-1.15-1.09-1.72ZM120.9,44.62c-.11-.11-.22-.23-.32-.35-.34-.43-.63-.9-.82-1.41-.22-.56-.29-1.2-.44-1.79-.28-1.1-.61-2.18-1.02-3.24-.67-1.74-1.53-3.44-2.67-4.93-1.64-2.13-3.97-3.84-6.7-4.15-2.3-.25-4.63.5-6.4,1.98-1.87,1.55-3.1,3.79-3.47,6.19-.2,1.33-.15,2.71.14,4.03.08.35.17.7.28,1.05-.31.28-.61.57-.9.87-.02.02-.04.04-.05.06-.02-.06-.04-.11-.06-.17-.94-2.96-1.09-6.24.09-9.12.96-2.34,2.76-4.31,4.98-5.41,2.27-1.12,4.82-1.39,7.29-.68,2.78.8,5.1,2.85,6.68,5.32,2.22,3.48,3.1,7.68,3.41,11.76ZM97.9,46.06c.02-.31.05-.41.15-.65.23-.57.6-1.04,1.04-1.54,1.04-1.16,2.31-2.11,3.59-2.98,1.23-.84,2.51-1.6,3.82-2.29,1.05.42,2.02,1.07,3.08,1.48-1.8,1.53-3.86,2.82-5.9,3.94-1.23.67-2.49,1.3-3.8,1.78-.48.18-.95.32-1.38.4-.19.03-.39.06-.58.06.02,0,.01,0,0,0,0-.04-.01-.08-.02-.12-.01-.09,0-.12,0-.09ZM99.93,49.82c-.43-.68-.86-1.35-1.28-2.03,1.22-.33,2.42-.72,3.59-1.21,4.6-1.93,8.9-5.08,11.56-9.35.43.58.86,1.17,1.28,1.75-.06.04-.12.09-.16.17-.53.87-1.18,1.68-1.86,2.44-1.62,1.81-3.5,3.39-5.51,4.75-2.25,1.52-4.74,2.76-7.4,3.38-.09.02-.16.06-.22.1ZM116.61,39.25c-.78-1.06-1.55-2.12-2.33-3.18-.03-.07-.08-.13-.14-.18-.08-.1-.18-.15-.28-.16,0,0,0-.02-.01-.03-.11-.2-.24-.35-.45-.45-.77-.35-1.85.04-2.6.28-1.38.44-2.71,1.05-4,1.71-.13.06-.25.13-.38.2-.65-.22-1.32-.34-2.01-.24-1.94.27-3.23,1.98-4.17,3.56-.26-1.2-.32-2.43-.14-3.64.34-2.3,1.56-4.41,3.39-5.79,1.75-1.31,3.94-1.86,6.12-1.37,2.72.62,4.85,2.83,6.25,5.23,1.07,1.82,1.79,3.83,2.34,5.86.05.19.09.38.14.56-.58-.79-1.15-1.57-1.73-2.36ZM108.33,38.31c-.2-.11-.41-.21-.62-.32,1.15-.57,2.33-1.09,3.55-1.47.5-.16.79-.25,1.33-.3.04,0,.12,0,.17,0-.07.29-.2.56-.36.84-.34.57-.78,1.08-1.23,1.55-.22.23-.45.46-.69.68-.04-.02-.08-.04-.13-.06-.71-.2-1.37-.57-2.02-.92ZM102.03,40.02c.75-.95,1.68-1.71,2.85-1.75-.97.54-1.93,1.12-2.85,1.75ZM121.31,44.93s.03.01,0,0h0ZM96.91,58.33c-2.03-.8-4.05-1.6-6.08-2.4.19-.48.34-.98.35-1.49,0-.23-.02-.45-.07-.66.68.14,1.35.27,2.03.41,3.49.7,6.98,1.4,10.48,2.1.48.1.96.19,1.44.29.08.02.17.03.26.05-.02.02.22.15.27.18.36.23.71.48,1.05.75,1.06.85,1.97,1.92,2.39,3.24.25.77.28,1.58.16,2.37-.6-.24-1.19-.47-1.79-.71-3.49-1.38-6.99-2.76-10.48-4.13ZM87.93,57.84c.43-1.15.52-2.45.41-3.66-.1-1.1-.37-2.24-.83-3.28,1.33.95,2.5,2.24,2.44,3.87-.05,1.33-.94,2.35-2.02,3.08Z"/>
            </g>
            <circle class="cls-4" cx="85.26" cy="51.39" r=".55"/>
            <circle class="cls-4" cx="83.71" cy="53.18" r=".55"/>
            <circle class="cls-4" cx="85.65" cy="53.87" r=".55"/>
            <circle class="cls-4" cx="84.53" cy="55.63" r=".55"/>
            <circle class="cls-4" cx="85.99" cy="56.92" r=".55"/>
            <path class="cls-10" d="M80,53.87c-6.78,6.05-10.19,14.41-9.74,23.46.05,1,1.61,1,1.56,0-.19-3.9.27-7.79,1.62-11.47,1.57-4.25,4.3-7.89,7.66-10.89.75-.67-.36-1.77-1.1-1.1h0Z"/>
            <path class="cls-10" d="M80.7,58.31c-5.2,7.47-6.56,16.38-4.03,25.09.28.96,1.78.55,1.5-.41-1.09-3.74-1.55-7.63-1.08-11.51.55-4.5,2.37-8.68,4.94-12.38.57-.82-.78-1.6-1.34-.79h0Z"/>
            <path class="cls-10" d="M83.16,60.45c-3.38,8.46-2.68,17.43,1.75,25.35.49.88,1.83.09,1.34-.79-4.24-7.59-4.82-16.07-1.59-24.15.37-.93-1.13-1.33-1.5-.41h0Z"/>
          </g>
          <g>
            <g>
              <polygon class="cls-10" points="56.11 155.12 57.04 151.88 55.31 149.61 51.67 150.39 50 152.99 52.11 156.57 56.11 155.12"/>
              <path class="cls-4" d="M57.04,155.38c.26-.89.51-1.79.77-2.68.13-.45.32-.9.04-1.34-.25-.39-.58-.76-.86-1.13s-.56-.74-.84-1.11-.63-.54-1.09-.44c-.99.21-1.98.42-2.97.63-.51.11-.94.14-1.27.62-.29.41-.54.85-.82,1.27s-.56.87-.83,1.3c-.18.29-.17.69,0,.98.7,1.19,1.41,2.39,2.11,3.58.2.34.69.59,1.09.44,1.33-.48,2.66-.97,4-1.45.49-.18.82-.66.68-1.19-.13-.47-.7-.85-1.19-.68-1.33.48-2.66.97-4,1.45l1.09.44c-.7-1.19-1.41-2.39-2.11-3.58v.98c.56-.87,1.11-1.73,1.67-2.6l-.58.44c1.21-.26,2.43-.52,3.64-.78l-1.09-.44c.58.76,1.15,1.52,1.73,2.27l-.1-.75c-.31,1.08-.62,2.16-.93,3.24-.14.5.18,1.05.68,1.19s1.04-.17,1.19-.68Z"/>
            </g>
            <g>
              <polygon class="cls-10" points="56.09 155.78 52.06 157.21 49.79 172.71 53.83 177.71 57.56 170.32 56.09 155.78"/>
              <path class="cls-4" d="M55.83,154.85c-1.34.48-2.68.95-4.03,1.43-.29.1-.63.34-.68.68-.45,3.08-.9,6.17-1.36,9.25-.25,1.74-.51,3.48-.76,5.22-.05.34-.12.68-.15,1.02-.06.69.33,1.05.73,1.55,1.18,1.47,2.37,2.94,3.55,4.4.38.47,1.26.32,1.52-.2.7-1.39,1.41-2.79,2.11-4.18l1.29-2.55c.19-.38.44-.76.46-1.19.07-1.24-.26-2.63-.39-3.86l-.66-6.54c-.14-1.37-.28-2.73-.41-4.1-.12-1.23-2.06-1.24-1.93,0,.32,3.21.65,6.42.97,9.63.15,1.51.18,3.09.46,4.58,0,.03,0,.31.03.32-.12-.05.32-.78-.04-.13-.4.71-.74,1.47-1.11,2.19-.81,1.61-1.63,3.23-2.44,4.84l1.52-.2c-1.35-1.67-2.69-3.34-4.04-5l.25.94c.76-5.17,1.51-10.33,2.27-15.5l-.68.68c1.34-.48,2.68-.95,4.03-1.43,1.17-.41.66-2.28-.51-1.87Z"/>
            </g>
          </g>
        </g>
      </g>
    </g>
  </g>
</svg>