<?xml version="1.0" encoding="UTF-8"?>
<svg id="Layer_2" data-name="Layer 2" xmlns="http://www.w3.org/2000/svg" viewBox="0 0 218.31 175.96">
  <defs>
    <style>
      .cls-1 {
        fill: #e7cd9c;
      }

      .cls-1, .cls-2, .cls-3, .cls-4, .cls-5, .cls-6 {
        stroke-width: 0px;
      }

      .cls-2 {
        fill: none;
      }

      .cls-3 {
        fill: #abb36c;
      }

      .cls-4 {
        fill: #000;
      }

      .cls-5 {
        fill: #394a28;
      }

      .cls-6 {
        fill: #394a27;
      }
    </style>
  </defs>
  <g id="Brand_Standard_Guid" data-name="Brand Standard Guid">
    <g>
      <path class="cls-2" d="M88.94,83.65c.05-.12.08-.25.13-.37.84-2.06,2.84-4.1,5.35-5.23-1.87,1.66-3.73,3.56-5.48,5.6Z"/>
      <path class="cls-3" d="M9.84,104.85c-3.78,6.28-7.26,13.39-4.83,25.12.76,3.66,2.11,7.09,3.96,10.16,5.47-8.1,8.45-18.16,7.86-27.88-.14-2.25,3.36-2.24,3.5,0,.64,10.5-2.67,21.52-8.68,30.18-.2.29-.45.48-.71.6,2.42,3.16,5.41,5.83,8.86,7.79,13.72,7.81,31.27,8.7,44.71,2.27,11.26-5.39,18.83-18.29,18.83-32.1,0-7.3-3.08-12.77-5.8-17.6-1.75-3.11-3.26-5.8-3.64-8.5-.1-.7-.21-1.4-.31-2.11-.18-1.19-.36-2.37-.5-3.56-1.72-14.13-9.85-28.89-27.44-28.89-.54,0-1.08.01-1.63.04-18.03.9-29.1,15.18-29.38,28.46-.12,5.46-2.54,12.33-4.77,16.03ZM54.69,82.94c0-2.83,2.01-5.13,4.48-5.13s4.48,2.3,4.48,5.13-2.01,5.13-4.48,5.13-4.48-2.3-4.48-5.13ZM33.3,89.12h0c2.15-3.39,5.55-7.89,10.34-7.89h.03c3.69.02,7.13,2.67,10.5,8.1.86,1.39,1.13,3.1.74,4.69-2.03,8.22-7.21,11.83-8.23,12.48-1.04.65-1.99.9-2.86.9-2.1,0-3.62-1.47-4.33-2.15l-.56-.54c-2.49-2.38-4.29-4.1-6.3-10.49-.54-1.72-.3-3.58.66-5.1ZM23.87,82.94c0-2.83,2.01-5.13,4.48-5.13s4.48,2.3,4.48,5.13-2.01,5.13-4.48,5.13-4.48-2.3-4.48-5.13Z"/>
      <path class="cls-1" d="M44.59,98.05c1.74-.08,3.41-.59,5-1.49-1.96,4.26-4.77,6.15-5.16,6.39-.57.36-.78.49-2.03-.72l-.57-.55c-1.75-1.67-2.85-2.72-4-5.4,1.82,1.03,3.93,1.78,6.27,1.78.16,0,.32,0,.49-.01Z"/>
      <path class="cls-1" d="M43.64,85.43h.01c1.93,0,4.15,1.87,6.45,5.36-1.81,1.93-3.73,2.97-5.7,3.06-2.96.15-5.59-1.75-7.13-3.13,2.33-3.5,4.47-5.29,6.36-5.29Z"/>
      <path class="cls-4" d="M33.3,89.12c-.96,1.52-1.2,3.38-.66,5.1,2,6.39,3.8,8.11,6.3,10.49l.56.54c.7.68,2.23,2.15,4.33,2.15.86,0,1.82-.25,2.86-.9,1.02-.64,6.2-4.26,8.23-12.48.39-1.59.13-3.3-.74-4.69-3.37-5.43-6.8-8.08-10.5-8.1h-.03c-4.79,0-8.2,4.5-10.34,7.89h0ZM37.84,96.28c1.82,1.03,3.93,1.78,6.27,1.78.16,0,.32,0,.49-.01,1.74-.08,3.41-.59,5-1.49-1.96,4.26-4.77,6.15-5.16,6.39-.57.36-.78.49-2.03-.72l-.57-.55c-1.75-1.67-2.85-2.72-4-5.4ZM37.28,90.72c2.33-3.5,4.47-5.29,6.36-5.29h.01c1.93,0,4.15,1.87,6.45,5.36-1.81,1.93-3.73,2.97-5.7,3.06-2.96.15-5.59-1.75-7.13-3.13Z"/>
      <path class="cls-4" d="M28.35,77.81c2.47,0,4.48,2.3,4.48,5.13s-2.01,5.13-4.48,5.13-4.48-2.3-4.48-5.13,2.01-5.13,4.48-5.13Z"/>
      <path class="cls-4" d="M59.17,77.81c2.47,0,4.48,2.3,4.48,5.13s-2.01,5.13-4.48,5.13-4.48-2.3-4.48-5.13,2.01-5.13,4.48-5.13Z"/>
      <path class="cls-3" d="M100.37,106.54c-3.09,4.64-7.23,9.76-12.79,15.34l-5.55-20.39c.34-1.48.88-2.99,1.56-4.52,3.57,6.34,9.97,9.17,16.78,9.57Z"/>
      <path class="cls-4" d="M.89,130.83c2.1,10.14,8.23,18.76,16.81,23.65,2.94,1.67,6.33,3.17,10.01,4.37,0,.09-.03.17-.03.27,0,3.86,0,7.72,0,11.58h-10.77c-3.39,0-3.4,5.27,0,5.27h21.88c3.39,0,3.4-5.27,0-5.27h-6.04c0-3.49,0-6.97,0-10.46,3.87.88,7.98,1.41,12.22,1.41,3.22,0,6.51-.31,9.82-.97,0,3.34,0,6.68,0,10.01h-6.04c-3.39,0-3.4,5.27,0,5.27h21.88c3.39,0,3.4-5.27,0-5.27h-10.77v-11.31c2.15-.67,4.3-1.49,6.43-2.51,11.24-5.38,19.2-17.32,20.87-30.67l.66-.64c7.16-6.95,12.22-13.31,15.79-19.01-1.09.05-2.18.05-3.26-.02-3.09,4.64-7.23,9.76-12.79,15.34l-5.55-20.39c.34-1.48.88-2.99,1.56-4.52-.21-.37-.42-.73-.61-1.13-.35-.73-.63-1.48-.88-2.24-.93,1.78-1.7,3.57-2.26,5.32-.93-1.74-1.63-3.29-1.82-4.62-.1-.72-.21-1.43-.32-2.15-.17-1.15-.35-2.29-.49-3.44-3.05-25.08-19.29-33.25-33.46-32.54-20.48,1.03-33.05,17.36-33.37,32.56-.11,5.02-2.5,11.18-4.16,13.95-4.02,6.68-8.08,14.92-5.35,28.14ZM9.84,104.85c2.22-3.7,4.65-10.57,4.77-16.03.28-13.28,11.34-27.55,29.38-28.46.55-.03,1.1-.04,1.63-.04,17.6,0,25.72,14.76,27.44,28.89.15,1.19.33,2.38.5,3.56.11.7.21,1.4.31,2.11.38,2.7,1.89,5.39,3.64,8.5,2.72,4.83,5.8,10.31,5.8,17.6,0,13.81-7.57,26.71-18.83,32.1-13.44,6.43-30.99,5.54-44.71-2.27-3.45-1.96-6.44-4.63-8.86-7.79.26-.12.51-.32.71-.6,6.02-8.65,9.32-19.68,8.68-30.18-.14-2.24-3.64-2.25-3.5,0,.59,9.73-2.39,19.78-7.86,27.88-1.84-3.07-3.2-6.5-3.96-10.16-2.43-11.73,1.05-18.84,4.83-25.12Z"/>
      <path class="cls-6" d="M170.13,102.37c-1.21-1.56-2.66-4.43-4.19-7.47-2.23-4.41-3.96-8.19-6.74-11.3-.64-.72-2.21-3.04-2.25-4.19-.14-4.06-3.22-8-7.34-9.36-3.85-1.27-7.58-.09-10.23,3.23-.67.85-1.19,1.71-1.54,2.58-1.83.44-3.44,1.2-4.55,2.15l-.29.25.22.32c1.3,1.58,2.59,2.78,3.67,3.43-.17,1.62-.19,1.52-.58,3.12-.31,1.24-.59,4.28-.43,5.52.71,5.49,2.92,9.44,6.55,11.74,1.6,1.01,3.48,1.68,5.59,2.02,1.58.15,5.87.11,7.68-.09,2.09-.32,4.31-.85,6.65-1.6.4-.04,1.95,1.01,2.87,1.65,1.54,1.06,2.91,2,4.01,2.01.24,0,.47-.04.68-.15.37-.17.83-.58.92-1.54.07-.8-.18-1.62-.7-2.3h0Z"/>
      <path class="cls-5" d="M103.63,106.56c1.07-.05,2.13-.15,3.19-.31-.19,11.34-.37,22.68-.56,34.03-.03,1.95,1.67,3.59,3.59,3.59,11.76,0,23.52,0,35.28,0-2.7,5.76-4.16,12.23-2.23,18.38,3.37,10.73,15.98,16.21,26.4,12.56,5.62-1.97,9.82-6.31,11.67-11.97,2-6.13,1.04-12.84-.95-18.96,11.54,0,23.08,0,34.62,0,1.95,0,3.59-1.65,3.59-3.59v-42.29c0-2.6-3.1-4.64-5.41-3.1-2.9,1.92-5.94,3.64-9.33,4.52-2.19.57-4.37.68-6.19.2-2.76-.73-5-2.99-5.89-5.43-1.2-3.28-1.19-5.97-.02-9.25.91-2.54,3.36-5.13,6.33-6.04,4.77-1.45,10.36-.02,15.1,2.08.35.16.69.24,1.03.29,1.9.36,4.08-.62,4.33-2.95.15-.53.17-1.07.04-1.58,0-13.32,0-26.64,0-39.96,0-1.95-1.65-3.59-3.59-3.59h-34.05c2.5-6.09,3.75-12.84,1.62-19.17-3.63-10.79-16.08-16.72-26.8-12.77-13.49,4.96-14.47,19.71-11.31,31.86-11.2-.18-22.4-.37-33.6-.55-1.95-.03-3.59,1.67-3.59,3.59v34.03c-5.58-.94-11.36-.75-16.5,1.85-7.98,4.06-10.97,13.46-8.29,21.59.25.76.53,1.51.88,2.24.19.39.4.76.61,1.13,3.57,6.34,9.97,9.17,16.78,9.57,1.08.06,2.17.07,3.26.02ZM107.85,98.76c-1.08.27-2.19.48-3.3.62-3.3.43-6.67.22-9.61-1.23-3.81-1.88-6.13-5.37-6.62-9.12-.23-1.78-.04-3.62.61-5.38.05-.12.08-.25.13-.37.84-2.06,2.84-4.1,5.35-5.23.2-.09.39-.18.59-.26,1.82-.69,3.73-.98,5.65-1.01,2.84-.05,5.72.48,8.43,1.2.15.04.3.08.44.12.82.22,1.64.13,2.36-.19,1.26-.55,2.19-1.79,2.19-3.28v-34.85c11.64.19,23.27.38,34.91.57,2.19.04,4.27-2.35,3.46-4.55-2.37-6.51-4.3-14.78-1.71-20.96,3.19-7.62,12.03-9.49,18.52-5.9,3.55,1.96,5.7,4.85,6.56,9.04,1.11,5.41-1.25,11.89-4.06,16.97-1.31,2.37.33,5.41,3.1,5.41,12.06,0,24.11,0,36.17,0,0,10.78,0,21.56,0,32.34-5.8-1.83-12-2.43-17.69.23-9.42,4.38-12.36,16.61-7.86,25.53,2.19,4.33,6.35,7.51,11.14,8.35,4.98.87,9.91-.42,14.41-2.6,0,10.83,0,21.65,0,32.48-12.06,0-24.11,0-36.17,0-2.1,0-4.38,2.34-3.47,4.55,2.64,6.37,4.98,14.1,2.31,20.6-2.78,6.79-11.78,8.61-18.07,5.22-3.46-1.86-5.59-4.57-6.29-8.69-.86-5.08,1.89-11.41,4.98-16.27,1.48-2.33-.46-5.41-3.1-5.41-12.57,0-25.15,0-37.72,0,.19-11.64.38-23.27.57-34.91.04-2.3-2.33-4.12-4.55-3.46-.55.16-1.12.32-1.69.46Z"/>
    </g>
  </g>
</svg>