<?xml version="1.0" encoding="UTF-8"?>
<svg id="Layer_2" data-name="Layer 2" xmlns="http://www.w3.org/2000/svg" viewBox="0 0 306.86 204.66">
  <defs>
    <style>
      .cls-1 {
        fill: #e7cd9c;
      }

      .cls-1, .cls-2, .cls-3, .cls-4, .cls-5, .cls-6, .cls-7, .cls-8, .cls-9 {
        stroke-width: 0px;
      }

      .cls-2, .cls-10, .cls-11 {
        fill: none;
      }

      .cls-3, .cls-12 {
        fill: #ceaa6f;
      }

      .cls-4 {
        fill: #ffe;
      }

      .cls-5 {
        fill: #abb36c;
      }

      .cls-6 {
        fill: #48513f;
        opacity: .74;
      }

      .cls-12 {
        stroke-width: 1.44px;
      }

      .cls-12, .cls-10, .cls-11, .cls-13 {
        stroke-miterlimit: 10;
      }

      .cls-12, .cls-13 {
        stroke: #000;
      }

      .cls-7 {
        fill: #a3804d;
      }

      .cls-8, .cls-13 {
        fill: #000;
      }

      .cls-10 {
        stroke-width: .31px;
      }

      .cls-10, .cls-11 {
        stroke: #efeecb;
      }

      .cls-11 {
        stroke-width: .27px;
      }

      .cls-9 {
        fill: #394a27;
      }

      .cls-13 {
        stroke-width: .41px;
      }
    </style>
  </defs>
  <g id="Bird_Workers" data-name="Bird Workers">
    <g>
      <g>
        <ellipse class="cls-6" cx="252.63" cy="154.22" rx="43.69" ry="7.37"/>
        <ellipse class="cls-6" cx="57.89" cy="197.3" rx="43.69" ry="7.37"/>
        <g>
          <path class="cls-2" d="M123.14,4.73s-.04.02-.05.02c0,0,.03,0,.05-.02,0,0,0,0,0,0Z"/>
          <path class="cls-2" d="M122.45,6.17c-.03.19-.03.47.02-.06,0,0,0,0,0-.01,0,.02-.01.05-.02.07Z"/>
          <path class="cls-2" d="M176.44,7.02c0-.19.02-.39.01-.58,0-.09-.01-.18-.02-.27-.02-.1-.04-.21-.05-.26-.04-.16-.08-.32-.13-.47v-.02c-.11-.17-.2-.35-.3-.52-.05-.05-.1-.1-.16-.15-.06-.04-.12-.07-.17-.1-.06-.02-.12-.04-.18-.05-.04,0-.07,0-.11,0-.04,0-.09,0-.13,0-.08.02-.15.04-.22.07-.06.03-.13.07-.19.11-.11.1-.22.21-.32.31-.07.1-.13.21-.18.32-.03.09-.07.19-.09.29-.04.13-.06.26-.09.4,0,0,0,.02,0,.02-.02.31-.01.61,0,.92h2.34Z"/>
          <path class="cls-2" d="M174.12,5.84c0,.08-.02.16-.02.23,0,0,0,.01,0,.02,0,0,0,0,0,0,0-.07.01-.15.02-.24Z"/>
          <path class="cls-2" d="M174.08,6.17c-.03.19-.03.47.02-.06,0,0,0,0,0-.01,0,.02-.01.05-.02.07Z"/>
          <path class="cls-2" d="M174.77,4.73s-.04.02-.05.02c0,0,.03,0,.05-.02,0,0,0,0,0,0Z"/>
          <path class="cls-2" d="M124.81,7.02c0-.19.02-.39.02-.58,0-.09-.01-.18-.02-.27-.02-.1-.04-.21-.05-.26-.04-.16-.08-.32-.13-.47,0,0,0-.01,0-.02-.1-.17-.19-.35-.3-.52-.05-.05-.1-.1-.16-.15-.06-.04-.12-.07-.17-.1-.06-.02-.12-.04-.18-.05-.04,0-.07,0-.11,0-.05,0-.09,0-.14,0-.08.02-.15.04-.22.07-.06.03-.13.07-.19.11-.11.1-.22.21-.32.31-.07.1-.13.21-.18.32-.03.09-.07.19-.09.29-.04.13-.06.26-.09.4,0,0,0,.02,0,.02-.02.31-.01.61,0,.92h2.34Z"/>
          <path class="cls-2" d="M122.49,5.84c0,.08-.02.16-.02.23,0,0,0,.01,0,.02h0c0-.08.01-.16.02-.25Z"/>
          <path class="cls-5" d="M175.97,48.28h-2.97v11.48h10.44v-11.48h-7.48Z"/>
          <path class="cls-5" d="M157.31,59.75h11.92v-11.48h-11.92v11.48Z"/>
          <path class="cls-5" d="M153.53,84.5v-5.72h-11.48v12.37h11.48v-6.65Z"/>
          <path class="cls-5" d="M183.45,63.53h-10.44v11.48h10.44v-11.48Z"/>
          <path class="cls-5" d="M126.8,48.28v11.48h11.48v-11.48h-11.48Z"/>
          <path class="cls-5" d="M111.4,59.75h11.63v-11.48h-11.63v11.48Z"/>
          <path class="cls-5" d="M142.05,63.53v11.48h11.48v-11.48h-11.48Z"/>
          <path class="cls-5" d="M142.05,39.23v5.28h11.48v-10.89h-11.48v5.61Z"/>
          <path class="cls-5" d="M153.53,59.75v-11.48h-11.48v11.48h11.48Z"/>
          <path class="cls-5" d="M169.23,75.01v-11.48h-11.92v11.48h11.92Z"/>
          <path class="cls-5" d="M138.28,63.53h-11.48v11.48h11.48v-11.48Z"/>
          <path class="cls-5" d="M118.84,75.01h4.19v-11.48h-11.63v11.48h7.44Z"/>
          <path class="cls-5" d="M169.23,84.5v-5.72h-11.92v12.37h11.92v-6.65Z"/>
          <path class="cls-5" d="M126.8,39.23v5.28h11.48v-10.89h-11.48v5.61Z"/>
          <path class="cls-5" d="M111.4,39.33v5.17h11.63v-10.89h-11.63v5.72Z"/>
          <path class="cls-5" d="M157.31,39.23v5.28h11.92v-10.89h-11.92v5.61Z"/>
          <path class="cls-5" d="M173,39.23v5.28h10.44v-10.89h-10.44v5.61Z"/>
          <path class="cls-5" d="M123.03,84.5v-5.72h-11.63v12.37h11.63v-6.65Z"/>
          <path class="cls-5" d="M138.28,84.5v-5.72h-11.48v12.37h11.48v-6.65Z"/>
          <path class="cls-5" d="M183.45,85.43v-6.65h-10.44v12.37h10.44v-5.72Z"/>
          <path class="cls-5" d="M110.79,100.79h82.05V26.66h-91.64v74.13h9.59ZM107.63,85.43V31.73c0-.56.2-.98.51-1.28.01-.01.02-.02.03-.04.02-.02.04-.04.06-.06.3-.3.72-.5,1.28-.5h75.82c1.02,0,1.89.87,1.89,1.89v61.3c0,1.02-.87,1.89-1.89,1.89h-75.82c-1.02,0-1.89-.87-1.89-1.89v-7.6Z"/>
          <path class="cls-5" d="M131.77,26.66h61.07v-15.05h-12.68c-.4,1.18-.91,2.34-1.48,3.45.04.19.07.39.07.6,0,1.52-1.23,2.75-2.75,2.75s-2.75-1.23-2.75-2.75c0-.87.41-1.63,1.03-2.13.24-.44.49-.87.7-1.33.09-.19.18-.38.26-.57,0,0,0-.02,0-.02h-46.73c-.49,1.46-1.16,2.88-1.89,4.23-.1,1.43-1.28,2.57-2.73,2.57s-2.75-1.23-2.75-2.75c0-1.15.71-2.14,1.72-2.55.16-.31.33-.6.48-.91.09-.19.18-.38.26-.57,0,0,0-.02,0-.02h-22.42v15.05h30.57Z"/>
          <path class="cls-9" d="M195.13,7.02h-14.11c.04-1.51-.21-3.04-1.03-4.34-.98-1.56-2.51-2.49-4.34-2.66-1.55-.14-3.16.54-4.25,1.62-1.41,1.38-2.01,3.44-1.88,5.38h-40.13c.04-1.51-.2-3.04-1.03-4.34-.98-1.56-2.51-2.49-4.34-2.66-1.55-.14-3.16.54-4.25,1.62-1.41,1.38-2.01,3.44-1.88,5.38h-18.97c-.67,0-1.18.24-1.55.61-.03.02-.05.05-.08.07-.01.01-.03.03-.04.04-.37.37-.62.88-.62,1.56v93.76c0,1.24,1.05,2.29,2.29,2.29h96.22c1.24,0,2.29-1.05,2.29-2.29V9.32c0-1.24-1.05-2.29-2.29-2.29ZM101.2,71.34V11.61h22.42s0,.02,0,.02c-.09.19-.17.38-.26.57-.15.31-.32.61-.48.91-1.01.41-1.72,1.39-1.72,2.55,0,1.52,1.23,2.75,2.75,2.75s2.64-1.13,2.73-2.57c.74-1.35,1.4-2.77,1.89-4.23h46.73s0,.02,0,.02c-.09.19-.17.38-.26.57-.22.45-.46.89-.7,1.33-.63.5-1.03,1.27-1.03,2.13,0,1.52,1.23,2.75,2.75,2.75s2.75-1.23,2.75-2.75c0-.21-.03-.41-.07-.6.57-1.11,1.08-2.26,1.48-3.45h12.68v89.18h-91.64v-29.45ZM174.77,4.73s0,0,0,0c-.02,0-.04.02-.05.02.02,0,.03-.01.05-.02ZM174.08,6.17s.01-.05.02-.07c0,0,0-.01,0-.02,0-.08.02-.16.02-.23,0,.1-.02.17-.02.24.03-.13.05-.27.09-.4.03-.1.06-.19.09-.29.06-.11.12-.22.18-.32.1-.11.21-.21.32-.31.06-.04.13-.07.19-.11.07-.02.15-.05.22-.07.04,0,.09,0,.13,0,.04,0,.07,0,.11,0,.06.02.12.03.18.05.06.03.12.07.17.1.05.05.11.1.16.15.1.17.19.35.3.52v.02c.06.16.1.31.14.47.01.05.03.17.05.26,0,.09.01.18.02.27,0,.19,0,.39-.01.58h-2.34c-.02-.31-.03-.61,0-.92-.05.53-.05.25-.02.06ZM123.14,4.73s0,0,0,0c-.02,0-.04.02-.05.02.02,0,.03-.01.05-.02ZM122.45,6.17s.01-.05.02-.07c0,0,0-.01,0-.02,0-.08.02-.16.02-.23,0,.1-.01.17-.02.24.03-.13.05-.27.09-.4.03-.1.06-.19.09-.29.06-.11.12-.22.18-.32.1-.11.21-.21.32-.31.06-.04.13-.07.19-.11.07-.02.15-.05.22-.07.04,0,.09,0,.14,0,.04,0,.07,0,.11,0,.06.02.12.03.18.05.06.03.12.07.17.1.05.05.11.1.16.15.1.17.19.35.3.52,0,0,0,.01,0,.02.05.16.09.31.13.47.01.05.03.17.05.26,0,.09.01.18.02.27,0,.19-.01.39-.02.58h-2.34c-.02-.31-.03-.61,0-.92-.05.53-.05.25-.02.06Z"/>
          <path class="cls-5" d="M109.52,94.92h75.82c1.02,0,1.89-.86,1.89-1.89V31.73c0-1.02-.86-1.89-1.89-1.89h-75.82c-.55,0-.97.2-1.28.5-.02.02-.04.04-.06.06-.01.01-.02.02-.03.04-.31.3-.51.73-.51,1.28v61.3c0,1.02.86,1.89,1.89,1.89ZM153.53,48.28v11.48h-11.48v-11.48h11.48ZM142.05,75.01v-11.48h11.48v11.48h-11.48ZM111.4,63.53h11.63v11.48h-11.63v-11.48ZM126.8,71.59v-8.07h11.48v11.48h-11.48v-3.41ZM157.31,71.59v-8.07h11.92v11.48h-11.92v-3.41ZM173,71.59v-8.07h10.44v11.48h-10.44v-3.41ZM183.45,59.75h-10.44v-11.48h10.44v11.48ZM169.23,52.13v7.62h-11.92v-11.48h11.92v3.86ZM138.28,52.13v7.62h-11.48v-11.48h11.48v3.86ZM123.03,52.13v7.62h-11.63v-11.48h11.63v3.86ZM142.05,78.78h11.48v12.37h-11.48v-12.37ZM153.53,44.5h-11.48v-10.89h11.48v10.89ZM111.4,91.15v-12.37h11.63v12.37h-11.63ZM126.8,91.15v-12.37h11.48v12.37h-11.48ZM157.31,91.15v-12.37h11.92v12.37h-11.92ZM173,91.15v-12.37h10.44v12.37h-10.44ZM183.45,33.62v10.89h-10.44v-10.89h10.44ZM169.23,33.62v10.89h-11.92v-10.89h11.92ZM138.28,33.62v10.89h-11.48v-10.89h11.48ZM123.03,33.62v10.89h-11.63v-10.89h11.63Z"/>
          <path class="cls-9" d="M122.46,6.09s0,0,0,.01c0,0,0-.02,0-.02h0Z"/>
          <path class="cls-9" d="M174.1,6.09s0,0,0,.01c0,0,0-.02,0-.02,0,0,0,0,0,0Z"/>
        </g>
        <g>
          <g>
            <polyline class="cls-4" points="107.96 28.08 107.96 85.01 187.63 85.01"/>
            <path class="cls-8" d="M107.46,28.08v19.25c0,10.22,0,20.45,0,30.67v7.01c0,.27.23.5.5.5h79.67c.64,0,.65-1,0-1h-79.67l.5.5V28.08c0-.64-1-.65-1,0h0Z"/>
          </g>
          <polyline class="cls-4" points="186.46 84.51 186.52 28.19 108.48 28.49"/>
          <line class="cls-11" x1="114.64" y1="28.47" x2="114.64" y2="84.51"/>
          <line class="cls-11" x1="121.25" y1="28.47" x2="121.25" y2="84.51"/>
          <line class="cls-11" x1="128.01" y1="28.47" x2="128.01" y2="84.51"/>
          <line class="cls-11" x1="134.42" y1="28.47" x2="134.42" y2="84.51"/>
          <line class="cls-11" x1="141.03" y1="28.47" x2="141.03" y2="84.51"/>
          <line class="cls-11" x1="147.79" y1="28.47" x2="147.79" y2="84.51"/>
          <line class="cls-11" x1="154.42" y1="28.47" x2="154.42" y2="84.51"/>
          <line class="cls-11" x1="161.03" y1="28.47" x2="161.03" y2="84.51"/>
          <line class="cls-11" x1="167.8" y1="28.47" x2="167.8" y2="84.51"/>
          <line class="cls-11" x1="174.2" y1="28.47" x2="174.2" y2="84.51"/>
          <line class="cls-11" x1="180.81" y1="28.47" x2="180.81" y2="84.51"/>
          <line class="cls-10" x1="185.92" y1="33.55" x2="109.45" y2="33.55"/>
          <line class="cls-10" x1="185.92" y1="40.16" x2="109.45" y2="40.16"/>
          <line class="cls-10" x1="185.92" y1="46.93" x2="109.45" y2="46.93"/>
          <line class="cls-10" x1="185.92" y1="53.55" x2="109.45" y2="53.55"/>
          <line class="cls-10" x1="185.92" y1="60.17" x2="109.45" y2="60.17"/>
          <line class="cls-10" x1="185.92" y1="66.93" x2="109.45" y2="66.93"/>
          <line class="cls-10" x1="185.92" y1="73.33" x2="109.45" y2="73.33"/>
          <line class="cls-10" x1="185.92" y1="79.95" x2="109.45" y2="79.95"/>
          <path class="cls-13" d="M166.21,45.98c.34-1.02-1.14-1.96-2.02-.4-1.52,2.7-2.89,5.48-4.42,8.18-.83,1.46-1.66,2.98-2.76,4.25-.12.14-.9,1.02-2.04.06-.49-.41-.94-.87-1.39-1.32-.54-.55-1.08-1.11-1.63-1.66-.63-.63-1.37-1.33-2.28-1.51-1.01-.2-1.88.36-2.46,1.15-1,1.37-1.54,3.13-2.38,4.61-2.17,3.8-4.94,7.31-8.13,10.31-.79.74-1.62,1.48-2.48,2.18-1.14.94-2.35,1.82-3.61,2.6-.26.16-.53.32-.8.47-1,.56-2.02,1.06-3.08,1.45-1.68.62-3.43.99-5.25,1-1.38,0-1.22,2.14.15,2.13.37,0,.73-.02,1.09-.04,2.29-.15,4.47-.74,6.54-1.65.23-.1.47-.21.7-.32,1.16-.55,2.27-1.21,3.35-1.94.99-.67,1.94-1.4,2.85-2.19,1.51-1.29,2.93-2.73,4.25-4.23,1.97-2.24,3.71-4.64,5.2-6.97.89-1.39,1.73-2.82,2.4-4.33.2-.46.39-.92.62-1.36.12-.22.25-.41.4-.61.05-.07.35-.23.15-.17.11-.04,0-.05.14.03.14.08.26.15.39.25.46.35.87.79,1.27,1.21.53.55,1.06,1.11,1.61,1.64.48.47.98.93,1.52,1.35.16.13.33.25.5.36.26.16.53.3.84.38,1.02.24,1.92-.26,2.64-.93,1.26-1.18,2.14-2.8,3.01-4.27,1.12-1.91,4.46-7.8,5.09-9.7Z"/>
          <g>
            <path class="cls-9" d="M173.51,45.91c-1.77-6.28-2.38-10.29-2.75-12.98-2.09,1.62-9.57,6.21-11.17,6.74l13.92,6.24Z"/>
            <path class="cls-8" d="M174.15,45.73c-1.2-4.27-2.15-8.59-2.75-12.98-.05-.39-.66-.64-.97-.39-1.79,1.38-3.76,2.56-5.7,3.74-1.06.64-2.12,1.27-3.2,1.87-.67.37-1.48.85-2.12,1.07-.48.17-.72.96-.16,1.21,4.06,1.82,8.12,3.64,12.18,5.46.58.26,1.16.52,1.74.78.77.35,1.44-.79.67-1.14-4.06-1.82-8.12-3.64-12.18-5.46-.58-.26-1.16-.52-1.74-.78l-.16,1.21c1.93-.67,3.75-1.93,5.49-2.99,1.98-1.2,4.01-2.41,5.84-3.82l-.97-.39c.59,4.4,1.55,8.72,2.75,12.98.23.82,1.51.47,1.27-.35Z"/>
          </g>
        </g>
        <g>
          <path class="cls-5" d="M236.28,96.09c-1.68,2.44-4.37,9.18-5.06,12.12-.86,3.68-.76,3.63-2.01,6.89-.21.04-.41.09-.62.12-8.68,1.32-16.77-3.64-22.75-9.46-8.63-8.39-14.48-19.51-18.47-30.76-.58-1.63-1.12-3.27-1.62-4.93-.16-.52-.31-1.04-.46-1.56-.06-.22-.39-.9-.32-1.12.11-.33.16-.19.46-.18,1.11.03,2.45.63,3.43.99,3.52,1.27,6.92,2.88,10.3,4.48,8.87,4.2,17.61,8.7,26.62,12.59,4.29,1.85,8.65,3.59,13.12,4.96.52.16,1.05.31,1.57.46-1.44,1.64-2.84,3.44-4.19,5.4Z"/>
          <path class="cls-8" d="M235.1,95.4c-1.97,2.93-3.26,6.48-4.4,9.8-1.08,3.15-1.61,6.41-2.81,9.53l.96-.96c-8.7,1.84-17.16-4.01-22.93-9.87-6.33-6.44-11.02-14.32-14.6-22.57-.99-2.27-1.88-4.58-2.7-6.91-.47-1.33-.91-2.68-1.33-4.03-.19-.61-.37-1.23-.56-1.84-.06-.19-.11-.38-.18-.57-.17-.49.01-.63-.29-.07l-1.18.68c1.41-.17,3.23.87,4.52,1.36,1.86.71,3.68,1.51,5.49,2.34,3.62,1.67,7.2,3.41,10.78,5.15,7.25,3.53,14.49,7.07,21.92,10.17,4.03,1.68,8.12,3.22,12.33,4.41l-.61-2.29c-1.58,1.81-3.04,3.7-4.41,5.68-1.01,1.45,1.37,2.83,2.37,1.38,1.23-1.78,2.55-3.49,3.98-5.12.67-.77.44-2-.61-2.29-11.56-3.27-22.4-8.86-33.16-14.1-5.3-2.58-10.59-5.26-16.05-7.47-1.21-.49-2.44-.96-3.68-1.4-.91-.32-2.26-.82-3.24-.52s-1.25,1.41-1,2.3c.34,1.2.76,2.41,1.14,3.6,3.23,10.16,7.78,20.07,14.33,28.53,6.07,7.84,14.59,15.55,24.92,16.41,1.42.12,2.84.07,4.26-.11.6-.08,1.37-.1,1.82-.56.42-.42.56-1.14.76-1.68.71-1.9,1.12-3.84,1.6-5.81.51-2.08,1.29-4.11,2.1-6.09s1.65-3.95,2.83-5.7c.99-1.47-1.39-2.84-2.37-1.38Z"/>
        </g>
        <g>
          <path class="cls-5" d="M224.7,83.03c-.43,4.26-.5,4.2-1.55,8.5-.65,2.65-1.32,9.87-.97,12.51,1.68,12.66,6.67,21.69,14.85,26.84,10.69,6.73,26.98,6.83,47.16.26,2.59-.76,5.75,1.28,10.7,4.66,2.26,1.55,6.39,4.37,7.81,4.37.02,0,.04,0,.06,0,.04-.1.1-.31.13-.66.09-1.04-.26-2.12-.98-3.05-3.31-4.25-6.91-11.33-11.07-19.53-5.56-10.94-9.84-20.24-16.56-27.7-3.01-3.35-6.61-9.81-6.73-13.1-.32-8.69-7.01-17.11-15.92-20.03-8.09-2.65-15.94-.12-21.52,6.95-1.59,2.01-2.76,4.03-3.52,6.04,1.72,1.7,2.7,3.89,2.69,6.27-.02,3.06-1.71,5.85-4.57,7.66ZM247.92,89.23c-8.46,16.51,6.13,30.91,32.61,38.17,6.32.87,4.41,3.95,1.34,3.33-47.07-9.18-43.34-38.6-33.95-41.5ZM233.18,70.22c0-2.49,2.03-4.52,4.52-4.52s4.52,2.03,4.52,4.52c0,2.49-2.03,4.52-4.52,4.52s-4.52-2.03-4.52-4.52Z"/>
          <path class="cls-1" d="M215.32,75.46c1.74.61,3.64.9,5.39,1.11,2.03.24,4.31.46,6.41.15-.45,2.02-1.85,3.77-4.03,4.96-1.3-.57-3.94-2.11-7.76-6.23Z"/>
          <path class="cls-1" d="M220.91,75.43c-2.38-.27-5.06-.72-7.18-1.99,2.5-1.88,5.85-3.39,9.61-4.33,2.49,1.38,3.95,3.69,3.94,6.25,0,.06-.01.12-.01.18-2.06.37-4.35.13-6.36-.1Z"/>
          <path class="cls-8" d="M210.87,73.23l.56.8c3.29,3.99,6.57,7.01,9.31,8.66-.42,4.1-.46,3.85-1.46,7.9-.77,3.13-1.46,10.85-1.05,13.98,1.84,13.88,7.45,23.87,16.67,29.67,4.06,2.56,8.82,4.24,14.17,5.08-.07.17-.14.33-.21.5-1.39,3.29-2.79,6.58-4.18,9.87-.07.17-.12.35-.14.52-3.64,0-7.28,0-10.91,0-2.2,0-2.19,3.41,0,3.41.61,0,1.22,0,1.83,0,4.32,0,8.64,0,12.95,0,2.2,0,2.19-3.41,0-3.41h-.61c.05-.12.1-.24.15-.36,1.39-3.29,2.79-6.58,4.18-9.87.04-.09.05-.18.07-.27,4,.37,8.31.3,12.89-.22-.05.2-.11.41-.16.61-.89,3.39-1.78,6.78-2.67,10.17-2.75,0-5.51,0-8.26,0-2.11,0-2.11,3.28,0,3.28.82,0,1.63,0,2.45,0,5.78,0,11.55,0,17.33,0,2.11,0,2.11-3.28,0-3.28-.82,0-1.63,0-2.45,0-1.91,0-3.83,0-5.74,0,.95-3.63,1.91-7.27,2.86-10.9.03-.12.05-.23.05-.34,5.29-.82,10.9-2.17,16.83-4.1,1.01-.11,4.95,2.55,7.29,4.15,3.91,2.68,7.39,5.05,10.15,5.05.61,0,1.19-.12,1.73-.37.94-.44,2.1-1.48,2.31-3.9.18-2.03-.46-4.11-1.8-5.83h0c-3.07-3.95-6.76-11.21-10.67-18.89-5.67-11.16-10.08-20.71-17.14-28.56-1.63-1.81-5.61-7.68-5.72-10.59-.37-10.29-8.22-20.24-18.65-23.65-9.76-3.2-19.19-.19-25.87,8.26-1.7,2.15-2.99,4.34-3.89,6.54-4.62,1.12-8.7,3.06-11.49,5.46l-.73.63ZM223.14,91.53c1.05-4.3,1.13-4.24,1.55-8.5,2.87-1.81,4.56-4.6,4.57-7.66.01-2.38-.97-4.58-2.69-6.27.76-2.01,1.93-4.03,3.52-6.04,5.59-7.07,13.43-9.6,21.52-6.95,8.91,2.92,15.6,11.34,15.92,20.03.12,3.29,3.72,9.75,6.73,13.1,6.72,7.46,11,16.77,16.56,27.7,4.17,8.2,7.76,15.28,11.07,19.53.72.93,1.07,2.01.98,3.05-.03.36-.09.56-.13.66-.02,0-.04,0-.06,0-1.42,0-5.55-2.82-7.81-4.37-4.95-3.38-8.11-5.42-10.7-4.66-20.18,6.57-36.47,6.47-47.16-.26-8.17-5.15-13.17-14.18-14.85-26.84-.35-2.64.32-9.86.97-12.51ZM227.27,75.53c-2.06.37-4.35.13-6.36-.1-2.38-.27-5.06-.72-7.18-1.99,2.5-1.88,5.85-3.39,9.61-4.33,2.49,1.38,3.95,3.69,3.94,6.25,0,.06-.01.12-.01.18ZM215.32,75.46c1.74.61,3.64.9,5.39,1.11,2.03.24,4.31.46,6.41.15-.45,2.02-1.85,3.77-4.03,4.96-1.3-.57-3.94-2.11-7.76-6.23Z"/>
          <path class="cls-8" d="M247.92,89.23c-8.46,16.51,6.13,30.91,32.61,38.17,6.32.87,4.41,3.95,1.34,3.33-47.07-9.18-43.34-38.6-33.95-41.5Z"/>
          <path class="cls-8" d="M237.7,65.7c2.49,0,4.52,2.03,4.52,4.52,0,2.49-2.03,4.52-4.52,4.52s-4.52-2.03-4.52-4.52c0-2.49,2.03-4.52,4.52-4.52Z"/>
        </g>
      </g>
      <g>
        <g>
          <polygon class="cls-3" points="210.26 91.86 207.58 98.66 177.75 70.55 183.27 65.66 210.26 91.86"/>
          <path class="cls-8" d="M208.98,91.5c-.89,2.27-1.79,4.54-2.68,6.81l2.22-.59c-8.71-8.22-17.43-16.43-26.14-24.65-1.23-1.16-2.45-2.31-3.68-3.47v1.88c1.84-1.63,3.68-3.26,5.52-4.88h-1.88c7.87,7.64,15.74,15.28,23.61,22.91,1.13,1.09,2.25,2.19,3.38,3.28,1.23,1.19,3.1-.68,1.88-1.88-7.87-7.64-15.74-15.28-23.61-22.91-1.13-1.09-2.25-2.19-3.38-3.28-.54-.52-1.33-.48-1.88,0-1.84,1.63-3.68,3.26-5.52,4.88-.53.46-.5,1.41,0,1.88,8.71,8.22,17.43,16.43,26.14,24.65,1.23,1.16,2.45,2.31,3.68,3.47.78.74,1.85.34,2.22-.59.89-2.27,1.79-4.54,2.68-6.81.63-1.59-1.94-2.28-2.56-.71Z"/>
        </g>
        <g>
          <polygon class="cls-3" points="183.38 63.53 176.68 70.48 166.54 54.84 183.38 63.53"/>
          <path class="cls-8" d="M182.44,62.59c-2.23,2.32-4.47,4.63-6.7,6.95l2.08.27c-2.96-4.57-5.92-9.13-8.88-13.7-.42-.65-.84-1.29-1.26-1.94l-1.81,1.81c4.92,2.54,9.85,5.08,14.77,7.62.69.36,1.38.71,2.07,1.07,1.51.78,2.86-1.51,1.34-2.29-4.92-2.54-9.85-5.08-14.77-7.62-.69-.36-1.38-.71-2.07-1.07-1.11-.57-2.58.64-1.81,1.81,2.96,4.57,5.92,9.13,8.88,13.7.42.65.84,1.29,1.26,1.94.45.7,1.47.91,2.08.27,2.23-2.32,4.47-4.63,6.7-6.95,1.19-1.23-.69-3.11-1.88-1.88Z"/>
        </g>
      </g>
      <g>
        <g>
          <path class="cls-5" d="M84.64,111.94c-.01-2.6,1.06-4.99,2.93-6.84-.83-2.19-2.1-4.4-3.84-6.59-6.09-7.71-14.65-10.47-23.48-7.58-9.72,3.18-17.02,12.37-17.37,21.85-.13,3.59-4.06,10.64-7.35,14.29-7.33,8.14-12,18.29-18.06,30.22-4.54,8.94-8.47,16.67-12.08,21.31-.79,1.02-1.17,2.2-1.07,3.33.03.39.1.61.14.73.02,0,.05,0,.07,0,1.54,0,6.05-3.08,8.52-4.77,5.4-3.69,8.85-5.91,11.67-5.09,22.02,7.17,39.78,7.06,51.44-.29,8.92-5.62,14.37-15.47,16.2-29.28.38-2.88-.35-10.75-1.06-13.65-1.15-4.69-1.23-4.63-1.7-9.27-3.13-1.98-4.97-5.02-4.99-8.36ZM27.26,172.34c-3.35.68-5.43-2.68,1.46-3.63,28.88-7.92,44.8-23.63,35.57-41.64,10.24,3.17,14.31,35.26-37.03,45.27ZM75.44,111.27c-2.72,0-4.94-2.21-4.94-4.94s2.21-4.93,4.94-4.93,4.93,2.21,4.93,4.93-2.21,4.94-4.93,4.94Z"/>
          <path class="cls-1" d="M99.86,112.05c-1.9.67-3.97.99-5.88,1.22-2.21.27-4.7.5-6.99.17.49,2.2,2.02,4.12,4.4,5.41,1.42-.62,4.3-2.3,8.47-6.79Z"/>
          <path class="cls-1" d="M93.76,112.02c2.6-.3,5.52-.79,7.83-2.18-2.73-2.06-6.38-3.7-10.49-4.72-2.71,1.51-4.31,4.03-4.3,6.81,0,.07.01.13.02.19,2.25.4,4.75.14,6.94-.11Z"/>
          <path class="cls-8" d="M103.91,108.92c-3.04-2.62-7.49-4.74-12.53-5.96-.98-2.4-2.39-4.79-4.24-7.13-7.28-9.21-17.57-12.5-28.21-9.01-11.38,3.73-19.94,14.58-20.34,25.8-.12,3.17-4.46,9.58-6.24,11.55-7.71,8.57-12.52,18.98-18.7,31.15-4.26,8.38-8.28,16.3-11.63,20.61h0c-1.46,1.88-2.16,4.14-1.96,6.36.23,2.64,1.5,3.77,2.52,4.26.59.28,1.22.41,1.89.41,3.02,0,6.81-2.59,11.08-5.51,2.55-1.74,6.85-4.65,7.95-4.52,6.46,2.1,12.59,3.58,18.36,4.47,0,.12.03.24.06.37,1.04,3.96,2.08,7.93,3.12,11.89h-8.93c-2.3,0-2.3,3.58,0,3.58h21.58c2.3,0,2.3-3.58,0-3.58h-9.01c-.97-3.7-1.94-7.39-2.91-11.09-.06-.22-.12-.44-.17-.67,5,.56,9.7.64,14.06.24.03.1.04.2.08.29,1.52,3.59,3.04,7.17,4.56,10.76.06.13.11.26.17.4h-.66c-2.39,0-2.4,3.72,0,3.72h16.13c2.39,0,2.4-3.72,0-3.72h-11.91c-.03-.19-.08-.38-.16-.57-1.52-3.59-3.04-7.17-4.56-10.76-.08-.18-.15-.36-.23-.54,5.84-.92,11.03-2.75,15.46-5.54,10.05-6.33,16.17-17.22,18.18-32.37.45-3.41-.31-11.83-1.14-15.25-1.08-4.42-1.14-4.14-1.59-8.62,3-1.8,6.57-5.1,10.16-9.45l.61-.87-.8-.69ZM92.38,143.23c-1.83,13.81-7.28,23.66-16.2,29.28-11.66,7.35-29.43,7.45-51.44.29-2.83-.83-6.27,1.39-11.67,5.09-2.47,1.69-6.97,4.77-8.52,4.77-.02,0-.05,0-.07,0-.04-.11-.11-.34-.14-.73-.1-1.13.28-2.31,1.07-3.33,3.61-4.64,7.53-12.36,12.08-21.31,6.06-11.93,10.74-22.08,18.06-30.22,3.29-3.65,7.21-10.7,7.35-14.29.35-9.48,7.65-18.67,17.37-21.85,8.83-2.89,17.38-.13,23.48,7.58,1.73,2.19,3.01,4.39,3.84,6.59-1.88,1.85-2.95,4.24-2.93,6.84.02,3.34,1.86,6.38,4.99,8.36.47,4.65.55,4.58,1.7,9.27.71,2.89,1.44,10.77,1.06,13.65ZM86.81,111.93c-.01-2.78,1.58-5.3,4.3-6.81,4.11,1.03,7.76,2.67,10.49,4.72-2.3,1.39-5.23,1.88-7.83,2.18-2.2.25-4.7.51-6.94.11,0-.07-.02-.13-.02-.19ZM91.39,118.84c-2.38-1.29-3.91-3.21-4.4-5.41,2.29.33,4.77.1,6.99-.17,1.91-.23,3.98-.55,5.88-1.22-4.17,4.49-7.05,6.18-8.47,6.79Z"/>
          <path class="cls-8" d="M64.3,127.07c9.23,18.01-6.69,33.72-35.57,41.64-6.89.95-4.81,4.31-1.46,3.63,51.34-10.01,47.28-42.1,37.03-45.27Z"/>
          <path class="cls-8" d="M75.44,101.4c-2.72,0-4.94,2.21-4.94,4.93s2.21,4.94,4.94,4.94,4.93-2.21,4.93-4.94-2.21-4.93-4.93-4.93Z"/>
        </g>
        <g>
          <g>
            <path class="cls-3" d="M82.36,85.55c-15.17-34.71-56.84-11.61-50.55,18.31-.55,3.55-3.01,6.56.68,5.6,4.78-3.96,36.89-17.35,59.16-19.54,3.14-2.19-3.14-4.64-9.29-4.37Z"/>
            <path class="cls-8" d="M84.23,84.46c-2.63-5.95-6.6-11.47-12.21-14.92-4.5-2.77-9.91-3.98-15.16-3.4-10.83,1.2-20.51,8.7-24.97,18.57-2.81,6.23-3.54,13.03-2.17,19.72v-1.15c-.41,2.42-3,6.75.28,8.24.69.31,1.4.31,2.13.2.49-.07,1.01-.14,1.44-.39.16-.09.33-.25.47-.37.19-.15-.46.32-.17.13.52-.35,1.04-.7,1.58-1.02,3.94-2.31,8.21-4.11,12.44-5.83,12.73-5.17,26.11-9.56,39.73-11.65.8-.12,1.6-.23,2.41-.33,1.1-.13,2.24-.08,3.14-.8,1.41-1.12,1.94-2.96.92-4.54-.95-1.49-2.85-2.23-4.47-2.7-2.34-.68-4.84-.91-7.27-.83-2.78.09-2.79,4.42,0,4.33,2.13-.07,4.25.1,6.29.73.68.21,1.21.58,1.85.85-.13-.09-.11-.06.07.1-.1-.09-.16-.2-.2-.34-.02-.3-.1-.78.19-1l1.09-.3c-9.91.99-19.63,3.54-29.09,6.58-8.31,2.67-16.54,5.75-24.43,9.49-2.47,1.17-5.04,2.37-7.17,4.1l.95-.56-.34.08h0c-.63-.07-.04.08-.03.05l1.06,1.05.05.27c.11-.01-.18.36,0,0,.36-.68.52-1.67.75-2.41.3-.99.65-2.09.47-3.13-.1-.61-.27-1.37-.34-1.89-.38-2.83-.3-5.83.2-8.46,1.01-5.27,3.48-10.06,7.06-13.91s7.72-6.47,12.48-7.83,9.51-1.19,13.77.62c6.41,2.73,10.65,8.53,13.43,14.81.47,1.07,2.03,1.32,2.96.78,1.1-.64,1.25-1.89.78-2.96Z"/>
          </g>
          <path class="cls-8" d="M82.4,85.64c-3.53.26-7.04.67-10.53,1.23,0-.1,0-.2-.03-.32-1.44-4.84-4.23-9.09-8.25-12.16-3.05-2.33-6.66-3.92-10.4-4.71-1.36-.29-1.94,1.8-.58,2.09,3.44.73,6.72,2.14,9.55,4.24,3.72,2.76,6.29,6.71,7.6,11.13,0,.03.03.05.05.08-6.7,1.22-13.27,3.09-19.53,5.84-6.26,2.75-11.86,6.46-17.45,10.35-1.14.79-.05,2.67,1.09,1.87,5.36-3.73,10.73-7.31,16.7-10.01,10-4.52,20.9-6.66,31.79-7.45,1.38-.1,1.39-2.26,0-2.16Z"/>
        </g>
        <path class="cls-12" d="M46.4,165.48c-8.31,3.32,24.11,3.64,42.78-4.35,1.15-2.79,1.61-6.32.67-6.8-7.54-1.21-24.1,2.01-28.87,3.44-4.77,3.56-7.33,4.82-14.58,7.71Z"/>
        <g>
          <path class="cls-2" d="M69.68,157.06c.59.66.46,2.84.36,5.67.04-2.53.04-4.74-.36-5.67Z"/>
          <path class="cls-2" d="M69.68,157.06c2.44-.05,5.72-.31,8.76-.77-3.37.76-6.9,1.25-8.76.77Z"/>
          <path class="cls-2" d="M69.99,166.68c.04,2.22.25,4.57.85,6.79-.7-1.36-.85-3.99-.85-6.79Z"/>
          <g>
            <path class="cls-3" d="M71,173.78c-.06-.09-.11-.21-.16-.31-.6-2.22-.81-4.57-.85-6.79,0-1.32.03-2.68.05-3.95.1-2.83.23-5.01-.36-5.67,1.86.48,5.39-.02,8.76-.77,3.61-.54,6.88-1.36,8-2.46,1.95,4.41.83,16.9.48,17.75-2.13,1.71-11.31,5.03-15.85,2.73,0,0,0-.02,0-.02.14-.03.14-.19-.07-.5Z"/>
            <path class="cls-8" d="M71.93,173.24c-.36-.7-.44-1.72-.56-2.5-.13-.85-.2-1.71-.25-2.56-.09-1.62-.04-3.25,0-4.87.03-1.41.14-2.82.09-4.23-.03-.83-.06-1.87-.59-2.57l-1.22,1.59c3.13.72,6.45-.25,9.52-.8,2.69-.48,6.16-.78,8.28-2.71l-1.7-.22c.81,1.89.86,4.18.94,6.19.09,2.4.02,4.81-.15,7.21-.06.85-.13,1.71-.24,2.56-.03.24-.05.26-.08.57,0,.07-.07.2-.05.26,0,.01-.03.08-.02.09-.15-.14.6-.5.18-.39-.33.08-.73.45-1.04.61-.47.24-.95.46-1.45.66-1.16.47-2.37.86-3.58,1.17-2.58.66-5.87,1.28-8.38.06l.5.65v-.02c-.17.41-.34.81-.5,1.22.72-.56.74-1.21.32-1.98-.67-1.22-2.54-.13-1.87,1.09v-.12c.19-.31.37-.62.55-.93l-.09.07c-.39.3-.64.72-.5,1.22.32,1.17,2.54,1.4,3.53,1.52,1.51.18,3.02.05,4.52-.18,2.79-.43,5.62-1.3,8.13-2.61.7-.37,1.59-.79,1.81-1.61.19-.72.23-1.51.3-2.24.25-2.53.36-5.09.32-7.64-.04-2.83-.13-5.89-1.26-8.53-.29-.68-1.24-.63-1.7-.22-.76.69-1.93.98-2.89,1.24-1.46.4-2.95.64-4.43.91-2.66.47-5.66,1.43-8.37.8-.82-.19-1.84.78-1.22,1.59.5.65.31,1.89.3,2.65-.03,1.54-.1,3.09-.12,4.63s-.01,3.21.15,4.81c.16,1.51.28,3.27.99,4.64.64,1.24,2.5.15,1.87-1.09Z"/>
          </g>
          <g>
            <path class="cls-3" d="M69.68,157.06c.4.93.4,3.14.36,5.67-.02,1.27-.05,2.63-.05,3.95,0,2.81.15,5.43.85,6.79.05.1.1.22.16.31.21.31.21.47.07.5-.95.17-8.48-5.95-7.68-19.95,1.97,1.83,4.3,2.54,6.3,2.73Z"/>
            <path class="cls-8" d="M68.64,157.34c.42,1.1.34,2.4.34,3.56,0,1.74-.06,3.49-.07,5.23-.01,1.65,0,3.31.21,4.95.08.65.18,1.3.38,1.93.09.28.19.55.31.81.02.05.3.71.27.39l.54-.93c.18-.14.54-.04.59-.05-.1.02-.14-.13-.04,0s-.17-.1-.28-.17c-.33-.19-.52-.38-.94-.78-1.02-.98-1.84-2.14-2.54-3.37-2.52-4.4-3.21-9.58-2.94-14.58l-1.85.76c2,1.8,4.4,2.77,7.06,3.04,1.38.14,1.37-2.02,0-2.16-2.06-.22-3.99-1.02-5.53-2.41-.71-.64-1.8-.19-1.85.76-.32,6.1.79,12.66,4.53,17.64.87,1.15,1.91,2.42,3.22,3.1.6.32,1.34.46,1.87-.1.63-.67.15-1.37-.15-2.05-.37-.82-.49-1.75-.57-2.64-.23-2.51-.11-5.05-.07-7.56.03-1.88.28-4.16-.4-5.96-.49-1.29-2.58-.73-2.09.58Z"/>
          </g>
          <g>
            <path class="cls-7" d="M78.44,156.29c-3.04.46-6.32.72-8.76.77-2-.19-4.33-.89-6.3-2.73,4.77-3.45,11.67-3.45,17.49-3.49,1.93.03,4.08,1.13,5.56,2.99-1.12,1.09-4.39,1.91-8,2.46Z"/>
            <path class="cls-8" d="M78.15,155.24c-4.69.69-10.14,1.78-14-1.68l-.22,1.7c3.24-2.27,7.19-2.96,11.07-3.19,1.9-.12,3.81-.16,5.71-.14,2.02.02,3.71,1.16,4.97,2.67v-1.53c-.77.7-1.96.99-2.93,1.25-1.51.41-3.05.69-4.59.92-1.37.21-.79,2.3.58,2.09,2.73-.42,6.32-.79,8.48-2.73.46-.42.36-1.1,0-1.53-1.34-1.6-3.19-2.85-5.27-3.2s-4.45-.1-6.57.02c-4.35.24-8.88.95-12.52,3.51-.54.38-.78,1.2-.22,1.7,1.93,1.73,4.44,2.92,7.06,3.04,2.97.14,6.11-.38,9.04-.81,1.37-.2.79-2.29-.58-2.09Z"/>
          </g>
        </g>
      </g>
    </g>
  </g>
</svg>