<?xml version="1.0" encoding="UTF-8"?>
<svg xmlns="http://www.w3.org/2000/svg" viewBox="0 0 193.6 211.64">
  <defs>
    <style>
      .cls-1 {
        fill: #e7cd9c;
      }

      .cls-1, .cls-2, .cls-3, .cls-4, .cls-5, .cls-6, .cls-7, .cls-8 {
        stroke-width: 0px;
      }

      .cls-2 {
        fill: #abb36c;
      }

      .cls-3 {
        fill: #000;
      }

      .cls-4 {
        mix-blend-mode: multiply;
        opacity: .49;
      }

      .cls-4, .cls-7 {
        fill: #5d863a;
      }

      .cls-5 {
        fill: #394a27;
      }

      .cls-6 {
        fill: #3a5c24;
      }

      .cls-9 {
        isolation: isolate;
      }

      .cls-8 {
        fill: #988869;
      }
    </style>
  </defs>
  <g class="cls-9">
    <g id="Layer_2" data-name="Layer 2">
      <g id="Brand_Standard_Guid" data-name="Brand Standard Guid">
        <g>
          <g>
            <path class="cls-2" d="M128.98,167.15c2.55-1.99,9.73-5.37,12.9-6.32,3.96-1.18,3.92-1.06,7.39-2.65.03-.23.07-.45.09-.68.87-9.57-5.06-18.07-11.82-24.23-9.73-8.87-22.25-14.54-34.79-18.16-1.82-.53-3.65-1.01-5.48-1.45-.58-.14-1.15-.27-1.73-.4-.25-.06-1.01-.37-1.24-.28-.35.14-.2.19-.17.51.1,1.2.85,2.64,1.3,3.68,1.61,3.76,3.59,7.37,5.56,10.96,5.17,9.41,10.64,18.66,15.49,28.25,2.3,4.56,4.49,9.21,6.27,14,.21.56.41,1.12.6,1.69,1.7-1.68,3.57-3.33,5.62-4.93Z"/>
            <path class="cls-3" d="M129.73,168.45c3.26-2.48,7.36-4.29,11.19-5.7,1.86-.69,3.8-1.1,5.66-1.78.86-.32,1.7-.69,2.54-1.06.61-.27,1.24-.46,1.52-1.13.26-.61.25-1.41.28-2.07.59-11.14-7.33-20.69-15.54-27.24-9.11-7.26-19.9-12.11-31.01-15.44-2.85-.85-5.76-1.47-8.63-2.27-1.04-.29-2.27-.51-2.94.6s.15,2.81.56,3.82c2.43,5.86,5.58,11.39,8.67,16.92,7.14,12.77,15.05,25.5,19.88,39.38.37,1.05,1.66,1.49,2.51.66,1.78-1.75,3.66-3.39,5.62-4.93,1.52-1.19-.62-3.3-2.12-2.12-1.96,1.54-3.84,3.18-5.62,4.93l2.51.66c-2.84-8.17-6.83-15.91-10.93-23.5-4.15-7.67-8.54-15.21-12.71-22.87-1.13-2.08-2.24-4.17-3.26-6.3-.51-1.07-.99-2.16-1.47-3.25-.35-.78-.89-1.83-.83-2.64l-.74,1.3c-.5.31-.63-.05-.19.15.21.1.47.14.69.2.58.15,1.16.27,1.74.41,1.46.35,2.9.73,4.35,1.13,2.34.66,4.67,1.38,6.96,2.18,4.72,1.63,9.33,3.58,13.74,5.93,8.37,4.45,16.63,10.47,21.76,18.59,2.71,4.3,4.68,9.63,3.9,14.79l.69-.9c-3.26,1.48-6.73,2.23-10.02,3.6-3.51,1.45-7.23,3.05-10.27,5.36-1.52,1.15-.02,3.76,1.51,2.59Z"/>
          </g>
          <g>
            <g>
              <path class="cls-8" d="M151.6,192.05s-.09-.06-.14-.09c3.9-1.95,7.27-4.84,10.78-7.42,4.85-3.57,9.8-7.18,14.92-10.37.06-.04.12-.07.18-.11-1.85-3.23-3.92-6.31-7.9-7.98-5.17,3.05-10.37,6.06-15.74,8.74-5.27,2.63-10.33,4.88-16.31,5.03-5.69.14-11.34-.78-17-1.2-13.21-.98-26.46-.96-39.69-1.4-5.3-.18-10.55-.7-15.41-2.92-5.27-2.4-9.89-6.16-14.8-9.19-1.12-.69-2.27-1.34-3.4-2.02.27-.27.56-.53.84-.79-6.45.91-10.9,6.83-14.94,12.55,5.7,3.36,11.3,6.87,17.06,10.13,5.85,3.31,11.95,6.04,18,8.97,2.96,1.44,6.01,2.93,9.22,3.75,2.91.74,5.94.5,8.9.27,7.12-.54,14.28-.69,21.41-1.09,5.76-.33,11.5-.82,17.24-1.23.1.03.2.05.3.07,8.42-3.16,18.02-.16,26.49-3.71Z"/>
              <g>
                <path class="cls-6" d="M145.83,201.83c-.6-3.17-2.58-5.95-4.81-8.24-1.83-1.88-3.9-3.53-6.08-5.01,1.67.12,3.38-.05,5.03-.1,1.37-.04,2.78-.07,4.16-.22,1.42-.46,2.77-1.16,3.99-2.02-3.93-2.25-8.6-3.31-13.13-2.88,1.62-1.09,3.12-2.37,4.54-3.64,1.21-1.09,2.4-2.22,3.43-3.48.95-1.17,1.9-2.58,1.96-4.13.01-.33-.25-.54-.57-.6-3.75-.74-7.91,1.08-11.05,2.96-2.06,1.23-4.07,2.81-5.78,4.58-.87,1.61-1.53,3.3-2.06,5.03,2.78,8.93,11.04,15.58,20.36,17.76Z"/>
                <path class="cls-4" d="M143.82,201.28c-1.51-1.1-2.96-2.3-4.36-3.53-3.14-2.76-6.35-5.4-9.28-8.39-.32-.33-.12-.81.28-.95,1.44-.48,3.03-.26,4.49.18,0,0,0,0-.01,0,1.67.12,3.38-.05,5.03-.1,1.37-.04,2.78-.07,4.16-.22,1.37-.44,2.66-1.11,3.84-1.92-.31-.07-.63-.12-.93-.18-1.58-.26-3.18-.34-4.78-.39-3.65-.12-7.18-.16-10.78.56-.65.13-.96-.72-.41-1.05,1.28-.78,2.64-1.44,4.05-1.93-.04,0-.08,0-.12,0,1.62-1.09,3.12-2.37,4.54-3.64,1.21-1.09,2.4-2.22,3.43-3.48.95-1.17,1.9-2.58,1.96-4.13,0-.06-.01-.1-.03-.15-2.41.79-4.71,2.13-6.78,3.44-4.06,2.56-7.48,5.83-10.88,9.18-.48.48-1.18-.15-.89-.7,2.2-4.27,5.6-7.77,9.4-10.73-.86.41-1.68.86-2.44,1.32-2.06,1.23-4.07,2.81-5.78,4.58-.87,1.61-1.53,3.3-2.06,5.03,2.57,8.28,9.87,14.59,18.35,17.21Z"/>
              </g>
              <g>
                <path class="cls-6" d="M183.81,151.95c-3.14.88-5.77,3.08-7.88,5.47-1.73,1.97-3.21,4.15-4.51,6.42-.03-1.65-.36-3.31-.56-4.93-.17-1.34-.33-2.72-.61-4.07-.6-1.36-1.42-2.62-2.4-3.74-1.92,4.06-2.56,8.75-1.71,13.15-1.24-1.49-2.68-2.85-4.09-4.13-1.21-1.09-2.46-2.15-3.83-3.05-1.26-.83-2.78-1.64-4.35-1.55-.34.02-.52.3-.56.61-.41,3.75,1.81,7.67,4,10.58,1.43,1.91,3.2,3.74,5.15,5.25,1.71.7,3.48,1.21,5.26,1.57,8.77-3.54,14.72-12.26,16.08-21.61Z"/>
                <path class="cls-4" d="M183.43,153.97c-.98,1.59-2.06,3.12-3.17,4.6-2.5,3.33-4.87,6.73-7.62,9.87-.3.35-.81.19-.98-.19-.62-1.37-.54-2.96-.23-4.42,0,0,0,0,0,.01-.03-1.65-.36-3.31-.56-4.93-.17-1.34-.33-2.72-.61-4.07-.57-1.3-1.36-2.52-2.29-3.6-.04.31-.07.63-.09.93-.12,1.57-.05,3.16.04,4.73.21,3.59.49,7.07,1.55,10.54.19.63-.63,1.01-1.02.5-.9-1.19-1.7-2.46-2.31-3.8,0,.04,0,.08.02.12-1.24-1.49-2.68-2.85-4.09-4.13-1.21-1.09-2.46-2.15-3.83-3.05-1.26-.83-2.78-1.64-4.35-1.55-.06,0-.1.02-.15.04,1.02,2.3,2.58,4.43,4.09,6.35,2.96,3.76,6.56,6.82,10.26,9.85.52.43-.05,1.17-.62.94-4.51-1.78-8.35-4.79-11.7-8.26.5.81,1.03,1.57,1.56,2.28,1.43,1.91,3.2,3.74,5.15,5.25,1.71.7,3.48,1.21,5.26,1.57,8.13-3.28,13.84-11.02,15.7-19.59Z"/>
              </g>
              <g>
                <path class="cls-6" d="M136.55,173.05c-2.57-.56-5.29.01-7.71.92-1.99.75-3.88,1.74-5.68,2.87.62-1.18,1.02-2.49,1.51-3.71.4-1.02.82-2.05,1.14-3.11.1-1.19,0-2.39-.26-3.55-2.93,2.16-5.19,5.25-6.29,8.69-.35-1.72-.93-3.41-1.5-5.01-.36-1-.77-1.98-1.27-2.92-.59-1.1-1.37-2.32-2.56-2.87-.21-.09-.46-.02-.59.17-1.78,2.51-1.72,6.16-1.29,9.07.28,1.89.83,3.86,1.63,5.67.94,1.14,2,2.16,3.13,3.09,7.59.78,15.19-3.17,19.76-9.29Z"/>
                <path class="cls-4" d="M135.5,174.34c-1.31.76-2.66,1.44-4.02,2.08-3.06,1.43-6.06,2.95-9.23,4.14-.35.13-.65-.17-.62-.5.09-1.2.76-2.3,1.55-3.23,0,0,0,0-.01,0,.62-1.18,1.02-2.49,1.51-3.71.4-1.02.82-2.05,1.14-3.11.1-1.14,0-2.3-.23-3.41-.15.21-.29.42-.43.63-.69,1.07-1.26,2.22-1.8,3.37-1.24,2.63-2.38,5.2-2.97,8.06-.11.52-.84.48-.92-.03-.18-1.18-.26-2.38-.17-3.57-.01.03-.02.06-.03.09-.35-1.73-.93-3.43-1.52-5.05-.35-.97-.74-1.91-1.22-2.82-.6-1.15-1.42-2.44-2.69-2.98-.01,0-.01,0-.02.01-.16,2.02.12,4.11.45,6.04.65,3.78,2.02,7.31,3.48,10.85.21.5-.48.81-.81.43-2.51-2.96-4.08-6.54-5.11-10.26.04.76.12,1.5.22,2.2.28,1.89.83,3.86,1.63,5.67.94,1.14,2,2.16,3.13,3.09,7.04.73,14.08-2.62,18.71-8Z"/>
              </g>
              <g>
                <path class="cls-7" d="M64.68,200.22c2.17-1.48,4.16-3.22,5.99-5.11-.39,1.6-.49,3.29-.71,4.91-.18,1.34-.37,2.71-.45,4.08.23,1.46.71,2.88,1.37,4.21,2.89-3.46,4.69-7.83,4.99-12.3.83,1.75,1.87,3.42,2.91,5.01.89,1.36,1.84,2.69,2.93,3.9,1.01,1.11,2.28,2.27,3.81,2.57.33.06.58-.16.7-.46,1.35-3.53.19-7.87-1.18-11.22-1.11-2.71-2.73-5.46-4.73-7.68,1.7.48,3.45.74,5.23.75,3.59.02,7.09-1.05,10.34-2.47.13-.06.25-.16.35-.3-1.45-1.43-3.2-2.59-4.97-3.53-.48-.26-.97-.5-1.47-.73-.73-.15-1.45-.26-2.15-.35-3.2-.4-6.72-.2-9.75,1,.27-.92.36-1.89.37-2.83,0-.55-.03-1.11-.08-1.66-.4-1-.89-1.98-1.47-2.89-.03.05-.05.09-.07.14-.44,1.51-1.21,2.91-1.65,4.42-.19.64-.24,1.29-.28,1.95-1.06-2.02-2.79-3.72-4.52-5.19-.54,1.21-.94,2.48-1.1,3.8-.12.96-.1,1.94.03,2.9.02.06.03.12.05.17.39,1.18.9,2.34,1.53,3.42-3.31.93-6.2,3.1-8.66,5.45-.98.93-1.94,1.91-2.88,2.92-.23.36-.45.71-.67,1.05-.99,1.53-1.89,3.04-2.53,4.76-.33.89-.61,1.79-.88,2.69,3.47.1,6.77-1.47,9.57-3.37Z"/>
                <path class="cls-4" d="M60.77,198.03c3.26-2.61,6.42-5.31,9.88-7.67.38-.26.83.01.9.43.24,1.48-.22,2.99-.9,4.34,0,0,0,0,.01-.01-.39,1.6-.49,3.29-.71,4.91-.18,1.34-.37,2.71-.45,4.08.22,1.4.68,2.77,1.3,4.05.12-.29.23-.59.33-.88.52-1.49.85-3.04,1.16-4.59.71-3.53,1.32-6.96,1.17-10.58-.03-.66.87-.82,1.12-.23.57,1.37,1.02,2.8,1.27,4.25,0-.04.01-.08.01-.12.83,1.75,1.87,3.42,2.91,5.01.89,1.36,1.84,2.69,2.93,3.9,1.01,1.11,2.28,2.27,3.81,2.57.05.01.1,0,.15,0-.41-2.48-1.37-4.92-2.35-7.15-1.91-4.37-4.62-8.22-7.43-12.06-.4-.55.34-1.12.84-.76,3.91,2.83,6.87,6.7,9.22,10.88-.27-.9-.59-1.78-.93-2.59-1.11-2.71-2.73-5.46-4.73-7.68,1.7.48,3.45.74,5.23.75,2.08.01,4.12-.35,6.1-.92-.89-.05-1.79-.12-2.68-.2-3.8-.32-7.55-1.18-11.13-2.49-.49-.18-.39-.9.05-1.05,5.94-2.07,12.49-.12,18.22,2.04.04-.04.09-.09.13-.14-1.45-1.43-3.2-2.59-4.97-3.53-.48-.26-.97-.5-1.47-.73-.73-.15-1.45-.26-2.15-.35-3.2-.4-6.72-.2-9.75,1,.15-.53.24-1.07.3-1.62-.27.29-.84.19-.97-.21-.49-1.55-.72-3.18-.78-4.82-.45,1.29-1.07,2.52-1.45,3.83-.19.64-.24,1.29-.28,1.95-.47-.91-1.09-1.74-1.77-2.53.39,1.48.66,2.98.75,4.49.03.46-.58.84-.95.48-1.23-1.21-1.9-2.85-2.36-4.47-.22-.77-.39-1.55-.54-2.34-.37.96-.64,1.95-.76,2.97-.12.96-.1,1.94.03,2.9.02.06.03.12.05.17.39,1.18.9,2.34,1.53,3.42-3.31.93-6.2,3.1-8.66,5.45-.98.93-1.94,1.91-2.88,2.92-.23.36-.45.71-.67,1.05-.99,1.53-1.89,3.04-2.53,4.76-.24.64-.43,1.29-.64,1.94,1.64-1.77,3.54-3.31,5.42-4.81Z"/>
              </g>
              <g>
                <path class="cls-7" d="M70.33,167.72c-1.35,1.84-2.47,3.84-3.42,5.91-.15-1.43-.56-2.85-.86-4.23-.25-1.15-.49-2.34-.83-3.48-.62-1.13-1.43-2.17-2.37-3.06-1.36,3.67-1.55,7.78-.48,11.54-1.19-1.2-2.54-2.28-3.87-3.28-1.13-.86-2.3-1.69-3.56-2.36-1.16-.62-2.54-1.21-3.89-1.02-.29.04-.43.3-.44.57-.07,3.28,2.15,6.52,4.27,8.88,1.71,1.91,3.85,3.71,6.14,4.96-1.53.09-3.05.38-4.51.88-2.96,1.01-5.51,2.89-7.77,4.98-.09.08-.16.21-.2.34,1.61.76,3.39,1.21,5.12,1.48.47.07.95.13,1.43.18.64-.09,1.27-.2,1.87-.33,2.74-.59,5.58-1.76,7.72-3.61.05.83.26,1.66.53,2.43.16.45.35.9.55,1.34.63.71,1.31,1.37,2.06,1.95,0-.04.02-.09.01-.14-.08-1.37.14-2.73.05-4.1-.03-.58-.18-1.13-.34-1.68,1.47,1.36,3.38,2.26,5.24,2.97.09-1.15.04-2.3-.21-3.43-.18-.83-.49-1.62-.88-2.37-.03-.04-.06-.09-.1-.13-.67-.86-1.43-1.67-2.26-2.38,2.45-1.71,4.18-4.32,5.51-6.95.53-1.05,1.04-2.12,1.51-3.22.08-.36.16-.71.24-1.05.36-1.54.66-3.04.68-4.63,0-.82-.03-1.64-.06-2.46-2.88.91-5.13,3.14-6.87,5.5Z"/>
                <path class="cls-4" d="M74.19,168.4c-1.91,3.08-3.71,6.2-5.86,9.13-.24.32-.69.23-.87-.09-.64-1.14-.7-2.52-.54-3.82,0,0,0,0,0,.01-.15-1.43-.56-2.85-.86-4.23-.25-1.15-.49-2.34-.83-3.48-.59-1.09-1.37-2.08-2.26-2.95,0,.28-.01.55,0,.82.01,1.37.2,2.74.4,4.1.46,3.1.96,6.09,2.14,9.02.22.53-.47.92-.85.51-.87-.96-1.66-2.01-2.3-3.12,0,.03.02.07.03.1-1.19-1.2-2.54-2.28-3.87-3.28-1.13-.86-2.3-1.69-3.56-2.36-1.16-.62-2.54-1.21-3.89-1.02-.05,0-.08.03-.12.04,1.06,1.92,2.58,3.65,4.03,5.2,2.85,3.04,6.21,5.43,9.65,7.78.49.33.05,1.02-.47.86-4.05-1.21-7.61-3.54-10.77-6.3.49.66,1.01,1.29,1.52,1.86,1.71,1.91,3.85,3.71,6.14,4.96-1.53.09-3.05.38-4.51.88-1.71.58-3.28,1.46-4.74,2.5.75-.21,1.5-.41,2.26-.6,3.22-.82,6.55-1.19,9.88-1.13.45,0,.58.63.27.88-4.27,3.4-10.23,3.67-15.57,3.53-.02.05-.05.1-.07.15,1.61.76,3.39,1.21,5.12,1.48.47.07.95.13,1.43.18.64-.09,1.27-.2,1.87-.33,2.74-.59,5.58-1.76,7.72-3.61.03.48.12.95.23,1.41.14-.31.63-.4.86-.11.86,1.13,1.53,2.41,2.05,3.74-.01-1.19.14-2.37.06-3.56-.03-.58-.18-1.13-.34-1.68.66.61,1.4,1.12,2.2,1.57-.75-1.1-1.41-2.26-1.94-3.48-.16-.37.23-.85.64-.66,1.37.64,2.4,1.79,3.25,3,.41.57.78,1.16,1.13,1.77.02-.89-.05-1.78-.25-2.66-.18-.83-.49-1.62-.88-2.37-.03-.04-.06-.09-.1-.13-.67-.86-1.43-1.67-2.26-2.38,2.45-1.71,4.18-4.32,5.51-6.95.53-1.05,1.04-2.12,1.51-3.22.08-.36.16-.71.24-1.05.36-1.54.66-3.04.68-4.63,0-.59-.02-1.18-.05-1.78-.83,1.92-1.94,3.73-3.04,5.5Z"/>
              </g>
              <g>
                <path class="cls-7" d="M54.38,165.25c-2.5.83-4.9,1.95-7.19,3.26.83-1.43,1.4-3.03,2.06-4.52.55-1.24,1.12-2.5,1.58-3.8.19-1.47.13-2.97-.13-4.42-3.75,2.53-6.72,6.24-8.26,10.45-.3-1.91-.83-3.8-1.39-5.61-.48-1.55-1-3.09-1.72-4.55-.66-1.35-1.55-2.8-2.94-3.51-.3-.15-.6,0-.8.25-2.29,3.02-2.4,7.5-2.03,11.11.3,2.91,1.08,6,2.38,8.68-1.49-.93-3.11-1.65-4.81-2.15-3.45-1.01-7.1-.93-10.63-.46-.14.02-.29.09-.42.19.99,1.77,2.35,3.36,3.78,4.75.39.38.79.75,1.21,1.11.66.34,1.32.65,1.96.92,2.96,1.26,6.4,2.03,9.65,1.72-.51.81-.88,1.72-1.15,2.61-.16.53-.28,1.07-.39,1.62.1,1.07.3,2.14.6,3.18.04-.04.07-.07.1-.12.85-1.33,1.98-2.46,2.83-3.79.36-.56.59-1.18.81-1.79.45,2.23,1.63,4.34,2.88,6.22.86-1.01,1.6-2.12,2.13-3.34.39-.89.64-1.83.79-2.79,0-.06,0-.12,0-.18-.05-1.24-.2-2.5-.5-3.71,3.44.02,6.83-1.28,9.85-2.86,1.2-.63,2.4-1.3,3.59-2.01.32-.28.63-.56.94-.83,1.38-1.2,2.68-2.4,3.77-3.88.56-.76,1.09-1.55,1.61-2.34-3.31-1.05-6.92-.45-10.14.61Z"/>
                <path class="cls-4" d="M57.52,168.42c-3.87,1.61-7.67,3.34-11.66,4.66-.44.14-.8-.24-.75-.66.18-1.49,1.06-2.82,2.09-3.92,0,0,0,0-.01,0,.83-1.43,1.4-3.03,2.06-4.52.55-1.24,1.12-2.5,1.58-3.8.18-1.41.13-2.85-.11-4.24-.2.25-.38.51-.56.76-.92,1.29-1.67,2.69-2.41,4.09-1.67,3.2-3.23,6.32-4.11,9.84-.16.64-1.07.55-1.14-.09-.16-1.47-.19-2.96-.03-4.43-.01.04-.03.07-.05.11-.3-1.91-.83-3.8-1.39-5.61-.48-1.55-1-3.09-1.72-4.55-.66-1.35-1.55-2.8-2.94-3.51-.05-.02-.1-.03-.15-.04-.31,2.49-.07,5.11.24,7.51.6,4.72,2.12,9.16,3.74,13.62.23.63-.64.98-1.02.5-2.96-3.79-4.71-8.32-5.79-12.98.01.94.07,1.87.16,2.74.3,2.91,1.08,6,2.38,8.68-1.49-.93-3.11-1.65-4.81-2.15-1.99-.58-4.05-.79-6.12-.79.84.29,1.68.61,2.52.93,3.56,1.35,6.92,3.21,9.99,5.45.42.3.12.97-.35,1-6.29.35-12.04-3.32-16.93-6.96-.06.03-.11.06-.16.1.99,1.77,2.35,3.36,3.78,4.75.39.38.79.75,1.21,1.11.66.34,1.32.65,1.96.92,2.96,1.26,6.4,2.03,9.65,1.72-.3.46-.53.96-.74,1.47.34-.2.86.04.87.46.04,1.62-.21,3.26-.61,4.84.79-1.12,1.74-2.13,2.47-3.28.36-.56.59-1.18.81-1.79.2,1,.55,1.97.99,2.91.05-1.52.21-3.04.55-4.52.1-.45.79-.64,1.04-.2.84,1.5,1.02,3.26,1.01,4.94,0,.8-.06,1.6-.14,2.39.62-.82,1.16-1.7,1.57-2.65.39-.89.64-1.83.79-2.79,0-.06,0-.12,0-.18-.05-1.24-.2-2.5-.5-3.71,3.44.02,6.83-1.28,9.85-2.86,1.2-.63,2.4-1.3,3.59-2.01.32-.28.63-.56.94-.83,1.38-1.2,2.68-2.4,3.77-3.88.41-.55.78-1.12,1.16-1.69-2.07,1.25-4.33,2.21-6.56,3.13Z"/>
              </g>
              <g>
                <path class="cls-7" d="M113.65,203.54c2.17-1.48,4.16-3.22,5.99-5.1-.39,1.6-.49,3.29-.71,4.91-.18,1.34-.37,2.71-.44,4.08.23,1.46.71,2.89,1.37,4.21,2.89-3.46,4.69-7.83,4.99-12.31.83,1.75,1.87,3.42,2.91,5.01.89,1.36,1.84,2.69,2.93,3.9,1.01,1.11,2.28,2.27,3.81,2.57.33.06.58-.16.7-.46,1.35-3.53.19-7.87-1.19-11.22-1.11-2.72-2.73-5.46-4.73-7.68,1.69.48,3.45.74,5.22.75,3.59.02,7.09-1.05,10.34-2.47.13-.05.25-.16.35-.3-1.45-1.43-3.2-2.59-4.97-3.53-.48-.26-.97-.5-1.47-.73-.73-.15-1.46-.26-2.15-.35-3.2-.4-6.72-.2-9.76,1,.27-.92.37-1.89.37-2.83,0-.55-.03-1.11-.08-1.66-.4-1.01-.89-1.98-1.47-2.89-.03.04-.05.09-.07.14-.44,1.51-1.21,2.91-1.65,4.42-.19.64-.24,1.29-.28,1.95-1.06-2.02-2.79-3.72-4.52-5.19-.54,1.21-.94,2.48-1.1,3.8-.12.97-.09,1.94.03,2.9.02.06.04.12.05.17.39,1.18.9,2.34,1.53,3.42-3.32.93-6.2,3.1-8.65,5.45-.98.93-1.94,1.91-2.88,2.92-.23.36-.45.71-.67,1.05-.99,1.53-1.89,3.04-2.52,4.76-.33.89-.61,1.79-.88,2.69,3.47.1,6.78-1.47,9.57-3.37Z"/>
                <path class="cls-4" d="M109.75,201.35c3.26-2.61,6.42-5.31,9.88-7.67.38-.26.83.01.9.43.25,1.48-.22,3-.9,4.34,0,0,0,0,0,0-.39,1.6-.49,3.29-.71,4.91-.18,1.34-.37,2.71-.44,4.08.22,1.4.68,2.77,1.3,4.05.12-.3.23-.59.33-.88.52-1.49.85-3.04,1.16-4.59.71-3.53,1.32-6.96,1.17-10.58-.03-.66.87-.82,1.12-.23.57,1.37,1.02,2.8,1.27,4.25,0-.04.01-.08.01-.12.83,1.75,1.87,3.42,2.91,5.01.89,1.36,1.84,2.69,2.93,3.9,1.01,1.11,2.28,2.27,3.81,2.57.05.01.1,0,.15,0-.41-2.48-1.37-4.92-2.35-7.15-1.91-4.37-4.62-8.22-7.43-12.06-.4-.55.34-1.12.84-.76,3.91,2.83,6.87,6.7,9.22,10.88-.27-.9-.59-1.78-.93-2.59-1.11-2.72-2.73-5.46-4.73-7.68,1.69.48,3.45.74,5.22.75,2.08.01,4.12-.35,6.1-.92-.89-.05-1.78-.12-2.68-.2-3.8-.32-7.55-1.18-11.13-2.5-.49-.18-.39-.9.05-1.05,5.94-2.07,12.49-.12,18.22,2.04.04-.04.09-.08.13-.14-1.45-1.43-3.2-2.59-4.97-3.53-.48-.26-.97-.5-1.47-.73-.73-.15-1.46-.26-2.15-.35-3.2-.4-6.72-.2-9.76,1,.15-.53.24-1.07.3-1.62-.27.29-.84.19-.97-.21-.49-1.55-.72-3.18-.78-4.82-.45,1.29-1.07,2.52-1.45,3.83-.19.64-.24,1.29-.28,1.95-.48-.91-1.09-1.74-1.77-2.53.39,1.48.65,2.98.75,4.49.03.46-.58.84-.94.48-1.23-1.21-1.9-2.85-2.36-4.47-.22-.77-.39-1.55-.54-2.34-.37.96-.64,1.95-.76,2.98-.12.97-.09,1.94.03,2.9.02.06.04.12.05.17.39,1.18.9,2.34,1.53,3.42-3.32.93-6.2,3.1-8.65,5.45-.98.93-1.94,1.91-2.88,2.92-.23.36-.45.71-.67,1.05-.99,1.53-1.89,3.04-2.52,4.76-.24.64-.43,1.29-.64,1.94,1.64-1.77,3.54-3.31,5.42-4.81Z"/>
              </g>
            </g>
            <g>
              <path class="cls-2" d="M93.37,145.42c-1.92-1.7-2.85-3.98-2.5-6.27.28-1.78,1.27-3.3,2.76-4.36-.33-1.59-.96-3.24-1.91-4.93-3.33-5.94-8.88-8.77-15.24-7.76-7,1.12-13.01,6.61-14.28,13.06-.48,2.44-3.94,6.84-6.59,8.98-5.91,4.77-10.22,11.21-15.67,18.71-4.09,5.63-7.62,10.49-10.6,13.27-.65.61-1.04,1.38-1.1,2.16-.02.27,0,.43.02.51.02,0,.03,0,.05,0,1.06.17,4.48-1.45,6.35-2.33,4.1-1.94,6.71-3.08,8.55-2.2,14.29,7.32,26.47,9.19,35.25,5.43,6.72-2.87,11.53-9.02,14.29-18.27.58-1.93.94-7.4.77-9.46-.27-3.34-.33-3.3-.15-6.54ZM44.98,174.23c-2.37.1-3.43-2.43,1.4-2.33,20.64-2.26,33.26-11.28,28.91-24.62,6.67,3.29,5.94,25.71-30.31,26.95ZM84.65,137.69c-1.86-.3-3.14-2.06-2.84-3.92.3-1.86,2.06-3.14,3.92-2.84,1.86.3,3.14,2.05,2.84,3.92-.3,1.86-2.05,3.14-3.92,2.84Z"/>
              <path class="cls-1" d="M92.32,140.43c.1,1.56.93,3.04,2.42,4.19,1.04-.27,3.2-1.11,6.54-3.73-1.38.25-2.83.24-4.16.19-1.54-.06-3.27-.17-4.8-.65Z"/>
              <path class="cls-1" d="M92.36,139.38s0,.09-.01.13c1.49.52,3.23.62,4.77.68,1.81.08,3.87.06,5.6-.63-1.64-1.71-3.96-3.23-6.66-4.38-2.02.74-3.39,2.29-3.69,4.19Z"/>
              <path class="cls-3" d="M104.4,139.19c-1.8-2.13-4.61-4.06-7.93-5.45-.41-1.75-1.11-3.54-2.12-5.35-3.98-7.1-10.66-10.48-18.33-9.25-8.2,1.31-15.24,7.8-16.75,15.44-.43,2.16-4.1,6.07-5.54,7.23-6.21,5.02-10.65,11.63-16.21,19.28-3.83,5.27-7.45,10.25-10.22,12.84h0c-1.21,1.13-1.93,2.6-2.04,4.14-.13,1.84.61,2.75,1.26,3.19.37.26.79.41,1.25.48,2.07.33,4.95-1.03,8.19-2.56,1.93-.91,5.2-2.43,5.94-2.23,4.19,2.15,8.23,3.83,12.08,5.07,3.36.93,11.46,2.33,14.49,2.53,4.1,0,7.85-.68,11.19-2.1,7.58-3.24,12.96-10.02,15.99-20.17.68-2.29,1.08-8.13.89-10.56-.26-3.14-.32-2.96-.14-6.07,2.25-.91,5.05-2.77,7.99-5.36l.51-.53-.47-.56ZM92.75,161.42c-2.76,9.26-7.57,15.4-14.29,18.27-8.79,3.75-20.96,1.88-35.25-5.43-1.84-.88-4.45.27-8.55,2.2-1.88.89-5.3,2.5-6.35,2.33-.02,0-.03,0-.05,0-.02-.08-.04-.24-.02-.51.06-.78.45-1.55,1.1-2.16,2.98-2.78,6.51-7.64,10.6-13.27,5.46-7.5,9.77-13.94,15.67-18.71,2.65-2.14,6.11-6.54,6.59-8.98,1.27-6.45,7.28-11.94,14.28-13.06,6.36-1.01,11.92,1.82,15.24,7.76.95,1.69,1.58,3.34,1.91,4.93-1.49,1.06-2.48,2.58-2.76,4.36-.35,2.29.58,4.57,2.5,6.27-.19,3.23-.13,3.2.15,6.54.17,2.06-.19,7.53-.77,9.46ZM94.74,144.62c-1.49-1.15-2.33-2.62-2.42-4.19,1.53.48,3.26.59,4.8.65,1.33.05,2.78.06,4.16-.19-3.34,2.62-5.5,3.46-6.54,3.73ZM97.11,140.2c-1.53-.07-3.27-.16-4.77-.68,0-.05,0-.09.01-.13.29-1.91,1.67-3.46,3.69-4.19,2.7,1.15,5.02,2.67,6.66,4.38-1.73.7-3.79.71-5.6.63Z"/>
              <path class="cls-3" d="M75.29,147.29c4.35,13.34-8.27,22.36-28.91,24.62-4.82-.1-3.77,2.43-1.4,2.33,36.25-1.24,36.98-23.66,30.31-26.95Z"/>
              <path class="cls-3" d="M85.73,130.93c-1.86-.3-3.62.98-3.92,2.84-.3,1.86.98,3.62,2.84,3.92,1.86.3,3.62-.98,3.92-2.84.3-1.86-.98-3.62-2.84-3.92Z"/>
            </g>
            <g>
              <path class="cls-2" d="M114.76,147.76c-.47,2.01-.93,7.48-.65,9.47,1.35,9.56,5.19,16.36,11.41,20.2,8.13,5.02,20.45,4.99,35.67-.11,1.95-.59,4.36.93,8.13,3.46,1.72,1.16,4.86,3.27,5.93,3.26.02,0,.03,0,.05,0,.03-.08.07-.23.09-.5.06-.78-.21-1.6-.76-2.3-2.53-3.19-5.3-8.53-8.5-14.7-4.28-8.23-7.58-15.24-12.71-20.84-2.3-2.51-5.07-7.37-5.18-9.86-.3-6.57-5.42-12.9-12.17-15.04-6.14-1.95-12.05.02-16.23,5.4-1.19,1.53-2.06,3.06-2.62,4.59,1.31,1.27,2.07,2.92,2.07,4.73,0,2.32-1.25,4.44-3.41,5.83-.3,3.22-.35,3.18-1.12,6.44ZM133.49,145.86c-6.29,12.54,4.84,23.34,24.92,28.66,4.78.62,3.36,2.96,1.04,2.51-35.66-6.63-33.03-28.91-25.95-31.16ZM122.22,131.58c-.02-1.89,1.5-3.43,3.39-3.45,1.89-.02,3.44,1.5,3.45,3.39s-1.51,3.44-3.39,3.45c-1.89.02-3.43-1.51-3.45-3.39Z"/>
              <path class="cls-1" d="M117.67,136.54c-.33,1.53-1.38,2.87-3.02,3.78-.99-.42-3-1.57-5.91-4.66,1.32.45,2.76.66,4.08.81,1.54.17,3.26.32,4.85.07Z"/>
              <path class="cls-1" d="M117.79,135.5s0,.09,0,.13c-1.55.29-3.29.13-4.81-.03-1.8-.19-3.83-.51-5.44-1.46,1.88-1.44,4.4-2.6,7.24-3.34,1.89,1.03,3.01,2.77,3.02,4.7Z"/>
              <path class="cls-3" d="M105.36,134l.43.6c2.52,2.99,5.01,5.26,7.1,6.49-.29,3.11-.32,2.92-1.05,5.98-.56,2.38-1.03,8.21-.7,10.58,1.48,10.49,5.79,18,12.8,22.33,3.09,1.91,6.7,3.15,10.75,3.75,3.03.25,11.25.08,14.71-.34,3.99-.65,8.23-1.71,12.7-3.21.76-.09,3.76,1.9,5.54,3.09,2.98,2,5.62,3.77,7.71,3.75.46,0,.9-.1,1.31-.29.71-.34,1.58-1.13,1.72-2.97.12-1.54-.38-3.1-1.4-4.4h0c-2.35-2.97-5.19-8.43-8.19-14.22-4.36-8.4-7.76-15.59-13.15-21.49-1.25-1.36-4.3-5.77-4.4-7.97-.35-7.78-6.35-15.25-14.26-17.77-7.4-2.35-14.51-.01-19.51,6.42-1.27,1.64-2.23,3.3-2.9,4.97-3.49.88-6.56,2.37-8.66,4.21l-.55.48ZM114.76,147.76c.77-3.26.82-3.22,1.12-6.44,2.16-1.39,3.42-3.51,3.41-5.83,0-1.8-.76-3.45-2.07-4.73.56-1.53,1.43-3.06,2.62-4.59,4.18-5.38,10.09-7.35,16.23-5.4,6.76,2.15,11.88,8.47,12.17,15.04.11,2.49,2.88,7.35,5.18,9.86,5.13,5.6,8.43,12.61,12.71,20.84,3.2,6.17,5.97,11.5,8.5,14.7.55.7.82,1.52.76,2.3-.02.27-.06.42-.09.5-.02,0-.03,0-.05,0-1.07,0-4.21-2.1-5.93-3.26-3.77-2.53-6.17-4.05-8.13-3.46-15.22,5.1-27.54,5.14-35.67.11-6.22-3.84-10.05-10.64-11.41-20.2-.28-1.99.18-7.46.65-9.47ZM108.74,135.66c1.32.45,2.76.66,4.08.81,1.54.17,3.26.32,4.85.07-.33,1.53-1.38,2.87-3.02,3.78-.99-.42-3-1.57-5.91-4.66ZM107.53,134.14c1.88-1.44,4.4-2.6,7.24-3.34,1.89,1.03,3.01,2.77,3.02,4.7,0,.05,0,.09,0,.13-1.55.29-3.29.13-4.81-.03-1.8-.19-3.83-.51-5.44-1.46Z"/>
              <path class="cls-3" d="M133.49,145.86c-6.29,12.54,4.84,23.34,24.92,28.66,4.78.62,3.36,2.96,1.04,2.51-35.66-6.63-33.03-28.91-25.95-31.16Z"/>
              <path class="cls-3" d="M125.61,128.13c1.89-.02,3.44,1.5,3.45,3.39s-1.51,3.44-3.39,3.45c-1.89.02-3.43-1.51-3.45-3.39-.02-1.89,1.5-3.43,3.39-3.45Z"/>
            </g>
          </g>
          <g>
            <g>
              <path class="cls-5" d="M107.66,119.07c-.71,0-1.35.36-1.72.87-2.17,2.99-5.8,4.14-6.03-1.74v-49.4h-5.63v49.4c-.38,11.27,11.4,10.28,14.35,5.05,1.57-2.31.68-4.15-.98-4.17Z"/>
              <path class="cls-3" d="M107.66,117.98c-.86.06-1.66.32-2.28.95-.55.55-.94,1.23-1.57,1.72s-1.54,1.03-2.15.27c-.77-.94-.64-2.46-.64-3.64v-48.49c0-.59-.5-1.09-1.09-1.09h-5.63c-.59,0-1.09.5-1.09,1.09v29.54c0,5.6,0,11.2,0,16.81s-.27,9.17,3.83,11.75c2.84,1.78,6.68,1.48,9.52-.14,1.5-.86,2.71-2.14,3.47-3.7,1.08-2.2.35-4.86-2.36-5.06-1.4-.1-1.4,2.08,0,2.18,1.88.14-.33,3.2-1.02,3.84-.91.84-2.08,1.39-3.28,1.68-2.39.59-5.15.06-6.66-2.02-1.92-2.65-1.32-6.91-1.32-10.07,0-11.52,0-23.04,0-34.56v-10.23l-1.09,1.09h5.63l-1.09-1.09v48.56c0,1.73.06,3.69,1.24,5.06.94,1.09,2.34,1.31,3.64.79.68-.27,1.28-.69,1.83-1.17.63-.56,1.24-1.8,2.13-1.87,1.39-.1,1.4-2.29,0-2.18Z"/>
            </g>
            <g>
              <path class="cls-5" d="M96.88,1.94l-.24.8-.29-.93C58.89,9.58,23.54,35.48,1.81,73.3c14.78-9.24,25.99-8.45,36-2.03,10-6.77,25.11-8.31,34.27-.28,3.89-2.57,10.74-4.16,18-4.85,11-.75,25.07.44,31.44,4.65,9.16-8.02,24.27-6.49,34.27.28,10-6.42,21.22-7.21,36,2.03C170.06,35.28,134.34,9.72,96.88,1.94Z"/>
              <path class="cls-3" d="M95.12,1.46l-.24.8h3.52l-.29-.93c-.3-.98-1.25-1.48-2.24-1.27-15.1,3.16-29.57,9.14-42.68,17.22-13.79,8.5-26.16,19.3-36.57,31.7-6.14,7.31-11.62,15.15-16.38,23.41-.89,1.55.92,3.47,2.49,2.49,5.69-3.53,12.07-6.46,18.87-6.64,5.52-.14,10.67,1.67,15.29,4.61.52.33,1.32.35,1.84,0,9.14-6.11,23.13-8.25,32.06-.57.6.51,1.5.74,2.21.29,2.57-1.66,5.55-2.55,8.51-3.24,3.62-.84,7.32-1.34,11.03-1.49,6.55-.26,13.25,0,19.67,1.41,2.92.64,5.87,1.49,8.4,3.13.72.46,1.61.23,2.21-.29,8.93-7.69,22.92-5.54,32.06.57.52.35,1.32.33,1.84,0,4.62-2.94,9.77-4.75,15.29-4.61,6.8.18,13.18,3.11,18.87,6.63,1.57.98,3.39-.94,2.49-2.49-8.34-14.47-18.94-27.65-31.42-38.75-11.85-10.54-25.33-19.27-39.94-25.47-7.95-3.37-16.19-6.01-24.64-7.78-2.29-.48-3.27,3.03-.97,3.52,14.84,3.1,29,8.87,41.94,16.74,13.48,8.2,25.55,18.64,35.78,30.65,6.07,7.13,11.44,14.83,16.11,22.94l2.49-2.49c-6.24-3.87-13.26-6.94-20.71-7.13-6.13-.16-12,1.84-17.13,5.11h1.84c-10.62-7.09-26.3-8.76-36.48,0l2.21-.29c-5.2-3.37-11.99-4.24-18.02-4.77-7.48-.65-15.06-.46-22.42,1.04-3.73.76-7.61,1.84-10.84,3.93l2.21.29c-10.18-8.76-25.86-7.1-36.48,0h1.84c-5.13-3.26-11-5.27-17.13-5.11-7.45.19-14.47,3.26-20.71,7.13l2.49,2.49c8.19-14.22,18.53-27.14,30.73-38.13,11.45-10.3,24.51-18.83,38.66-24.93,7.73-3.34,15.82-5.88,24.06-7.6l-2.24-1.27.29.93c.53,1.72,2.99,1.74,3.52,0l.24-.8c.67-2.25-2.84-3.22-3.52-.97Z"/>
            </g>
          </g>
        </g>
      </g>
    </g>
  </g>
</svg>