<?xml version="1.0" encoding="UTF-8"?>
<svg id="Layer_2" data-name="Layer 2" xmlns="http://www.w3.org/2000/svg" viewBox="0 0 90.53 95.33">
  <defs>
    <style>
      .cls-1 {
        fill: #545633;
      }

      .cls-1, .cls-2, .cls-3, .cls-4, .cls-5 {
        stroke-width: 0px;
      }

      .cls-2 {
        fill: #e7cd9c;
      }

      .cls-3 {
        fill: #ceaa6f;
      }

      .cls-4 {
        fill: #abb36c;
      }

      .cls-5 {
        fill: #000;
      }
    </style>
  </defs>
  <g id="Brand_Standard_Guid" data-name="Brand Standard Guid">
    <g>
      <g>
        <g>
          <g>
            <path class="cls-3" d="M65.1,18.66c-3.48,1.44-3.12,12.93.87,13.27,4.37-3.38,1.46-12.44-.87-13.27Z"/>
            <path class="cls-5" d="M64.53,17.69c-1.96.86-2.58,3.45-2.82,5.36-.3,2.33-.11,4.87.81,7.05.4.95.98,1.85,1.85,2.43.4.27.88.45,1.36.5.81.08,1.41-.56,1.89-1.15,1.82-2.22,1.97-5.27,1.48-7.99-.4-2.21-1.39-5.42-3.71-6.32-.57-.22-1.23.24-1.38.79-.17.64.22,1.16.79,1.38-.33-.13-.03-.01.04.04.18.13-.17-.16.02.01.14.13.28.27.4.42.05.06.04.05-.02-.03.04.06.08.11.12.17.06.09.12.18.18.27.15.23.28.47.4.72.48.96.82,2.15,1.02,3.3.39,2.31.14,4.96-1.79,6.5l.8-.33c.31.03-.05-.02-.12-.04-.29-.08.03.04-.12-.05-.1-.06-.2-.12-.29-.18.23.17-.07-.08-.11-.12-.29-.29-.52-.66-.76-1.22.07.16-.08-.23-.1-.26-.05-.15-.1-.3-.15-.45-.1-.32-.17-.64-.24-.97-.14-.68-.19-1.2-.22-1.93-.06-1.4.03-2.61.42-3.92.18-.59.27-.82.63-1.39.04-.05.07-.11.11-.16-.08.1-.08.11,0,.01.08-.09.16-.17.25-.25.12-.12-.15.05.11-.08.1-.05.19-.11.29-.15.56-.24.69-1.06.4-1.54-.34-.57-.98-.65-1.54-.4Z"/>
          </g>
          <g>
            <path class="cls-3" d="M64.64,18.32c-1.94-2.12-5.19-1.43-5.83.46-1.56,5.28-.46,11.66,0,12.58,1.71,2.6,4.12,3.22,6.31.84-3.07-1.71-3.55-11.92-.49-13.88Z"/>
            <path class="cls-5" d="M65.43,17.52c-1.5-1.56-3.85-2.11-5.83-1.15-2.16,1.05-2.36,3.72-2.58,5.83-.25,2.32-.17,4.67.16,6.98.1.68.2,1.38.4,2.05.25.86.85,1.59,1.5,2.19.89.83,2.06,1.43,3.3,1.38,1.4-.06,2.59-.82,3.54-1.81.5-.52.41-1.39-.23-1.77-.26-.15-.52-.43-.72-.74-.3-.47-.45-.84-.61-1.32-.41-1.23-.61-2.51-.66-3.8s.01-2.59.33-3.85c.14-.56.26-.94.5-1.38.06-.12.13-.23.2-.34.13-.21,0-.02.11-.16.07-.08.14-.15.21-.22.05-.05.1-.09.15-.13-.1.08-.1.08,0,0,1.2-.8.07-2.75-1.14-1.94-2.43,1.63-2.72,5.36-2.61,8.01s.62,6.36,3.1,7.82l-.23-1.77c-.53.55-1.16,1.09-1.95,1.15-.69.05-1.31-.33-1.79-.79-.32-.3-.57-.64-.82-1,0,0,.07.25.03.05-.02-.09-.06-.18-.08-.27-.14-.51-.23-1.04-.32-1.57-.25-1.63-.32-3.3-.26-4.95.03-1.01.12-2.03.3-3.02.12-.69.2-1.7.63-2.22.98-1.18,2.87-.61,3.77.32,1.01,1.05,2.6-.55,1.59-1.59Z"/>
          </g>
        </g>
        <g>
          <path class="cls-4" d="M63.3,37.43c-.07-.5-.15-1-.22-1.5-.13-.85-.26-1.7-.36-2.55-1.23-10.09-7.03-20.63-19.6-20.63-.38,0-.77,0-1.17.03-12.88.65-20.78,10.84-20.98,20.32-.08,3.9-1.82,8.81-3.4,11.45-2.7,4.48-5.19,9.56-3.45,17.94.54,2.61,1.51,5.06,2.82,7.26,3.9-5.78,6.04-12.97,5.61-19.91-.1-1.61,2.4-1.6,2.5,0,.46,7.5-1.91,15.37-6.2,21.55-.14.21-.32.34-.51.43,1.73,2.26,3.86,4.16,6.32,5.56,9.8,5.58,22.33,6.21,31.93,1.62,8.04-3.85,13.44-13.06,13.44-22.92,0-5.21-2.2-9.12-4.14-12.57-1.25-2.22-2.33-4.14-2.6-6.07ZM30.78,32.56c-1.76,0-3.2-1.64-3.2-3.66s1.44-3.66,3.2-3.66,3.2,1.64,3.2,3.66-1.43,3.66-3.2,3.66ZM49.75,36.81c-1.45,5.87-5.15,8.45-5.88,8.91-.74.47-1.42.64-2.04.64-1.5,0-2.59-1.05-3.09-1.54l-.4-.38c-1.78-1.7-3.06-2.93-4.5-7.49-.39-1.23-.21-2.56.47-3.64h0c1.53-2.42,3.96-5.63,7.39-5.63h.02c2.64.01,5.09,1.9,7.5,5.78.62.99.81,2.21.53,3.35ZM52.79,32.56c-1.76,0-3.2-1.64-3.2-3.66s1.44-3.66,3.2-3.66,3.2,1.64,3.2,3.66-1.43,3.66-3.2,3.66Z"/>
          <path class="cls-2" d="M42.04,39.69c-1.67,0-3.18-.54-4.47-1.27.82,1.91,1.6,2.66,2.85,3.86l.41.39c.89.86,1.04.77,1.45.51.27-.17,2.28-1.52,3.68-4.56-1.13.65-2.33,1.01-3.57,1.07-.12,0-.23,0-.35,0Z"/>
          <path class="cls-2" d="M41.71,30.68h0c-1.35,0-2.88,1.28-4.55,3.78,1.1.98,2.98,2.34,5.09,2.23,1.41-.06,2.78-.8,4.07-2.18-1.64-2.49-3.23-3.82-4.61-3.83Z"/>
          <path class="cls-5" d="M41.73,27.68h-.02c-3.42,0-5.85,3.21-7.39,5.63h0c-.68,1.09-.86,2.41-.47,3.64,1.43,4.56,2.72,5.79,4.5,7.49l.4.38c.5.48,1.59,1.54,3.09,1.54.62,0,1.3-.18,2.04-.64.73-.46,4.43-3.04,5.88-8.91.28-1.14.09-2.36-.53-3.35-2.41-3.88-4.86-5.77-7.5-5.78ZM42.27,43.18c-.41.25-.56.35-1.45-.51l-.41-.39c-1.25-1.2-2.04-1.94-2.85-3.86,1.3.73,2.81,1.27,4.47,1.27.12,0,.23,0,.35,0,1.25-.06,2.44-.42,3.57-1.07-1.4,3.05-3.41,4.39-3.68,4.56ZM42.25,36.69c-2.11.1-3.99-1.25-5.09-2.23,1.66-2.5,3.19-3.78,4.55-3.78h0c1.38,0,2.97,1.34,4.61,3.83-1.29,1.38-2.66,2.12-4.07,2.18Z"/>
          <path class="cls-5" d="M30.78,25.23c-1.76,0-3.2,1.64-3.2,3.66s1.44,3.66,3.2,3.66,3.2-1.64,3.2-3.66-1.43-3.66-3.2-3.66Z"/>
          <path class="cls-5" d="M52.79,25.23c-1.76,0-3.2,1.64-3.2,3.66s1.44,3.66,3.2,3.66,3.2-1.64,3.2-3.66-1.43-3.66-3.2-3.66Z"/>
          <path class="cls-4" d="M73.09,56.7c16.45-16.51,15.64-27.44,15.34-31.61l-.04-.53c-.12-1.88-.97-1.95-1.33-1.97-.06,0-.12,0-.18,0-4.36,0-15.72,10.79-17.75,19.56l3.96,14.56Z"/>
          <path class="cls-5" d="M90.42,24.95l-.04-.51c-.2-3.27-2.29-3.78-3.18-3.84-5.38-.4-16.65,10.34-19.64,19.71-.66-1.24-1.16-2.35-1.3-3.3-.07-.51-.15-1.02-.23-1.54-.12-.82-.25-1.64-.35-2.46-2.18-17.91-13.78-23.75-23.89-23.24-14.63.73-23.6,12.4-23.83,23.26-.08,3.59-1.78,7.99-2.97,9.96-2.87,4.77-5.77,10.66-3.82,20.1,1.5,7.24,5.88,13.4,12,16.89,2.1,1.19,4.52,2.26,7.15,3.12,0,.06-.02.12-.02.19v8.27h-7.69c-2.42,0-2.43,3.76,0,3.76h15.63c2.42,0,2.42-3.76,0-3.76h-4.31v-7.47c2.76.63,5.7,1.01,8.73,1.01,2.3,0,4.65-.22,7.01-.69v7.15h-4.31c-2.42,0-2.42,3.76,0,3.76h15.63c2.42,0,2.43-3.76,0-3.76h-7.69v-8.08c1.54-.48,3.07-1.06,4.59-1.79,8.03-3.84,13.71-12.37,14.91-21.91l.47-.46c18.36-17.83,17.45-30.29,17.15-34.39ZM69.13,42.14c2.03-8.76,13.39-19.56,17.75-19.56.06,0,.12,0,.18,0,.36.03,1.22.09,1.33,1.97l.04.53c.3,4.17,1.11,15.1-15.34,31.61l-3.96-14.56ZM56.59,78.99c-9.6,4.59-22.13,3.96-31.93-1.62-2.46-1.4-4.6-3.3-6.32-5.56.19-.09.36-.23.51-.43,4.3-6.18,6.66-14.05,6.2-21.55-.1-1.6-2.6-1.61-2.5,0,.42,6.95-1.71,14.13-5.61,19.91-1.32-2.19-2.28-4.64-2.82-7.26-1.74-8.38.75-13.46,3.45-17.94,1.59-2.64,3.32-7.55,3.4-11.45.2-9.48,8.1-19.68,20.98-20.32.4-.02.78-.03,1.17-.03,12.57,0,18.37,10.54,19.6,20.63.1.85.23,1.7.36,2.55.08.5.15,1,.22,1.5.27,1.93,1.35,3.85,2.6,6.07,1.94,3.45,4.14,7.36,4.14,12.57,0,9.86-5.4,19.07-13.44,22.92Z"/>
        </g>
        <g>
          <g>
            <path class="cls-3" d="M18.51,18.35c-2.33.83-5.24,9.89-.87,13.27,3.99-.34,4.35-11.83.87-13.27Z"/>
            <path class="cls-5" d="M18.21,17.27c-2.03.78-2.99,3.38-3.49,5.31-.67,2.61-.77,5.67.61,8.07.34.58.77,1.14,1.28,1.58.59.52,1.17.6,1.9.34.97-.35,1.7-1.13,2.2-2.01,1.14-2.03,1.41-4.61,1.26-6.9-.14-2.13-.68-5.29-2.91-6.27-.56-.24-1.21-.16-1.54.4-.28.48-.16,1.29.4,1.54.1.04.19.1.29.15.26.13-.01-.04.11.08.09.08.17.17.25.25.08.1.08.09,0-.01.04.05.07.1.11.16.36.57.45.8.63,1.39.39,1.31.48,2.52.42,3.92-.03.73-.09,1.26-.22,1.93-.07.33-.15.65-.24.97-.05.15-.09.3-.15.45-.01.04-.17.43-.1.26-.24.56-.47.93-.76,1.22-.04.04-.34.28-.11.12-.09.07-.19.12-.29.18-.15.09.17-.03-.12.05-.07.02-.43.07-.12.04l.8.33c-1.93-1.53-2.18-4.19-1.79-6.5.19-1.14.54-2.34,1.02-3.3.12-.25.25-.49.4-.72.06-.09.37-.52.25-.37.13-.16.28-.31.43-.45.2-.19-.19.14.02-.01.07-.05.37-.17.04-.04.57-.22.96-.76.79-1.38-.15-.54-.81-1.01-1.38-.79Z"/>
          </g>
          <g>
            <path class="cls-3" d="M18.97,18.01c3.07,1.96,2.58,12.17-.49,13.88,2.2,2.37,4.6,1.76,6.31-.84.46-.92,1.56-7.3,0-12.58-.64-1.89-3.89-2.58-5.83-.46Z"/>
            <path class="cls-5" d="M18.4,18.98c.1.07.1.07,0,0,.05.04.1.08.15.13.07.07.14.14.21.22.16.19-.05-.08.08.11.08.13.16.25.23.38.23.43.36.83.5,1.38.32,1.26.39,2.55.33,3.85s-.25,2.58-.66,3.8c-.16.47-.32.86-.61,1.32-.21.34-.44.59-.72.74-.64.37-.73,1.25-.23,1.77,1.63,1.7,4.01,2.46,6.08,1.04.88-.6,1.8-1.51,2.17-2.52.19-.53.29-1.09.38-1.64.37-2.18.49-4.42.35-6.63-.08-1.3-.25-2.6-.55-3.86-.25-1.06-.6-1.94-1.49-2.61-1.98-1.49-4.81-.96-6.46.75-1,1.04.58,2.64,1.59,1.59.87-.91,2.38-1.38,3.5-.57.54.39.6,1.03.74,1.67.21.96.34,1.94.41,2.92.12,1.78.07,3.58-.14,5.35-.07.58-.17,1.16-.3,1.74-.04.18-.1.36-.14.54-.01.05-.11.27-.02.08.1-.21-.26.36-.3.41-.48.6-1.14,1.21-1.94,1.31-.92.12-1.7-.53-2.29-1.15l-.23,1.77c2.48-1.45,3-5.23,3.1-7.82s-.18-6.38-2.61-8.01c-1.21-.81-2.33,1.14-1.14,1.94Z"/>
          </g>
          <g>
            <path class="cls-3" d="M63.55,16.71c-2.99-19.12-37.95-22.45-43.94.31.74-.34,2.36-.63,3.38-.22,5.28-16.35,33.09-15.28,37.42-.22,0,0,2.26-.07,3.14.13Z"/>
            <path class="cls-5" d="M64.64,16.41c-1.29-7.87-7.9-13.28-15.28-15.35C41.72-1.08,32.84-.05,26.42,4.8c-3.94,2.97-6.61,7.16-7.89,11.91-.2.75.56,1.72,1.38,1.38.88-.36,1.86-.52,2.78-.22.6.19,1.2-.23,1.38-.79,3.92-11.83,20.49-13.94,29.83-7.53,2.58,1.77,4.53,4.3,5.42,7.31.14.46.59.84,1.08.83.93-.03,1.92-.09,2.84.09,1.42.27,2.02-1.9.6-2.17-1.13-.21-2.3-.2-3.44-.17l1.08.83C57.59,3.11,38.73.52,28.55,7.62c-3.14,2.19-5.44,5.24-6.65,8.87l1.38-.79c-1.27-.41-2.75-.28-3.98.22l1.38,1.38c2.07-7.68,8.12-12.97,15.85-14.56,6.85-1.4,14.82.02,20.28,4.56,3,2.5,5.01,5.82,5.64,9.69.23,1.43,2.4.82,2.17-.6Z"/>
          </g>
        </g>
        <g>
          <g>
            <path class="cls-1" d="M2.11,71.16c.22.76.75,1.39,1.46,1.73,2.53,1.2,8.87,4.01,13.66,5.75,1.07.23,2.18.6,3.14,1.04.55.16,1.04.28,1.45.35.1.02.2.03.3.02,5-.08,9.32-8.39,9.6-13.75-.12-1.98-1.63-3.23-4.33-3.12-.54.02-1.08.16-1.55.43-2.31,1.3-2.55,3.33-5.19,4.24-.47.16-.98.12-1.43-.08-1.42-.65-4.66-1.95-6.48-2.57-.81-.28-1.41-.98-1.56-1.82-.34-1.9-.29-4.93-1.02-6.25-.25-.73-1.32-1.51-2.4-1.85-.9-.28-1.89.04-2.5.76-2.83,3.33-4.93,8.9-3.17,15.12Z"/>
            <path class="cls-5" d="M.67,71.56c1.04,2.95,4.81,3.87,7.43,5,1.82.79,3.66,1.56,5.5,2.29s3.64,1.21,5.44,1.89c1.58.6,3.06,1.05,4.74.57,1.36-.39,2.56-1.2,3.59-2.15,2.33-2.15,3.91-5.16,4.92-8.14.91-2.7,1.78-6.29-.9-8.28-1.28-.95-3.04-1.22-4.59-.99-1.8.26-3.13,1.51-4.28,2.83-.48.55-.94,1.12-1.57,1.5-.84.5-1.25.26-2.09-.1-1.6-.68-3.22-1.33-4.85-1.93-.67-.25-1.17-.33-1.37-1.08-.21-.82-.19-1.74-.27-2.58-.15-1.56-.28-3.27-1.22-4.58-1.2-1.68-3.68-2.66-5.62-1.78-1.67.76-2.81,2.8-3.6,4.38-2.05,4.1-2.45,8.73-1.26,13.14.5,1.86,3.4,1.07,2.89-.8-.91-3.38-.77-6.94.64-10.17.52-1.18,1.21-2.57,2.14-3.49,1.1-1.08,2.48.31,2.76,1.46.64,2.62-.21,6.27,2.61,7.81,1.08.59,2.38.9,3.52,1.35,1.29.51,2.62,1.27,3.96,1.62,1.49.39,3.01-.36,4.14-1.29s1.78-2.19,2.95-2.94c.92-.58,2.51-.67,3.4.07.82.68.53,1.83.35,2.74-.52,2.56-1.58,5.03-3.07,7.17-1.15,1.64-3.16,3.87-5.39,3.35-.93-.22-1.79-.65-2.71-.93-.76-.23-1.51-.42-2.26-.7-1.74-.66-3.46-1.35-5.18-2.07-1.57-.66-3.14-1.34-4.7-2.04-.93-.42-2.79-.89-3.16-1.93-.64-1.81-3.54-1.03-2.89.8Z"/>
          </g>
          <g>
            <path class="cls-1" d="M17.24,78.64c-.75-.16-1.48-.27-2.12-.28.54,2.26,3.62,4.9,6.94,2.27-.45-.34-1.04-.66-1.68-.95-.96-.44-2.07-.81-3.14-1.04Z"/>
            <path class="cls-5" d="M17.44,77.92c-.76-.16-1.54-.29-2.32-.3-.5-.01-.84.49-.72.95.37,1.47,1.48,2.82,2.85,3.46.79.36,1.64.53,2.5.42,1.08-.13,1.99-.62,2.84-1.28.42-.33.19-.93-.15-1.18-1.44-1.06-3.27-1.68-5-2.07-.94-.21-1.34,1.24-.4,1.45,1.62.36,3.29.93,4.64,1.92l-.15-1.18c-1.08.84-2.49,1.16-3.69.54-1-.52-1.74-1.45-2-2.48l-.72.95c.65.01,1.29.11,1.92.25.4.08.81-.12.92-.52.1-.37-.13-.84-.52-.92Z"/>
          </g>
          <g>
            <path class="cls-1" d="M2.94,73.14c.28,2.31,3.04,5.28,6.64,3.04-1.45-1.37-4.48-2.77-6.64-3.04Z"/>
            <path class="cls-5" d="M2.19,73.14c.21,1.58,1.1,3.01,2.45,3.87,1.67,1.07,3.69.81,5.32-.19.4-.24.51-.84.15-1.18-.94-.88-2.09-1.54-3.25-2.07-1.25-.57-2.55-1.01-3.92-1.19-.4-.05-.75.38-.75.75,0,.45.35.7.75.75,1.02.13,2.25.56,3.26,1.03s2.06,1.05,2.85,1.79l.15-1.18c-.67.41-1.4.69-2.14.69-.6,0-1.15-.17-1.67-.51-.44-.28-.86-.72-1.14-1.16-.08-.13-.16-.26-.22-.39-.03-.07-.07-.13-.1-.2-.07-.16.02.06-.04-.09s-.1-.29-.14-.44c-.02-.07-.03-.13-.05-.2,0-.03-.05-.27-.02-.1-.05-.4-.31-.75-.75-.75-.36,0-.8.35-.75.75Z"/>
          </g>
        </g>
      </g>
      <g>
        <path class="cls-4" d="M16.1,44.87c-2.65,4.14-7.06,17.07.26,27.22,4.64-5.97,7.69-14.46,7.32-22.38"/>
        <path class="cls-5" d="M15.13,44.31c-2.21,3.52-3.33,7.83-3.76,11.92-.6,5.78.65,11.66,4.02,16.43.52.74,1.41.69,1.94,0,4.95-6.46,7.79-14.79,7.48-22.95-.06-1.44-2.31-1.45-2.25,0,.3,7.8-2.44,15.64-7.17,21.81h1.94c-3.18-4.5-4.27-9.86-3.72-15.3.38-3.7,1.46-7.62,3.45-10.79.77-1.23-1.17-2.36-1.94-1.14h0Z"/>
      </g>
    </g>
  </g>
</svg>