<?xml version="1.0" encoding="UTF-8"?>
<svg id="Layer_2" data-name="Layer 2" xmlns="http://www.w3.org/2000/svg" viewBox="0 0 157.88 105.09">
  <defs>
    <style>
      .cls-1 {
        fill: #e7cd9c;
      }

      .cls-1, .cls-2, .cls-3 {
        stroke-width: 0px;
      }

      .cls-2 {
        fill: #abb36c;
      }

      .cls-3 {
        fill: #000;
      }
    </style>
  </defs>
  <g id="Brand_Standard_Guid" data-name="Brand Standard Guid">
    <g>
      <g>
        <path class="cls-2" d="M67.14,54.74c-.42-3.21.32-11.11,1.11-14.32,1-4.01,1.07-3.91,1.47-7.71-.18-.14-.35-.29-.54-.43-7.8-5.61-18.14-4.81-26.87-2.13-12.58,3.87-23.83,11.78-33.31,20.75-1.38,1.3-2.72,2.63-4.03,3.99-.41.43-.82.85-1.23,1.29-.17.18-.83.68-.87.93-.05.38.07.27.35.4,1.09.52,2.7.61,3.83.75,4.06.52,8.17.65,12.26.77,10.73.33,21.48.31,32.2,1.01,5.1.33,10.21.81,15.25,1.71.59.1,1.17.22,1.76.34-.59-2.32-1.06-4.76-1.39-7.34Z"/>
        <path class="cls-2" d="M141.51,67.61c-5.67-11.22-10.03-20.77-16.9-28.44-3.08-3.44-6.75-10.07-6.87-13.44-.3-8.91-7.14-17.56-16.26-20.57-8.29-2.74-16.33-.16-22.08,7.06-1.63,2.05-2.84,4.12-3.62,6.18,1.76,1.74,2.76,4,2.74,6.44-.02,3.14-1.76,5.99-4.71,7.84-.45,4.36-.52,4.3-1.62,8.71-.67,2.72-1.38,10.12-1.03,12.82,1.69,12.98,6.78,22.25,15.15,27.55,10.94,6.93,27.63,7.07,48.34.4,2.66-.77,5.89,1.33,10.96,4.81,2.32,1.59,6.54,4.5,7.99,4.5.02,0,.04,0,.06,0,.04-.11.1-.32.13-.68.1-1.06-.26-2.17-1-3.13-3.38-4.37-7.05-11.63-11.29-20.05ZM87.17,24.23c-2.56,0-4.63-2.09-4.62-4.65,0-2.56,2.09-4.63,4.65-4.62,2.56,0,4.63,2.09,4.63,4.65,0,2.56-2.09,4.63-4.65,4.62ZM132.29,81.73c-48.22-9.53-44.32-39.68-34.69-42.63-8.72,16.9,6.2,31.7,33.32,39.21,6.47.91,4.51,4.06,1.37,3.42Z"/>
        <path class="cls-1" d="M76.31,26.24c-2.15.31-4.49.08-6.56-.18-1.79-.22-3.74-.52-5.52-1.16,3.9,4.23,6.61,5.82,7.94,6.4,2.24-1.21,3.68-3,4.15-5.07Z"/>
        <path class="cls-1" d="M76.47,25.01c0-.06.02-.12.02-.18.02-2.62-1.48-4.99-4.02-6.41-3.87.95-7.29,2.49-9.87,4.41,2.16,1.31,4.91,1.78,7.35,2.06,2.06.24,4.41.49,6.52.12Z"/>
        <path class="cls-3" d="M156.02,85.17h0c-3.14-4.06-6.9-11.51-10.88-19.39-5.78-11.45-10.28-21.25-17.5-29.32-1.67-1.86-5.73-7.89-5.83-10.87-.36-10.55-8.37-20.76-19.05-24.29-10-3.3-19.67-.24-26.53,8.39-1.75,2.2-3.08,4.44-4,6.69-4.74,1.14-8.93,3.11-11.79,5.57l-.75.65.57.82c.83,1.01,1.65,1.95,2.47,2.83-7.32-1.89-15.52-.77-22.69,1.65-7.51,2.54-14.53,6.44-20.98,11.04-3.61,2.57-7.05,5.37-10.33,8.35-1.76,1.6-3.48,3.25-5.15,4.96C2.24,53.6-.06,55.25,0,57.34c.08,2.67,2.92,3.12,5.01,3.47,2.23.37,4.49.57,6.74.72,5.96.4,11.94.46,17.92.58,6.87.14,13.75.28,20.62.69,6.2.37,12.44.9,18.51,2.24.21.05.42.1.63.15,2.86,8.9,7.78,15.61,14.72,20.01,4.15,2.63,9.03,4.37,14.51,5.24-.07.17-.14.34-.22.51-1.44,3.37-2.87,6.73-4.31,10.1-.08.18-.12.36-.15.54-3.73,0-7.46-.02-11.19-.03-2.25,0-2.26,3.49,0,3.49.63,0,1.25,0,1.88,0,4.43.01,8.85.02,13.28.03,2.25,0,2.26-3.49,0-3.49-.21,0-.42,0-.62,0,.05-.12.11-.25.16-.37,1.44-3.37,2.87-6.73,4.31-10.1.04-.09.05-.18.08-.27,4.1.39,8.52.33,13.21-.19-.06.21-.11.42-.17.62-.92,3.47-1.84,6.94-2.76,10.42-2.82,0-5.64-.01-8.46-.02-2.16,0-2.17,3.35,0,3.36.84,0,1.67,0,2.51,0,5.92.02,11.84.03,17.76.05,2.17,0,2.17-3.35,0-3.36-.84,0-1.67,0-2.51,0-1.96,0-3.92-.01-5.88-.02.99-3.72,1.98-7.44,2.96-11.17.03-.12.05-.23.06-.34,5.42-.83,11.18-2.2,17.26-4.16,1.03-.11,5.07,2.63,7.46,4.27,4,2.75,7.56,5.2,10.4,5.21.63,0,1.22-.12,1.77-.38.96-.45,2.15-1.51,2.38-3.99.19-2.08-.46-4.21-1.83-5.98ZM72.46,18.42c2.55,1.42,4.04,3.8,4.02,6.41,0,.06-.01.12-.02.18-2.11.37-4.46.12-6.52-.12-2.44-.28-5.19-.76-7.35-2.06,2.57-1.92,6-3.46,9.87-4.41ZM64.22,24.9c1.79.63,3.73.94,5.52,1.16,2.08.26,4.41.48,6.56.18-.47,2.07-1.91,3.86-4.15,5.07-1.33-.58-4.03-2.18-7.94-6.4ZM51.52,60.04c-10.72-.7-21.47-.68-32.2-1.01-4.09-.12-8.2-.25-12.26-.77-1.13-.14-2.74-.23-3.83-.75-.29-.14-.41-.03-.35-.4.03-.24.69-.74.87-.93.41-.43.81-.86,1.23-1.29,1.31-1.36,2.66-2.69,4.03-3.99,9.49-8.96,20.73-16.87,33.31-20.75,8.73-2.69,19.07-3.49,26.87,2.13.19.13.36.29.54.43-.4,3.79-.48,3.7-1.47,7.71-.8,3.21-1.53,11.11-1.11,14.32.34,2.58.8,5.03,1.39,7.34-.58-.12-1.17-.23-1.76-.34-5.04-.9-10.15-1.38-15.25-1.71ZM153.67,91.47s-.04,0-.06,0c-1.45,0-5.68-2.91-7.99-4.5-5.07-3.48-8.3-5.58-10.96-4.81-20.7,6.68-37.4,6.54-48.34-.4-8.36-5.3-13.46-14.57-15.15-27.55-.35-2.7.35-10.1,1.03-12.82,1.09-4.41,1.16-4.35,1.62-8.71,2.94-1.85,4.68-4.7,4.71-7.84.02-2.44-.98-4.69-2.74-6.44.78-2.06,1.99-4.13,3.62-6.18,5.74-7.23,13.79-9.8,22.08-7.06,9.12,3.01,15.96,11.66,16.26,20.57.12,3.37,3.79,10,6.87,13.44,6.86,7.67,11.23,17.21,16.9,28.44,4.25,8.41,7.92,15.68,11.29,20.05.74.96,1.09,2.07,1,3.13-.03.37-.09.57-.13.68Z"/>
        <path class="cls-3" d="M130.92,78.32c-27.12-7.51-42.04-22.31-33.32-39.21-9.63,2.95-13.53,33.1,34.69,42.63,3.15.65,5.11-2.5-1.37-3.42Z"/>
        <path class="cls-3" d="M87.19,14.96c-2.56,0-4.64,2.07-4.65,4.62,0,2.56,2.07,4.64,4.62,4.65,2.56,0,4.64-2.07,4.65-4.62,0-2.56-2.07-4.64-4.63-4.65Z"/>
      </g>
      <g>
        <path class="cls-2" d="M53.48,59.18c0-1.39.57-2.67,1.57-3.66-.44-1.17-1.13-2.35-2.05-3.53-3.26-4.12-7.84-5.6-12.56-4.06-5.2,1.7-9.11,6.62-9.29,11.69-.07,1.92-2.17,5.69-3.93,7.65-3.92,4.36-6.42,9.79-9.67,16.17-2.43,4.79-4.53,8.92-6.46,11.4-.42.54-.63,1.18-.57,1.78.02.21.05.33.08.39.01,0,.02,0,.04,0,.83,0,3.24-1.65,4.56-2.55,2.89-1.98,4.74-3.16,6.25-2.72,11.78,3.83,21.29,3.78,27.53-.15,4.77-3.01,7.69-8.28,8.67-15.67.2-1.54-.19-5.75-.57-7.3-.62-2.51-.66-2.48-.91-4.96-1.67-1.06-2.66-2.69-2.67-4.47ZM22.77,91.5c-1.79.36-2.91-1.43.78-1.94,15.46-4.24,23.98-12.65,19.04-22.28,5.48,1.7,7.66,18.87-19.82,24.23ZM48.55,58.82c-1.46,0-2.64-1.18-2.64-2.64s1.18-2.64,2.64-2.64,2.64,1.18,2.64,2.64-1.18,2.64-2.64,2.64Z"/>
        <path class="cls-1" d="M61.62,59.24c-1.02.36-2.13.53-3.15.65-1.18.14-2.51.27-3.74.09.26,1.18,1.08,2.2,2.36,2.89.76-.33,2.3-1.23,4.53-3.64Z"/>
        <path class="cls-1" d="M58.36,59.22c1.39-.16,2.96-.42,4.19-1.16-1.46-1.1-3.41-1.98-5.61-2.53-1.45.81-2.31,2.16-2.3,3.65,0,.04,0,.07,0,.1,1.2.21,2.54.08,3.72-.06Z"/>
        <path class="cls-3" d="M63.79,57.56c-1.63-1.4-4.01-2.53-6.71-3.19-.53-1.29-1.28-2.56-2.27-3.82-3.9-4.93-9.4-6.69-15.1-4.82-6.09,1.99-10.67,7.8-10.89,13.81-.06,1.7-2.39,5.12-3.34,6.18-4.12,4.58-6.7,10.16-10.01,16.67-2.28,4.49-4.43,8.72-6.23,11.03h0c-.78,1.01-1.16,2.22-1.05,3.4.12,1.41.8,2.02,1.35,2.28.32.15.65.22,1.01.22,1.62,0,3.64-1.39,5.93-2.95,1.36-.93,3.67-2.49,4.25-2.42,3.46,1.13,6.74,1.91,9.82,2.39,0,.06.01.13.03.2.56,2.12,1.11,4.24,1.67,6.36h-4.78c-1.23,0-1.23,1.91,0,1.91h11.55c1.23,0,1.23-1.91,0-1.91h-4.82c-.52-1.98-1.04-3.96-1.56-5.94-.03-.12-.06-.24-.09-.36,2.68.3,5.19.34,7.53.13.02.05.02.1.04.16.81,1.92,1.63,3.84,2.44,5.76.03.07.06.14.09.21h-.35c-1.28,0-1.28,1.99,0,1.99h8.63c1.28,0,1.28-1.99,0-1.99h-6.37c-.02-.1-.04-.21-.08-.31l-2.44-5.76c-.04-.1-.08-.19-.12-.29,3.12-.49,5.9-1.47,8.27-2.97,5.38-3.39,8.65-9.22,9.73-17.32.24-1.83-.16-6.33-.61-8.16-.58-2.36-.61-2.22-.85-4.61,1.6-.96,3.51-2.73,5.44-5.06l.33-.47-.43-.37ZM57.62,75.92c-.98,7.39-3.9,12.66-8.67,15.67-6.24,3.93-15.75,3.99-27.53.15-1.51-.44-3.36.75-6.25,2.72-1.32.9-3.73,2.55-4.56,2.55-.01,0-.02,0-.04,0-.02-.06-.06-.18-.08-.39-.05-.6.15-1.24.57-1.78,1.93-2.48,4.03-6.62,6.46-11.4,3.24-6.38,5.75-11.81,9.67-16.17,1.76-1.95,3.86-5.73,3.93-7.65.18-5.07,4.09-9.99,9.29-11.69,4.72-1.55,9.3-.07,12.56,4.06.93,1.17,1.61,2.35,2.05,3.53-1,.99-1.58,2.27-1.57,3.66,0,1.79,1,3.42,2.67,4.47.25,2.49.29,2.45.91,4.96.38,1.55.77,5.76.57,7.3ZM54.64,59.17c0-1.49.85-2.84,2.3-3.65,2.2.55,4.15,1.43,5.61,2.53-1.23.74-2.8,1.01-4.19,1.16-1.17.13-2.51.27-3.72.06,0-.04,0-.07,0-.1ZM57.09,62.87c-1.27-.69-2.09-1.72-2.36-2.89,1.23.18,2.56.05,3.74-.09,1.02-.12,2.13-.29,3.15-.65-2.23,2.4-3.77,3.31-4.53,3.64Z"/>
        <path class="cls-3" d="M42.59,67.27c4.94,9.64-3.58,18.05-19.04,22.28-3.69.51-2.58,2.31-.78,1.94,27.47-5.36,25.3-22.53,19.82-24.23Z"/>
        <path class="cls-3" d="M48.55,53.54c-1.46,0-2.64,1.18-2.64,2.64s1.18,2.64,2.64,2.64,2.64-1.18,2.64-2.64-1.18-2.64-2.64-2.64Z"/>
      </g>
    </g>
  </g>
</svg>