<?xml version="1.0" encoding="UTF-8"?>
<svg id="Layer_2" data-name="Layer 2" xmlns="http://www.w3.org/2000/svg" viewBox="0 0 325.42 90.97">
  <defs>
    <style>
      .cls-1 {
        fill: #abb36c;
      }

      .cls-1, .cls-2 {
        stroke-width: 0px;
      }

      .cls-2 {
        fill: #000;
      }
    </style>
  </defs>
  <g id="Brand_Standard_Guid" data-name="Brand Standard Guid">
    <g>
      <path class="cls-2" d="M39.17,19.23c.63-.21,1.14-.53,1.55-.92.84-.81,1.22-1.95,1.12-3.21,0-.03,0-.07,0-.13,0-.18-.02-.35-.02-.53,0-.1,0-.2.01-.3.06-.25.13-.49.2-.73.05-.1.1-.21.16-.31.13-.22.27-.43.41-.65.12-.14.25-.28.38-.42.26-.27.52-.52.8-.76.14-.12.29-.22.42-.34-.05.05-.08.08-.13.12.02-.02.04-.03.06-.05.71-.49,1.46-.93,2.24-1.31.2-.1.41-.19.61-.29,0,0,.01,0,.02,0,.39-.15.78-.31,1.17-.44.95-.33,1.93-.6,2.91-.82.47-.11.94-.2,1.42-.28.24-.04.47-.08.71-.11.04,0,.07,0,.12-.01,2.08-.24,4.19-.26,6.28-.07.21.02.42.05.64.07.03,0,.05,0,.08.01.52.08,1.03.18,1.54.29,1.03.23,2.05.52,3.04.88.18.06.35.13.52.2.02,0,.04.02.06.03.48.22.95.46,1.41.72.41.23.82.48,1.21.74.17.12.34.24.51.36.05.04.11.09.16.13.36.3.71.62,1.04.96.19.2.55.51.73.77.09.12.18.25.27.37,0,0,.29.43.42.64.27.44.52.9.75,1.36.04.08.07.16.11.24.09.24.18.49.27.73.2.62.37,1.25.5,1.89.05.26.09.52.14.77.01.12.03.25.04.37.06.71.09,1.42.08,2.13,0,.84-.06,1.67-.15,2.5-.01.1-.02.2-.04.3,0,0,0,.01,0,.02-.08.46-.15.91-.24,1.37-.38,1.94-.94,3.84-1.59,5.71-.65,1.86.74,4.2,2.63,4.63,2.1.48,3.93-.64,4.63-2.63,2.13-6.1,3.38-13.27,1.09-19.53-1.81-4.95-5.47-8.96-10.31-11.11C64.56.51,59.47-.3,54.44.1c-4.66.36-9.46,1.49-13.46,4-.09.05-.17.11-.25.17-4.29,2.79-7.07,7.08-6.18,12.34.33,1.95,2.83,3.21,4.63,2.63Z"/>
      <path class="cls-1" d="M61.09,17.02c-2.47,0-4.47,2.08-4.47,4.65s2,4.65,4.47,4.65,4.47-2.08,4.47-4.65-2-4.65-4.47-4.65Z"/>
      <path class="cls-2" d="M77.03,41.32c-1.48-1.3-3.88-1.56-5.32,0-1.3,1.42-1.58,3.93,0,5.32.64.56,1.24,1.15,1.79,1.8.02.02.04.05.05.07-.04-.07,0-.04.16.19,0,0,.01.02.02.02-.06-.07-.12-.15-.17-.22.03.05.11.17.21.27-.01-.02-.02-.04-.04-.06.04.05.08.11.13.15-.03-.03-.06-.06-.09-.09.22.32.44.64.63.97.18.3.34.61.5.93.05.09.09.22.14.33,0,.01,0,.02.01.03.23.63.53,1.92.55,2.01.02.09.03.21.03.23.03.35.04.71.04,1.06,0,.34-.03.69-.05,1.03-.01.09-.02.17-.04.26-.13.71-.33,1.41-.57,2.09-.03.07-.05.15-.08.22-.18.35-.35.71-.54,1.06-.17.31-.36.6-.55.9-.09.13-.34.46-.37.49h0c-.71.88-.79,1.01-1.46,1.61-.31.28-.61.56-.94.83-.09.07-.34.26-.42.32-.73.52-1.5.98-2.3,1.4-.38.2-.77.39-1.16.57-.06.03-.12.05-.18.08-.19.07-.38.15-.57.22-.96.36-1.94.65-2.93.9-.48.12-.96.22-1.45.32-.25.05-.5.09-.75.14-.07.01-.28.04-.45.07-.19.02-.53.06-.62.07-.27.03-.54.05-.8.07-.6.05-1.19.08-1.79.09-1.41.04-2.83,0-4.24-.11-.36-.03-.72-.06-1.07-.1-.21-.02-.42-.04-.62-.07-.04,0-.23-.03-.35-.04-.03,0-.06,0-.07-.01-.21-.03-.43-.07-.64-.1-.38-.06-.76-.13-1.14-.2-2.65-.5-7.75-1.48-8.01-1.53-1.19-.21-1.78-.05-2.39.3-.59.34-3.22,1.39-3.64,2.11-.65,1.11-.52,2.33.5,2.96,1.07.66,3.57,1.3,4.77,1.68,9.88,3.13,20.87,4.05,30.44-.44,6.94-3.26,12.75-10.46,11.96-18.48-.45-4.58-2.63-8.69-6.1-11.72Z"/>
      <path class="cls-1" d="M40.88,64.09c3.95-2.09,7.88-4.23,11.71-6.53,4.34-2.61,8.8-5.43,12.37-9.06,2.79-2.85,5.27-6.79,4.04-10.94-.44-1.49-1.23-2.8-2.48-3.73-.84-.62-1.73-1.19-2.63-1.72-1.92-1.12-4-2.04-6.12-2.69-5.77-1.77-11.63-1.18-17.03.9-3.25,1.25-6.32,3.04-9.12,5.18-5.41,4.14-9.91,9.18-14.01,14.6-5.22,6.9-9.64,14.39-13.65,22.05-1.14,2.17-2.23,4.36-3.31,6.56-.77,1.02-.82,2.56-.3,3.75.06.15.14.29.22.43.03.05.05.1.08.14.29.45.68.83,1.2,1.11.12.06.26.11.39.16.08.03.16.07.24.1.04.01.09.02.13.04.41.13.82.19,1.24.16,1.04-.01,2.08-.39,2.75-1.2,0,0,.01-.01.02-.02.17-.13.34-.26.51-.38.48-.35.97-.7,1.46-1.04,1.06-.74,2.15-1.44,3.24-2.13,2.39-1.5,4.83-2.9,7.29-4.27,5.06-2.81,10.21-5.45,15.34-8.12,0,.06,5.86-3.01,6.43-3.36,0,0,0,0-.01,0ZM16.68,68.33c-1,.55-2.01,1.11-3.01,1.67,1.99-3.53,4.09-7,6.35-10.37,1.04-1.56,2.11-3.09,3.22-4.6.25-.34.5-.68.75-1.01.1-.13.48-.62.52-.68.47-.59.94-1.19,1.42-1.77,1.93-2.34,3.97-4.59,6.17-6.68.96-.91,1.96-1.79,2.98-2.63.22-.18.45-.36.67-.54.06-.05.12-.09.18-.14.5-.37,1-.73,1.51-1.08.97-.66,1.96-1.27,2.99-1.84.1-.05.19-.1.29-.15.36-.19.73-.39,1.1-.57.23-.11.46-.22.69-.33.08-.03.15-.07.23-.1,1.77-.69,3.55-1.21,5.42-1.53.18-.02.36-.04.53-.05.49-.04.98-.07,1.47-.07.88-.01,1.74.05,2.62.12.24.04.47.08.71.12.5.1,1,.21,1.49.34.84.23,1.64.56,2.45.84-.27-.09-.4-.11.26.09-.05-.02-.09-.03-.14-.05.09.03.18.06.28.09-.06-.02-.09-.03-.14-.04.06.02.11.04.15.06.23.1.45.21.68.32.48.24.95.49,1.42.76.63.36,1.23.75,1.83,1.15,0,.02,0,.04.02.06,0,.05,0,.11.01.15,0,.02,0,.04,0,.06,0,.02,0,.03,0,.05-.05.21-.13.42-.21.62-.09.16-.18.33-.27.49-.18.3-.38.58-.58.86-.13.15-.26.31-.4.46-.64.72-1.34,1.39-2.06,2.03-.39.34-.78.68-1.18,1.01-.22.18-.45.36-.67.54-.02.02-.03.03-.05.04-.05.03-.1.07-.13.09-2.06,1.54-4.23,2.95-6.43,4.3-2.98,1.83-6.03,3.55-9.1,5.23-7.95,4.34-16.1,8.31-24.04,12.66Z"/>
      <g>
        <path class="cls-2" d="M109.02,46.51h-4.97c-1.09,0-1.98.92-1.98,2.06v10.28c0,1.63-.32,2.82-.97,3.59-.64.77-1.53,1.15-2.67,1.15s-2.1-.38-2.79-1.15c-.68-.77-1.03-1.97-1.03-3.59v-10.28c0-1.14-.89-2.06-1.98-2.06l-5.46.07c-1.1,0-1.98.92-1.98,2.06v9.73c0,4.63.69,9.05,3.48,11.67,2.79,2.62,4.73,3.06,9.69,3.06s6.68-.46,9.39-3.06c2.71-2.6,3.24-7.07,3.24-11.74v-9.73c0-1.14-.89-2.06-1.98-2.06Z"/>
        <path class="cls-2" d="M109.02,46.16c-1.59,0-3.19-.05-4.78,0s-2.5,1.2-2.52,2.77c-.05,3.3.05,6.59,0,9.89-.02,1.54-.26,3.35-1.8,4.12-2.04,1.02-4.34-.29-4.79-2.41-.33-1.55-.16-3.3-.16-4.88v-6c0-1.46-.14-3.11-1.92-3.45-1.56-.3-3.39,0-4.97.02-1.66.02-3.12.51-3.23,2.45-.18,3.17,0,6.4,0,9.57,0,5.46,1.03,11.5,6.46,14.13,2.47,1.2,5.42,1.11,8.1,1.06,2.45-.04,4.89-.28,6.94-1.75,4.61-3.3,5-8.76,5-14v-5.72c0-1.27.28-2.91-.11-4.15-.32-1.01-1.2-1.58-2.22-1.66-.45-.04-.44.66,0,.69,2.15.18,1.64,3.05,1.64,4.53v5.53c0,4.89.04,10.33-4.06,13.71-2.06,1.7-4.39,2.05-6.99,2.11s-5.73.2-8.18-1.08c-5.17-2.71-5.88-8.5-5.88-13.77,0-3.04-.22-6.18,0-9.21.17-2.31,3.12-1.77,4.73-1.79s3.89-.45,3.99,1.87c.15,3.16,0,6.35,0,9.51,0,1.64.09,3.47,1.37,4.67,1.56,1.46,4.4,1.37,5.76-.31,1.15-1.42,1.02-3.38,1.02-5.1v-6.21c0-1.59-.5-4.26,1.74-4.45,1.6-.14,3.26,0,4.87,0,.45,0,.45-.69,0-.69Z"/>
      </g>
      <g>
        <path class="cls-2" d="M140.59,33.12l-4.74-.03c-1.08.17-1.88,1.19-1.88,2.38v12.22c-8.69-1.98-16.29-.2-19.58,7.13-1.67,3.71-.4,10.9,1,13.1,4.16,6.56,13.94,4.81,15.38,3.78,1.44-1.03,1.97-1.11,2.83-3.05l.22,1.41c0,1.33.99,2.41,2.2,2.41l4.64.11c1.22,0,2.2-1.08,2.2-2.41l.26-34.67c0-1.47-1.19-2.6-2.53-2.38ZM131.46,64.38c-1.14,1.15-2.5,1.73-4.1,1.73-1.68,0-3.09-.57-4.22-1.7-1.14-1.13-1.7-2.52-1.7-4.16s.56-3.03,1.7-4.16c1.14-1.14,2.54-1.7,4.22-1.7s2.97.54,4.1,1.61c1.13,1.08,1.7,2.45,1.7,4.13s-.57,3.1-1.7,4.25Z"/>
        <g>
          <path class="cls-2" d="M140.59,32.44c-1.58,0-3.36-.27-4.92,0-2.15.37-2.39,2.51-2.39,4.27,0,3.67,0,7.33,0,11l.87-.66c-4.52-1-9.46-1.27-13.77.7-3.82,1.75-6.83,5.45-7.34,9.66-.46,3.74,0,8.74,2.42,11.79s6.49,4.27,10.32,4.2c3.46-.07,6.85-1.02,8.41-4.39l-1.25-.16c.16,1.01.15,2.14.73,3.02.61.92,1.54,1.27,2.61,1.31s2.09.05,3.14.07c.85.02,1.73.13,2.52-.29,2.27-1.19,1.63-4.96,1.65-7.08.06-8.6.13-17.21.19-25.81.02-2.51.89-7.95-3.18-7.63-.87.07-.88,1.44,0,1.37,1.67-.13,1.84,1.32,1.83,2.55l-.02,3.36c-.03,3.71-.05,7.42-.08,11.13-.05,6.35.12,12.74-.14,19.09-.1,2.33-2.16,1.94-3.84,1.9-.75-.02-1.57.06-2.32-.05-1.62-.24-1.56-2.01-1.76-3.31-.09-.57-1.01-.68-1.25-.16-1.21,2.61-3.56,3.47-6.26,3.67-3.29.25-6.92-.39-9.39-2.73-2.65-2.51-3.15-6.73-3.07-10.2.09-3.99,2.23-7.57,5.7-9.57,4.15-2.39,9.28-2.12,13.8-1.12.43.1.87-.2.87-.66,0-3.31,0-6.62,0-9.93,0-1.27-.38-3.61,1.26-3.99.72-.17,1.69,0,2.43.01s1.5,0,2.25.01c.88,0,.88-1.37,0-1.37Z"/>
          <path class="cls-2" d="M130.97,63.9c-1.55,1.53-3.91,2-5.91,1.06s-3.08-3-2.93-5.17,1.7-3.99,3.75-4.53,4.46.15,5.72,1.96c1.42,2.04,1.04,4.93-.63,6.69-.61.64.36,1.61.97.97,1.9-1.98,2.46-5.01,1.31-7.53s-3.96-3.88-6.66-3.59-5.04,2.23-5.66,4.88.39,5.48,2.68,7.07c2.58,1.79,6.14,1.33,8.32-.83.63-.62-.34-1.59-.97-.97Z"/>
        </g>
      </g>
      <g>
        <path class="cls-2" d="M166.5,46.51h0v3.08c-7.61-6.39-16.07.22-16.8,1.46-3.14,2.8-3.64,7.36-3.64,10.03,0,5.04,1.46,6.56,2.63,7.85,1.57,1.72,5.36,3.64,10.57,4.3,2.04.25,7.44-.87,7.44-.87v2.5c-.25,7.88-11.43,6.19-14.73,5.39-.45-.11-.89.19-.93.63l-1.44,7.38c-.02.25.14.48.39.55.52.16,1.43.41,2.15.53,1.09.18,15.78,4.22,22.03-7.04,1.83-3.3,2.77-7.97,2.77-13.83v-21.95h-10.44ZM164.04,60.9c-.11.9-.42,1.72-.93,2.44-1.08,1.53-3.04,2.34-4.9,2.08-1.14-.16-2.1-.65-2.89-1.48-.98-1.02-1.46-2.25-1.46-3.68s.49-2.7,1.46-3.71c.98-1,2.23-1.51,3.75-1.51,1.19,0,2.21.34,3.08,1.01,1.35,1.04,2.12,2.98,1.9,4.85Z"/>
        <g>
          <path class="cls-2" d="M165.85,46.51v3.08l1.12-.46c-3.81-3.1-8.53-3.69-13.03-1.76-3.1,1.33-5.86,3.69-7.23,6.82-1.6,3.65-1.99,8.87-.34,12.56,1.47,3.28,4.85,5.1,8.14,6.13,2.46.77,4.93,1.2,7.49.91,1.64-.19,3.27-.46,4.88-.79l-.83-.63c0,1.43.17,2.98-.34,4.34-.61,1.65-2.07,2.62-3.7,3.11-3.04.91-6.42.52-9.48-.1-1.48-.3-2.02.42-2.27,1.73l-.94,4.8c-.17.88-.78,2.36.11,3.01s2.42.7,3.53.93c6.42,1.31,13.85.95,18.86-3.78,5.8-5.48,5.76-13.96,5.76-21.37v-18.52c0-.35-.3-.66-.66-.66h-10.44c-.84,0-.85,1.31,0,1.31h10.44l-.66-.66v15.35c0,6.77.67,14.34-2.85,20.39-3.92,6.73-11.95,8.07-19.07,6.85-.68-.12-1.35-.26-2.02-.4-.5-.1-1.06-.33-1.56-.36-.39-.02-.48.08-.53-.08-.11-.36.26-1.32.33-1.68l.9-4.64c.03-.17.04-.76.17-.89.32-.31,1.4.1,1.81.17,3.3.55,7.08.8,10.19-.64,1.53-.71,2.74-1.92,3.3-3.53.53-1.5.38-3.14.38-4.69,0-.45-.42-.72-.83-.63-2.94.6-5.89,1.16-8.87.59-3.44-.66-7.19-1.93-9.36-4.85-2.09-2.82-1.9-7.27-1.12-10.53s2.66-5.72,5.38-7.38c4.32-2.64,9.46-2.77,13.49.51.42.34,1.12.15,1.12-.46v-3.08c0-.84-1.31-.85-1.31,0Z"/>
          <path class="cls-2" d="M163.4,60.72c-.27,1.96-1.56,3.53-3.52,3.98s-3.79-.44-4.77-2.1c-.92-1.57-.81-3.73.3-5.17,1.17-1.53,3.23-2.09,5.06-1.53,2.12.66,3.13,2.9,2.91,5-.09.84,1.22.83,1.31,0,.25-2.34-.87-4.87-3.04-5.93s-4.96-.68-6.7,1.01-2.24,4.37-1.32,6.59,3.11,3.66,5.5,3.55c2.83-.13,5.15-2.24,5.54-5.04.05-.35-.09-.7-.46-.81-.31-.09-.76.11-.81.46Z"/>
        </g>
      </g>
      <g>
        <path class="cls-2" d="M323.16,66.38c-.98.29-17.04,2.57-16.9-4.46.01-.65.01-1.28.69-1.31l16.78-.08c.45-.02.82-.37.84-.79.25-4.36.36-5.86-1.6-8.46-2.07-2.75-3.76-3.65-8.66-4.41-2.87-.45-6.13.34-8.62,1.3-2.5.97-3.53,1.97-5.13,3.96-1.6,1.99-2.03,4.19-2.01,7.21.02,2.77-.15,4.45.73,6.78,2.63,6.95,10.47,6.56,14.32,6.87,2.13.17,4.04.14,5.73-.09,1.45-.19,3.54-.82,4.83-1.27.37-.13.6-.5.56-.88l-.4-3.68c-.06-.53-.61-.85-1.14-.69ZM309.79,52.59c1.09-.83,3.19-.88,4.69-.58,1.01.2,1.79.65,2.35,1.35.55.7.78,1.65.69,2.85l-9.19.04c-.29-1.45.38-2.83,1.46-3.66Z"/>
        <g>
          <path class="cls-2" d="M322.98,65.74c-2.57.69-5.6.65-8.23.52s-7.82-.64-7.83-4.33c0-.71,0-.64.58-.64h1.84c1.79-.02,3.58-.03,5.38-.04,2.95-.01,6.02.22,8.97-.04.79-.07,1.34-.5,1.53-1.28.29-1.23.21-2.85.14-4.12-.12-2.31-1.13-4.16-2.63-5.88-3.51-4.03-10.08-4.47-14.91-3.14-2.74.75-5.15,1.89-7.03,4.06s-2.81,4.68-2.89,7.67-.17,5.89,1.07,8.59c1.01,2.2,2.79,3.91,4.99,4.91s4.66,1.33,7.07,1.49c2.92.2,5.88.47,8.79,0,1.46-.24,3.37-.56,4.67-1.29.86-.48.91-1.19.82-2.07-.16-1.46.12-4.69-2.14-4.42-.84.1-.85,1.43,0,1.33.78-.09.6,1.17.66,1.75.05.47.37,1.5.21,1.96s-1.25.63-1.69.76c-.73.22-1.46.42-2.2.57-1.53.32-3.1.38-4.65.34-3.99-.09-8.75-.08-12.22-2.3-2.2-1.41-3.56-3.79-3.94-6.36-.21-1.45-.13-2.96-.13-4.43s.08-3.03.57-4.47c1.99-5.77,9.45-8.19,14.98-7.26,2.25.38,4.59.87,6.3,2.48,1.57,1.48,2.81,3.36,2.96,5.56.08,1.13.16,2.54-.08,3.64-.16.72-.29.57-.86.57l-3.99.02c-3.42.02-6.84.03-10.26.05-.65,0-1.41-.1-2.05.03-1.7.35-1.31,2.87-.72,4.03,1.53,3.04,5.96,3.46,8.94,3.59,2.67.11,5.74.13,8.35-.57.83-.22.48-1.51-.35-1.28Z"/>
          <path class="cls-2" d="M310.12,53.17c1.2-.86,3.09-.8,4.46-.45.69.18,1.35.54,1.77,1.13.49.68.54,1.55.49,2.36l.67-.67c-2.68.01-5.35.02-8.03.03-.39,0-.77,0-1.16,0l.64.49c-.21-1.19.37-2.28,1.29-3.01.28-.22.23-.71,0-.94-.28-.28-.66-.22-.94,0-1.32,1.04-1.92,2.66-1.64,4.3.05.28.37.49.64.49,2.68-.01,5.35-.02,8.03-.03.39,0,.77,0,1.16,0s.64-.3.67-.67c.07-1.02-.06-2.11-.63-2.99s-1.39-1.41-2.33-1.71-2.03-.38-3.02-.31-1.95.26-2.74.82c-.69.5-.03,1.65.67,1.15Z"/>
        </g>
      </g>
      <g>
        <path class="cls-2" d="M294.36,60.56c-.61-.88-.89-1.07-1.81-1.56-.27-.14-.54-.3-.81-.45-.67-.38-1.35-.76-2.06-.94-.99-.25-4-.96-4.9-1.06-2.51-.27-2.29-4.51,1.17-4.59,1.37-.03,3.96.24,5.97.58.53.09,1.02.18,1.44.27.49.11.98-.21,1.04-.67l.08-3.66c.05-.37-.18-.71-.56-.83-.9-.28-1.54-.48-2.19-.62-.34-.07-.68-.13-1.05-.17-1.28-.12-2.66-.14-4.12-.06-1.73.1-3.04.26-4.15.56-1.33.36-2.39.9-3.53,1.79-2.1,1.63-2.65,4.42-2.51,6.96.08,1.51.33,2.09.93,2.99.59.9,1.33,1.58,2.21,2.03.87.45,1.8.76,2.79.95,0,0,.01,0,.02,0,.99.19,5,.89,5.54,1.09,1.45.55,1.05,2.29,1.07,2.71.04.73-1.7,1-3.3,1.12-3.28,0-12.87-.01-13.17.03-.44.06-.82-.15-1.14-.44-.31-.29-.47-.71-.47-1.24l.13-9.92h-7.4l-.13,10.93c0,1.19.22,2.26.67,3.22.44.96,1.15,1.71,2.12,2.27.97.56,2.24.84,3.81.84.21,0,1.8-.02,3.92-.05.78.16,1.95.08,3.13-.04,2.08-.03,4.26-.06,6.04-.09.76.03,1.51.03,2.25,0,2.68-.15,3.42.2,5.63-1.19.52-.33,1.07-.64,1.63-1.07,1.98-1.55,2.89-3.62,2.75-6.18-.08-1.44-.42-2.6-1.03-3.49Z"/>
        <path class="cls-2" d="M294.9,60.24c-2.22-3.11-6.5-3.56-9.95-4.3-1.77-.38-1.43-2.6.06-3.19.83-.33,1.86-.17,2.73-.11,1.35.1,2.7.26,4.03.49s3.07.73,3.26-1.13c.12-1.12.15-2.38.08-3.5-.11-1.76-2.57-2.01-3.97-2.21-2.47-.36-5.13-.21-7.58.19-2.13.35-4.3,1.24-5.79,2.85s-1.96,3.63-2.02,5.67.34,3.77,1.72,5.3,3.27,2.1,5.16,2.45c1.52.28,3.07.49,4.56.87.87.22,1.15.72,1.15,1.62,0,.53-.08.62-.61.82-.63.23-1.43.28-2.1.31-3.3.13-6.63,0-9.93,0-1.03,0-2.21.18-3.23.03-1.39-.2-.99-2.19-.98-3.2.03-2.59.07-5.18.1-7.78,0-.33-.29-.62-.62-.62h-7.4c-.34,0-.62.28-.62.62-.03,2.31-.05,4.63-.08,6.94-.03,2.7-.48,5.93,1.14,8.27,1.27,1.85,3.41,2.58,5.57,2.66.8.03,1.61,0,2.41-.01,1.34-.02,2.68.11,4.01.03,2.82-.18,5.65-.14,8.48-.17,1.95-.02,4.09.1,5.89-.77,2.14-1.04,4.19-2.59,5.1-4.85s.75-5.2-.58-7.28c-.43-.67-1.5-.05-1.07.63,1.2,1.89,1.32,4.64.3,6.64-.94,1.85-3.08,3.43-5.05,4.06-1.73.55-3.94.34-5.73.32-2.45-.03-4.91.02-7.35.18-1.9.12-3.86,0-5.77,0-2.24,0-4.56-.6-5.58-2.8-.96-2.08-.56-4.91-.53-7.14s.05-4.47.08-6.7l-.62.62h7.4l-.62-.62c-.03,2.3-.06,4.6-.09,6.9-.02,1.9-.61,5.29,2.22,5.32s5.63-.04,8.44-.04c1.54,0,3.08.05,4.62,0,1.28-.04,3.77-.1,4-1.74.19-1.33-.15-2.79-1.52-3.3s-2.97-.62-4.39-.88c-2.21-.4-4.45-.92-5.79-2.91-1.25-1.85-1.08-4.65-.33-6.68.95-2.54,3.49-3.89,6.03-4.37s5.75-.68,8.36-.04c.53.13,1.3.22,1.7.6s.19.1.26.5c.13.68-.03,1.54-.05,2.24-.02.96.2,1.17-.95,1.04s-2.35-.39-3.54-.52c-1.84-.21-4.33-.7-5.83.72-.99.93-1.34,2.53-.62,3.72.82,1.37,2.79,1.31,4.17,1.62.96.21,1.98.38,2.9.71,1.34.48,3.04,1.36,3.88,2.54.46.64,1.54.02,1.07-.63Z"/>
      </g>
      <g>
        <path class="cls-2" d="M267.37,53.7c.68,0,1.32-.15,1.91-.45.6-.3,1.09-.71,1.47-1.23.39-.53.58-1.13.58-1.82,0-.62-.18-1.18-.55-1.71-.36-.52-.84-.95-1.44-1.27-.6-.32-1.26-.48-1.98-.48-.65,0-1.29.15-1.89.45-.61.3-1.1.7-1.48,1.22-.37.52-.56,1.11-.56,1.8,0,.98.39,1.81,1.16,2.48.77.67,1.7,1.01,2.77,1.01Z"/>
        <path class="cls-2" d="M267.37,54.31c1.77-.03,3.6-.99,4.3-2.68s-.07-3.63-1.58-4.68-3.65-1.07-5.25-.11-2.37,2.69-1.86,4.46c.56,1.9,2.5,2.99,4.39,3.01.79,0,.79-1.22,0-1.23-1.22-.02-2.44-.57-3.03-1.68s-.22-2.48.75-3.26c1.04-.83,2.57-1.04,3.79-.48s2.07,1.71,1.81,3.03c-.3,1.5-1.88,2.37-3.31,2.39-.79.01-.79,1.24,0,1.23Z"/>
      </g>
      <g>
        <path class="cls-2" d="M198.43,59.52c0,2.2.91,6.6-5.15,5.89-2.34-.27-3.21-1.65-3.21-5.42v-12.48l-8.96.1v14.6c0,5.21-.36,11.42,13.54,9.76,2.04-.24,3.28-.4,4.18-2.98v5.76c0,2.45-.55,4.28-1.66,5.46-1.11,1.18-2.91,1.78-5.42,1.78-.75,0-4.37-.38-5.16-.49-.79-.1-1.52-.24-2.19-.41l-1.38,6.98c.71.29,1.68.55,2.92.76,1.23.21,5.42.65,6.84.65,14.67,0,14.67-10.82,14.67-17.59v-24.37h-9.01v12.01Z"/>
        <path class="cls-2" d="M196.93,59.52c.01,1.21.41,3.14-.54,3.99-.75.67-2.2.56-3.1.4s-1.29-.57-1.52-1.43c-.38-1.41-.23-3.03-.23-4.49v-10.48c0-.8-.68-1.5-1.49-1.49-2.99.03-5.97.07-8.96.1-.81,0-1.49.68-1.49,1.49,0,4.81,0,9.62,0,14.43,0,2.12-.08,4.36.67,6.38,1.08,2.91,3.65,4.51,6.63,5.02,2.7.47,5.46.31,8.17-.04s4.22-1.44,5.18-4.02l-2.93-.4v3.96c0,1.72.15,3.58-.57,5.18-.97,2.14-3.46,2.46-5.57,2.33s-4.31-.33-6.4-.82c-.74-.17-1.67.23-1.84,1.04-.46,2.33-.92,4.66-1.38,6.98-.17.86.24,1.52,1.04,1.84,2.72,1.06,5.91,1.21,8.8,1.4s6.12-.07,8.91-1.17c4.57-1.8,7.27-5.71,8.12-10.45.54-3,.49-6.04.49-9.07v-22.7c0-.81-.68-1.49-1.49-1.49h-9.01c-.81,0-1.49.68-1.49,1.49v12.01c0,1.92,2.99,1.92,2.99,0v-12.01l-1.49,1.49h9.01l-1.49-1.49v20.7c0,5.83.97,13.95-4.59,17.66-2.57,1.71-5.82,2.18-8.86,2.1s-6.32-.27-9.09-1.35l1.04,1.84c.46-2.33.92-4.66,1.38-6.98l-1.84,1.04c2.41.56,5,.84,7.48.94,2.79.12,5.79-.66,7.43-3.07,2.11-3.1,1.41-7.83,1.41-11.41,0-1.76-2.36-1.92-2.93-.4-.26.69-.56,1.33-1.27,1.61-.91.36-2.04.35-3,.43-2,.17-4.09.25-6.06-.19-2.32-.52-3.72-1.71-4.2-3.84-.33-1.45-.26-3.21-.26-4.86,0-2.44,0-4.88,0-7.32v-6.8l-1.49,1.49c2.99-.03,5.97-.07,8.96-.1l-1.49-1.49v11.48c0,2.13-.11,4.62,1.35,6.34,1.76,2.07,5.81,2.21,7.98.76s2.04-4.2,2.02-6.58c-.02-1.92-3-1.92-2.99,0Z"/>
      </g>
      <g>
        <path class="cls-2" d="M264.97,21.15h-5.67c-.98,0-1.8.74-1.9,1.72l-9.2,30.66c-.23,2.17-3.83,2.66-4.6.39,0,0-2.24-5.75-5.04-6.19h-1.86c-3.33-.24-5.82,6.19-5.82,6.19-1.01,3.01-4.38,1.77-4.6-.39l-9.79-30.66c-.1-.98-.92-1.72-1.9-1.72h-5.46c-1.22,0-2.13,1.14-1.86,2.34l15.35,47.45c.16.7.78,1.2,1.49,1.2h4.98c.74,0,1.42-.43,1.73-1.11l3.33-6.55c.18-.38,1.01-.68,2.16-.88,1.34-.23.51-.23,1.85,0,1.15.2,1.98.49,2.16.88l3.33,6.55c.31.68.99,1.11,1.73,1.11h5.13c.71,0,1.33-.5,1.49-1.2l14.82-47.45c.27-1.2-.64-2.34-1.86-2.34Z"/>
        <path class="cls-2" d="M264.97,19.65c-1.97,0-4.03-.18-5.99.03-2.29.24-2.84,2.16-3.39,4-1.37,4.55-2.73,9.1-4.1,13.65-1.42,4.73-2.83,9.45-4.25,14.18-.24.79-.38,2.36-1.37,2.41-.94.05-1.07-1.01-1.39-1.69-.66-1.41-1.46-2.77-2.48-3.95-1.8-2.07-5.08-2.8-7.58-1.49s-3.84,4.15-4.93,6.6c-.3.67-.86,1.24-1.5.47-.23-.28-.29-.78-.4-1.14-.46-1.52-.97-3.03-1.45-4.55-2.73-8.56-5.64-17.08-8.2-25.69-.51-1.71-1.63-2.76-3.48-2.82-1.19-.04-2.39,0-3.58,0s-2.49-.14-3.56.52c-1.27.78-1.85,2.33-1.5,3.77.65,2.61,1.67,5.17,2.5,7.73,3.39,10.48,6.78,20.97,10.18,31.45.88,2.71,1.71,5.44,2.63,8.13s3.56,2.4,5.96,2.4c1.2,0,2.56.17,3.65-.43,1.02-.56,1.46-1.59,1.96-2.57l1.88-3.7c.22-.44.45-.88.67-1.33.05-.09.1-.26.17-.33-.14.14.23,0,.48-.06.43-.11,1.01-.09,1.41-.29.5-.25-.42.07-.34-.03.02-.03.52.11.59.12.45.09,1.12.13,1.53.37-.05-.03-.18-.21,0,0,.64.77,1.03,2.02,1.48,2.91,1.1,2.17,1.98,5.21,4.84,5.35,1.16.06,2.34,0,3.5,0,1.26,0,2.6.14,3.61-.78.81-.73,1.05-1.93,1.37-2.95l1.45-4.66c1.58-5.05,3.15-10.1,4.73-15.15,2.68-8.59,5.54-17.14,8.05-25.78.68-2.34-.67-4.47-3.17-4.68-1.93-.16-1.92,2.84,0,3.01.81.07.08,1.49-.03,1.86l-1.38,4.41c-1.5,4.82-3.01,9.63-4.51,14.45-2.73,8.73-5.45,17.46-8.18,26.19-.07.23-.12.69-.27.88-.23.29-.49.19-.92.19-1.28,0-2.57.02-3.85,0-.77-.01-.89-.41-1.21-1.05-.98-1.93-1.85-4-2.97-5.85-1.48-2.42-7.27-2.42-8.77-.02-1.12,1.79-1.95,3.84-2.91,5.72-.3.58-.42,1.1-1.1,1.19-1.21.16-2.55,0-3.77,0-.46,0-.8.11-1.05-.19-.15-.18-.2-.61-.27-.83l-1.29-4c-3.24-10-6.47-20-9.71-30-1.19-3.67-2.37-7.34-3.56-11.01-.14-.45-.79-1.57-.23-1.91.18-.11.61-.03.79-.03h3.93c.25,0,.73-.1.98.01.54.24.88,2.18,1.05,2.7l1.96,6.13c1.67,5.22,3.33,10.43,5,15.65l1.75,5.49c.41,1.28.66,2.66,1.72,3.58,1.2,1.04,2.99,1.34,4.39.52.68-.4,1.2-1.04,1.53-1.75.11-.23.19-.47.28-.7.08-.2-.11.23.07-.16.86-1.87,2.18-4.9,4.58-4.89.48,0,1.06-.1,1.53,0-.33-.07.23.15.33.2.32.19.59.48.85.75.96,1.04,1.64,2.36,2.23,3.63.04.08.26.59.19.42-.08-.19.01.04.03.09.35.84.8,1.56,1.6,2.04,1.35.8,3.13.69,4.41-.17s1.5-2.32,1.91-3.67c.55-1.85,1.11-3.69,1.66-5.54,1.58-5.28,3.17-10.56,4.75-15.84.59-1.98,1.19-3.97,1.78-5.95.17-.57.44-2.35,1.04-2.54.8-.26,2.11,0,2.94,0h2.71c1.93,0,1.94-3.01,0-3.01Z"/>
      </g>
    </g>
  </g>
</svg>