<?xml version="1.0" encoding="UTF-8"?>
<svg id="Layer_2" data-name="Layer 2" xmlns="http://www.w3.org/2000/svg" viewBox="0 0 220.6 182.92">
  <defs>
    <style>
      .cls-1 {
        stroke-miterlimit: 10;
      }

      .cls-1, .cls-2 {
        fill: none;
        stroke: #000;
        stroke-linecap: round;
        stroke-width: 1.5px;
      }

      .cls-2 {
        stroke-linejoin: round;
      }

      .cls-3 {
        fill: #6164c3;
      }

      .cls-3, .cls-4, .cls-5, .cls-6, .cls-7 {
        stroke-width: 0px;
      }

      .cls-4 {
        fill: #797ef4;
      }

      .cls-5 {
        fill: #3b3e75;
      }

      .cls-6 {
        fill: #c5c7f7;
      }

      .cls-7 {
        fill: #fff;
      }
    </style>
  </defs>
  <g id="Light_and_dark_modes" data-name="Light and dark modes">
    <g id="fwog_mascot_LM_" data-name="fwog mascot (LM)">
      <g id="body">
        <path class="cls-5" d="M57.81,70.49c23.29,5.27,37.91,28.51,32.65,52.02-5.27,23.51-28.42,38.33-51.72,33.11C15.44,150.4.83,127.11,6.09,103.61c5.27-23.51,8.3-42.94,51.72-33.11Z"/>
        <path class="cls-5" d="M166.55,81.94c-22.23,5.03-35.94,28.35-30.6,52.19,5.34,23.84,27.7,39.13,49.94,34.14s35.94-28.35,30.6-52.19-8.49-43.53-49.94-34.14Z"/>
        <path class="cls-3" d="M201.99,105.82c1.37,56.25-37.23,61.3-89.53,60.43-47.94-2.44-100.28-9.1-84.3-60.43,9.22-29.63-1.62-51.58,86.91-56.14,47.94-2.47,85.83,11.52,86.91,56.14Z"/>
        <path class="cls-4" d="M171.46,86.72c-5.75,60.19-35.23,62.22-65.23,57.28s-57.57-23.85-43.41-75.18c9.5-34.42,10.05-87.88,64.33-61.96,4.39,2.1,9.07,3.52,13.88,4.21,65.48,9.3,33.84,40.05,30.44,75.66Z"/>
        <path class="cls-6" d="M160.91,106.19c-4.73,23.04-3.69,42.13-50.38,37.59-45.03-4.38-42-23.46-41.77-46.97.25-25.48,6.58-60.58,50.37-38.43,56.03,3.91,46.81,23.31,41.78,47.81Z"/>
      </g>
      <g id="left_eye" data-name="left eye">
        <path class="cls-5" d="M102.02,22.19c-2.03,6.37-7.14,10.43-11.41,9.07-4.28-1.36-6.89-8.66-4.86-15.03s7.93-9.4,12.2-8.04,6.1,7.63,4.08,14Z"/>
        <circle class="cls-7" cx="98.23" cy="15.33" r="2.96"/>
      </g>
      <g id="right_eye" data-name="right eye">
        <path class="cls-5" d="M177.21,40.31c0,5.81-5.26,11.5-9.87,11.5s-8.03-5.69-8.03-11.5,4.34-11.5,8.95-11.5c5.75,0,8.95,5.69,8.95,11.5Z"/>
        <circle class="cls-7" cx="172.66" cy="36.3" r="2.96"/>
      </g>
      <g id="linework">
        <path class="cls-1" d="M79.65,34.48c.29,4.55,15.67,13.41,20.25,15.69,12.58,6.28,21.41,8.06,21.41,8.06,15.34,3.4,39.42,4.34,39.42,4.34,6.88-.31,8.61-3.3,8.61-3.3"/>
        <path class="cls-1" d="M165.45,25.13c-5.93-.95-11.5,3.64-12.16,6.4"/>
        <path class="cls-1" d="M107.16,7.42c5,3.33,5.96,10.49,4.57,12.96"/>
        <path class="cls-1" d="M121.13,41.75c2.93,1.76,3.37,4.69,3.37,4.69"/>
        <path class="cls-1" d="M135.56,44.8c-3.4.34-5.05,2.8-5.05,2.8"/>
        <path class="cls-2" d="M145.96,13.89c-9.36,0-9.05-.54-24.25-7.36-15.21-6.82-25.56-3.67-25.56-3.67-17.96,6.29-22.29,29.23-22.29,29.23-1.38,8.08-2.72,14.33-3.8,18.87-1.33,5.58-5.16,10.21-10.36,12.64-4.54,2.12-8.15,4.03-10.84,5.57-4.25,2.42-7.62,6.14-9.62,10.61-4.12,9.2-4.97,17.21-4.97,17.21-1.18,10.62-4.2,15.99-4.2,15.99-4.06,11.01,17.44,47.46,17.44,47.46,2.88,6.03,18.22,8.26,18.22,8.26l-1.31-4.33h0c6.95,3.02,11.27,3.41,11.27,3.41.52-1.97-1.31-4.77-1.31-4.77,4.85,2.67,7.87,2.02,7.87,2.02-1.44-5.51-10.62-15.86-10.62-15.86-6.43-22.6-2.82-51.93-2.82-51.93-.17-13.03,8.23-24.38,8.23-24.38"/>
        <path class="cls-2" d="M170.41,64.87c4.19,7.41,15.37,18.03,15.37,18.03,6.99,9.22,7.13,37.46,7.13,37.46-3.57,23.38-19.01,32.98-19.01,32.98-6.86,5.89-19.85,16.35-19.85,16.35-8.39,3.21-16.19,5.03-16.19,5.03,1.37-4.47,2.49-5.73,2.49-5.73-3.21,2.1-9.92,4.15-9.92,4.15.14-3.59,1.82-5.69,1.82-5.69-4.47,3.91-9.22,2.8-9.22,2.8,1.96-7.33,19.71-21.66,19.71-21.66,12.16-27.25,13.56-37.46,13.56-37.46,3.21-8.53-.42-30.89-.42-30.89"/>
        <path class="cls-1" d="M95.27,55.71c11.59,9.82,32,15.45,42.37,14.9,10.37-.55,15.01-1.32,15.01-1.32"/>
        <path class="cls-2" d="M41.94,72.86c-7.79-3.89-15.13-3.8-20.11-2.95-4.71.8-8.86,3.46-11.63,7.35-6.56,9.21-7.66,21.82-7.64,29.36.01,5.66,1.99,11.2,5.84,15.34,9.39,10.12,25.06,13.56,25.06,13.56"/>
        <path class="cls-2" d="M188.1,83.64c6.17.44,16.92,2.46,21.16,6.2,3.19,2.81,7.14,9.41,8.38,13.48,3.73,12.26,1.6,26.7,1.6,26.7-5.22,21.12-25.07,24.75-25.07,24.75-8.77,2.64-19.14,1.89-19.14,1.89"/>
        <path class="cls-2" d="M23.25,133.56c-7.43-1.6-21.46,3.82-21.46,3.82-1.47.72,7.33,3.73,7.33,3.73-6.02,1.33-8.38,5.1-8.38,5.1.48,2.54,15.36,3.29,15.36,3.29-5.24,2.77-5.63,5.69-5.63,5.69,4.01,4.59,28.71-7.66,28.71-7.66"/>
        <path class="cls-2" d="M196.73,157.59c7.45,1.51,13.89,11.55,13.89,11.55,1.06,1.25-8.21.48-8.21.48,4.98,3.63,5.64,8.03,5.64,8.03-1.45,2.13-15.39-3.13-15.39-3.13,3.7,4.63,2.88,7.47,2.88,7.47-5.51,2.61-25.52-22.38-25.52-22.38"/>
      </g>
    </g>
  </g>
</svg>