<?xml version="1.0" encoding="UTF-8"?>
<svg id="Layer_2" data-name="Layer 2" xmlns="http://www.w3.org/2000/svg" viewBox="0 0 637.89 299.86">
  <defs>
    <style>
      .cls-1, .cls-2 {
        stroke-width: 0px;
      }

      .cls-2 {
        fill: #c01823;
      }
    </style>
  </defs>
  <g id="Layer_1-2" data-name="Layer 1">
    <g>
      <path class="cls-2" d="m449.68,274.67c-.46-.13-1.45-.44-1.36-1.15l.97-3.51c.07-.28.13-.27-.25-.17l-3.16.7c-.23.05-.45-.15-.48-.43l-.44-1.36c-.07-.17-.03-.18-.2,0l-2.68,2.91c-.24.23-.83.67-.81-.38l1.14-5.95c.07-.23.17-.51-.23-.24l-1.5.76c-.15.1-.63.13-.83-.32l-1.96-3.61c-.07-.15-.13-.43-.32,0l-2.05,3.73c-.16.22-.37.4-.85.16l-1.38-.72c-.36-.15-.32-.2-.24.21l1.11,6.07c0,.36.03.9-.67.42l-2.64-2.9c-.14-.22-.37-.45-.4.08l-.38,1.27c-.08.24-.25.36-.81.27l-2.84-.65c-.24-.08-.33-.24-.24.21l1.02,3.58c.05.24-.01.46-.25.57l-1.11.46c-.18.05-.46.01-.08.32l5.61,4.41c.22.2.5.16.31,1.03l-.35,1.22c-.03.21-.3.47.25.37l4.86-.69c.63-.05.84-.08.92.25.07.44-.26,5.63-.11,6.03.24.3.75.33.99.12.24-.48-.21-5.91,0-6.33.57-.3,6,.65,6,.65-.05-.65-.78-2.1-.36-2.45l5.83-4.61c.17-.16.33-.18,0-.3Z"/>
      <polygon class="cls-2" points="11.85 262.95 14.72 291.43 23.38 291.43 38.48 263.91 32.62 291.43 46.77 291.43 55.43 250.97 39.06 250.97 26.82 273.78 24.85 250.97 8.6 250.97 0 291.43 5.73 291.43 11.85 262.95"/>
      <path class="cls-2" d="m57.79,288.95c2.25,2,5.99,2.99,11.21,2.99,6.12,0,10.79-1.36,14.02-4.08,1.61-1.4,2.87-3.17,3.76-5.32.89-2.14,1.34-4.56,1.34-7.23,0-4.33-1.21-7.43-3.63-9.3-2.29-1.78-5.97-2.68-11.02-2.68-5.39,0-9.64,1.04-12.74,3.12-2.12,1.49-3.75,3.36-4.87,5.61-1.13,2.25-1.69,4.76-1.69,7.52,0,4.16,1.21,7.29,3.63,9.37Zm9.46-9.81c.23-1.78.61-3.52,1.11-5.22.51-1.7,1.18-3.16,2.01-4.4.83-1.23,1.82-1.85,2.96-1.85.76,0,1.26.31,1.5.92.23.62.35,1.52.35,2.71,0,1.36-.12,2.96-.35,4.81-.23,1.85-.58,3.63-1.05,5.35-.47,1.72-1.09,3.18-1.88,4.36-.79,1.19-1.71,1.78-2.77,1.78-1.49,0-2.23-1.38-2.23-4.14,0-1.1.12-2.55.35-4.33Z"/>
      <path class="cls-2" d="m94.43,288.95c2.25,2,5.99,2.99,11.21,2.99,6.12,0,10.79-1.36,14.02-4.08,1.61-1.4,2.87-3.17,3.76-5.32.89-2.14,1.34-4.56,1.34-7.23,0-4.33-1.21-7.43-3.63-9.3-2.29-1.78-5.97-2.68-11.02-2.68-5.39,0-9.64,1.04-12.74,3.12-2.12,1.49-3.75,3.36-4.87,5.61-1.13,2.25-1.69,4.76-1.69,7.52,0,4.16,1.21,7.29,3.63,9.37Zm9.46-9.81c.23-1.78.61-3.52,1.11-5.22.51-1.7,1.18-3.16,2.01-4.4.83-1.23,1.82-1.85,2.96-1.85.76,0,1.26.31,1.5.92.23.62.35,1.52.35,2.71,0,1.36-.12,2.96-.35,4.81-.23,1.85-.58,3.63-1.05,5.35-.47,1.72-1.09,3.18-1.88,4.36-.79,1.19-1.71,1.78-2.77,1.78-1.49,0-2.23-1.38-2.23-4.14,0-1.1.12-2.55.35-4.33Z"/>
      <path class="cls-2" d="m135.53,283.34h-8.6l-1.34,6.37c.89.47,2.46.96,4.71,1.47,2.25.51,5.1.76,8.54.76,2.25,0,4.36-.15,6.34-.45,1.98-.3,3.7-.82,5.16-1.56,1.47-.74,2.61-1.72,3.44-2.93.83-1.21,1.24-2.71,1.24-4.49,0-1.27-.21-2.35-.64-3.22-.43-.87-1-1.6-1.72-2.2-.72-.59-1.54-1.07-2.45-1.43-.91-.36-1.88-.67-2.9-.92-.72-.17-1.46-.34-2.2-.51-.74-.17-1.41-.38-2.01-.64-.59-.25-1.07-.58-1.43-.99-.36-.4-.54-.94-.54-1.62,0-1.02.36-1.84,1.08-2.45.72-.61,1.44-.92,2.17-.92.81,0,1.35.33,1.62.99s.41,1.37.41,2.13c0,.26-.02.49-.06.7-.04.21-.09.43-.13.64h8.28l1.47-6.44c-1.32-.68-3.02-1.23-5.1-1.66-2.08-.42-4.29-.64-6.63-.64-1.87,0-3.73.17-5.58.51-1.85.34-3.5.89-4.97,1.66s-2.66,1.77-3.57,3.03c-.91,1.25-1.37,2.81-1.37,4.68,0,1.32.21,2.41.64,3.28.42.87.96,1.58,1.59,2.13.64.55,1.31.98,2.01,1.27.7.3,1.33.51,1.88.64.76.21,1.56.44,2.39.67.83.23,1.58.51,2.26.83.68.32,1.24.7,1.69,1.15s.67.97.67,1.56-.27,1.24-.8,1.94c-.53.7-1.41,1.05-2.64,1.05-1.1,0-1.88-.29-2.33-.86-.45-.57-.67-1.35-.67-2.33v-.61c0-.19.02-.39.06-.61Z"/>
      <path class="cls-2" d="m171.33,278.63h17.9c.68-.93,1.19-2.07,1.53-3.41.34-1.34.51-2.58.51-3.73,0-2.8-1.07-4.86-3.22-6.18-2.15-1.32-5.34-1.98-9.59-1.98-3.91,0-7.17.47-9.78,1.4-2.61.93-4.69,2.18-6.24,3.73s-2.66,3.32-3.31,5.32c-.66,2-.99,4.04-.99,6.12,0,2.29.39,4.22,1.18,5.77.79,1.55,1.86,2.79,3.22,3.73,1.36.93,2.95,1.59,4.78,1.98,1.83.38,3.8.57,5.93.57,1.15,0,2.36-.05,3.63-.16,1.27-.11,2.53-.28,3.76-.51,1.23-.23,2.4-.54,3.5-.92,1.1-.38,2.08-.85,2.93-1.4l1.66-6.82h-10.45c-.26.85-.61,1.62-1.05,2.29-.45.68-.91,1.25-1.4,1.72-.49.47-.98.83-1.47,1.08-.49.26-.92.38-1.31.38-.51,0-.9-.14-1.18-.41-.28-.28-.49-.62-.64-1.02-.15-.4-.24-.84-.29-1.31-.04-.47-.06-.89-.06-1.27,0-.68.03-1.44.1-2.29.06-.85.18-1.74.35-2.68Zm1.59-5.96c.38-.96.81-1.8,1.27-2.55.47-.74.99-1.34,1.56-1.78.57-.45,1.2-.67,1.88-.67.59,0,1.1.23,1.53.7.42.47.64,1.36.64,2.68,0,.47-.03.98-.1,1.53-.06.55-.14,1.06-.22,1.53-.09.55-.17,1.08-.26,1.59h-7.26c.26-1.06.57-2.07.96-3.03Z"/>
      <polygon class="cls-2" points="231.29 273.78 229.32 250.97 213.07 250.97 204.47 291.43 210.2 291.43 216.32 262.95 219.19 291.43 227.85 291.43 242.95 263.91 237.09 291.43 251.23 291.43 259.9 250.97 243.53 250.97 231.29 273.78"/>
      <path class="cls-2" d="m262.26,288.95c2.25,2,5.99,2.99,11.21,2.99,6.12,0,10.79-1.36,14.02-4.08,1.61-1.4,2.87-3.17,3.76-5.32.89-2.14,1.34-4.56,1.34-7.23,0-4.33-1.21-7.43-3.63-9.3-2.29-1.78-5.97-2.68-11.02-2.68-5.39,0-9.64,1.04-12.74,3.12-2.12,1.49-3.75,3.36-4.87,5.61-1.13,2.25-1.69,4.76-1.69,7.52,0,4.16,1.21,7.29,3.63,9.37Zm9.46-9.81c.23-1.78.61-3.52,1.11-5.22.51-1.7,1.18-3.16,2.01-4.4.83-1.23,1.82-1.85,2.96-1.85.76,0,1.26.31,1.5.92.23.62.35,1.52.35,2.71,0,1.36-.12,2.96-.35,4.81-.23,1.85-.58,3.63-1.05,5.35-.47,1.72-1.09,3.18-1.88,4.36-.79,1.19-1.71,1.78-2.77,1.78-1.49,0-2.23-1.38-2.23-4.14,0-1.1.12-2.55.35-4.33Z"/>
      <path class="cls-2" d="m309.47,255.5c-1.06,1.36-2.05,2.51-2.96,3.44-.91.93-1.87,1.72-2.87,2.36-1,.64-2.09,1.17-3.28,1.59s-2.57.81-4.14,1.15l-.89,4.27h4.97l-2.68,12.68c-.21.93-.35,1.78-.41,2.55s-.1,1.4-.1,1.91c0,1.44.24,2.59.73,3.44.49.85,1.14,1.5,1.94,1.94.81.45,1.72.74,2.74.89,1.02.15,2.06.22,3.12.22.59,0,1.28-.01,2.07-.03.79-.02,1.55-.06,2.29-.13.74-.06,1.42-.12,2.04-.16.61-.04,1.07-.11,1.37-.19l.96-4.4c-1.7,0-2.86-.11-3.47-.32-.62-.21-.92-.74-.92-1.59,0-.42.06-1.02.19-1.78.13-.77.3-1.63.51-2.61l2.61-12.42h5.03l.83-4.27h-4.97l1.85-8.54h-6.56Z"/>
      <path class="cls-2" d="m322.09,288.95c2.25,2,5.99,2.99,11.21,2.99,6.12,0,10.79-1.36,14.02-4.08,1.61-1.4,2.87-3.17,3.76-5.32.89-2.14,1.34-4.56,1.34-7.23,0-4.33-1.21-7.43-3.63-9.3-2.29-1.78-5.97-2.68-11.02-2.68-5.39,0-9.64,1.04-12.74,3.12-2.12,1.49-3.75,3.36-4.87,5.61-1.13,2.25-1.69,4.76-1.69,7.52,0,4.16,1.21,7.29,3.63,9.37Zm9.46-9.81c.23-1.78.61-3.52,1.11-5.22.51-1.7,1.18-3.16,2.01-4.4.83-1.23,1.82-1.85,2.96-1.85.76,0,1.26.31,1.5.92.23.62.35,1.52.35,2.71,0,1.36-.12,2.96-.35,4.81-.23,1.85-.58,3.63-1.05,5.35-.47,1.72-1.09,3.18-1.88,4.36-.79,1.19-1.71,1.78-2.77,1.78-1.49,0-2.23-1.38-2.23-4.14,0-1.1.12-2.55.35-4.33Z"/>
      <path class="cls-2" d="m383.1,263.56c-.45-.11-.85-.17-1.21-.19-.36-.02-.63-.03-.8-.03-2.51,0-4.52.53-6.05,1.59-1.53,1.06-2.78,2.36-3.76,3.89h-.45l-.96-4.78h-10.39l-5.8,27.4h13l4.08-19.05c.51-.64,1.01-1.05,1.5-1.24.49-.19.94-.29,1.37-.29.85,0,1.47.52,1.85,1.56.38,1.04.62,2.88.7,5.51h6.95l2.8-13.13c-.47-.34-.95-.61-1.43-.8-.49-.19-.96-.34-1.4-.45Z"/>
      <path class="cls-2" d="m393.96,283.34h-8.6l-1.34,6.37c.89.47,2.46.96,4.71,1.47,2.25.51,5.1.76,8.54.76,2.25,0,4.36-.15,6.34-.45,1.98-.3,3.7-.82,5.16-1.56,1.47-.74,2.61-1.72,3.44-2.93.83-1.21,1.24-2.71,1.24-4.49,0-1.27-.21-2.35-.64-3.22-.43-.87-1-1.6-1.72-2.2-.72-.59-1.54-1.07-2.45-1.43-.91-.36-1.88-.67-2.9-.92-.72-.17-1.46-.34-2.2-.51-.74-.17-1.41-.38-2.01-.64-.59-.25-1.07-.58-1.43-.99-.36-.4-.54-.94-.54-1.62,0-1.02.36-1.84,1.08-2.45.72-.61,1.44-.92,2.17-.92.81,0,1.35.33,1.62.99s.41,1.37.41,2.13c0,.26-.02.49-.06.7-.04.21-.09.43-.13.64h8.28l1.47-6.44c-1.32-.68-3.02-1.23-5.1-1.66-2.08-.42-4.29-.64-6.63-.64-1.87,0-3.73.17-5.58.51-1.85.34-3.5.89-4.97,1.66s-2.66,1.77-3.57,3.03c-.91,1.25-1.37,2.81-1.37,4.68,0,1.32.21,2.41.64,3.28.42.87.96,1.58,1.59,2.13.64.55,1.31.98,2.01,1.27.7.3,1.33.51,1.88.64.76.21,1.56.44,2.39.67.83.23,1.58.51,2.26.83.68.32,1.24.7,1.69,1.15s.67.97.67,1.56-.27,1.24-.8,1.94c-.53.7-1.41,1.05-2.64,1.05-1.1,0-1.88-.29-2.33-.86-.45-.57-.67-1.35-.67-2.33v-.61c0-.19.02-.39.06-.61Z"/>
      <path class="cls-1" d="m631.91,239.5l-.19-.19-.22-.15c-49.62-34.56-109.55-40.19-146.38-34.49-10.83-7.88-21.86-15.07-33.05-21.57-.03-16.47-3.38-19.52-6.08-21.97-.45-.41-.87-.79-1.25-1.21-1.6-1.92-36.56-21.2-49.48-26.58-4.35-2.02-7.1-5.23-6.84-7.98.2-2.06,2.11-3.65,5.38-4.47,6.57-1.64,24.27-.68,37.19.03,4.63.25,8.63.47,11.55.54,7.88-.64,13.76-6.82,17.3-11.89,4.09-5.85,7.2-13.38,8.11-19.67.43-7.86.32-12.02-1.42-12.95-.81-.43-1.9-.13-3.32.94l-.12.09-.02.15c-1.67,16.72-9.13,24.21-15.09,27.55-6.71,3.76-13.84,3.66-17.92,1.96,12.95-10.51,17.48-25.62,19.93-33.77l.1-.34c1.21-4.04.68-6.45-.23-7.35-.44-.43-1-.58-1.56-.4-1.24.38-2.29,2.18-2.79,4.79-1.39,7.23-11.88,20.1-16.75,24.02-3.58,1.88-6.62,2.19-8.33.83-1.44-1.14-1.8-3.46-1.02-6.52,2.21-3.44,9.51-26.64,9.5-34.13.72-6.63.36-10.08-1.09-10.54-.96-.31-1.99.82-2.63,1.97l-.04.14c-.85,10.14-11.1,31.76-16.08,39.11-2.57,2.74-4.76,3.77-6.49,3.05-3.24-1.34-4.51-8.5-4.34-15.03,4.01-15.83,2.43-31.01-1.4-36.55-.86-1.25-1.81-1.94-2.81-2.05l-.7-.08.36.61c1.53,2.55-1.37,25.7-3.1,32.31-1.65,5.13-3.56,7.84-5.52,7.84h0c-2.62,0-5.37-4.9-6.92-9.75-1.44-4.64-2.34-11.92-3.14-18.35-.6-4.8-1.16-9.33-1.89-12.37-.21-.45-.84-1.83-1.79-1.6-2.91.72-3.74,19.42-3.34,27.58-1.02,1.56-1.97,2.26-2.81,2.1-3-.58-5.06-11.38-6.05-16.57l-.02-.08c-1.34-3.05-2.5-4.48-3.65-4.39-1.54.08-2.4,2.71-3.24,5.25-.4,1.24-.79,2.41-1.17,2.99-.35.53-.86.78-1.51.72-1.73-.14-4.6-2.56-6.5-6.76-.32-3.09-1.25-5.21-2.76-6.3-1.15-.83-2.62-1.04-4.35-.64l-.12.03-.08.1c-1.78,2.33-4.2,10.31-6.53,18.02-2.34,7.73-4.99,16.49-6.44,17.28-1.71.75-3.26.6-4.74-.47-7.14-5.15-9.71-30.37-9-37.97,0-1.13.02-2.29.04-3.45.11-7.02.22-13.64-3.43-13.91h-.17s-.11.11-.11.11c-8.57,9.42-5.65,40.51-1.75,50.79,1.85,5.52,2.9,8.94,1.99,10.05-.34.42-1.05.55-2.1.41-12.68-4.14-26.24-39.39-25.28-54.28.14-1.21.3-2.45.45-3.7,1.25-10.2,2.44-19.84-.74-20.39l-.16-.03-.13.11c-8.49,7.24-10.38,37.06-8.9,47.72,1.23,8.86.38,14.54-1.1,15.56-.33.23-.69.23-1.12,0-11.73-13.21-17.95-40.5-17.44-48.52,0-5.2-.84-8-2.5-8.31-1.63-.3-3.35,2.07-4.31,4.54-1.48,3.25-1.91,30.25-1.19,36.6-1.16-.05-2.17-.49-3.07-1.36-4.25-4.11-4.82-16.38-4.82-27.84l-.03-.13c-1.03-2.48-2.18-3.67-3.47-3.53-3.67.41-5.82,11.4-6.39,14.74-.44,1.92-1.09,3-1.66,2.93-1.19-.15-2.86-4.37-2.67-10.37v-.07s-.02-.07-.02-.07c-1.04-2.64-2.12-3.86-3.31-3.74-2.58.26-3.95,6.95-4.32,9.07-.76,1.8-1.65,2.62-2.63,2.42-3.14-.63-6.72-10.48-6.73-18.55-.54-3.38-1.44-5.13-2.66-5.19-1.08-.06-2.09,1.31-2.7,3.65v.05s-.01.05-.01.05c.92,36.05,15.44,62.72,43.17,79.27,24.34,14.52,53.79,18.09,67.98,19.81,27.67.36,46.87,13.3,49.84,16.93.58.7,1.17,1.68.72,2.31-.72,1.03-4.06,1.17-8.42-.35-8.95-10.36-25.1-10.36-40.72-10.36h-.6l.29.52c7.13,12.74,13.74,20.04,21.16,23.09-23.96-3.04-48.23-3.25-72.52-.59-29.02,3.19-57.38,10.31-84.28,21.17-28.15,11.37-44.72,22.85-50.54,27.26l3.38,4.46c15.19-11.51,50.04-30.68,96.72-41.35,3.94,7.59,15.54,23.17,34.86,40.15,15.49,13.61,39.49,31.07,69.16,40.83.86.34,1.74.67,2.61.99,4.76,1.77,18.34,6.5,27.36,6.5,1.55,0,2.97-.14,4.18-.46,3.69.3,7.37.47,11.03.47,33.95,0,66.68-13.04,97.66-38.99l-1.41-1.69c4.89,3.24,9.74,6.62,14.55,10.14l.95.69,1.16-.19c35.63-5.83,94.49-.62,143.22,33.22,5.81,6.03,4.57,8.13,2.35,11.9-.14.24-.28.47-.42.71-8.19,8.38-14.43,23.68-7.65,41.83l5.25-1.96c-5.92-15.86-.46-29.09,6.63-36.18l.27-.27.19-.33c.19-.33.38-.65.56-.97,3.1-5.25,4.99-10.29-3.34-18.85Zm-202.27-74.61c-.57-.4-1.07-.74-1.29-1.01-.35-.42-.45-.84-.28-1.19.15-.33.51-.55.89-.56,3.48.67,5.75,3.64,6.8,5.36,1.63,2.67,2.21,5.31,2.03,6.24-.39.31-.93.61-1.48.42-.57-.2-1.01-.9-1.21-1.9-.63-4.02-3.66-6.11-5.46-7.36Zm-46.07-21.23c0,1.12-.91,2.04-2.04,2.04s-2.04-.91-2.04-2.04.91-2.04,2.04-2.04,2.04.91,2.04,2.04Zm1.19-6.16c-.19.38-.98.63-2.26.33-2.48-.8-4.33-.09-6.62,1.39-1.07.45-1.85.51-2.17.17-.36-.37-.23-1.24,0-1.76,2.3-3.15,8.34-2.57,10.45-1.47.55.48.79,1,.61,1.34Zm1.27-29.08c-1.92,3.89-10.83,5.04-18.48,4.82l-.59-.08c-17.9-2.47-31.58-18.1-31.82-36.35-.06-4.27,0-10.77.59-17.44.04-.51.08-.97.11-1.38.07-.88.13-1.73.23-2.09.37.39,1.14,1.71,1.77,2.79,8.41,14.37,37.52,37.44,46.15,42.88,2.23,2.74,2.91,5.04,2.03,6.83Zm-157.58,42.27c9.45-1.98,19.34-3.59,29.63-4.72,25.6-2.81,51.18-2.36,76.38,1.28-9.51,15.83-49.1,49.64-56.9,53.24l-.34.15c-6.01-4.39-11.35-8.75-15.92-12.77-18.23-16.02-28.87-30.22-32.86-37.19Zm138.78,84.02c10.12-12.3,18.21-35.84,19.52-42.15,7.8-.34,13.29-1.77,18.29-4.78,4.9-2.94,10.66,1.68,14.47,4.73.36.29.7.56,1.03.82,4.07,3.2,13.18,4.23,16.28,2.52l.1-.08c.34-.42.63-.91.93-1.43.98-1.69,1.99-3.44,5.21-3.44,2.31,0,5.15-.34,7.02-2.46,5.08,2.97,10.13,6.08,15.13,9.34-31.1,25.79-63.95,38.16-97.99,36.93Z"/>
      <path class="cls-1" d="m468.26,293.39l2.93,4.78c37.12-22.74,87.14-22.24,121.64,1.21l3.15-4.63c-16.88-11.48-38.47-18.17-60.78-18.85-23.92-.72-47.07,5.32-66.94,17.49Z"/>
      <rect class="cls-1" y="294.26" width="449.39" height="5.6"/>
    </g>
  </g>
</svg>