<svg width="392" height="91" viewBox="0 0 392 91" fill="none" xmlns="http://www.w3.org/2000/svg">
<path d="M99.3839 35.8724C97.4774 35.8724 96 35.3825 94.9514 34.3927C93.9029 33.4129 93.3787 32.0131 93.3787 30.2034C93.3787 28.5238 93.9124 27.144 94.98 26.0842C96.0476 25.0244 97.5156 24.4745 99.3839 24.4745C101.252 24.4745 102.72 24.9644 103.788 25.9542C104.855 26.944 105.389 28.3538 105.389 30.2034C105.389 31.8831 104.846 33.2429 103.759 34.3027C102.672 35.3525 101.214 35.8724 99.3839 35.8724ZM93.8648 73.7955V44.2409C93.8648 43.1311 94.7227 42.2413 95.7712 42.2413H103.12C104.178 42.2413 105.027 43.1411 105.027 44.2409V73.7955C105.027 74.9053 104.169 75.7952 103.12 75.7952H95.7712C94.7131 75.7952 93.8648 74.8953 93.8648 73.7955Z" fill="#515588"/>
<path d="M282.513 35.8724C280.607 35.8724 279.13 35.3825 278.081 34.3927C277.033 33.4129 276.508 32.0131 276.508 30.2034C276.508 28.5238 277.042 27.144 278.11 26.0842C279.177 25.0244 280.645 24.4745 282.513 24.4745C284.382 24.4745 285.85 24.9644 286.917 25.9542C287.985 26.944 288.519 28.3538 288.519 30.2034C288.519 31.8831 287.975 33.2429 286.889 34.3027C285.802 35.3525 284.344 35.8724 282.513 35.8724ZM276.994 73.7955V44.2409C276.994 43.1311 277.852 42.2413 278.901 42.2413H286.25C287.308 42.2413 288.156 43.1411 288.156 44.2409V73.7955C288.156 74.9053 287.299 75.7952 286.25 75.7952H278.901C277.843 75.7952 276.994 74.8953 276.994 73.7955Z" fill="#515588"/>
<path d="M141.601 47.6803C140.734 45.6406 139.485 44.1109 137.817 43.0811C136.149 42.0513 134.119 41.5414 131.726 41.5414C129.963 41.5414 128.285 41.9013 126.684 42.6112C125.082 43.3211 123.7 44.3009 122.537 45.5407C122.432 45.6506 122.347 45.7706 122.261 45.8806L122.118 43.9109C122.051 42.9711 121.298 42.2413 120.402 42.2413H113.282C112.328 42.2413 111.556 43.0511 111.556 44.0509V73.9955C111.556 74.9953 112.328 75.8052 113.282 75.8052H121.06C122.013 75.8052 122.785 74.9953 122.785 73.9955V55.7788C122.785 55.1089 122.89 54.499 123.119 53.9491C123.338 53.4092 123.672 52.9093 124.11 52.4694C124.549 52.0295 125.063 51.7095 125.645 51.4896C126.226 51.2796 126.855 51.1696 127.542 51.1696C128.419 51.1296 129.181 51.2896 129.82 51.6695C130.458 52.0495 130.945 52.5994 131.259 53.3392C131.574 54.0791 131.736 54.9889 131.736 56.0787V73.9755C131.736 74.9753 132.508 75.7852 133.461 75.7852H141.182C142.135 75.7852 142.907 74.9753 142.907 73.9755V55.1289C142.907 52.1894 142.478 49.6999 141.62 47.6703H141.611L141.601 47.6803Z" fill="#515588"/>
<path d="M179.301 47.6803C178.433 45.6406 177.185 44.1109 175.516 43.0811C173.858 42.0513 171.818 41.5414 169.425 41.5414C167.662 41.5414 165.984 41.9013 164.383 42.6112C162.782 43.3211 161.399 44.3009 160.237 45.5407C160.132 45.6506 160.046 45.7706 159.96 45.8806L159.798 43.621C159.741 42.8411 159.121 42.2413 158.378 42.2413H150.666C149.875 42.2413 149.246 42.9111 149.246 43.731V74.3154C149.246 75.1453 149.885 75.8052 150.666 75.8052H159.055C159.846 75.8052 160.475 75.1353 160.475 74.3154V55.7788C160.475 55.1089 160.58 54.499 160.808 53.9491C161.028 53.4092 161.361 52.9093 161.8 52.4694C162.238 52.0295 162.753 51.7095 163.334 51.4896C163.916 51.2796 164.545 51.1696 165.231 51.1696C166.108 51.1296 166.871 51.2896 167.509 51.6695C168.148 52.0495 168.634 52.5994 168.949 53.3392C169.263 54.0791 169.425 54.9889 169.425 56.0787V74.3054C169.425 75.1353 170.064 75.7952 170.846 75.7952H179.167C179.958 75.7952 180.587 75.1253 180.587 74.3054V55.1389C180.587 52.1994 180.159 49.7099 179.301 47.6803Z" fill="#515588"/>
<path d="M216.313 58.7982C216.39 56.2787 216.066 53.9691 215.322 51.8695C214.579 49.7699 213.52 47.9402 212.138 46.3905C210.756 44.8408 209.117 43.641 207.21 42.8011C205.304 41.9613 203.197 41.5414 200.881 41.5414C198.565 41.5414 196.353 41.9713 194.361 42.8311C192.378 43.691 190.663 44.9108 189.223 46.4905C187.784 48.0602 186.659 49.9199 185.859 52.0595C185.058 54.1991 184.657 56.5287 184.657 59.0482C184.657 62.4076 185.382 65.397 186.821 68.0166C188.261 70.6461 190.31 72.7057 192.941 74.1854C195.581 75.6752 198.727 76.425 202.368 76.425C203.807 76.425 205.228 76.2651 206.629 75.9551C208.03 75.6352 209.441 75.1353 210.861 74.4454C211.995 73.8955 213.13 73.1856 214.254 72.3158C214.731 71.9459 214.826 71.236 214.483 70.7361L210.566 64.9471C210.222 64.4472 209.565 64.3172 209.069 64.6572C208.306 65.1671 207.592 65.547 206.905 65.787C205.971 66.1169 204.875 66.2869 203.636 66.2869C201.758 66.2869 200.166 65.9569 198.86 65.2771C197.554 64.5972 196.582 63.6674 195.924 62.4476C195.753 62.1276 195.61 61.7877 195.476 61.4378H215.17C215.77 61.4378 216.256 60.9379 216.266 60.308L216.294 58.7882L216.313 58.7982ZM197.735 51.8995C198.631 51.3296 199.766 51.0496 201.129 51.0496C202.092 51.0496 202.949 51.2396 203.712 51.6195C204.475 51.9995 205.085 52.5294 205.542 53.2293C205.723 53.4992 205.866 53.7992 205.981 54.0991C206.238 54.819 205.666 55.5888 204.932 55.5888H195.248C195.362 55.1389 195.486 54.719 195.667 54.3291C196.144 53.2792 196.839 52.4694 197.735 51.8995Z" fill="#515588"/>
<path d="M242.736 41.7013C242.098 41.6014 241.411 41.5414 240.697 41.5414C238.981 41.5414 237.332 41.9713 235.768 42.8311C234.205 43.691 232.88 44.8708 231.775 46.3605C231.622 46.5705 231.489 46.7904 231.346 47.0104L231.145 43.3211C231.117 42.7112 230.64 42.2413 230.059 42.2413H221.728C221.127 42.2413 220.641 42.7512 220.641 43.381V74.6654C220.641 75.2952 221.127 75.8052 221.728 75.8052H230.783C231.384 75.8052 231.87 75.2952 231.87 74.6654V59.7481C231.87 58.8282 231.984 58.0184 232.232 57.3185C232.48 56.6186 232.814 56.0287 233.252 55.5288C233.69 55.0289 234.234 54.639 234.872 54.3591C235.511 54.0891 236.236 53.9491 237.036 53.9491C237.961 53.9491 238.819 54.0691 239.619 54.2991C239.896 54.379 240.163 54.459 240.392 54.549C240.992 54.779 241.64 54.399 241.793 53.7492L244.281 43.2311C244.424 42.6112 244.061 41.9713 243.451 41.8413C243.223 41.7913 242.984 41.7413 242.736 41.7013Z" fill="#515588"/>
<path d="M258.769 76.425C255.443 76.425 252.526 75.8851 250.009 74.7853C247.884 73.8655 246.158 72.7257 244.833 71.356C244.433 70.946 244.452 70.2762 244.872 69.8962L250.066 65.1971C250.419 64.8771 250.924 64.8871 251.287 65.1971C252.411 66.1369 253.66 66.8568 255.033 67.3567C256.653 67.9466 258.083 68.2365 259.322 68.2365C259.761 68.2365 260.161 68.1965 260.523 68.1166C260.885 68.0366 261.171 67.8966 261.391 67.7066C261.61 67.5167 261.791 67.3067 261.934 67.0767C262.077 66.8468 262.144 66.5868 262.144 66.2869C262.144 65.577 261.8 65.0271 261.124 64.6472C260.761 64.4872 260.17 64.2673 259.351 63.9873C258.531 63.7174 257.435 63.4074 256.081 63.0775C254.394 62.6175 252.897 62.0577 251.582 61.4078C250.257 60.7579 249.142 59.998 248.217 59.1082C247.34 58.2284 246.644 57.2085 246.149 56.0487C245.653 54.889 245.396 53.6192 245.396 52.2394C245.396 50.5597 245.758 49.07 246.473 47.7702C247.197 46.4705 248.189 45.3407 249.475 44.4009C250.753 43.461 252.202 42.7412 253.794 42.2612C255.395 41.7813 257.034 41.5414 258.722 41.5414C260.599 41.5414 262.372 41.7413 264.031 42.1413C265.689 42.5412 267.253 43.1111 268.711 43.841C269.845 44.4109 270.884 45.0707 271.838 45.8306C272.276 46.1905 272.352 46.8504 271.981 47.2903L267.482 52.4994C267.157 52.8793 266.614 52.9393 266.233 52.6194C265.718 52.1994 265.146 51.7995 264.517 51.4196C263.621 50.8797 262.687 50.4198 261.724 50.0698C260.761 49.7199 259.865 49.5299 259.027 49.5299C258.512 49.5299 258.064 49.5799 257.702 49.6499C257.339 49.7299 257.044 49.8599 256.806 50.0298C256.567 50.1998 256.386 50.4098 256.262 50.6597C256.138 50.9097 256.081 51.1896 256.081 51.4796C256.081 51.8595 256.177 52.2194 256.386 52.5494C256.586 52.8893 256.901 53.1593 257.349 53.3692C257.711 53.5792 258.321 53.8391 259.179 54.1591C260.047 54.479 261.286 54.859 262.935 55.3289C264.774 55.8788 266.376 56.5087 267.739 57.2185C269.102 57.9284 270.198 58.7483 271.037 59.6781C271.637 60.388 272.095 61.1778 272.419 62.0377C272.743 62.8975 272.896 63.8573 272.896 64.9071C272.896 67.1267 272.286 69.1164 271.066 70.8561C269.845 72.5957 268.177 73.9655 266.052 74.9553C263.936 75.9351 261.514 76.435 258.788 76.435V76.415L258.769 76.425Z" fill="#515588"/>
<path d="M318.592 42.2312C317.896 42.2312 317.315 42.7911 317.267 43.521L317.134 45.3907C316.905 45.1407 316.667 44.8908 316.4 44.6508C315.676 44.0009 314.846 43.441 313.912 42.9811C312.978 42.5212 311.958 42.1613 310.881 41.9113C309.804 41.6613 308.66 41.5314 307.459 41.5314C304.656 41.5314 302.169 42.2712 300.014 43.741C297.86 45.2107 296.144 47.2403 294.877 49.8199C293.618 52.3994 292.98 55.3889 292.98 58.7882C292.98 62.1876 293.618 64.9171 294.896 67.3567C296.173 69.7862 297.917 71.6859 300.119 73.0556C302.321 74.4254 304.857 75.1053 307.745 75.1053C309.508 75.1053 311.195 74.7853 312.816 74.1255C314.293 73.5356 315.542 72.7357 316.572 71.7559V72.7057C316.572 74.5554 316.276 76.0651 315.704 77.2349C315.123 78.4147 314.217 79.2845 313.007 79.8444C311.786 80.4143 310.214 80.6943 308.288 80.6943C307.087 80.6943 305.943 80.5843 304.866 80.3743C303.789 80.1644 302.76 79.8344 301.778 79.3945C301.225 79.1445 300.682 78.8746 300.157 78.5746C299.5 78.2047 298.689 78.4847 298.346 79.1845L295.715 84.7435C295.41 85.3934 295.62 86.1833 296.211 86.5632C297.755 87.543 299.643 88.3729 301.854 89.0327C304.58 89.8526 307.316 90.2625 310.08 90.2625C312.844 90.2625 315.313 89.8726 317.496 89.0927C319.679 88.3129 321.538 87.1731 323.082 85.6634C324.617 84.1536 325.799 82.314 326.59 80.1544C327.381 77.9947 327.791 75.5052 327.791 72.6957V43.611C327.791 42.8411 327.2 42.2212 326.466 42.2212H318.583L318.592 42.2312ZM313.874 65.597C312.911 66.2269 311.748 66.5368 310.385 66.5368C309.022 66.5368 307.869 66.2169 306.896 65.597C305.924 64.9771 305.2 64.0873 304.704 62.9475C304.199 61.8177 303.951 60.4479 303.951 58.8482C303.951 57.2485 304.199 55.8788 304.704 54.729C305.209 53.5792 305.934 52.6893 306.896 52.0795C307.859 51.4696 309.013 51.1696 310.385 51.1696C311.758 51.1696 312.911 51.4796 313.874 52.0795C314.837 52.6893 315.571 53.5692 316.095 54.729C316.61 55.8788 316.877 57.2585 316.877 58.8482C316.877 60.4379 316.619 61.8077 316.095 62.9475C315.571 64.0773 314.837 64.9571 313.874 65.597Z" fill="#515588"/>
<path d="M364.527 47.6802C363.66 45.6406 362.411 44.1109 360.743 43.0811C359.075 42.0513 357.045 41.5414 354.652 41.5414C352.889 41.5414 351.211 41.9013 349.61 42.6112C348.008 43.321 346.626 44.3009 345.463 45.5406C345.444 45.5606 345.425 45.5906 345.406 45.6106V30.5834C345.406 29.8135 344.815 29.1936 344.081 29.1936H335.798C335.064 29.1936 334.473 29.8135 334.473 30.5834V74.4054C334.473 75.1753 335.064 75.7951 335.798 75.7951H344.376C345.11 75.7951 345.701 75.1753 345.701 74.4054V55.7688C345.701 55.0989 345.806 54.489 346.035 53.9391C346.254 53.3992 346.588 52.8993 347.026 52.4594C347.465 52.0195 347.98 51.6995 348.561 51.4796C349.142 51.2696 349.772 51.1596 350.458 51.1596C351.335 51.1196 352.097 51.2796 352.736 51.6595C353.375 52.0395 353.861 52.5893 354.175 53.3292C354.49 54.0691 354.652 54.9789 354.652 56.0687V74.3954C354.652 75.1653 355.243 75.7851 355.977 75.7851H364.499C365.233 75.7851 365.824 75.1653 365.824 74.3954V55.1289C365.824 52.1894 365.395 49.6999 364.537 47.6702L364.527 47.6802Z" fill="#515588"/>
<path d="M390.75 42.2312H386.194V34.8126C386.194 34.2127 385.726 33.7228 385.155 33.7228H376.051C375.48 33.7228 375.012 34.2127 375.012 34.8126V42.2312H370.761C370.189 42.2312 369.722 42.7211 369.722 43.321V51.1096C369.722 51.7095 370.189 52.1994 370.761 52.1994H375.012V74.7353C375.012 75.3352 375.48 75.8251 376.051 75.8251H385.155C385.726 75.8251 386.194 75.3352 386.194 74.7353V52.1994H390.75C391.322 52.1994 391.789 51.7095 391.789 51.1096V43.321C391.789 42.7211 391.322 42.2312 390.75 42.2312Z" fill="#515588"/>
<path d="M11.222 79.6545C9.77313 77.1949 8.5435 74.5754 7.58076 71.8659C5.89359 67.1467 4.99758 62.1476 4.23502 57.1785C2.97679 48.96 2.07124 40.6115 2.91006 32.3331C3.74888 24.0546 6.45598 15.8061 11.6986 9.56719C13.6336 7.26761 16.2359 5.12799 19.1622 5.38795C22.1267 5.6579 24.3572 8.29742 25.9681 10.9369C32.3927 21.525 33.7272 35.0126 30.9724 47.2203C28.2176 59.4381 21.6501 70.4461 13.4906 79.6345C13.0998 80.0744 12.118 80.2543 12.2229 79.6545" fill="#9191D0"/>
<path d="M10.8406 79.1446C11.0884 76.2551 11.6031 73.4056 12.3848 70.6261C13.7479 65.787 15.883 61.2378 18.1135 56.7686C21.812 49.41 25.8726 42.1513 31.2773 36.0724C36.6915 29.9835 43.5736 25.0944 51.3422 23.4047C54.2018 22.7848 57.5094 22.7148 59.6923 24.7644C61.9132 26.8441 62.1897 30.3634 61.9609 33.4829C61.0363 46.0006 54.3829 57.6185 45.1845 65.647C35.9861 73.6756 24.4333 78.3547 12.6517 80.5443C12.0893 80.6543 11.2028 80.1744 11.6222 79.7645" fill="#B6B6F0"/>
<path d="M10.8121 78.4247C12.7471 76.3551 14.8823 74.4954 17.1605 72.8657C21.1353 70.0362 25.5391 67.9366 29.9715 65.9769C37.2826 62.7475 44.8129 59.8481 52.6673 58.7383C60.5217 57.6285 68.8146 58.4283 75.8397 62.2976C78.4324 63.7274 81.0251 65.877 81.4731 68.9064C81.9307 71.9959 80.0147 74.8953 77.9558 77.1449C69.6629 86.2033 57.5001 90.7525 45.5374 90.8424C33.5651 90.9324 21.8121 86.8532 11.3745 80.7143C10.8693 80.4243 10.4785 79.4645 11.0504 79.4345" fill="#CCCCFF"/>
<path d="M11.3364 75.0053C8.41961 70.0362 6.65619 64.5972 5.53141 58.9082C4.3685 53.0293 3.52968 47.0304 3.1198 41.0415C2.3763 30.2234 3.52968 18.7955 9.49673 9.61716C11.6319 6.33776 15.6354 1.1487 19.8962 3.73823C21.7835 4.88802 23.0608 6.90765 24.1475 8.8373C25.3771 11.0069 26.4066 13.2965 27.2168 15.6761C30.534 25.4243 30.4196 36.1623 27.6362 46.0306C24.8433 55.9388 19.534 64.9371 13.0617 72.6557C12.6614 73.1356 12.261 73.5956 11.8512 74.0655C11.7463 74.1854 11.6414 74.2954 11.5461 74.4154C11.5175 74.4454 11.2125 74.8053 11.3555 74.6454C11.4508 74.5354 11.1839 74.6654 11.3078 74.6654C11.651 74.6654 11.5938 74.2254 12.1466 74.9153L12.5279 75.5952L12.5565 75.7852C12.6328 73.8155 9.70645 73.8155 9.63019 75.7852C9.56347 77.6048 11.4985 78.0347 12.7567 77.3449C13.3 77.0449 13.6813 76.535 14.0817 76.0651C14.5583 75.5152 15.0444 74.9553 15.5115 74.3854C17.2749 72.2558 18.943 70.0362 20.5158 67.7466C23.69 63.1175 26.3589 58.1384 28.4369 52.8593C32.5547 42.3912 33.8797 30.6633 31.3728 19.5854C30.1622 14.2263 28.0556 8.76731 24.8052 4.39811C23.2801 2.35848 21.2402 0.498817 18.7238 0.0888916C15.8927 -0.361027 13.3382 0.948734 11.2411 2.84839C9.14405 4.74804 7.58079 7.00764 6.19865 9.35721C4.8165 11.7068 3.64406 14.3563 2.73852 17.0258C0.82258 22.6248 0.0504816 28.6137 0.00282136 34.5426C-0.0543709 41.1514 0.765387 47.7302 1.78532 54.2391C2.79571 60.7479 4.06347 66.7568 6.72291 72.5257C7.36156 73.9055 8.06693 75.2552 8.83903 76.555C9.83036 78.2347 12.3564 76.695 11.365 75.0053H11.3364Z" fill="#515588"/>
<path d="M11.1458 75.2653C11.67 69.3164 13.5097 63.6874 15.969 58.3284C18.4282 52.9694 21.0019 48.0103 23.9664 43.1611C29.3901 34.2828 36.6726 25.9243 46.3571 22.2649C49.8268 20.9552 56.137 18.9056 58.4914 23.2448C59.5495 25.2044 59.5018 27.654 59.3302 29.8336C59.1396 32.2931 58.6916 34.7227 58.0434 37.1023C55.4126 46.8405 49.4646 55.3589 41.9343 61.6078C33.8702 68.2966 24.0236 72.3858 14.034 74.6154C13.3953 74.7554 12.7567 74.8954 12.1276 75.0154C11.8702 75.0654 11.5842 75.1253 11.3555 75.1653C11.5842 75.1153 11.3364 75.2553 11.365 75.1653L11.2887 75.1453C11.4413 75.1753 11.5652 75.2753 11.651 75.4453L11.8511 76.2251L11.813 76.4251L11.4317 77.105L11.508 77.005C11.9941 76.3551 12.1085 75.4653 11.508 74.8354C10.9932 74.2955 9.93519 74.1855 9.43953 74.8354C8.30521 76.3351 9.33467 78.0048 11.0028 78.2148C11.67 78.2948 12.3563 78.0948 13.014 77.9648C13.7671 77.8148 14.5106 77.6549 15.2541 77.4849C17.9421 76.865 20.6015 76.1252 23.2229 75.2253C28.5799 73.3957 33.7939 70.9561 38.579 67.8167C47.7202 61.8178 55.1838 53.1793 59.2921 42.6712C60.2739 40.1617 61.0365 37.5622 61.5607 34.9026C62.0755 32.2431 62.4663 29.4736 62.2947 26.7641C62.1231 24.0546 61.3415 21.2951 59.254 19.5554C57.1665 17.8157 54.2687 17.4158 51.6093 17.7658C46.2523 18.4756 41.0859 20.9652 36.6821 24.1946C32.0209 27.614 28.1033 31.9132 24.7099 36.6723C21.3165 41.4315 18.2948 46.9505 15.5686 52.3795C12.7186 58.0784 10.0686 63.9674 8.87714 70.3262C8.57211 71.9659 8.35288 73.6256 8.20037 75.2953C8.12411 76.1252 8.9248 76.825 9.65877 76.825C10.5071 76.825 11.0504 76.1152 11.1172 75.2953L11.1458 75.2653Z" fill="#515588"/>
<path d="M10.6882 75.6352C14.5105 71.586 18.9906 68.5465 23.871 66.087C28.7704 63.6074 33.8701 61.4378 39.0174 59.6281C48.9402 56.1288 59.8449 54.3091 69.9775 57.9684C72.1412 58.7483 74.3527 59.7581 76.1924 61.2178C77.7842 62.4876 79.1187 64.3173 78.8899 66.5269C78.6421 68.8864 76.974 70.8961 75.4584 72.5258C73.8379 74.2555 72.065 75.8352 70.1586 77.2149C62.3995 82.8539 52.9246 85.5334 43.526 85.4434C33.0313 85.3535 22.7557 82.0141 13.4906 76.965C12.9568 76.675 12.423 76.3751 11.8987 76.0751C11.689 75.9552 11.2887 75.6152 11.0599 75.5852C10.6691 75.5352 11.1266 75.5252 11.0313 75.5852L11.0504 75.6052C11.1171 75.8752 11.079 76.1451 10.9551 76.4151L10.4308 76.965L10.2878 77.035C11.0599 76.855 11.5079 75.9152 11.3173 75.1453C11.098 74.3055 10.2878 73.9055 9.51572 74.0655C7.77136 74.4554 7.962 76.655 8.95333 77.7248C9.38227 78.1848 10.0114 78.4647 10.5452 78.7747C11.2124 79.1546 11.8892 79.5345 12.5755 79.8944C15.1682 81.2842 17.8181 82.534 20.5252 83.6338C25.8536 85.8034 31.4013 87.3231 37.0824 88.053C47.5772 89.4027 58.4818 87.653 67.8137 82.334C72.2937 79.7745 76.7548 76.3151 79.7669 71.9559C81.3778 69.6363 82.3882 66.6768 81.578 63.8174C80.8535 61.2678 78.928 59.3482 76.8405 57.9484C72.2175 54.839 66.5078 53.4093 61.0841 52.9993C55.3267 52.5594 49.5312 53.3693 43.955 54.879C38.1118 56.4587 32.4784 58.7983 26.9498 61.2878C21.4212 63.7774 16.3216 66.4869 11.7748 70.4462C10.6786 71.396 9.63964 72.4058 8.63878 73.4656C7.31382 74.8754 9.38227 77.045 10.7072 75.6352H10.6882Z" fill="#515588"/>
</svg>
