<?xml version="1.0" encoding="UTF-8"?>
<svg id="Layer_2" data-name="Layer 2" xmlns="http://www.w3.org/2000/svg" viewBox="0 0 224.18 203.26">
  <defs>
    <style>
      .cls-1 {
        stroke-width: 1.48px;
      }

      .cls-1, .cls-2, .cls-3, .cls-4, .cls-5, .cls-6 {
        stroke: #000;
        stroke-linecap: round;
        stroke-linejoin: round;
      }

      .cls-1, .cls-3, .cls-5, .cls-6 {
        fill: none;
      }

      .cls-2, .cls-3 {
        stroke-width: 1.58px;
      }

      .cls-2, .cls-4, .cls-7 {
        fill: #3b3e75;
      }

      .cls-4, .cls-6 {
        stroke-width: 1.51px;
      }

      .cls-5 {
        stroke-width: 1.5px;
      }

      .cls-8 {
        fill: #6164c3;
      }

      .cls-8, .cls-9, .cls-7, .cls-10, .cls-11 {
        stroke-width: 0px;
      }

      .cls-9 {
        fill: #797ef4;
      }

      .cls-10 {
        fill: #c5c7f7;
      }

      .cls-11 {
        fill: #fff;
      }
    </style>
  </defs>
  <g id="Light_and_dark_modes" data-name="Light and dark modes">
    <g id="otter_Mascot_LM_" data-name="otter Mascot (LM)">
      <g id="right_foot" data-name="right foot">
        <g>
          <ellipse class="cls-9" cx="125.76" cy="118" rx="34.42" ry="24.24"/>
          <path class="cls-7" d="M154.79,106.11c-6.74,7.35-14.2,2.79-23.13-4.41-8.92-7.2-13.04-16.91-9.19-21.67,3.85-4.77,14.2-2.79,23.13,4.41,8.92,7.2,15.56,14.73,9.19,21.67Z"/>
        </g>
        <path class="cls-5" d="M132.25,96.95c-6.72-4.74-8.33-8.47-9.27-13.73-.95-5.26.88-6.43,3.21-7.96s6.72-.78,9.93.3c3.21,1.08,9.27,4.22,12.93,7.66,3.65,3.43,6.72,6.43,8.91,10.3,2.19,3.87,1.1,6.79.44,8.33-.66,1.53-3.43,4.09-3.43,4.09"/>
        <path class="cls-5" d="M125.1,95.81c-8.85-1.65-18.51,4.61-18.51,4.61"/>
      </g>
      <g id="body">
        <path class="cls-9" d="M19.21,42.84c-10.96,35.43-12.67,23.95-15.42,71.87-1.63,28.51,20.65,58.21,45.98,69.21,25.33,11,63.92,25.91,94.32,16.21,30.39-9.69,48.3-24.82,57.21-38.19,8.91-13.36,17.09-23.16,15.14-55.56-4.45-20.17-5.08-30.04-23.4-56.6-20.35-21.57-26.75-27.05-34.61-33.18-6.64-5.18-14.88-8.95-19.8-6.15-2.07,1.18-3.9,4.23-4.1,6.6-.75,8.93,9.55,26.88,18.32,38.62,10.22,13.67,13.58,12.91,13.06,29.41s-1.16,22.1-17.15,26.81c-15.98,4.72-29.84,3.14-43.99-4.2-14.15-7.34-13.44-27.94-13.44-27.94-2.52-23.5,2.52-24.78,2.52-24.78-37.22-9.66-74.65-12.15-74.65-12.15Z"/>
        <path class="cls-10" d="M18.11,42.84c-11.58,24.75-13.27,38.51-13.27,38.51,0,0,15.41,28.87,36.14,38.76,32.65,15.59,55.62-7.93,55.62-7.93l-1.82-40.75c-1.14-8.52-.93-19.08-.93-19.08l-75.73-9.51Z"/>
        <path class="cls-5" d="M155.7,113.52c13.17-5.35,14.75-13.87,15.54-21.79.79-7.92-1.31-19.61-4.22-26.15-2-4.48-8.13-11.29-11.79-15.13-1.92-2.01-3.64-4.19-5.15-6.53-8.43-13.05-12.09-16.83-11.72-23.44.4-7.19,5.74-8.38,5.74-8.38,9.97-4.41,16.08,2.71,16.08,2.71,43.15,33.73,50.87,55.72,50.87,55.72,12.37,27.44,12.28,47.8,12.28,47.8,2.58,39.11-49.92,65.82-49.92,65.82-41.2,24.23-70.36,13.54-70.36,13.54-49.48-14.46-63.74-25.75-63.74-25.75-12.68-7.53-21-21.46-21-21.46"/>
      </g>
      <g id="left_foot" data-name="left foot">
        <ellipse class="cls-9" cx="121.03" cy="168.91" rx="34.42" ry="26.14"/>
        <path class="cls-7" d="M133.11,170.81c0-11.95,10-13.36,22.34-13.36,12.34,0,22.34,5.98,22.34,13.36s-10,13.36-22.34,13.36c-12.34,0-22.34-.43-22.34-13.36Z"/>
        <path class="cls-5" d="M102.54,187.45c-11.67-5.92-14.28-13.57-13.64-19.74.64-6.17,2.43-10.25,9.46-15.33,10.9-7.88,19.42-7.95,28.77-7.38,9.35.57,19.88,7.27,21.7,10.64,5.03-1.66,12.71-.88,18.16.45s8.26,5.17,9.97,8.37c.91,1.7.43,4.42-.21,6.6-.76,2.58-2.32,4.86-4.52,6.41-6.7,4.71-15.91,4.64-15.91,4.64-3.85.32-12.61-1.23-12.61-1.23"/>
        <path class="cls-5" d="M155.7,159.29c5.67.26,12.56,1.21,16.13,4.26,3.57,3.05,4.15,4.62,4.15,4.62"/>
        <path class="cls-5" d="M152.4,164.19c5.67.26,12.56,1.21,16.13,4.26,3.57,3.05,4.15,4.62,4.15,4.62"/>
        <path class="cls-5" d="M146.74,168.63c5.67.26,12.56,1.21,16.13,4.26,3.57,3.05,4.15,4.62,4.15,4.62"/>
      </g>
      <g>
        <path class="cls-8" d="M78.79,104.47c-10.43,35.35-3.84,39.84,5.1,42.27,8.94,2.43,19.54-12.01,23.67-32.26,4.13-20.25.23-38.63-8.71-41.07s-16.73.49-20.06,31.06Z"/>
        <ellipse class="cls-7" cx="85.89" cy="132.77" rx="14.17" ry="11.88" transform="translate(-68.47 167.07) rotate(-69.63)"/>
        <path class="cls-6" d="M86.1,85.55c1.07-10.3,6.99-13.44,10.89-12.78,3.9.66,5.6.79,7.14,6.15,1.54,5.37,2.92,20.76,1.62,28.35-1.3,7.59-2.43,19.09-5.7,24.61-3.27,5.52-6.28,11.46-9.94,13.15s-7.57,2.73-9.76.53c-2.18-2.21-4.29-6.37-3.68-9.19.61-2.82,2.41-8.13,4.88-16.82,2.47-8.69,2.78-18.84,2.78-18.84"/>
        <path class="cls-4" d="M80.35,142.87c0-4.01,2.9-8.17,2.9-8.17"/>
        <path class="cls-4" d="M85.93,145.04c0-4.01,2.9-8.17,2.9-8.17"/>
      </g>
      <g>
        <path class="cls-8" d="M32.97,106.86c20.29,31.91,15.38,39.34,7.64,45.66-7.74,6.32-22.02-4.01-31.9-23.07-9.88-19.06-11.61-39.64-3.87-45.97,7.74-6.32,15.97-6.64,28.13,23.37Z"/>
        <ellipse class="cls-7" cx="32.09" cy="137.23" rx="14.23" ry="17.5" transform="translate(-64.31 34.43) rotate(-30)"/>
        <path class="cls-3" d="M20.49,90.52c-4.05-10.13-10.57-10.84-14.06-8.5s-5.07,3.2-4.94,9.38c.13,6.18,3.36,22.61,6.82,29.86,3.46,7.25,7.93,18.6,12.65,22.88,4.72,4.28,9.32,9.11,13.28,9.28,3.97.17,7.97-.42,9.38-3.63,1.42-3.2,2.18-8.39.77-11.03-1.41-2.64-4.68-7.33-9.57-15.22-4.9-7.89-8.19-18.2-8.19-18.2"/>
        <path class="cls-2" d="M42.82,147.03c-1.18-4.13-5.16-7.17-5.16-7.17"/>
        <path class="cls-2" d="M38.19,151.64c-1.18-4.13-5.16-7.17-5.16-7.17"/>
      </g>
      <g id="head">
        <path class="cls-7" d="M24.37,20.74c-1.8,4.67-6.77,8.33-9.64,5.7s-4.77-5.81-3.11-11.21c2.7-8.76,6.12-7.22,9.64-5.7,8.98,3.88,4.92,6.54,3.11,11.21Z"/>
        <path class="cls-7" d="M87.88,20.36c1.8,4.67,6.77,8.33,9.64,5.7s4.77-5.81,3.11-11.21c-2.7-8.76-6.12-7.22-9.64-5.7-8.98,3.88-4.92,6.54-3.11,11.21Z"/>
        <path class="cls-9" d="M97.3,36.76c0,19.6-13.07,36.71-40.99,36.76-28.08.05-41.51-17.97-41.51-37.57S25.85-1.33,56.31.08c32.73,1.52,40.99,17.08,40.99,36.68Z"/>
        <path class="cls-10" d="M96.56,45.76c-2.2,19.33-21.93,27.75-40.51,27.75s-38.78-8.85-41.25-30.45c-1.14-9.96,22.94-13.87,41.52-13.87s41.38,6.61,40.25,16.57Z"/>
        <path class="cls-9" d="M40.02,28.72c.2,6.79-6.77,11.89-6.77,11.89-8.28,4.94-6.14,11.86-6.14,11.86,5.86,14.06,23.21,6.11,23.21,6.11,5.55-1.05,9.26,0,9.26,0,5.88,4.17,11.28,4.26,14.9,3.27,4.01-1.09,7.2-3.5,7.58-7.44.8-8.34-7-14.51-7-14.51-6.06-4.3-3.74-11.19-3.74-11.19h-31.31Z"/>
        <path class="cls-10" d="M79.82,56.99c-1.94,6.06-9.67,7.79-19.55,4.09-3.36-1.26-6.98-1.38-10.41-.35-6.19,1.86-12.47,2.15-16.1-1.36-4.07-3.94-2.88-8.9,1.05-11.22,11.53-6.79,10.61-11.37,16.81-12.26,2.34-.34,4.62-.36,6.95.04,6.51,1.11,5.06,6.53,18.27,13.6,2.56,1.37,3.91,4.54,2.98,7.45Z"/>
        <g id="mouth">
          <path class="cls-1" d="M54.8,59.4c2.8.15,6.03,1.02,7.67,1.63,1.47.54,2.98.94,4.53,1.1,8.91.94,8.6-5.97,8.6-5.97"/>
          <path class="cls-1" d="M55.31,59.43c-4.07,0-6.24.56-7.2.91-1.03.38-2.07.74-3.14.95-6.68,1.35-8.65-4.16-8.65-4.16"/>
        </g>
        <g id="nose">
          <path class="cls-7" d="M62.54,49.05c0,2.08-3.24,5.55-7.23,5.55s-7.23-3.47-7.23-5.55,3.24-3.76,7.23-3.76,7.23,1.68,7.23,3.76Z"/>
          <ellipse class="cls-8" cx="52.28" cy="51.76" rx=".72" ry="1.81"/>
          <ellipse class="cls-8" cx="58.08" cy="51.76" rx=".72" ry="1.81"/>
        </g>
        <path class="cls-1" d="M46.61,66.79c7.66,3.76,16.96,1.06,16.96,1.06"/>
        <path class="cls-1" d="M55.31,73.51s-7.39.07-11.46-1.3c0,0-24.4-3.91-29.05-29.14,0,0-1.38-16.18,5.78-28.52C26.74,3.91,43.02.82,43.02.82"/>
        <path class="cls-1" d="M87.86,12.01c5.6-2.56,6.25-2.31,6.25-2.31,7.25,2.18,6.72,9.6,6.72,9.6"/>
        <path class="cls-1" d="M14.69,23.15c-1.77-1.61-2.88-3.15-3.55-4.53-1.33-2.75-.89-6.03.98-8.41,3.73-4.76,6.4-3.45,6.4-3.45"/>
        <path class="cls-1" d="M95.21,21.79c4.63,10.75,1.98,23.93,1.98,23.93-2.33,11.99-17.27,23.23-21.59,24.19"/>
        <g>
          <ellipse class="cls-7" cx="76.6" cy="33.69" rx="6.38" ry="6.76"/>
          <ellipse class="cls-11" cx="79.36" cy="31.14" rx="2.76" ry="2.92"/>
        </g>
        <g>
          <ellipse class="cls-7" cx="33.69" cy="33.22" rx="6.31" ry="6.67"/>
          <ellipse class="cls-11" cx="36.24" cy="30.7" rx="2.64" ry="2.79"/>
        </g>
      </g>
      <path class="cls-1" d="M16.3,53.1c-4.26,12.31-7.18,25.48-7.18,25.48"/>
      <path class="cls-3" d="M32.09,112.04c22.55,15.52,36.26,9.11,36.26,9.11"/>
    </g>
  </g>
</svg>