<?xml version="1.0" encoding="UTF-8"?>
<svg id="Layer_2" data-name="Layer 2" xmlns="http://www.w3.org/2000/svg" viewBox="0 0 198.88 191.5">
  <defs>
    <style>
      .cls-1, .cls-2 {
        stroke-miterlimit: 10;
      }

      .cls-1, .cls-2, .cls-3 {
        fill: none;
        stroke-linecap: round;
        stroke-width: 1.5px;
      }

      .cls-1, .cls-3 {
        stroke: #0b0e23;
      }

      .cls-2 {
        stroke: #080b21;
      }

      .cls-3 {
        stroke-linejoin: round;
      }

      .cls-4 {
        fill: #6164c3;
      }

      .cls-4, .cls-5, .cls-6, .cls-7, .cls-8 {
        stroke-width: 0px;
      }

      .cls-5 {
        fill: #797ef4;
      }

      .cls-6 {
        fill: #3b3e75;
      }

      .cls-7 {
        fill: #c5c7f7;
      }

      .cls-8 {
        fill: #fff;
      }
    </style>
  </defs>
  <g id="Light_and_dark_modes" data-name="Light and dark modes">
    <g id="panda_mascot_LM_" data-name="panda mascot (LM)">
      <path class="cls-7" d="M131.95,87.17c0,41.64,4.9,93.21-58.4,75.4C41.99,153.68,4.16,129.41,4.16,87.77S12.05,14.38,73.55,2.14c70.21-13.97,58.4,43.38,58.4,85.02Z"/>
      <path class="cls-6" d="M187.97,115.8c-4.42,53.82-27.46,67.07-61.35,68.5-48.56,2.05-61.48-40.18-61.48-68.5s27.5-51.27,61.41-51.27,63.73,23.06,61.41,51.27Z"/>
      <ellipse class="cls-5" cx="125.51" cy="69.11" rx="57.08" ry="68.35"/>
      <path class="cls-7" d="M198.63,81.72c-4.26,31.96-19.43,40.16-44.43,43.3-3.17.4-6.38.33-9.53-.21-24.14-4.15-36.97-14.15-43.77-42.78-.77-3.24-.98-6.59-.65-9.9,2.8-27.93,14.11-43.31,49.24-43.31,32.51,0,44.59,19.2,48.92,43.65.54,3.06.63,6.18.22,9.25Z"/>
      <path class="cls-6" d="M59.74,120.92c0,28.58-12.24,51.75-27.35,51.75S0,149.51,0,120.92s3.05-51.75,32.39-51.75c15.1,0,27.35,23.17,27.35,51.75Z"/>
      <path class="cls-1" d="M111.79,4.28c-8.81,1.48-16.7.85-21.58.69-4.52-.15-7.33-.05-12.04.61-16.06,2.27-27.23,7.14-34.34,10.16-6.55,2.78-12.35,7.05-16.9,12.52-10.65,12.81-14.96,26.04-14.96,26.04-5.49,15.2-3.59,30.47-3.59,30.47,2,5.56-2.05,27.6-2.05,27.6-3.3,19.35,2.85,57.59,2.85,57.59,1.65,6,25.95,8.1,25.95,8.1,17.7.15,16.8-5.39,16.8-5.39,1.2-6.46-6-11.86-6-11.86"/>
      <path class="cls-1" d="M34.9,72.56c19.34,11.92,25.27,47.41,17,74.59-1.38,4.54-4.11,8.59-7.9,11.44-7.02,5.28-10.43,1.48-10.43,1.48"/>
      <path class="cls-1" d="M53.94,146.3c8.92,5.9,18.88,7.87,18.88,7.87"/>
      <path class="cls-1" d="M86.73,84.54c-19.28,22.34-15.02,50.11-13.37,61.42.63,4.32,3.04,8.7,4.91,12.59,5.52,11.49,13.84,20.03,18.16,23.97,1.76,1.61,3.75,2.91,5.9,3.86,7.15,3.16,12.11,4.16,15.32,4.35,4.3.26,8.34-2.52,9.67-6.85.03-.08.05-.16.07-.25,1.69-5.86-.44-11.95-4.67-16.08-22.22-21.7-13.93-43.86-13.93-43.86"/>
      <path class="cls-1" d="M145.38,132.81c2.43,12.7-3.7,36.17-3.7,36.17-.76,3.36-.37,6.38.52,8.95,2.29,6.6,8.9,9.98,15.18,8.06,10.56-3.23,14.71-12.45,14.71-12.45,7.41-27.89,5.88-52.62,5.88-52.62"/>
      <path class="cls-1" d="M105.62,92.12c-3.77-10.5-3.38-21.24-2.47-28.12.61-4.63,2.21-9.07,4.66-13.05,1.78-2.88,3.46-5.27,4.97-7.23,4.18-5.4,10.11-9.11,16.76-10.64,14.43-3.31,28.68-2,28.68-2,8.89.76,14.65,4.1,16.99,5.74.96.67,2.3.02,2.36-1.15.19-3.66-4.02-10.35-4.02-10.35C155.27.35,132.87,4.28,132.87,4.28c-23.12,1.09-37.6,9.96-37.6,9.96-16.52,10.28-19.21,29.56-19.21,29.56-1.77,5.47-2.22,16.26-2.22,16.26"/>
      <g>
        <g>
          <path class="cls-3" d="M158.96,104.66c.07,1.5.05,2.66,0,3.52-.09,1.36-.94,2.53-2.17,3.11-11.49,5.41-14.22-4.13-14.22-4.13"/>
          <path class="cls-3" d="M158.96,104.66c0,1.51.06,2.66.16,3.52.15,1.35,1.05,2.49,2.3,3.01,11.72,4.9,14.02-4.75,14.02-4.75"/>
        </g>
        <path class="cls-6" d="M169.56,100.39c0,1.43-3.65,5.07-10.8,5.27-5.96.17-10.8-3.84-10.8-5.27s4.84-2.58,10.8-2.58,10.8,1.16,10.8,2.58Z"/>
      </g>
      <g>
        <path class="cls-5" d="M180.84,92.63c-4.92,2.32-9.44-.99-11.43-7.57-.49-1.62-1.21-3.14-2.27-4.49-5.41-6.87-1.56-12.69,1.52-13.8,5.74-2.07,12.72,1.08,16.09,8.22,3.36,7.14,1.62,15.04-3.9,17.64Z"/>
        <g>
          <circle class="cls-6" cx="177.58" cy="86.1" r="5.07"/>
          <circle class="cls-8" cx="178.83" cy="83.69" r="2.29"/>
        </g>
      </g>
      <g>
        <path class="cls-5" d="M133.79,93.54c5.06,1.98,9.33-1.58,10.84-8.21.37-1.64.78-3.34,1.94-4.59,5.55-5.93,2.55-11.58-2.5-13.55-5.68-2.22-12.59,1.88-15.43,9.15-2.84,7.28-.53,14.97,5.15,17.19Z"/>
        <g>
          <circle class="cls-6" cx="136.49" cy="85.99" r="5.04"/>
          <circle class="cls-8" cx="138.55" cy="84.43" r="2.28"/>
        </g>
      </g>
      <g>
        <path class="cls-4" d="M125.84,49.86c-2.24,4.6-2.8,4.79-6.67,6.63-3.45,1.65-7.61.45-9.61-2.81-5.84-9.52,4.35-19.5,13.86-13.23,3.07,2.03,4.03,6.11,2.41,9.41Z"/>
        <path class="cls-2" d="M120.21,39.81c-2.7-1.04-5.12-.15-6.75.86s-2.74,2.62-3.14,4.46c-.46,2.1-.19,4.01.27,5.51.68,2.21,2.32,3.98,4.42,4.94,1.08.5,2.05.8,2.88.97,1.89.39,3.86-.19,5.31-1.47,4.62-4.11,4.32-6.8,4.32-6.8"/>
      </g>
      <g id="ear_1" data-name="ear 1">
        <path class="cls-4" d="M182.3,56.74c-4.83-1.63-5.1-2.16-7.42-5.75-2.08-3.21-1.43-7.49,1.55-9.89,8.56-6.92,19.58,1.54,15.12,11.6-1.57,3.53-5.58,5.28-9.24,4.04Z"/>
        <path class="cls-2" d="M191.43,49.34c.72-2.8-.44-5.11-1.63-6.61s-2.91-2.42-4.79-2.61c-2.13-.22-4,.27-5.44.9-2.11.93-3.69,2.76-4.4,4.96-.37,1.13-.56,2.13-.63,2.97-.17,1.92.63,3.82,2.07,5.1,4.61,4.12,7.25,3.51,7.25,3.51"/>
      </g>
      <path class="cls-1" d="M190.04,57.74c9.35,16.71,5.93,33.55,2.48,42.62-1.23,3.24-4.14,7.04-6.56,9.51-6.65,6.77-15.18,9.95-15.18,9.95"/>
    </g>
  </g>
</svg>