<?xml version="1.0" encoding="UTF-8"?>
<svg id="Layer_2" data-name="Layer 2" xmlns="http://www.w3.org/2000/svg" viewBox="0 0 218.24 203.03">
  <defs>
    <style>
      .cls-1 {
        stroke: #2d252a;
      }

      .cls-1, .cls-2 {
        fill: none;
        stroke-linecap: round;
        stroke-linejoin: round;
        stroke-width: 1.5px;
      }

      .cls-2 {
        stroke: #0f0d0e;
      }

      .cls-3 {
        fill: #6164c3;
      }

      .cls-3, .cls-4, .cls-5, .cls-6, .cls-7 {
        stroke-width: 0px;
      }

      .cls-4 {
        fill: #797ef4;
      }

      .cls-5 {
        fill: #3b3e75;
      }

      .cls-6 {
        fill: #c5c7f7;
      }

      .cls-7 {
        fill: #fff;
      }
    </style>
  </defs>
  <g id="Light_and_dark_modes" data-name="Light and dark modes">
    <g id="sloth_mascot_LM_" data-name="sloth mascot (LM)">
      <g id="back_leg" data-name="back leg">
        <path class="cls-4" d="M169.23,60.32c0,27.72-12.09,50.19-27.01,50.19s-27.01-22.47-27.01-50.19,2.04-52.14,27.01-50.19c23.98,1.87,27.01,22.47,27.01,50.19Z"/>
        <path class="cls-2" d="M125.12,40.99c-.93-6.67,1.04-15.59,2.26-20.19.61-2.32,2.12-4.22,4.14-5.1,6.14-2.67,14.01-.6,18.19.89,2.38.85,4.41,2.68,5.53,5.17,3.56,7.89,2.95,20.21,2.95,20.21"/>
      </g>
      <g id="body">
        <path class="cls-5" d="M136.17,194.05c-34.77,6.63-74.67-8.71-80.15-10.92-.42-.17-.82-.37-1.21-.61C3.52,151.29.76,116.49.76,116.49c-6.72-42.88,32.82-59.46,48.35-60.87,14.09-1.66,22,1.33,29.12,5.91,16.98,10.48,27.07,21.03,30.23,22.2.24.09.48.17.73.23,6.93,1.86,13.78.82,19.99-1.56,14.12-5.42,24.74-19.32,28.92-36.36,2.98-12.13,7.09-22.53,9.14-27.36.87-2.04,2.27-3.69,3.98-4.72,9.13-5.47,18.04-4.04,22.3-2.82,1.64.47,3.14,1.49,4.32,2.93,30.93,37.65,18,102.54,16.12,111.14-.13.61-.31,1.2-.53,1.77-21.88,57.17-77.26,67.06-77.26,67.06Z"/>
        <path class="cls-6" d="M202.39,31.99c0,12.13-7.95,21.97-17.77,21.97s-17.77-9.84-17.77-21.97,2.09-21.91,17.77-21.97c14.79-.06,17.77,9.84,17.77,21.97Z"/>
        <g>
          <path class="cls-1" d="M171.5,16.46c-3.07,12.35.28,22.88.28,22.88,1.31,5.26,5.36,8.41,8.23,10.03,2.07,1.17,4.43,1.47,6.7.87,5.3-1.4,7.4-4.99,7.4-4.99,6.95-10.13,5.87-22.07,5.83-22.28-.33-5.84-1.29-10.16-2.16-13.02-.97-3.16-2.92-5.85-5.6-7.35-6.56-3.69-12.85-.71-12.85-.71-5.52,2.72-6.92,5.11-6.92,5.11"/>
          <path class="cls-1" d="M181.33,17.73c3.02,10.02-1.01,29.11-1.01,29.11"/>
          <path class="cls-1" d="M190.3,20.82c2.67,8.83-.89,25.66-.89,25.66"/>
        </g>
        <path class="cls-1" d="M202.62,28.19c21.17,42.29,10.68,79.44,3.8,98.23-6.88,18.78-29.68,43.1-40.36,49.92-10.68,6.82-27.12,9.65-27.12,9.65"/>
      </g>
      <g id="right_arm" data-name="right arm">
        <path class="cls-3" d="M135.44,57.19c15.03,26.03,18.77,53.2,8.35,60.7-10.42,7.5-31.06-7.52-46.09-33.55-15.03-26.03-24.68-65.32-8.83-66.21,13.27-.74,31.54,13.03,46.57,39.06Z"/>
        <path class="cls-6" d="M106.29,23.73c4.1,7.46,2.59,17.42-3.49,21.59-6.05,4.15-14.45.93-18.64-6.95-4.18-7.88-6.25-15.09,3.49-21.59,9.19-6.13,14.35-.86,18.64,6.95Z"/>
        <path class="cls-1" d="M82.17,35.8c8.05,31.58,31.62,68.29,39.55,74.12,7.93,5.83,14.04,8.68,17.88,7.55s6.2-2.37,7.46-8.19c.55-2.52,1.13-10.17-1.89-22.33-6.41-25.8-26.76-49.16-26.76-49.16"/>
        <g>
          <path class="cls-1" d="M81.37,26.71c2.16,9.35,7.9,14.81,7.9,14.81,2.63,2.88,6.33,3.23,8.75,3.08,1.75-.11,3.39-.91,4.66-2.25,2.98-3.14,3.15-6.37,3.15-6.37,1.11-9.53-3.62-16.86-3.72-16.99-2.19-3.67-4.27-6.09-5.8-7.58-1.7-1.65-3.88-2.59-6.13-2.45-5.52.35-8.62,4.94-8.62,4.94-2.68,4.09-2.79,6.25-2.79,6.25"/>
          <path class="cls-1" d="M88.21,23.41c5.36,5.27,9.17,19.41,9.17,19.41"/>
          <path class="cls-1" d="M95.11,21.65c4.72,4.64,8.08,17.11,8.08,17.11"/>
        </g>
      </g>
      <g id="left_arm" data-name="left arm">
        <ellipse class="cls-3" cx="85.65" cy="177.39" rx="23.18" ry="51.96" transform="translate(-106.92 218.89) rotate(-76.39)"/>
        <path class="cls-6" d="M51.42,145.58c8.09-6.69,18.12-6.9,22.4-.46,4.28,6.44,1.19,17.09-6.89,23.78-8.09,6.69-15.52,10.71-22.4.46-6.49-9.68-1.19-17.09,6.89-23.78Z"/>
        <g>
          <path class="cls-1" d="M60.25,169.26c7.49-3.72,11.16-10.57,11.16-10.57,2-3.2,1.71-7.11,1.21-9.61-.36-1.81-1.29-3.39-2.61-4.51-3.1-2.62-5.83-2.28-5.83-2.28-8.16.33-13.55,6.42-13.64,6.54-2.73,2.86-4.43,5.41-5.44,7.24-1.12,2.03-1.56,4.46-1.09,6.78,1.16,5.7,5.49,8.21,5.49,8.21,3.85,2.15,5.67,1.93,5.67,1.93"/>
          <path class="cls-1" d="M56.41,162.65c3.57-6.41,14.82-12.61,14.82-12.61"/>
          <path class="cls-1" d="M53.86,155.73c3.15-5.65,13.06-11.11,13.06-11.11"/>
        </g>
        <path class="cls-1" d="M40.39,162.65c-1.87,2.19-1.11,5.65.35,8.9,2.25,4.98,6.05,8.87,10.56,11.25,35.61,18.78,64.81,15.57,64.81,15.57,7.77-1.84,11.24-6.29,12.75-9.35.99-2.01,1.23-4.4.54-6.56-3.09-9.77-17.85-15.89-17.85-15.89-16.94-8.1-34.1-10.23-34.1-10.23"/>
      </g>
      <g id="face">
        <path class="cls-6" d="M60.93,134.22c-19.47,8.75-40.48,2.68-45.32-14.08-2.83-9.61-4.63-21.21,16.31-30.76,3.46-1.58,6.57-3.83,9.11-6.66,18.19-20.33,39.86-9.8,45.09,5.72,5.56,16.53-5.71,37.03-25.18,45.78Z"/>
        <path class="cls-4" d="M23.25,131.39c.87-10.16,3.28-15.66,4.69-18.08.55-.95,1.26-1.8,2.1-2.5,3.89-3.28,7.07-2.93,9.06-2.05,1.46.64,2.53,1.89,3.12,3.38,1,2.56,1.14,4.89.96,6.76-.2,1.97-.88,3.88-1.93,5.56-5.41,8.63-3.33,13.31-3.33,13.31-10.5-1.72-14.66-6.38-14.66-6.38Z"/>
        <path class="cls-4" d="M85.71,87.13c-9.85-2.63-15.84-2.22-18.6-1.72-1.08.2-2.12.58-3.07,1.13-4.4,2.55-5.15,5.66-5,7.83.11,1.59.92,3.03,2.12,4.08,2.07,1.81,4.21,2.73,6.03,3.19,1.92.48,3.95.49,5.88.07,9.95-2.16,13.65,1.39,13.65,1.39,1.94-10.46-1.03-15.95-1.03-15.95Z"/>
        <g>
          <circle class="cls-5" cx="34.99" cy="116.52" r="6.03"/>
          <circle class="cls-7" cx="35.2" cy="113.97" r="3.3"/>
        </g>
        <g>
          <circle class="cls-5" cx="67.44" cy="92.99" r="6.03"/>
          <circle class="cls-7" cx="67.64" cy="90.44" r="3.3"/>
        </g>
        <g>
          <path class="cls-1" d="M58.19,112.79c1.01,1.52.65,3.36-.05,4.92-.86,1.92-2.32,3.51-4.05,4.72-7.29,5.07-9.27,4.03-9.27,4.03"/>
          <path class="cls-1" d="M58.32,112.71c1.09,1.46,2.94,1.75,4.64,1.62,2.1-.16,4.09-.99,5.81-2.21,7.24-5.14,6.94-7.36,6.94-7.36"/>
        </g>
        <g>
          <path class="cls-5" d="M59.54,111.85l-2.69,1.89c-1.9,1.33-4.24,1.12-5-.46l-1.45-3.03c-.63-1.32.09-3.15,1.68-4.26l1.77-1.25c1.59-1.12,3.55-1.17,4.58-.13l2.36,2.39c1.23,1.24.64,3.52-1.26,4.85Z"/>
          <ellipse class="cls-3" cx="58.84" cy="109.34" rx="1.07" ry="1.63" transform="translate(-52.15 53.69) rotate(-35.08)"/>
          <ellipse class="cls-3" cx="54.79" cy="112.19" rx="1.07" ry="1.63" transform="translate(-54.53 51.87) rotate(-35.08)"/>
        </g>
      </g>
    </g>
  </g>
</svg>