<?xml version="1.0" encoding="UTF-8"?>
<svg id="Layer_2" data-name="Layer 2" xmlns="http://www.w3.org/2000/svg" viewBox="0 0 749.09 141.88">
  <defs>
    <style>
      .cls-1 {
        font-size: 8.82px;
      }

      .cls-1, .cls-2, .cls-3, .cls-4, .cls-5, .cls-6 {
        fill: #000;
      }

      .cls-1, .cls-2, .cls-7, .cls-5, .cls-6 {
        font-family: TitilliumWeb-Bold, 'Titillium Web';
        font-weight: 700;
      }

      .cls-8, .cls-9, .cls-10, .cls-11, .cls-12, .cls-3, .cls-13, .cls-14, .cls-15, .cls-16, .cls-17, .cls-18, .cls-19, .cls-20, .cls-21, .cls-22, .cls-23, .cls-24, .cls-25 {
        stroke-miterlimit: 10;
      }

      .cls-8, .cls-9, .cls-10, .cls-11, .cls-12, .cls-13, .cls-17, .cls-19 {
        fill: #eee9d8;
      }

      .cls-8, .cls-10, .cls-11, .cls-12, .cls-3, .cls-13, .cls-15, .cls-18, .cls-19, .cls-22, .cls-23, .cls-25 {
        stroke: #2d2d2d;
      }

      .cls-8, .cls-18 {
        stroke-width: .49px;
      }

      .cls-9 {
        stroke-width: .51px;
      }

      .cls-9, .cls-14, .cls-16, .cls-17, .cls-20, .cls-21, .cls-24 {
        stroke: #000;
      }

      .cls-2 {
        font-size: 8.96px;
      }

      .cls-10, .cls-15 {
        stroke-width: .48px;
      }

      .cls-11 {
        stroke-width: .51px;
      }

      .cls-12 {
        stroke-width: .52px;
      }

      .cls-3 {
        stroke-width: .55px;
      }

      .cls-13 {
        stroke-width: .53px;
      }

      .cls-14, .cls-15, .cls-16, .cls-18, .cls-20, .cls-21, .cls-22, .cls-23, .cls-24, .cls-25 {
        fill: #0f4777;
      }

      .cls-14, .cls-17, .cls-22 {
        stroke-width: .49px;
      }

      .cls-26 {
        letter-spacing: 0em;
      }

      .cls-27 {
        letter-spacing: 0em;
      }

      .cls-28 {
        letter-spacing: 0em;
      }

      .cls-29 {
        letter-spacing: 0em;
      }

      .cls-30 {
        letter-spacing: 0em;
      }

      .cls-31 {
        letter-spacing: 0em;
      }

      .cls-16 {
        stroke-width: .57px;
      }

      .cls-7 {
        font-size: 8.87px;
      }

      .cls-7, .cls-32 {
        fill: #fff;
      }

      .cls-4, .cls-32 {
        stroke-width: 0px;
      }

      .cls-33 {
        letter-spacing: -.03em;
      }

      .cls-34 {
        letter-spacing: -.03em;
      }

      .cls-35 {
        letter-spacing: -.03em;
      }

      .cls-36 {
        letter-spacing: -.03em;
      }

      .cls-37 {
        letter-spacing: 0em;
      }

      .cls-19, .cls-25 {
        stroke-width: .54px;
      }

      .cls-20 {
        stroke-width: .55px;
      }

      .cls-21 {
        stroke-width: .54px;
      }

      .cls-23 {
        stroke-width: .49px;
      }

      .cls-24 {
        stroke-width: .54px;
      }

      .cls-5 {
        font-size: 8.89px;
      }

      .cls-6 {
        font-size: 9.29px;
      }

      .cls-38 {
        letter-spacing: 0em;
      }

      .cls-39 {
        letter-spacing: 0em;
      }

      .cls-40 {
        letter-spacing: -.03em;
      }
    </style>
  </defs>
  <g id="Layer_1-2" data-name="Layer 1">
    <g>
      <g>
        <path class="cls-19" d="M501.62,54.26c9.44,3.56,17.47,28.58,17.47,28.58,9.47-2.98,18-5.35,24.96-17.72-5.17,5.34-12.08,9.39-15.31,3.53-4.5-9.48-7.75-12.65-11.6-13.61-3.85-.96-13.42-1.36-15.52-.79Z"/>
        <path class="cls-25" d="M545.04,54.22l23.23.13-8.04,18.68c-4.7,6.04-12.91,11.72-16.3,12.87,6.07-.78,11.23-3.56,12.87-5.41,0,0-12.07,28.06-14.43,32.6-2.36,4.54-7.4,8.95-10.62-.06l-1.14-4.09c5.02-.91,6.66-.66,9.12-3.22-6.89,1.25-10.75,1.46-13.16-6.26,8.18-2.17,14.62-5.52,16.27-7.5-10.88,3.79-16.95,3.99-18.47,3.98l-4.37-11c30.5-5.31,33.55-28.63,25.04-30.73Z"/>
      </g>
      <g>
        <path class="cls-8" d="M508.42,43.63c5.3-1.14,5.34,4.12,3.3,5.29-9.61,5.28-14.82-5.55-10.75-10.46-6.37-.53-11.43,1.5-11.78,1.86,6.53-14.53,18.91-13.6,19.21-13.48,1.96-6.43,6.66-8.4,12.61-8.29,2.43-6.49,7.01-7.21,12.01-7.22,8.74-10.61,22.91-4.14,24.82,1.1,9.88,1.18,11.26,7.6,10.55,11.71,11.95,5.03,5.94,21.2-5.27,20.66-3.04,4.97.79,7.07,4.54,7.29-5.66-.98-13.7,2.03-6.66-9.06,15.56.49,13.14-16.43,4.89-17.76,1.59-5.99-2.29-10.77-9.36-10.53-4.97-10.82-20.25-7.5-22.41-.77-6.47-2.06-12.37,3.32-11.68,7.08-7.7-2.16-13.22,4.69-12.19,8.17-7.07-.85-14.02,1.96-17.72,8,3.7-.97,10.89-1.1,12.26-.19-4.69,4.44-2.41,9.47,1.04,10.82,1.34.53,2.93.32,3.95-.7,1.19-1.18,1.23-2.9-1.37-3.53Z"/>
        <path class="cls-18" d="M536.62,27.68c-4.9-4.09-12.19.07-12.13,2.58-5.47-3.7-8.6-1.87-10.93,1.1-1.15-9,9.84-9.05,11.16-5.39.74-.32,1.42-.55,1.42-.55-1.15-7.06,1.75-11.74,9.27-7.53,1.58-11.28,18.04-8.11,17.6-.54-4.91-8.31-12.54-3.8-13.27-1.63,7-1.6,11.51,2.21,8.67,7.34-2.28-4.95-7.58-5.29-11.45-2.38,4.1,1.3,5.93,4.26,5.99,6.03,3.36-.46,4.96,1.3,5.13,1.53,8.71-4.23,13.05,5.45,10.61,11.89-1.15-9.28-5.42-10.7-8.67-10.18.51,1.71,0,3.99-.34,4.9-1.55-5.69-5.25-7.23-6.96-6.77-1.43-7.57-14.19-7.9-15.55-3,4.21-1.32,8.37-.47,9.46,2.61Z"/>
        <path class="cls-18" d="M552.27,21.39c3.01-6.04,11.62-.3,7.7,5.86,1.19-6.67-4.34-7.51-7.7-5.86Z"/>
        <path class="cls-18" d="M564.02,29.13c6.15,2.61,3.6,9.11-1.24,9.86,4.52-3.52,3.52-7.07,1.24-9.86Z"/>
        <path class="cls-18" d="M538.39,31.04c-4.62-4.21-11.11-1.69-12.24,4.63-.86-1.42-3.71-2.27-6.04-1.87-1.03-.8-3.42-1.82-6.63.03-1.62-1.57-8.98-3.37-14.27.34,1.14-.4,5.52-1.15,10.83,2.95-2.05.74-5.86,3.14-3.58,7.05-.06-.93.62-6.19,5.4-4.83,1.07-8.15,13.46-4.52,10.94.84-5.28-3.67-8.32-2.32-10.82,2.41,1.19-1.94,5.52-2.11,7.4-1.26,1.6.68,7.41,2.95,12.7,2.81,7.34-1.91,11.05-7.97,6.32-13.09ZM526.84,41.08c4.84-3.14,5.23-5.19,2.04-7.58,11.27-6.85,13.63,12.68-2.04,7.58Z"/>
        <path class="cls-18" d="M514.66,49.35c1.25-3.76,2.9-4.5,9.56-3.83-3.53.12-8.6,2.18-9.56,3.83Z"/>
        <path class="cls-18" d="M552.29,35.18c2.57,6.06,2.05,10.24-4.84,12.81,4.75-4.19,5.63-7.9,4.84-12.81Z"/>
        <path class="cls-18" d="M510.14,58.71c4.52-9.36,10.08-9.11,19.85-11,10.97-2.58,14.25-5.35,12.26-15.33,6.49,9.19,2.58,11.2-5.57,16.95,4.23-.27,7.73-2.47,8.52-3.52-5.79,6.18-10.71,7.33-15.2,8.33-4.49,1-10.98,2.26-14.63,6.29,6.37-7.43,14.77-8.38,17.05-10.22-9.01,2.21-17.27.96-22.28,8.5Z"/>
        <path class="cls-18" d="M519.89,65.51c5.61-13.52,27.28-6.68,36.03-20.26-2.31,16.38-31.95,10.14-36.03,20.26Z"/>
      </g>
      <text class="cls-5" transform="translate(545.16 114.49)"><tspan class="cls-34" x="0" y="0">V</tspan><tspan x="5.12" y="0">AN</tspan><tspan class="cls-28" x="16.63" y="0">C</tspan><tspan class="cls-39" x="21.41" y="0">OUVER </tspan></text>
      <g>
        <path class="cls-4" d="M497.69,121.05v-3.19h13.06v3.19h-4.7v14.57h-3.6v-14.57h-4.75Z"/>
        <path class="cls-4" d="M513.02,135.63v-17.76h11.49v3.13h-7.89v4.15h6.32v3.08h-6.32v4.26h7.89v3.13h-11.49Z"/>
        <path class="cls-4" d="M527.49,135.63v-26.63s4.44,19.74,13.55,12.83l4.99-3.95v17.76h-3.6v-8.88l-3.45,7.22c-.25.53-.79.87-1.39.87h-1.58c-.65,0-1.24-.37-1.51-.95l-3.41-7.14v8.88h-3.6Z"/>
        <path class="cls-4" d="M556.42,130.46h-2.93v5.17h-3.6v-17.76h6.53c4.21,0,6.32,2.05,6.32,6.16,0,2.07-.54,3.66-1.61,4.77s-2.64,1.66-4.71,1.66ZM553.5,127.37h2.9c1.79,0,2.69-1.11,2.69-3.34,0-1.1-.22-1.88-.65-2.36-.43-.48-1.11-.72-2.04-.72h-2.9v6.42Z"/>
        <path class="cls-4" d="M565.28,135.63v-17.76h11.49v3.13h-7.89v4.15h6.32v3.08h-6.32v4.26h7.89v3.13h-11.49Z"/>
        <path class="cls-4" d="M585.2,120.69c-1.9,0-2.85.63-2.85,1.88,0,.56.23.98.71,1.28.47.3,1.57.72,3.3,1.28,1.73.56,2.95,1.19,3.64,1.89s1.04,1.79,1.04,3.25c0,1.86-.57,3.27-1.7,4.23-1.13.96-2.61,1.44-4.44,1.44-1.36,0-3.02-.21-4.99-.63l-.94-.18.37-2.79c2.33.31,4.12.47,5.35.47,1.85,0,2.77-.77,2.77-2.3,0-.56-.21-.99-.64-1.31-.43-.31-1.28-.65-2.55-1.02-2.02-.58-3.44-1.26-4.27-2.05-.83-.79-1.24-1.89-1.24-3.3,0-1.78.54-3.1,1.62-3.97,1.08-.87,2.56-1.31,4.44-1.31,1.29,0,2.93.17,4.91.52l.94.18-.29,2.85c-2.46-.28-4.19-.42-5.2-.42Z"/>
        <path class="cls-4" d="M592.36,121.05v-3.19h13.06v3.19h-4.7v14.57h-3.6v-14.57h-4.75Z"/>
      </g>
      <path class="cls-20" d="M661.72,81.78c2.51-2.21.04-7.96,6.76-8.53-1.93.97-2.01,4.19.77,3.68.49-.09.94-.32,1.31-.64,2.47-2.1,3.28-3.98,3.97-4.75.95-1.34,2.48-2.48,3.34-2.52-1.6.75-1.39,2.57.31,2.21,2.59-.77,4.1-2.61,3.86-4.22-.8-1.49-1.83-1.6-3.41-.43,3.73-4.47,6.6-5.2,8.28-2.68,3.85,9.49-21.3,19.38-25.19,17.89Z"/>
      <path class="cls-12" d="M651.36,53.15c-.4.21-3.35,1.93-3.06,2.22,4.45,4.54,4.99,1.97,7.72,10.41,1.5,4.79,4.38,7.74,6.34,7.86.16.01.75-.14.9-.2,7.03-2.78,16.42-8.89,19.01-11.15.32-.28.24-1.58.13-1.95-.7-2.34-1.96-3.72-3.99-3.38-2.89.89-6.69,2.53-9.8,2.4-.12,0-.24-.03-.35-.08-7.26-2.93-4.75-5.5-6.92-8.46-.2-.28-.87-1.19-1.24-1.13-3.23.56-5.57,1.76-8.74,3.44Z"/>
      <path class="cls-20" d="M688.47,52.99l23.41.13-8.11,18.83c-4.74,6.09-13.01,11.81-16.42,12.96,6.12-.79,11.31-3.58,12.97-5.46,0,0-12.16,28.28-14.54,32.85-2.38,4.57-7.46,9.02-10.7-.06l-1.15-4.12c5.06-.91,6.71-.67,9.19-3.24-6.95,1.25-10.83,1.47-13.26-6.31,8.25-2.19,14.74-5.56,16.39-7.55-10.96,3.82-17.08,4.02-18.61,4.01l-4.41-11.08c30.73-5.35,33.8-28.85,25.23-30.96Z"/>
      <g>
        <path class="cls-23" d="M643.74,62.62c6.89-1.48,6.95,5.36,4.29,6.89-12.51,6.87-19.28-7.22-13.99-13.62-8.29-.69-14.87,1.96-15.34,2.42,8.5-18.91,24.61-17.69,25-17.54,2.55-8.37,8.66-10.93,16.41-10.79,3.17-8.45,9.13-9.39,15.64-9.39,11.38-13.81,29.82-5.38,32.31,1.43,12.86,1.53,14.65,9.9,13.73,15.24,15.55,6.54,7.74,27.59-6.86,26.89-3.95,6.47,1.02,9.2,5.91,9.49-7.37-1.27-17.83,2.65-8.67-11.8,20.26.64,17.09-21.39,6.37-23.11,2.07-7.79-2.99-14.02-12.19-13.71-6.47-14.09-26.35-9.76-29.16-1-8.42-2.68-16.09,4.32-15.2,9.22-10.02-2.81-17.2,6.11-15.86,10.63-9.2-1.1-18.25,2.55-23.06,10.42,4.82-1.27,14.17-1.43,15.95-.24-6.11,5.78-3.14,12.33,1.36,14.08,1.75.68,3.81.41,5.14-.91,1.55-1.54,1.6-3.78-1.78-4.6Z"/>
        <path class="cls-23" d="M657.85,48.08c1.26-3.79,2.92-4.54,9.64-3.86-3.56.12-8.66,2.19-9.64,3.86Z"/>
        <path class="cls-23" d="M695.77,33.8c2.59,6.11,2.07,10.32-4.88,12.91,4.79-4.22,5.67-7.96,4.88-12.91Z"/>
        <path class="cls-23" d="M653.29,57.5c4.56-9.43,10.15-9.18,20-11.09,11.06-2.6,14.36-5.39,12.36-15.45,6.54,9.26,2.6,11.28-5.61,17.08,4.27-.28,7.79-2.49,8.58-3.55-5.84,6.22-10.79,7.39-15.32,8.4-4.53,1.01-11.06,2.28-14.74,6.34,6.42-7.49,14.88-8.45,17.18-10.29-9.08,2.22-17.4.97-22.45,8.56Z"/>
        <path class="cls-23" d="M663.12,64.36c5.65-13.62,27.49-6.73,36.31-20.41-2.32,16.5-32.2,10.22-36.31,20.41Z"/>
      </g>
      <text class="cls-2" transform="translate(688.37 114.44)"><tspan class="cls-33" x="0" y="0">V</tspan><tspan x="5.16" y="0">AN</tspan><tspan class="cls-29" x="16.76" y="0">C</tspan><tspan x="21.57" y="0">OUVER </tspan></text>
      <g>
        <path class="cls-4" d="M640.53,121.06v-3.21h13.16v3.21h-4.74v14.68h-3.63v-14.68h-4.79Z"/>
        <path class="cls-4" d="M655.98,135.74v-17.9h11.58v3.16h-7.95v4.18h6.37v3.1h-6.37v4.29h7.95v3.16h-11.58Z"/>
        <path class="cls-4" d="M670.56,135.74v-26.84s4.47,19.89,13.66,12.92l5.03-3.98v17.9h-3.63v-8.95l-3.47,7.28c-.26.54-.8.88-1.4.88h-1.59c-.65,0-1.24-.37-1.53-.96l-3.44-7.2v8.95h-3.63Z"/>
        <path class="cls-4" d="M699.72,130.53h-2.95v5.21h-3.63v-17.9h6.58c4.25,0,6.37,2.07,6.37,6.21,0,2.09-.54,3.69-1.62,4.8s-2.66,1.67-4.75,1.67ZM696.77,127.43h2.92c1.81,0,2.71-1.12,2.71-3.37,0-1.11-.22-1.9-.66-2.38-.44-.48-1.12-.72-2.05-.72h-2.92v6.47Z"/>
        <path class="cls-4" d="M708.64,135.74v-17.9h11.58v3.16h-7.95v4.18h6.37v3.1h-6.37v4.29h7.95v3.16h-11.58Z"/>
        <path class="cls-4" d="M728.72,120.69c-1.91,0-2.87.63-2.87,1.9,0,.56.24.99.71,1.29.47.3,1.58.73,3.33,1.29,1.75.56,2.97,1.2,3.67,1.91s1.05,1.8,1.05,3.28c0,1.88-.57,3.3-1.71,4.26-1.14.97-2.63,1.45-4.47,1.45-1.37,0-3.04-.21-5.03-.63l-.95-.18.37-2.82c2.35.32,4.15.47,5.39.47,1.86,0,2.79-.77,2.79-2.32,0-.56-.22-1-.65-1.32-.43-.32-1.29-.66-2.57-1.03-2.04-.58-3.47-1.27-4.3-2.07-.83-.8-1.25-1.91-1.25-3.33,0-1.79.54-3.12,1.63-4,1.09-.88,2.58-1.32,4.47-1.32,1.3,0,2.95.18,4.95.53l.95.18-.29,2.87c-2.47-.28-4.22-.42-5.24-.42Z"/>
        <path class="cls-4" d="M735.93,121.06v-3.21h13.16v3.21h-4.74v14.68h-3.63v-14.68h-4.79Z"/>
      </g>
      <path class="cls-24" d="M207.76,82.09c2.47-2.18.04-7.84,6.65-8.4-1.9.95-1.98,4.13.76,3.62.48-.09.92-.32,1.29-.63,2.43-2.07,3.23-3.92,3.91-4.68.93-1.32,2.44-2.44,3.29-2.49-1.57.74-1.37,2.53.3,2.18,2.55-.76,4.04-2.57,3.8-4.16-.79-1.47-1.8-1.57-3.36-.42,3.67-4.4,6.5-5.12,8.16-2.64,3.8,9.35-20.98,19.09-24.81,17.62Z"/>
      <path class="cls-11" d="M197.56,53.88c-.4.21-3.3,1.9-3.02,2.19,4.38,4.47,4.91,1.95,7.6,10.25,1.48,4.72,4.32,7.62,6.25,7.75.15,0,.74-.14.89-.2,6.92-2.74,16.18-8.76,18.72-10.98.32-.28.24-1.55.13-1.92-.69-2.3-1.93-3.67-3.93-3.33-2.85.88-6.59,2.49-9.65,2.36-.12,0-.24-.03-.34-.08-7.15-2.89-4.68-5.42-6.82-8.33-.2-.27-.85-1.17-1.22-1.11-3.18.55-5.49,1.74-8.61,3.39Z"/>
      <path class="cls-24" d="M234.11,53.72l23.06.13-7.98,18.54c-4.67,6-12.81,11.63-16.18,12.77,6.03-.78,11.14-3.53,12.78-5.37,0,0-11.98,27.86-14.32,32.36-2.34,4.51-7.35,8.88-10.54-.06l-1.14-4.06c4.99-.9,6.61-.66,9.06-3.19-6.84,1.24-10.67,1.45-13.06-6.21,8.12-2.16,14.51-5.48,16.15-7.44-10.8,3.76-16.82,3.96-18.33,3.95l-4.34-10.92c30.27-5.27,33.3-28.42,24.85-30.5Z"/>
      <g>
        <path class="cls-10" d="M197.76,43.21c5.26-1.13,5.3,4.09,3.27,5.25-9.54,5.24-14.71-5.51-10.67-10.38-6.32-.52-11.34,1.49-11.7,1.85,6.48-14.42,18.77-13.5,19.07-13.38,1.94-6.38,6.61-8.34,12.51-8.23,2.41-6.44,6.96-7.16,11.93-7.16,8.68-10.53,22.74-4.11,24.64,1.09,9.81,1.17,11.18,7.55,10.47,11.63,11.86,4.99,5.9,21.04-5.23,20.51-3.01,4.93.78,7.02,4.5,7.24-5.62-.97-13.6,2.02-6.61-9,15.45.49,13.04-16.31,4.86-17.63,1.58-5.94-2.28-10.69-9.29-10.46-4.94-10.74-20.1-7.44-22.24-.76-6.42-2.04-12.27,3.3-11.59,7.03-7.64-2.14-13.12,4.66-12.1,8.11-7.02-.84-13.92,1.94-17.59,7.94,3.68-.97,10.81-1.09,12.17-.19-4.66,4.41-2.39,9.4,1.03,10.74,1.33.52,2.9.31,3.92-.69,1.18-1.17,1.22-2.88-1.36-3.51Z"/>
        <path class="cls-15" d="M225.75,27.38c-4.87-4.06-12.1.07-12.04,2.56-5.43-3.67-8.54-1.85-10.85,1.09-1.14-8.93,9.77-8.98,11.07-5.35.73-.32,1.41-.55,1.41-.55-1.14-7.01,1.74-11.65,9.21-7.47,1.57-11.2,17.91-8.05,17.47-.53-4.87-8.25-12.44-3.77-13.17-1.62,6.95-1.59,11.42,2.19,8.6,7.28-2.27-4.92-7.53-5.25-11.37-2.36,4.07,1.29,5.88,4.23,5.94,5.98,3.33-.46,4.92,1.29,5.09,1.52,8.64-4.19,12.95,5.41,10.53,11.8-1.14-9.21-5.38-10.62-8.61-10.11.51,1.7,0,3.96-.33,4.86-1.53-5.65-5.21-7.17-6.91-6.72-1.42-7.52-14.09-7.84-15.44-2.98,4.18-1.31,8.31-.46,9.39,2.59Z"/>
        <path class="cls-15" d="M241.29,21.14c2.99-6,11.53-.3,7.64,5.81,1.18-6.62-4.31-7.46-7.64-5.81Z"/>
        <path class="cls-15" d="M252.94,28.81c6.11,2.59,3.57,9.04-1.23,9.78,4.48-3.49,3.5-7.01,1.23-9.78Z"/>
        <path class="cls-15" d="M227.5,30.71c-4.58-4.18-11.03-1.68-12.15,4.6-.85-1.41-3.68-2.26-5.99-1.86-1.02-.79-3.39-1.8-6.58.03-1.61-1.56-8.91-3.34-14.16.34,1.13-.4,5.48-1.14,10.75,2.93-2.03.74-5.82,3.12-3.55,6.99-.06-.92.61-6.14,5.36-4.79,1.06-8.09,13.36-4.48,10.86.83-5.24-3.64-8.26-2.31-10.74,2.39,1.18-1.92,5.48-2.1,7.35-1.25,1.58.68,7.35,2.93,12.6,2.79,7.28-1.9,10.97-7.91,6.27-12.99ZM216.04,40.68c4.8-3.12,5.19-5.15,2.03-7.52,11.18-6.8,13.53,12.59-2.03,7.52Z"/>
        <path class="cls-15" d="M203.95,48.89c1.24-3.73,2.88-4.47,9.49-3.8-3.5.12-8.53,2.16-9.49,3.8Z"/>
        <path class="cls-15" d="M241.3,34.82c2.55,6.02,2.04,10.17-4.81,12.72,4.72-4.16,5.59-7.84,4.81-12.72Z"/>
        <path class="cls-15" d="M199.46,58.18c4.49-9.29,10-9.04,19.7-10.92,10.89-2.56,14.14-5.31,12.17-15.22,6.45,9.12,2.56,11.12-5.53,16.83,4.2-.27,7.68-2.46,8.45-3.49-5.75,6.13-10.63,7.28-15.09,8.27s-10.89,2.25-14.52,6.25c6.32-7.38,14.66-8.32,16.92-10.14-8.94,2.19-17.14.96-22.11,8.43Z"/>
        <path class="cls-15" d="M209.15,64.93c5.57-13.42,27.08-6.63,35.76-20.11-2.29,16.26-31.71,10.07-35.76,20.11Z"/>
      </g>
      <text class="cls-1" transform="translate(234.23 114.51)"><tspan class="cls-40" x="0" y="0">V</tspan><tspan x="5.08" y="0">AN</tspan><tspan class="cls-26" x="16.51" y="0">C</tspan><tspan class="cls-37" x="21.25" y="0">OUVER </tspan></text>
      <g>
        <path class="cls-4" d="M187.11,121.03v-3.16h12.96v3.16h-4.67v14.46h-3.58v-14.46h-4.72Z"/>
        <path class="cls-4" d="M202.33,135.49v-17.63h11.41v3.11h-7.83v4.12h6.27v3.06h-6.27v4.23h7.83v3.11h-11.41Z"/>
        <path class="cls-4" d="M216.69,135.49v-26.43s4.4,19.59,13.45,12.73l4.95-3.92v17.63h-3.58v-8.81l-3.42,7.17c-.25.53-.79.87-1.38.87h-1.57c-.64,0-1.23-.37-1.5-.95l-3.38-7.09v8.81h-3.58Z"/>
        <path class="cls-4" d="M245.41,130.36h-2.9v5.13h-3.58v-17.63h6.48c4.18,0,6.27,2.04,6.27,6.12,0,2.06-.53,3.63-1.59,4.73s-2.62,1.65-4.68,1.65ZM242.5,127.3h2.88c1.78,0,2.67-1.11,2.67-3.32,0-1.09-.22-1.87-.65-2.35-.43-.48-1.11-.71-2.02-.71h-2.88v6.38Z"/>
        <path class="cls-4" d="M254.2,135.49v-17.63h11.41v3.11h-7.83v4.12h6.27v3.06h-6.27v4.23h7.83v3.11h-11.41Z"/>
        <path class="cls-4" d="M273.97,120.67c-1.88,0-2.83.62-2.83,1.87,0,.55.23.98.7,1.27.47.29,1.56.72,3.28,1.27,1.72.55,2.92,1.18,3.62,1.88s1.04,1.78,1.04,3.23c0,1.85-.56,3.25-1.68,4.2-1.12.95-2.59,1.43-4.41,1.43-1.35,0-3-.21-4.95-.62l-.93-.18.36-2.77c2.32.31,4.09.47,5.31.47,1.83,0,2.75-.76,2.75-2.28,0-.55-.21-.99-.64-1.3-.42-.31-1.27-.65-2.53-1.01-2.01-.57-3.42-1.25-4.24-2.04-.82-.79-1.23-1.88-1.23-3.28,0-1.76.54-3.08,1.61-3.94,1.07-.86,2.54-1.3,4.41-1.3,1.28,0,2.9.17,4.87.52l.93.18-.28,2.83c-2.44-.28-4.16-.42-5.16-.42Z"/>
        <path class="cls-4" d="M281.08,121.03v-3.16h12.96v3.16h-4.67v14.46h-3.58v-14.46h-4.72Z"/>
      </g>
      <g>
        <rect class="cls-3" x="318.74" y=".27" width="127.6" height="141.34"/>
        <path class="cls-21" d="M358.17,81.96c2.48-2.19.04-7.88,6.69-8.45-1.91.96-1.99,4.15.76,3.64.48-.09.93-.32,1.3-.64,2.44-2.08,3.25-3.94,3.93-4.7.94-1.33,2.46-2.45,3.3-2.5-1.58.75-1.38,2.55.31,2.19,2.56-.77,4.06-2.59,3.83-4.18-.79-1.48-1.81-1.58-3.38-.43,3.69-4.43,6.53-5.15,8.2-2.66,3.82,9.4-21.1,19.2-24.95,17.72Z"/>
        <path class="cls-9" d="M347.91,53.59c-.4.21-3.32,1.91-3.03,2.2,4.4,4.5,4.94,1.96,7.64,10.31,1.49,4.74,4.34,7.67,6.28,7.79.15,0,.74-.14.89-.2,6.96-2.75,16.27-8.81,18.83-11.04.32-.28.24-1.56.13-1.93-.69-2.31-1.94-3.69-3.96-3.35-2.87.88-6.63,2.5-9.7,2.38-.12,0-.24-.03-.35-.08-7.19-2.9-4.7-5.45-6.86-8.38-.2-.28-.86-1.18-1.23-1.12-3.2.55-5.52,1.74-8.66,3.41Z"/>
        <path class="cls-21" d="M384.67,53.43l23.19.13-8.03,18.65c-4.7,6.03-12.88,11.7-16.27,12.84,6.06-.78,11.21-3.55,12.85-5.4,0,0-12.04,28.01-14.4,32.55-2.36,4.53-7.39,8.93-10.6-.06l-1.14-4.08c5.02-.9,6.65-.66,9.11-3.21-6.88,1.24-10.73,1.45-13.13-6.25,8.17-2.17,14.6-5.51,16.24-7.48-10.86,3.78-16.92,3.98-18.43,3.97l-4.37-10.98c30.44-5.3,33.49-28.58,24.99-30.67Z"/>
        <g>
          <path class="cls-17" d="M348.11,42.85c5.29-1.14,5.33,4.11,3.29,5.28-9.59,5.27-14.79-5.54-10.73-10.44-6.36-.53-11.41,1.5-11.76,1.86,6.52-14.51,18.88-13.57,19.17-13.45,1.95-6.42,6.64-8.39,12.59-8.28,2.43-6.48,7-7.2,11.99-7.21,8.73-10.59,22.87-4.13,24.78,1.1,9.86,1.18,11.24,7.59,10.53,11.69,11.93,5.02,5.93,21.16-5.26,20.63-3.03,4.96.78,7.06,4.53,7.28-5.65-.97-13.68,2.03-6.65-9.05,15.54.49,13.11-16.41,4.89-17.73,1.59-5.98-2.29-10.75-9.35-10.52-4.96-10.81-20.21-7.49-22.36-.77-6.46-2.05-12.34,3.32-11.66,7.07-7.69-2.15-13.2,4.68-12.17,8.15-7.06-.84-14,1.95-17.69,7.99,3.7-.97,10.87-1.1,12.23-.19-4.68,4.43-2.41,9.45,1.04,10.8,1.34.52,2.92.32,3.94-.7,1.19-1.18,1.23-2.9-1.37-3.53Z"/>
          <path class="cls-14" d="M376.26,26.94c-4.89-4.09-12.17.07-12.11,2.57-5.46-3.69-8.59-1.87-10.91,1.09-1.15-8.98,9.82-9.04,11.14-5.38.74-.32,1.42-.55,1.42-.55-1.15-7.05,1.75-11.71,9.26-7.52,1.58-11.26,18.01-8.1,17.57-.53-4.9-8.29-12.51-3.79-13.25-1.63,6.99-1.6,11.49,2.2,8.65,7.32-2.28-4.94-7.57-5.28-11.43-2.37,4.1,1.3,5.92,4.26,5.98,6.02,3.35-.46,4.95,1.3,5.12,1.53,8.69-4.22,13.03,5.44,10.59,11.87-1.15-9.27-5.42-10.68-8.66-10.17.51,1.7,0,3.98-.33,4.89-1.54-5.68-5.24-7.21-6.95-6.76-1.43-7.56-14.17-7.88-15.53-2.99,4.21-1.31,8.36-.47,9.44,2.6Z"/>
          <path class="cls-14" d="M391.89,20.66c3.01-6.03,11.6-.3,7.68,5.85,1.19-6.65-4.33-7.5-7.68-5.85Z"/>
          <path class="cls-14" d="M403.61,28.38c6.14,2.61,3.59,9.09-1.24,9.84,4.51-3.51,3.52-7.05,1.24-9.84Z"/>
          <path class="cls-14" d="M378.03,30.29c-4.61-4.2-11.09-1.69-12.22,4.62-.85-1.42-3.7-2.27-6.03-1.87-1.02-.79-3.41-1.81-6.62.03-1.62-1.57-8.96-3.36-14.24.34,1.14-.4,5.51-1.14,10.81,2.94-2.05.74-5.85,3.13-3.57,7.03-.06-.93.62-6.18,5.39-4.82,1.07-8.13,13.43-4.51,10.92.84-5.27-3.66-8.3-2.32-10.8,2.4,1.19-1.93,5.51-2.11,7.39-1.26,1.59.68,7.4,2.95,12.67,2.81,7.32-1.91,11.03-7.95,6.3-13.06ZM366.5,40.31c4.83-3.13,5.22-5.18,2.04-7.56,11.25-6.84,13.61,12.66-2.04,7.56Z"/>
          <path class="cls-14" d="M354.34,48.57c1.25-3.75,2.89-4.5,9.55-3.82-3.52.12-8.58,2.17-9.55,3.82Z"/>
          <path class="cls-14" d="M391.9,34.42c2.57,6.05,2.05,10.23-4.83,12.79,4.74-4.18,5.62-7.89,4.83-12.79Z"/>
          <path class="cls-14" d="M349.83,57.91c4.52-9.34,10.06-9.09,19.82-10.98,10.96-2.57,14.22-5.34,12.24-15.31,6.48,9.18,2.57,11.18-5.56,16.92,4.23-.27,7.72-2.47,8.5-3.51-5.78,6.17-10.69,7.32-15.17,8.32-4.49,1-10.96,2.26-14.6,6.28,6.36-7.42,14.74-8.37,17.02-10.2-8.99,2.2-17.24.96-22.24,8.48Z"/>
          <path class="cls-22" d="M359.56,64.7c5.6-13.5,27.23-6.66,35.97-20.22-2.3,16.35-31.89,10.13-35.97,20.22Z"/>
        </g>
        <text class="cls-7" transform="translate(383.85 114.1)"><tspan class="cls-35" x="0" y="0">V</tspan><tspan class="cls-38" x="5.11" y="0">AN</tspan><tspan class="cls-30" x="16.6" y="0">C</tspan><tspan x="21.37" y="0">OUVER </tspan></text>
        <g>
          <path class="cls-32" d="M336.46,120.65v-3.18h13.03v3.18h-4.69v14.55h-3.6v-14.55h-4.74Z"/>
          <path class="cls-32" d="M351.76,135.2v-17.73h11.47v3.13h-7.87v4.15h6.31v3.08h-6.31v4.25h7.87v3.13h-11.47Z"/>
          <path class="cls-32" d="M366.21,135.2v-26.59s4.43,19.7,13.53,12.8l4.98-3.94v17.73h-3.6v-8.86l-3.44,7.21c-.25.53-.79.87-1.38.87h-1.58c-.65,0-1.23-.37-1.51-.95l-3.4-7.13v8.86h-3.6Z"/>
          <path class="cls-32" d="M395.09,130.03h-2.92v5.16h-3.6v-17.73h6.52c4.21,0,6.31,2.05,6.31,6.15,0,2.07-.53,3.65-1.6,4.76s-2.64,1.66-4.71,1.66ZM392.17,126.96h2.89c1.79,0,2.68-1.11,2.68-3.34,0-1.09-.22-1.88-.65-2.36-.43-.48-1.11-.72-2.03-.72h-2.89v6.41Z"/>
          <path class="cls-32" d="M403.93,135.2v-17.73h11.47v3.13h-7.87v4.15h6.31v3.08h-6.31v4.25h7.87v3.13h-11.47Z"/>
          <path class="cls-32" d="M423.82,120.28c-1.89,0-2.84.63-2.84,1.88,0,.56.23.98.7,1.28.47.3,1.57.72,3.3,1.28,1.73.56,2.94,1.19,3.64,1.89s1.04,1.79,1.04,3.25c0,1.86-.56,3.27-1.69,4.22-1.13.96-2.61,1.43-4.43,1.43-1.35,0-3.01-.21-4.98-.63l-.94-.18.36-2.79c2.33.31,4.11.47,5.34.47,1.84,0,2.76-.76,2.76-2.29,0-.56-.21-.99-.64-1.3-.43-.31-1.27-.65-2.54-1.02-2.02-.57-3.44-1.26-4.26-2.05-.83-.79-1.24-1.89-1.24-3.3,0-1.77.54-3.09,1.62-3.96,1.08-.87,2.55-1.3,4.43-1.3,1.29,0,2.92.17,4.9.52l.94.18-.29,2.84c-2.45-.28-4.18-.42-5.19-.42Z"/>
          <path class="cls-32" d="M430.96,120.65v-3.18h13.03v3.18h-4.69v14.55h-3.6v-14.55h-4.74Z"/>
        </g>
      </g>
      <text class="cls-6" transform="translate(76.63 113.72)"><tspan class="cls-36" x="0" y="0">V</tspan><tspan class="cls-31" x="5.35" y="0">AN</tspan><tspan class="cls-27" x="17.38" y="0">C</tspan><tspan x="22.37" y="0">OUVER </tspan></text>
      <g>
        <path class="cls-4" d="M27.03,120.58v-3.33h13.64v3.33h-4.91v15.23h-3.77v-15.23h-4.97Z"/>
        <path class="cls-4" d="M43.05,135.8v-18.56h12.01v3.27h-8.24v4.34h6.6v3.22h-6.6v4.45h8.24v3.27h-12.01Z"/>
        <path class="cls-4" d="M58.16,135.8v-27.83s4.64,20.62,14.16,13.4l5.21-4.13v18.56h-3.77v-9.28l-3.6,7.55c-.27.56-.83.91-1.45.91h-1.65c-.68,0-1.29-.39-1.58-1l-3.56-7.46v9.28h-3.77Z"/>
        <path class="cls-4" d="M88.4,130.4h-3.06v5.4h-3.77v-18.56h6.82c4.4,0,6.6,2.15,6.6,6.44,0,2.17-.56,3.82-1.68,4.98s-2.76,1.73-4.93,1.73ZM85.34,127.18h3.03c1.87,0,2.81-1.16,2.81-3.49,0-1.15-.23-1.97-.68-2.47-.45-.5-1.16-.75-2.13-.75h-3.03v6.71Z"/>
        <path class="cls-4" d="M97.65,135.8v-18.56h12.01v3.27h-8.24v4.34h6.6v3.22h-6.6v4.45h8.24v3.27h-12.01Z"/>
        <path class="cls-4" d="M118.47,120.19c-1.98,0-2.97.66-2.97,1.97,0,.58.25,1.03.74,1.34.49.31,1.64.76,3.45,1.34,1.81.58,3.08,1.24,3.81,1.98s1.09,1.87,1.09,3.4c0,1.95-.59,3.42-1.77,4.42-1.18,1-2.73,1.5-4.64,1.5-1.42,0-3.16-.22-5.21-.66l-.98-.19.38-2.92c2.44.33,4.3.49,5.59.49,1.93,0,2.89-.8,2.89-2.4,0-.58-.22-1.04-.67-1.36-.45-.33-1.33-.68-2.66-1.06-2.11-.6-3.6-1.31-4.46-2.14-.87-.83-1.3-1.98-1.3-3.45,0-1.86.56-3.24,1.69-4.15,1.13-.91,2.67-1.37,4.64-1.37,1.35,0,3.06.18,5.13.55l.98.19-.3,2.98c-2.57-.29-4.38-.44-5.43-.44Z"/>
        <path class="cls-4" d="M125.95,120.58v-3.33h13.64v3.33h-4.91v15.23h-3.77v-15.23h-4.97Z"/>
      </g>
      <path class="cls-16" d="M48.56,80.73c2.6-2.3.05-8.25,7.01-8.84-2,1-2.08,4.34.8,3.81.5-.09.97-.33,1.36-.67,2.56-2.18,3.4-4.13,4.12-4.92.98-1.39,2.57-2.57,3.46-2.62-1.66.78-1.44,2.67.32,2.29,2.68-.8,4.25-2.71,4.01-4.38-.83-1.55-1.9-1.66-3.54-.45,3.86-4.64,6.84-5.39,8.59-2.78,4,9.84-22.09,20.1-26.12,18.55Z"/>
      <path class="cls-13" d="M37.81,51.04c-.42.22-3.47,2-3.17,2.3,4.61,4.71,5.17,2.05,8,10.8,1.56,4.97,4.55,8.02,6.58,8.15.16.01.78-.14.93-.21,7.29-2.88,17.03-9.22,19.71-11.56.33-.29.25-1.63.14-2.02-.72-2.42-2.03-3.86-4.14-3.51-3,.92-6.94,2.62-10.16,2.49-.12,0-.25-.03-.36-.08-7.53-3.04-4.92-5.7-7.18-8.77-.21-.29-.9-1.24-1.28-1.17-3.34.58-5.78,1.83-9.07,3.57Z"/>
      <path class="cls-16" d="M76.3,50.87l24.27.14-8.4,19.52c-4.91,6.31-13.49,12.24-17.03,13.44,6.35-.82,11.73-3.71,13.45-5.66,0,0-12.61,29.32-15.07,34.07s-7.74,9.35-11.1-.06l-1.2-4.28c5.25-.95,6.96-.69,9.53-3.36-7.2,1.3-11.23,1.52-13.75-6.54,8.55-2.27,15.28-5.77,17-7.83-11.37,3.96-17.71,4.17-19.3,4.16l-4.57-11.49c31.87-5.55,35.05-29.92,26.16-32.11Z"/>
      <path class="cls-16" d="M28.22,74.14c7.53-1.62,7.59,5.86,4.69,7.52-13.66,7.5-21.06-7.88-15.27-14.87-9.05-.75-16.24,2.14-16.74,2.64,9.28-20.65,26.87-19.32,27.3-19.15,2.78-9.14,9.46-11.94,17.92-11.78,3.46-9.22,9.97-10.25,17.07-10.26,12.43-15.08,32.56-5.88,35.27,1.56,14.04,1.67,16,10.81,14.99,16.64,16.98,7.14,8.45,30.13-7.49,29.36-4.32,7.06,1.12,10.05,6.45,10.36-8.04-1.39-19.47,2.89-9.47-12.88,22.12.7,18.67-23.35,6.95-25.24,2.26-8.51-3.26-15.31-13.31-14.97-7.07-15.38-28.77-10.66-31.84-1.09-9.2-2.93-17.57,4.72-16.59,10.07-10.94-3.06-18.79,6.67-17.32,11.61-10.05-1.2-19.92,2.78-25.18,11.37,5.26-1.38,15.47-1.56,17.42-.27-6.67,6.31-3.43,13.46,1.48,15.38,1.91.75,4.16.45,5.61-.99,1.69-1.68,1.75-4.13-1.95-5.02Z"/>
    </g>
  </g>
</svg>