<?xml version="1.0" encoding="UTF-8"?>
<svg id="Layer_2" data-name="Layer 2" xmlns="http://www.w3.org/2000/svg" viewBox="0 0 131.15 123.14">
  <defs>
    <style>
      .cls-1 {
        fill: #eee9d8;
        stroke-width: .52px;
      }

      .cls-1, .cls-2, .cls-3 {
        stroke-miterlimit: 10;
      }

      .cls-1, .cls-3 {
        stroke: #2d2d2d;
      }

      .cls-4 {
        fill: #000;
        stroke-width: 0px;
      }

      .cls-2 {
        stroke: #000;
        stroke-width: .55px;
      }

      .cls-2, .cls-3 {
        fill: #0f4777;
      }

      .cls-3 {
        stroke-width: .49px;
      }
    </style>
  </defs>
  <g id="Layer_1-2" data-name="Layer 1">
    <g>
      <path class="cls-2" d="M43.78,68.86c2.51-2.21.04-7.96,6.76-8.53-1.93.97-2.01,4.19.77,3.68.49-.09.94-.32,1.31-.64,2.47-2.1,3.28-3.98,3.97-4.75.95-1.34,2.48-2.48,3.34-2.52-1.6.75-1.39,2.57.31,2.21,2.59-.77,4.1-2.61,3.86-4.22-.8-1.49-1.83-1.6-3.41-.43,3.73-4.47,6.6-5.2,8.28-2.68,3.85,9.49-21.3,19.38-25.19,17.89Z"/>
      <path class="cls-1" d="M33.42,40.23c-.4.21-3.31,1.9-3.06,2.22,5.46,7.08,5.43,5.18,7.72,10.41,1.5,4.79,4.38,7.74,6.34,7.86.16.01.75-.14.9-.2,7.03-2.78,16.42-8.89,19.01-11.15.32-.28.24-1.58.13-1.95-.7-2.34-1.96-3.72-3.99-3.38-2.89.89-6.69,2.53-9.8,2.4-.12,0-.24-.03-.35-.08-7.26-2.93-4.75-5.5-6.92-8.46-.2-.28-.87-1.19-1.24-1.13-3.23.56-5.57,1.76-8.74,3.44Z"/>
      <path class="cls-2" d="M70.53,40.07l23.41.13-8.11,18.83c-4.74,6.09-13.01,11.81-16.42,12.96,6.12-.79,11.31-3.58,12.97-5.46,0,0-12.16,28.28-14.54,32.85-2.38,4.57-7.46,9.02-10.7-.06l-1.15-4.12c5.06-.91,6.71-.67,9.19-3.24-6.95,1.25-10.83,1.47-13.26-6.31,8.25-2.19,14.74-5.56,16.39-7.55-10.96,3.82-17.08,4.02-18.61,4.01l-4.41-11.08c30.73-5.35,33.8-28.85,25.23-30.96Z"/>
      <g>
        <path class="cls-3" d="M25.8,49.7c6.89-1.48,6.95,5.36,4.29,6.89-12.51,6.87-19.28-7.22-13.99-13.62-8.29-.69-14.87,1.96-15.34,2.42,8.5-18.91,24.61-17.69,25-17.54,2.55-8.37,8.66-10.93,16.41-10.79,3.17-8.45,9.13-9.39,15.64-9.39,11.38-13.81,29.82-5.38,32.31,1.43,12.86,1.53,14.65,9.9,13.73,15.24,15.55,6.54,7.74,27.59-6.86,26.89-3.95,6.47,1.02,9.2,5.91,9.49-7.37-1.27-17.83,2.65-8.67-11.8,20.26.64,17.09-21.39,6.37-23.11,2.07-7.79-2.99-14.02-12.19-13.71-6.47-14.09-26.35-9.76-29.16-1-8.42-2.68-16.09,4.32-15.2,9.22-10.02-2.81-17.2,6.11-15.86,10.63-9.2-1.1-18.25,2.55-23.06,10.42,4.82-1.27,14.17-1.43,15.95-.24-6.11,5.78-3.14,12.33,1.36,14.08,1.75.68,3.81.41,5.14-.91,1.55-1.54,1.6-3.78-1.78-4.6Z"/>
        <path class="cls-3" d="M39.91,35.16c1.26-3.79,2.92-4.54,9.64-3.86-3.56.12-8.66,2.19-9.64,3.86Z"/>
        <path class="cls-3" d="M77.83,20.88c2.59,6.11,2.07,10.32-4.88,12.91,4.79-4.22,5.67-7.96,4.88-12.91Z"/>
        <path class="cls-3" d="M35.36,44.59c4.56-9.43,10.15-9.18,20-11.09,11.06-2.6,14.36-5.39,12.36-15.45,6.54,9.26,2.6,11.28-5.61,17.08,4.27-.28,7.79-2.49,8.58-3.55-5.84,6.22-10.79,7.39-15.32,8.4-4.53,1.01-11.06,2.28-14.74,6.34,6.42-7.49,14.88-8.45,17.18-10.29-9.08,2.22-17.4.97-22.45,8.56Z"/>
        <path class="cls-3" d="M45.19,51.44c5.65-13.62,27.49-6.73,36.31-20.41-2.32,16.5-32.2,10.22-36.31,20.41Z"/>
      </g>
      <g>
        <path class="cls-4" d="M74.39,95.44h1.3l-1.42,6.09h-2.28l-1.42-6.09h1.3l1.06,5.02h.4l1.06-5.02Z"/>
        <path class="cls-4" d="M75.74,101.53l1.37-6.09h2.35l1.37,6.09h-1.24l-.24-1.1h-2.13l-.24,1.1h-1.24ZM78.07,96.46l-.62,2.89h1.67l-.62-2.89h-.43Z"/>
        <path class="cls-4" d="M81.65,101.53v-6.09h2.09l1.47,5.02h.09v-5.02h1.24v6.09h-2.03l-1.52-5.02h-.09v5.02h-1.24Z"/>
        <path class="cls-4" d="M91.71,101.43c-.63.14-1.2.21-1.71.21s-.91-.06-1.22-.19c-.3-.12-.54-.33-.72-.6-.17-.27-.29-.6-.36-.97-.07-.37-.1-.84-.1-1.4,0-1.18.17-2,.5-2.46.33-.46.94-.69,1.83-.69.51,0,1.11.08,1.78.24l-.04.99c-.59-.09-1.08-.13-1.47-.13s-.67.05-.84.16-.29.3-.37.6c-.08.29-.12.79-.12,1.5s.08,1.19.25,1.46.49.41.99.41,1.02-.04,1.57-.12l.03,1.01Z"/>
        <path class="cls-4" d="M96.88,100.88c-.38.5-1.03.76-1.96.76s-1.58-.25-1.96-.76-.57-1.29-.57-2.37.19-1.87.57-2.4c.38-.52,1.03-.78,1.96-.78s1.58.26,1.96.78c.38.52.57,1.32.57,2.4s-.19,1.86-.57,2.37ZM93.93,100.09c.18.31.51.47.99.47s.81-.16.99-.47c.18-.31.26-.84.26-1.58s-.09-1.27-.27-1.61c-.18-.33-.51-.5-.99-.5s-.81.17-.99.5c-.18.33-.27.87-.27,1.61s.09,1.26.26,1.58Z"/>
        <path class="cls-4" d="M99.68,99.49c0,.71.36,1.07,1.08,1.07s1.08-.35,1.08-1.07v-4.06h1.24v4.03c0,.75-.19,1.29-.58,1.64-.38.35-.97.52-1.74.52s-1.36-.17-1.74-.52c-.38-.35-.58-.9-.58-1.64v-4.03h1.24v4.06Z"/>
        <path class="cls-4" d="M107.66,95.44h1.3l-1.42,6.09h-2.28l-1.42-6.09h1.3l1.06,5.02h.4l1.06-5.02Z"/>
        <path class="cls-4" d="M109.76,101.53v-6.09h3.94v1.08h-2.71v1.42h2.17v1.06h-2.17v1.46h2.71v1.08h-3.94Z"/>
        <path class="cls-4" d="M115.96,99.48v2.04h-1.24v-6.09h2.36c1.43,0,2.15.67,2.15,2.01,0,.79-.3,1.38-.9,1.76l.87,2.33h-1.35l-.71-2.04h-1.19ZM117.76,98.16c.14-.18.21-.42.21-.71s-.08-.53-.23-.7c-.15-.17-.37-.26-.66-.26h-1.13v1.93h1.15c.29,0,.51-.09.65-.27Z"/>
      </g>
      <g>
        <path class="cls-4" d="M22.6,108.14v-3.21h13.16v3.21h-4.74v14.68h-3.63v-14.68h-4.79Z"/>
        <path class="cls-4" d="M38.04,122.83v-17.9h11.58v3.16h-7.95v4.18h6.37v3.1h-6.37v4.29h7.95v3.16h-11.58Z"/>
        <path class="cls-4" d="M52.62,122.83v-26.84s4.47,19.89,13.66,12.92l5.03-3.98v17.9h-3.63v-8.95l-3.47,7.28c-.26.54-.8.88-1.4.88h-1.59c-.65,0-1.24-.37-1.53-.96l-3.44-7.2v8.95h-3.63Z"/>
        <path class="cls-4" d="M81.78,117.62h-2.95v5.21h-3.63v-17.9h6.58c4.25,0,6.37,2.07,6.37,6.21,0,2.09-.54,3.69-1.62,4.8-1.08,1.11-2.66,1.67-4.75,1.67ZM78.83,114.51h2.92c1.81,0,2.71-1.12,2.71-3.37,0-1.11-.22-1.9-.66-2.38-.44-.48-1.12-.72-2.05-.72h-2.92v6.47Z"/>
        <path class="cls-4" d="M90.7,122.83v-17.9h11.58v3.16h-7.95v4.18h6.37v3.1h-6.37v4.29h7.95v3.16h-11.58Z"/>
        <path class="cls-4" d="M110.78,107.77c-1.91,0-2.87.63-2.87,1.9,0,.56.24.99.71,1.29.47.3,1.58.73,3.33,1.29,1.75.56,2.97,1.2,3.67,1.91s1.05,1.8,1.05,3.28c0,1.88-.57,3.3-1.71,4.26-1.14.97-2.63,1.45-4.47,1.45-1.37,0-3.04-.21-5.03-.63l-.95-.18.37-2.82c2.35.32,4.15.47,5.39.47,1.86,0,2.79-.77,2.79-2.32,0-.56-.22-1-.65-1.32-.43-.32-1.29-.66-2.57-1.03-2.04-.58-3.47-1.27-4.3-2.07-.83-.8-1.25-1.91-1.25-3.33,0-1.79.54-3.12,1.63-4,1.09-.88,2.58-1.32,4.47-1.32,1.3,0,2.95.18,4.95.53l.95.18-.29,2.87c-2.47-.28-4.22-.42-5.24-.42Z"/>
        <path class="cls-4" d="M117.99,108.14v-3.21h13.16v3.21h-4.74v14.68h-3.63v-14.68h-4.79Z"/>
      </g>
    </g>
  </g>
</svg>